<?xml version="1.0" encoding="utf-8"?>
<!-- Generator: Adobe Illustrator 15.1.0, SVG Export Plug-In . SVG Version: 6.00 Build 0)  -->
<!DOCTYPE svg PUBLIC "-//W3C//DTD SVG 1.1//EN" "http://www.w3.org/Graphics/SVG/1.1/DTD/svg11.dtd">
<svg version="1.1" id="Layer_1" xmlns="http://www.w3.org/2000/svg" xmlns:xlink="http://www.w3.org/1999/xlink" x="0px" y="0px"
	 width="640px" height="480px" viewBox="0 0 640 480" enable-background="new 0 0 640 480" xml:space="preserve">
<rect x="305.222" y="130.5" fill="#FFFFFF" stroke="#000000" stroke-miterlimit="10" width="124.444" height="86.778"/>
<rect x="309.223" y="246.611" fill="#FFFFFF" stroke="#000000" stroke-miterlimit="10" width="124.443" height="86.777"/>
<rect x="465.668" y="246.611" fill="#FFFFFF" stroke="#000000" stroke-miterlimit="10" width="124.443" height="120.499"/>
<rect x="141.222" y="129.333" fill="#FFFFFF" stroke="#000000" stroke-miterlimit="10" width="124.444" height="86.778"/>
<circle fill="#FF00FF" stroke="#000000" stroke-miterlimit="10" cx="180" cy="173.889" r="35"/>
<circle opacity="0.4" fill="#00FFFF" stroke="#000000" stroke-miterlimit="10" cx="391.666" cy="173.889" r="35"/>
<g opacity="0.4">
	<circle fill="#FFFF00" stroke="#000000" stroke-miterlimit="10" cx="350.668" cy="290" r="35"/>
	<circle fill="#39B54A" stroke="#000000" stroke-miterlimit="10" cx="392.889" cy="290" r="35"/>
</g>
<circle fill="#FF00FF" stroke="#000000" stroke-miterlimit="10" cx="506.777" cy="290" r="35"/>
<circle opacity="0.4" fill="#00FFFF" stroke="#000000" stroke-miterlimit="10" cx="549" cy="290" r="35"/>
<g opacity="0.4">
	<circle fill="#FFFF00" stroke="#000000" stroke-miterlimit="10" cx="506.777" cy="321.111" r="35"/>
	<circle fill="#39B54A" stroke="#000000" stroke-miterlimit="10" cx="549" cy="321.111" r="35"/>
</g>
<rect x="465.666" y="132.889" fill="#FFFFFF" stroke="#000000" stroke-miterlimit="10" width="124.444" height="86.777"/>
<g>
	<rect x="272.333" y="159.889" fill="none" width="25.555" height="32.778"/>
	<path d="M284.212,166.299v8.459h8.135v2.16h-8.135v8.531h-2.304v-8.531h-8.135v-2.16h8.135v-8.459H284.212z"/>
</g>
<g>
	<g>
		<line fill="none" stroke="#000000" stroke-miterlimit="10" x1="436.777" y1="176.277" x2="453.521" y2="176.277"/>
		<g>
			<path d="M459.556,176.277c-2.84,1.054-6.363,2.852-8.548,4.756l1.721-4.756l-1.721-4.755
				C453.192,173.427,456.716,175.225,459.556,176.277z"/>
		</g>
	</g>
</g>
<circle fill="#FF00FF" stroke="#000000" stroke-miterlimit="10" cx="508.223" cy="176.723" r="35"/>
<rect x="141.222" y="246.611" fill="#FFFFFF" stroke="#000000" stroke-miterlimit="10" width="124.444" height="86.777"/>
<circle opacity="0.4" fill="#00FFFF" stroke="#000000" stroke-miterlimit="10" cx="552.11" cy="176.278" r="35"/>
<circle fill="#FF00FF" stroke="#000000" stroke-miterlimit="10" cx="183.779" cy="290.445" r="35"/>
<circle opacity="0.63" fill="#00FFFF" stroke="#000000" stroke-miterlimit="10" cx="227.667" cy="290" r="35"/>
<g>
	<rect x="272.333" y="273.611" fill="none" width="25.555" height="32.777"/>
	<path d="M284.212,280.021v8.459h8.135v2.16h-8.135v8.53h-2.304v-8.53h-8.135v-2.16h8.135v-8.459H284.212z"/>
</g>
<rect x="305.222" y="18.222" fill="#FFFFFF" stroke="#000000" stroke-miterlimit="10" width="124.444" height="86.777"/>
<g>
	<g>
		<line fill="none" stroke="#000000" stroke-miterlimit="10" x1="436.777" y1="290" x2="453.521" y2="290"/>
		<g>
			<path d="M459.556,290c-2.84,1.054-6.363,2.852-8.548,4.756l1.721-4.756l-1.721-4.755
				C453.192,287.149,456.716,288.947,459.556,290z"/>
		</g>
	</g>
</g>
<circle fill="#00FFFF" stroke="#000000" stroke-miterlimit="10" cx="391.666" cy="61.611" r="35"/>
<g>
	<g>
		<line fill="none" stroke="#000000" stroke-miterlimit="10" x1="371.445" y1="109.333" x2="371.445" y2="116.631"/>
		<g>
			<path d="M371.445,122.667c-1.055-2.84-2.852-6.363-4.756-8.547l4.756,1.72l4.754-1.72
				C374.295,116.303,372.498,119.827,371.445,122.667z"/>
		</g>
	</g>
</g>
<g>
	<path d="M383.146,118.03l-0.98,2.97h-1.26l3.221-9.441h1.457l3.223,9.441h-1.303l-1.009-2.97H383.146z M386.257,117.078
		l-0.938-2.718c-0.211-0.616-0.35-1.177-0.49-1.723H384.8c-0.14,0.546-0.28,1.134-0.476,1.708l-0.925,2.732H386.257z"/>
	<path d="M390.104,116.434c0-0.869-0.028-1.569-0.056-2.213h1.092l0.07,1.163h0.028c0.49-0.826,1.303-1.303,2.409-1.303
		c1.652,0,2.886,1.387,2.886,3.432c0,2.437-1.499,3.642-3.096,3.642c-0.896,0-1.681-0.393-2.087-1.065h-0.028v3.684h-1.219V116.434z
		 M391.323,118.241c0,0.182,0.015,0.35,0.056,0.504c0.225,0.854,0.967,1.443,1.85,1.443c1.303,0,2.059-1.064,2.059-2.619
		c0-1.345-0.714-2.508-2.017-2.508c-0.841,0-1.64,0.588-1.863,1.513c-0.042,0.154-0.084,0.336-0.084,0.49V118.241z"/>
	<path d="M398.07,116.434c0-0.869-0.028-1.569-0.057-2.213h1.093l0.07,1.163h0.028c0.49-0.826,1.303-1.303,2.408-1.303
		c1.653,0,2.887,1.387,2.887,3.432c0,2.437-1.5,3.642-3.096,3.642c-0.896,0-1.682-0.393-2.088-1.065h-0.027v3.684h-1.219V116.434z
		 M399.289,118.241c0,0.182,0.014,0.35,0.056,0.504c0.224,0.854,0.966,1.443,1.849,1.443c1.303,0,2.06-1.064,2.06-2.619
		c0-1.345-0.715-2.508-2.017-2.508c-0.842,0-1.64,0.588-1.863,1.513c-0.043,0.154-0.084,0.336-0.084,0.49V118.241z"/>
	<path d="M406.035,111.055h1.233V121h-1.233V111.055z"/>
	<path d="M409.788,114.22l1.471,4.006c0.169,0.448,0.337,0.98,0.448,1.387h0.028c0.126-0.406,0.267-0.924,0.435-1.415l1.344-3.978
		h1.303l-1.849,4.833c-0.882,2.326-1.485,3.502-2.325,4.245c-0.616,0.518-1.205,0.728-1.513,0.784l-0.308-1.022
		c0.308-0.098,0.714-0.294,1.078-0.602c0.336-0.267,0.742-0.743,1.037-1.373c0.055-0.126,0.098-0.224,0.098-0.294
		c0-0.07-0.028-0.168-0.098-0.322l-2.494-6.248H409.788z"/>
	<path d="M423.664,119.375c0,0.588,0.027,1.163,0.098,1.625h-1.106l-0.098-0.854h-0.042c-0.379,0.532-1.107,1.009-2.073,1.009
		c-1.373,0-2.073-0.967-2.073-1.947c0-1.639,1.457-2.535,4.076-2.521v-0.14c0-0.546-0.154-1.569-1.541-1.555
		c-0.645,0-1.303,0.182-1.779,0.504l-0.279-0.827c0.561-0.35,1.387-0.588,2.24-0.588c2.074,0,2.578,1.415,2.578,2.76V119.375z
		 M422.474,117.54c-1.345-0.028-2.872,0.21-2.872,1.527c0,0.812,0.533,1.177,1.148,1.177c0.896,0,1.471-0.561,1.668-1.135
		c0.041-0.14,0.056-0.28,0.056-0.392V117.54z"/>
	<path d="M425.649,111.055h1.233V121h-1.233V111.055z"/>
	<path d="M428.953,116.434c0-0.869-0.027-1.569-0.057-2.213h1.094l0.069,1.163h0.028c0.49-0.826,1.303-1.303,2.409-1.303
		c1.653,0,2.886,1.387,2.886,3.432c0,2.437-1.499,3.642-3.096,3.642c-0.896,0-1.682-0.393-2.088-1.065h-0.027v3.684h-1.219V116.434z
		 M430.172,118.241c0,0.182,0.014,0.35,0.057,0.504c0.224,0.854,0.966,1.443,1.849,1.443c1.302,0,2.06-1.064,2.06-2.619
		c0-1.345-0.715-2.508-2.018-2.508c-0.841,0-1.639,0.588-1.863,1.513c-0.042,0.154-0.084,0.336-0.084,0.49V118.241z"/>
	<path d="M436.919,111.055h1.232v4.244h0.028c0.196-0.35,0.504-0.672,0.883-0.882c0.364-0.21,0.798-0.336,1.261-0.336
		c0.91,0,2.367,0.561,2.367,2.886V121h-1.233v-3.894c0-1.093-0.406-2.003-1.568-2.003c-0.799,0-1.415,0.56-1.653,1.218
		c-0.069,0.182-0.084,0.364-0.084,0.588V121h-1.232V111.055z"/>
	<path d="M449.452,119.375c0,0.588,0.028,1.163,0.098,1.625h-1.106l-0.098-0.854h-0.042c-0.378,0.532-1.106,1.009-2.073,1.009
		c-1.373,0-2.073-0.967-2.073-1.947c0-1.639,1.457-2.535,4.076-2.521v-0.14c0-0.546-0.154-1.569-1.541-1.555
		c-0.645,0-1.303,0.182-1.778,0.504l-0.28-0.827c0.56-0.35,1.387-0.588,2.241-0.588c2.073,0,2.577,1.415,2.577,2.76V119.375z
		 M448.262,117.54c-1.345-0.028-2.872,0.21-2.872,1.527c0,0.812,0.532,1.177,1.148,1.177c0.896,0,1.472-0.561,1.667-1.135
		c0.042-0.14,0.057-0.28,0.057-0.392V117.54z"/>
</g>
<rect x="309.223" y="358.722" fill="#FFFFFF" stroke="#000000" stroke-miterlimit="10" width="124.443" height="86.777"/>
<g>
	<circle fill="#FFFF00" stroke="#000000" stroke-miterlimit="10" cx="350.668" cy="402.11" r="35"/>
	<circle fill="#39B54A" stroke="#000000" stroke-miterlimit="10" cx="392.89" cy="402.11" r="35"/>
</g>
<g>
	<g>
		<line fill="none" stroke="#000000" stroke-miterlimit="10" x1="371.445" y1="346.703" x2="371.445" y2="354"/>
		<g>
			<path d="M371.445,340.668c-1.055,2.84-2.852,6.363-4.756,8.547l4.756-1.72l4.754,1.72
				C374.295,347.031,372.498,343.508,371.445,340.668z"/>
		</g>
	</g>
</g>
<g>
	<path d="M383.146,349.364l-0.98,2.97h-1.26l3.221-9.441h1.457l3.223,9.441h-1.303l-1.009-2.97H383.146z M386.257,348.412
		l-0.938-2.718c-0.211-0.616-0.35-1.177-0.49-1.723H384.8c-0.14,0.546-0.28,1.134-0.476,1.708l-0.925,2.732H386.257z"/>
	<path d="M390.104,347.768c0-0.869-0.028-1.568-0.056-2.213h1.092l0.07,1.162h0.028c0.49-0.826,1.303-1.303,2.409-1.303
		c1.652,0,2.886,1.387,2.886,3.432c0,2.438-1.499,3.643-3.096,3.643c-0.896,0-1.681-0.393-2.087-1.064h-0.028v3.684h-1.219V347.768z
		 M391.323,349.574c0,0.183,0.015,0.351,0.056,0.504c0.225,0.855,0.967,1.443,1.85,1.443c1.303,0,2.059-1.064,2.059-2.619
		c0-1.345-0.714-2.508-2.017-2.508c-0.841,0-1.64,0.588-1.863,1.514c-0.042,0.153-0.084,0.336-0.084,0.49V349.574z"/>
	<path d="M398.07,347.768c0-0.869-0.028-1.568-0.057-2.213h1.093l0.07,1.162h0.028c0.49-0.826,1.303-1.303,2.408-1.303
		c1.653,0,2.887,1.387,2.887,3.432c0,2.438-1.5,3.643-3.096,3.643c-0.896,0-1.682-0.393-2.088-1.064h-0.027v3.684h-1.219V347.768z
		 M399.289,349.574c0,0.183,0.014,0.351,0.056,0.504c0.224,0.855,0.966,1.443,1.849,1.443c1.303,0,2.06-1.064,2.06-2.619
		c0-1.345-0.715-2.508-2.017-2.508c-0.842,0-1.64,0.588-1.863,1.514c-0.043,0.153-0.084,0.336-0.084,0.49V349.574z"/>
	<path d="M406.035,342.389h1.233v9.945h-1.233V342.389z"/>
	<path d="M409.788,345.555l1.471,4.006c0.169,0.448,0.337,0.98,0.448,1.387h0.028c0.126-0.406,0.267-0.924,0.435-1.415l1.344-3.978
		h1.303l-1.849,4.832c-0.882,2.326-1.485,3.502-2.325,4.244c-0.616,0.519-1.205,0.729-1.513,0.785l-0.308-1.023
		c0.308-0.098,0.714-0.293,1.078-0.602c0.336-0.267,0.742-0.742,1.037-1.373c0.055-0.126,0.098-0.225,0.098-0.294
		c0-0.07-0.028-0.169-0.098-0.322l-2.494-6.247H409.788z"/>
	<path d="M423.664,350.709c0,0.588,0.027,1.162,0.098,1.625h-1.106l-0.098-0.854h-0.042c-0.379,0.532-1.107,1.009-2.073,1.009
		c-1.373,0-2.073-0.967-2.073-1.947c0-1.639,1.457-2.535,4.076-2.521v-0.141c0-0.545-0.154-1.568-1.541-1.555
		c-0.645,0-1.303,0.183-1.779,0.505l-0.279-0.827c0.561-0.35,1.387-0.588,2.24-0.588c2.074,0,2.578,1.415,2.578,2.76V350.709z
		 M422.474,348.874c-1.345-0.028-2.872,0.21-2.872,1.526c0,0.812,0.533,1.178,1.148,1.178c0.896,0,1.471-0.561,1.668-1.135
		c0.041-0.141,0.056-0.281,0.056-0.393V348.874z"/>
	<path d="M425.649,342.389h1.233v9.945h-1.233V342.389z"/>
	<path d="M428.953,347.768c0-0.869-0.027-1.568-0.057-2.213h1.094l0.069,1.162h0.028c0.49-0.826,1.303-1.303,2.409-1.303
		c1.653,0,2.886,1.387,2.886,3.432c0,2.438-1.499,3.643-3.096,3.643c-0.896,0-1.682-0.393-2.088-1.064h-0.027v3.684h-1.219V347.768z
		 M430.172,349.574c0,0.183,0.014,0.351,0.057,0.504c0.224,0.855,0.966,1.443,1.849,1.443c1.302,0,2.06-1.064,2.06-2.619
		c0-1.345-0.715-2.508-2.018-2.508c-0.841,0-1.639,0.588-1.863,1.514c-0.042,0.153-0.084,0.336-0.084,0.49V349.574z"/>
	<path d="M436.919,342.389h1.232v4.244h0.028c0.196-0.35,0.504-0.672,0.883-0.883c0.364-0.209,0.798-0.336,1.261-0.336
		c0.91,0,2.367,0.561,2.367,2.886v4.034h-1.233v-3.895c0-1.092-0.406-2.002-1.568-2.002c-0.799,0-1.415,0.56-1.653,1.218
		c-0.069,0.183-0.084,0.364-0.084,0.589v4.09h-1.232V342.389z"/>
	<path d="M449.452,350.709c0,0.588,0.028,1.162,0.098,1.625h-1.106l-0.098-0.854h-0.042c-0.378,0.532-1.106,1.009-2.073,1.009
		c-1.373,0-2.073-0.967-2.073-1.947c0-1.639,1.457-2.535,4.076-2.521v-0.141c0-0.545-0.154-1.568-1.541-1.555
		c-0.645,0-1.303,0.183-1.778,0.505l-0.28-0.827c0.56-0.35,1.387-0.588,2.241-0.588c2.073,0,2.577,1.415,2.577,2.76V350.709z
		 M448.262,348.874c-1.345-0.028-2.872,0.21-2.872,1.526c0,0.812,0.532,1.178,1.148,1.178c0.896,0,1.472-0.561,1.667-1.135
		c0.042-0.141,0.057-0.281,0.057-0.393V348.874z"/>
</g>
<circle fill="#FF00FF" stroke="#000000" stroke-miterlimit="10" cx="55.223" cy="38.889" r="35"/>
<circle opacity="0.4" fill="#00FFFF" stroke="#000000" stroke-miterlimit="10" cx="97.445" cy="38.889" r="35"/>
<g opacity="0.4">
	<circle fill="#FFFF00" stroke="#000000" stroke-miterlimit="10" cx="55.223" cy="70" r="35"/>
	<circle fill="#39B54A" stroke="#000000" stroke-miterlimit="10" cx="97.445" cy="70" r="35"/>
</g>
</svg>
