<?xml version="1.0" encoding="utf-8"?>
<!-- Generator: Adobe Illustrator 15.1.0, SVG Export Plug-In . SVG Version: 6.00 Build 0)  -->
<!DOCTYPE svg PUBLIC "-//W3C//DTD SVG 1.1//EN" "http://www.w3.org/Graphics/SVG/1.1/DTD/svg11.dtd">
<svg version="1.1" id="Layer_1" xmlns="http://www.w3.org/2000/svg" xmlns:xlink="http://www.w3.org/1999/xlink" x="0px" y="0px"
	 width="640px" height="480px" viewBox="0 0 640 480" enable-background="new 0 0 640 480" xml:space="preserve">
<rect x="93.222" y="103.242" fill="#FFFFFF" stroke="#000000" stroke-miterlimit="10" width="124.444" height="86.778"/>
<rect x="512.556" y="107.889" fill="#FFFFFF" stroke="#000000" stroke-miterlimit="10" width="124.444" height="86.777"/>
<rect x="93.222" y="219.667" fill="#FFFFFF" stroke="#000000" stroke-miterlimit="10" width="124.444" height="86.778"/>
<rect x="229.665" y="219.668" fill="#FFFFFF" stroke="#000000" stroke-miterlimit="10" width="124.444" height="86.777"/>
<rect x="226.665" y="333.218" fill="#FFFFFF" stroke="#000000" stroke-miterlimit="10" width="124.444" height="86.777"/>
<rect x="376.888" y="219.666" fill="#FFFFFF" stroke="#000000" stroke-miterlimit="10" width="124.443" height="86.777"/>
<circle fill="#FF00FF" stroke="#000000" stroke-miterlimit="10" cx="132" cy="147.797" r="35"/>
<circle fill="#FF00FF" stroke="#000000" stroke-miterlimit="10" cx="553.112" cy="151.723" r="35"/>
<circle fill="#00FFFF" stroke="#000000" stroke-miterlimit="10" cx="602" cy="151.278" r="35"/>
<circle fill="#FF00FF" stroke="#000000" stroke-miterlimit="10" cx="134.333" cy="38.889" r="35"/>
<circle fill="#00FFFF" stroke="#000000" stroke-miterlimit="10" cx="176.555" cy="38.889" r="35"/>
<circle fill="#FF00FF" stroke="#000000" stroke-miterlimit="10" cx="132" cy="264.223" r="35"/>
<circle fill="#FF00FF" stroke="#000000" stroke-miterlimit="10" cx="272.222" cy="263.502" r="35"/>
<circle fill="#00FFFF" stroke="#000000" stroke-miterlimit="10" cx="316.109" cy="263.057" r="35"/>
<circle stroke="#000000" stroke-miterlimit="10" cx="313.109" cy="376.605" r="35"/>
<g>
	<path d="M2.911,380.066c0.546,0.35,1.331,0.616,2.171,0.616c1.247,0,1.975-0.658,1.975-1.611c0-0.868-0.504-1.387-1.779-1.863
		c-1.541-0.56-2.493-1.372-2.493-2.689c0-1.471,1.218-2.562,3.053-2.562c0.953,0,1.667,0.224,2.073,0.462l-0.336,0.994
		c-0.294-0.182-0.925-0.448-1.779-0.448c-1.289,0-1.779,0.771-1.779,1.415c0,0.883,0.574,1.316,1.877,1.821
		c1.597,0.616,2.396,1.387,2.396,2.773c0,1.457-1.065,2.731-3.292,2.731c-0.911,0-1.905-0.28-2.409-0.616L2.911,380.066z"/>
	<path d="M9.924,371.605h1.233v4.244h0.028c0.196-0.351,0.504-0.672,0.882-0.883c0.364-0.21,0.799-0.336,1.261-0.336
		c0.911,0,2.367,0.561,2.367,2.886v4.034h-1.232v-3.895c0-1.092-0.406-2.003-1.569-2.003c-0.798,0-1.415,0.561-1.653,1.219
		c-0.07,0.183-0.084,0.364-0.084,0.589v4.09H9.924V371.605z"/>
	<path d="M22.457,379.926c0,0.589,0.028,1.163,0.098,1.625h-1.107l-0.098-0.854h-0.042c-0.378,0.532-1.107,1.009-2.073,1.009
		c-1.373,0-2.073-0.967-2.073-1.947c0-1.639,1.457-2.535,4.076-2.521v-0.14c0-0.547-0.154-1.569-1.541-1.555
		c-0.645,0-1.303,0.182-1.779,0.504l-0.28-0.826c0.561-0.351,1.387-0.589,2.241-0.589c2.073,0,2.578,1.415,2.578,2.76V379.926z
		 M21.266,378.091c-1.345-0.028-2.871,0.21-2.871,1.527c0,0.812,0.532,1.176,1.148,1.176c0.896,0,1.471-0.56,1.667-1.134
		c0.042-0.141,0.056-0.28,0.056-0.393V378.091z"/>
	<path d="M24.442,376.984c0-0.868-0.028-1.569-0.056-2.213h1.093l0.07,1.162h0.028c0.49-0.826,1.303-1.303,2.409-1.303
		c1.653,0,2.886,1.387,2.886,3.432c0,2.438-1.499,3.643-3.096,3.643c-0.896,0-1.681-0.393-2.087-1.064h-0.028v3.684h-1.219V376.984z
		 M25.661,378.791c0,0.183,0.014,0.351,0.056,0.505c0.224,0.854,0.966,1.442,1.849,1.442c1.303,0,2.06-1.064,2.06-2.619
		c0-1.345-0.715-2.508-2.017-2.508c-0.841,0-1.639,0.589-1.863,1.513c-0.042,0.154-0.084,0.337-0.084,0.49V378.791z"/>
	<path d="M33.095,378.385c0.028,1.667,1.079,2.354,2.325,2.354c0.882,0,1.429-0.154,1.877-0.351l0.224,0.883
		c-0.434,0.196-1.19,0.435-2.269,0.435c-2.087,0-3.334-1.387-3.334-3.432c0-2.046,1.205-3.643,3.18-3.643
		c2.227,0,2.802,1.934,2.802,3.18c0,0.252-0.014,0.435-0.042,0.574H33.095z M36.708,377.503c0.014-0.771-0.322-1.989-1.709-1.989
		c-1.261,0-1.793,1.135-1.891,1.989H36.708z"/>
	<path d="M47.222,381.312c-0.322,0.154-1.036,0.393-1.947,0.393c-2.045,0-3.376-1.387-3.376-3.46c0-2.087,1.429-3.614,3.642-3.614
		c0.729,0,1.373,0.183,1.709,0.364l-0.28,0.938c-0.294-0.154-0.756-0.322-1.429-0.322c-1.555,0-2.396,1.163-2.396,2.563
		c0,1.569,1.009,2.535,2.354,2.535c0.7,0,1.163-0.168,1.513-0.322L47.222,381.312z"/>
	<path d="M48.662,371.605h1.233v4.244h0.028c0.196-0.351,0.504-0.672,0.882-0.883c0.364-0.21,0.799-0.336,1.261-0.336
		c0.911,0,2.367,0.561,2.367,2.886v4.034H53.2v-3.895c0-1.092-0.406-2.003-1.569-2.003c-0.798,0-1.415,0.561-1.653,1.219
		c-0.07,0.183-0.084,0.364-0.084,0.589v4.09h-1.233V371.605z"/>
	<path d="M61.194,379.926c0,0.589,0.028,1.163,0.098,1.625h-1.107l-0.098-0.854h-0.042c-0.378,0.532-1.107,1.009-2.073,1.009
		c-1.373,0-2.073-0.967-2.073-1.947c0-1.639,1.457-2.535,4.076-2.521v-0.14c0-0.547-0.154-1.569-1.541-1.555
		c-0.645,0-1.303,0.182-1.779,0.504l-0.28-0.826c0.561-0.351,1.387-0.589,2.241-0.589c2.073,0,2.578,1.415,2.578,2.76V379.926z
		 M60.003,378.091c-1.345-0.028-2.871,0.21-2.871,1.527c0,0.812,0.532,1.176,1.148,1.176c0.896,0,1.471-0.56,1.667-1.134
		c0.042-0.141,0.056-0.28,0.056-0.393V378.091z"/>
	<path d="M63.18,376.606c0-0.715-0.014-1.275-0.056-1.835h1.093l0.07,1.12h0.028c0.336-0.63,1.121-1.261,2.241-1.261
		c0.938,0,2.395,0.561,2.395,2.886v4.034h-1.232v-3.908c0-1.093-0.406-2.003-1.569-2.003c-0.798,0-1.429,0.574-1.653,1.261
		c-0.056,0.154-0.084,0.364-0.084,0.574v4.076H63.18V376.606z"/>
	<path d="M70.95,376.606c0-0.715-0.014-1.275-0.056-1.835h1.093l0.07,1.12h0.028c0.336-0.63,1.121-1.261,2.241-1.261
		c0.938,0,2.395,0.561,2.395,2.886v4.034h-1.232v-3.908c0-1.093-0.406-2.003-1.569-2.003c-0.798,0-1.429,0.574-1.653,1.261
		c-0.056,0.154-0.084,0.364-0.084,0.574v4.076H70.95V376.606z"/>
	<path d="M79.406,378.385c0.028,1.667,1.079,2.354,2.325,2.354c0.882,0,1.429-0.154,1.877-0.351l0.224,0.883
		c-0.434,0.196-1.19,0.435-2.269,0.435c-2.087,0-3.334-1.387-3.334-3.432c0-2.046,1.205-3.643,3.18-3.643
		c2.227,0,2.802,1.934,2.802,3.18c0,0.252-0.014,0.435-0.042,0.574H79.406z M83.02,377.503c0.014-0.771-0.322-1.989-1.709-1.989
		c-1.261,0-1.793,1.135-1.891,1.989H83.02z"/>
	<path d="M85.733,371.605h1.233v9.945h-1.233V371.605z"/>
	<path d="M88.757,375.892c0-0.519,0.351-0.883,0.827-0.883c0.504,0,0.827,0.364,0.827,0.883c0,0.49-0.322,0.868-0.841,0.868
		C89.093,376.76,88.757,376.382,88.757,375.892z M88.757,380.836c0-0.518,0.351-0.882,0.827-0.882c0.504,0,0.827,0.364,0.827,0.882
		c0,0.491-0.322,0.869-0.841,0.869C89.093,381.705,88.757,381.327,88.757,380.836z"/>
</g>
<g>
	<path d="M4.466,261.57c0.546,0.35,1.331,0.617,2.171,0.617c1.247,0,1.975-0.658,1.975-1.611c0-0.869-0.504-1.387-1.779-1.863
		c-1.541-0.561-2.493-1.373-2.493-2.689c0-1.471,1.218-2.562,3.053-2.562c0.953,0,1.667,0.223,2.073,0.461l-0.336,0.994
		c-0.294-0.182-0.925-0.447-1.779-0.447c-1.289,0-1.779,0.77-1.779,1.414c0,0.883,0.574,1.316,1.877,1.822
		c1.597,0.615,2.396,1.387,2.396,2.773c0,1.457-1.065,2.73-3.292,2.73c-0.911,0-1.905-0.279-2.409-0.615L4.466,261.57z"/>
	<path d="M11.479,253.109h1.233v4.244h0.028c0.196-0.35,0.504-0.672,0.882-0.883c0.364-0.209,0.799-0.336,1.261-0.336
		c0.911,0,2.367,0.561,2.367,2.887v4.033h-1.232v-3.895c0-1.092-0.406-2.002-1.569-2.002c-0.798,0-1.415,0.561-1.653,1.219
		c-0.07,0.182-0.084,0.363-0.084,0.588v4.09h-1.233V253.109z"/>
	<path d="M24.012,261.43c0,0.59,0.028,1.164,0.098,1.625h-1.107l-0.098-0.854h-0.042c-0.378,0.531-1.107,1.008-2.073,1.008
		c-1.373,0-2.073-0.967-2.073-1.947c0-1.639,1.457-2.535,4.076-2.521v-0.139c0-0.547-0.154-1.57-1.541-1.555
		c-0.645,0-1.303,0.182-1.779,0.504l-0.28-0.826c0.561-0.352,1.387-0.59,2.241-0.59c2.073,0,2.578,1.416,2.578,2.76V261.43z
		 M22.821,259.596c-1.345-0.029-2.871,0.209-2.871,1.527c0,0.812,0.532,1.176,1.148,1.176c0.896,0,1.471-0.561,1.667-1.135
		c0.042-0.141,0.056-0.279,0.056-0.393V259.596z"/>
	<path d="M25.998,258.488c0-0.867-0.028-1.568-0.056-2.213h1.093l0.07,1.162h0.028c0.49-0.826,1.303-1.303,2.409-1.303
		c1.653,0,2.886,1.387,2.886,3.432c0,2.438-1.499,3.643-3.096,3.643c-0.896,0-1.681-0.393-2.087-1.064h-0.028v3.684h-1.219V258.488z
		 M27.216,260.295c0,0.184,0.014,0.352,0.056,0.506c0.224,0.854,0.966,1.441,1.849,1.441c1.303,0,2.06-1.064,2.06-2.619
		c0-1.344-0.715-2.508-2.017-2.508c-0.841,0-1.639,0.59-1.863,1.514c-0.042,0.154-0.084,0.336-0.084,0.49V260.295z"/>
	<path d="M34.65,259.889c0.028,1.668,1.079,2.354,2.325,2.354c0.882,0,1.429-0.154,1.877-0.35l0.224,0.883
		c-0.434,0.195-1.19,0.434-2.269,0.434c-2.087,0-3.334-1.387-3.334-3.432s1.205-3.643,3.18-3.643c2.227,0,2.802,1.934,2.802,3.18
		c0,0.252-0.014,0.436-0.042,0.574H34.65z M38.264,259.008c0.014-0.771-0.322-1.99-1.709-1.99c-1.261,0-1.793,1.135-1.891,1.99
		H38.264z"/>
	<path d="M43.553,263.055v-0.756l0.966-0.939c2.326-2.213,3.39-3.389,3.39-4.762c0-0.924-0.435-1.779-1.793-1.779
		c-0.827,0-1.513,0.42-1.933,0.771l-0.392-0.869c0.616-0.518,1.527-0.924,2.563-0.924c1.961,0,2.788,1.344,2.788,2.646
		c0,1.682-1.219,3.039-3.138,4.889l-0.714,0.672v0.029h4.076v1.021H43.553z"/>
	<path d="M50.846,257.396c0-0.52,0.351-0.883,0.827-0.883c0.504,0,0.827,0.363,0.827,0.883c0,0.49-0.322,0.867-0.841,0.867
		C51.183,258.264,50.846,257.887,50.846,257.396z M50.846,262.34c0-0.518,0.351-0.881,0.827-0.881c0.504,0,0.827,0.363,0.827,0.881
		c0,0.492-0.322,0.869-0.841,0.869C51.183,263.209,50.846,262.832,50.846,262.34z"/>
</g>
<g>
	<path d="M7.132,149.459c0.546,0.35,1.331,0.616,2.171,0.616c1.247,0,1.975-0.658,1.975-1.611c0-0.868-0.504-1.387-1.779-1.863
		c-1.541-0.56-2.493-1.372-2.493-2.689c0-1.471,1.218-2.562,3.053-2.562c0.953,0,1.667,0.224,2.073,0.462l-0.336,0.994
		c-0.294-0.182-0.925-0.448-1.779-0.448c-1.289,0-1.779,0.771-1.779,1.415c0,0.883,0.574,1.316,1.877,1.821
		c1.597,0.616,2.396,1.387,2.396,2.773c0,1.457-1.065,2.731-3.292,2.731c-0.911,0-1.905-0.28-2.409-0.616L7.132,149.459z"/>
	<path d="M14.146,140.999h1.233v4.244h0.028c0.196-0.351,0.504-0.672,0.882-0.883c0.364-0.21,0.799-0.336,1.261-0.336
		c0.911,0,2.367,0.561,2.367,2.886v4.034h-1.232v-3.895c0-1.092-0.406-2.003-1.569-2.003c-0.798,0-1.415,0.561-1.653,1.219
		c-0.07,0.183-0.084,0.364-0.084,0.589v4.09h-1.233V140.999z"/>
	<path d="M26.679,149.319c0,0.589,0.028,1.163,0.098,1.625H25.67l-0.098-0.854H25.53c-0.378,0.532-1.107,1.009-2.073,1.009
		c-1.373,0-2.073-0.967-2.073-1.947c0-1.639,1.457-2.535,4.076-2.521v-0.14c0-0.547-0.154-1.569-1.541-1.555
		c-0.645,0-1.303,0.182-1.779,0.504l-0.28-0.826c0.561-0.351,1.387-0.589,2.241-0.589c2.073,0,2.578,1.415,2.578,2.76V149.319z
		 M25.488,147.484c-1.345-0.028-2.871,0.21-2.871,1.527c0,0.812,0.532,1.176,1.148,1.176c0.896,0,1.471-0.56,1.667-1.134
		c0.042-0.141,0.056-0.28,0.056-0.393V147.484z"/>
	<path d="M28.664,146.377c0-0.868-0.028-1.569-0.056-2.213h1.093l0.07,1.162h0.028c0.49-0.826,1.303-1.303,2.409-1.303
		c1.653,0,2.886,1.387,2.886,3.432c0,2.438-1.499,3.643-3.096,3.643c-0.896,0-1.681-0.393-2.087-1.064h-0.028v3.684h-1.219V146.377z
		 M29.883,148.184c0,0.183,0.014,0.351,0.056,0.505c0.224,0.854,0.966,1.442,1.849,1.442c1.303,0,2.06-1.064,2.06-2.619
		c0-1.345-0.715-2.508-2.017-2.508c-0.841,0-1.639,0.589-1.863,1.513c-0.042,0.154-0.084,0.337-0.084,0.49V148.184z"/>
	<path d="M37.316,147.778c0.028,1.667,1.079,2.354,2.325,2.354c0.882,0,1.429-0.154,1.877-0.351l0.224,0.883
		c-0.434,0.196-1.19,0.435-2.269,0.435c-2.087,0-3.334-1.387-3.334-3.432c0-2.046,1.205-3.643,3.18-3.643
		c2.227,0,2.802,1.934,2.802,3.18c0,0.252-0.014,0.435-0.042,0.574H37.316z M40.93,146.896c0.014-0.771-0.322-1.989-1.709-1.989
		c-1.261,0-1.793,1.135-1.891,1.989H40.93z"/>
	<path d="M48.895,142.988h-0.028l-1.583,0.854l-0.238-0.938l1.989-1.064h1.051v9.104h-1.191V142.988z"/>
	<path d="M53.513,145.285c0-0.519,0.351-0.883,0.827-0.883c0.504,0,0.827,0.364,0.827,0.883c0,0.49-0.322,0.868-0.841,0.868
		C53.849,146.153,53.513,145.775,53.513,145.285z M53.513,150.229c0-0.518,0.351-0.882,0.827-0.882c0.504,0,0.827,0.364,0.827,0.882
		c0,0.491-0.322,0.869-0.841,0.869C53.849,151.098,53.513,150.72,53.513,150.229z"/>
</g>
<g>
</g>
<circle fill="#00FFFF" stroke="#000000" stroke-miterlimit="10" cx="463.331" cy="263.055" r="35"/>
<path fill="#0000FF" stroke="#000000" stroke-miterlimit="10" d="M429.054,262.833c0,11.148,5.219,21.072,13.34,27.481
	c7.799-6.419,12.773-16.146,12.773-27.036c0-11.148-5.219-21.072-13.34-27.481C434.028,242.216,429.054,251.943,429.054,262.833z"/>
<line fill="none" stroke="#000000" stroke-miterlimit="10" x1="429.055" y1="219.666" x2="429.055" y2="151.723"/>
<g>
	<g>
		<line fill="none" stroke="#000000" stroke-miterlimit="10" x1="358.335" y1="263.502" x2="367.855" y2="263.23"/>
		<g>
			<path d="M373.888,263.058c-2.809,1.135-6.279,3.032-8.408,4.998l1.584-4.803l-1.855-4.704
				C367.445,260.39,371.019,262.086,373.888,263.058z"/>
		</g>
	</g>
</g>
<line fill="none" stroke="#000000" stroke-miterlimit="10" x1="358.335" y1="370.439" x2="358.335" y2="263.502"/>
<line fill="none" stroke="#000000" stroke-miterlimit="10" x1="358.335" y1="370.439" x2="354.109" y2="370.439"/>
<g>
	<path d="M407.095,144.257c-0.435,0.224-1.345,0.448-2.493,0.448c-2.662,0-4.651-1.681-4.651-4.791c0-2.969,2.004-4.958,4.931-4.958
		c1.163,0,1.919,0.252,2.241,0.42l-0.308,0.994c-0.448-0.224-1.106-0.392-1.892-0.392c-2.213,0-3.684,1.415-3.684,3.894
		c0,2.325,1.331,3.796,3.614,3.796c0.756,0,1.513-0.154,2.003-0.393L407.095,144.257z"/>
	<path d="M414.57,141.105c0,2.507-1.751,3.6-3.376,3.6c-1.821,0-3.25-1.345-3.25-3.488c0-2.255,1.499-3.586,3.362-3.586
		C413.253,137.631,414.57,139.046,414.57,141.105z M409.205,141.175c0,1.485,0.841,2.605,2.045,2.605c1.177,0,2.06-1.106,2.06-2.633
		c0-1.148-0.574-2.591-2.031-2.591C409.835,138.556,409.205,139.9,409.205,141.175z"/>
	<path d="M416.12,139.606c0-0.714-0.028-1.274-0.056-1.835h1.078l0.057,1.107h0.042c0.378-0.645,1.008-1.247,2.143-1.247
		c0.911,0,1.611,0.561,1.905,1.359h0.028c0.21-0.392,0.49-0.672,0.771-0.882c0.406-0.308,0.84-0.477,1.484-0.477
		c0.91,0,2.241,0.588,2.241,2.942v3.978h-1.205v-3.824c0-1.316-0.49-2.087-1.471-2.087c-0.714,0-1.246,0.518-1.471,1.106
		c-0.056,0.182-0.098,0.392-0.098,0.616v4.188h-1.205v-4.062c0-1.079-0.476-1.849-1.414-1.849c-0.757,0-1.331,0.616-1.527,1.232
		c-0.07,0.168-0.098,0.393-0.098,0.603v4.076h-1.205V139.606z"/>
	<path d="M427.796,139.984c0-0.869-0.028-1.569-0.056-2.213h1.093l0.069,1.163h0.028c0.49-0.826,1.303-1.303,2.409-1.303
		c1.653,0,2.886,1.387,2.886,3.432c0,2.437-1.499,3.642-3.096,3.642c-0.896,0-1.681-0.393-2.087-1.065h-0.028v3.684h-1.219V139.984z
		 M429.015,141.792c0,0.182,0.014,0.35,0.056,0.504c0.225,0.854,0.967,1.443,1.85,1.443c1.303,0,2.059-1.064,2.059-2.619
		c0-1.345-0.714-2.508-2.017-2.508c-0.841,0-1.639,0.588-1.863,1.513c-0.042,0.154-0.084,0.336-0.084,0.49V141.792z"/>
	<path d="M441.898,141.105c0,2.507-1.751,3.6-3.376,3.6c-1.821,0-3.25-1.345-3.25-3.488c0-2.255,1.499-3.586,3.362-3.586
		C440.581,137.631,441.898,139.046,441.898,141.105z M436.533,141.175c0,1.485,0.841,2.605,2.045,2.605
		c1.177,0,2.06-1.106,2.06-2.633c0-1.148-0.574-2.591-2.031-2.591C437.163,138.556,436.533,139.9,436.533,141.175z"/>
	<path d="M443.28,143.304c0.378,0.224,1.022,0.476,1.639,0.476c0.883,0,1.303-0.434,1.303-1.008c0-0.588-0.35-0.896-1.246-1.233
		c-1.233-0.448-1.808-1.106-1.808-1.919c0-1.093,0.896-1.989,2.34-1.989c0.686,0,1.288,0.182,1.652,0.42l-0.294,0.896
		c-0.267-0.168-0.757-0.406-1.387-0.406c-0.729,0-1.121,0.42-1.121,0.924c0,0.561,0.393,0.812,1.275,1.163
		c1.162,0.434,1.778,1.022,1.778,2.031c0,1.205-0.938,2.045-2.521,2.045c-0.742,0-1.429-0.196-1.904-0.477L443.28,143.304z"/>
	<path d="M450.364,135.866c0,0.42-0.294,0.756-0.784,0.756c-0.448,0-0.743-0.336-0.743-0.756c0-0.42,0.309-0.771,0.771-0.771
		C450.056,135.096,450.364,135.432,450.364,135.866z M448.991,144.551v-6.78h1.232v6.78H448.991z"/>
	<path d="M453.754,136.146v1.625h1.765v0.938h-1.765v3.656c0,0.84,0.237,1.316,0.924,1.316c0.336,0,0.532-0.028,0.715-0.084
		l0.056,0.938c-0.238,0.084-0.616,0.168-1.093,0.168c-0.574,0-1.036-0.196-1.33-0.519c-0.337-0.378-0.477-0.98-0.477-1.779v-3.698
		h-1.051v-0.938h1.051v-1.261L453.754,136.146z"/>
	<path d="M457.505,141.385c0.028,1.667,1.078,2.353,2.325,2.353c0.883,0,1.429-0.154,1.877-0.35l0.225,0.882
		c-0.435,0.196-1.191,0.435-2.27,0.435c-2.087,0-3.334-1.387-3.334-3.432c0-2.045,1.205-3.642,3.18-3.642
		c2.228,0,2.802,1.933,2.802,3.18c0,0.252-0.015,0.435-0.042,0.575H457.505z M461.119,140.502c0.014-0.77-0.322-1.989-1.709-1.989
		c-1.261,0-1.793,1.134-1.892,1.989H461.119z"/>
</g>
<g>
	<g>
		<line fill="none" stroke="#000000" stroke-miterlimit="10" x1="217.666" y1="150.797" x2="499.744" y2="150.797"/>
		<g>
			<path d="M505.779,150.797c-2.84,1.054-6.363,2.852-8.547,4.756l1.72-4.756l-1.72-4.755
				C499.416,147.947,502.939,149.745,505.779,150.797z"/>
		</g>
	</g>
</g>
<g>
	<g>
		<line fill="none" stroke="#000000" stroke-miterlimit="10" x1="155.444" y1="194.667" x2="155.444" y2="207.738"/>
		<g>
			<path d="M155.444,213.773c-1.054-2.84-2.852-6.363-4.756-8.547l4.756,1.72l4.755-1.72
				C158.294,207.41,156.497,210.933,155.444,213.773z"/>
		</g>
	</g>
</g>
<g>
	<path d="M173.983,206.812c-0.434,0.224-1.345,0.448-2.493,0.448c-2.662,0-4.65-1.681-4.65-4.791c0-2.969,2.003-4.958,4.931-4.958
		c1.163,0,1.919,0.252,2.241,0.42l-0.308,0.994c-0.448-0.224-1.107-0.392-1.891-0.392c-2.213,0-3.684,1.415-3.684,3.894
		c0,2.325,1.331,3.796,3.614,3.796c0.756,0,1.513-0.154,2.003-0.393L173.983,206.812z"/>
	<path d="M181.458,203.661c0,2.507-1.751,3.6-3.375,3.6c-1.821,0-3.25-1.345-3.25-3.488c0-2.255,1.499-3.586,3.362-3.586
		C180.142,200.187,181.458,201.602,181.458,203.661z M176.094,203.73c0,1.485,0.84,2.605,2.045,2.605
		c1.177,0,2.059-1.106,2.059-2.633c0-1.148-0.574-2.591-2.031-2.591C176.724,201.111,176.094,202.456,176.094,203.73z"/>
	<path d="M183.009,202.54c0-0.869-0.028-1.569-0.056-2.213h1.093l0.07,1.163h0.028c0.49-0.826,1.303-1.303,2.409-1.303
		c1.653,0,2.886,1.387,2.886,3.432c0,2.437-1.499,3.642-3.096,3.642c-0.896,0-1.681-0.393-2.087-1.065h-0.028v3.684h-1.219V202.54z
		 M184.228,204.347c0,0.182,0.014,0.35,0.056,0.504c0.224,0.854,0.966,1.443,1.849,1.443c1.303,0,2.06-1.064,2.06-2.619
		c0-1.345-0.715-2.508-2.017-2.508c-0.841,0-1.639,0.588-1.863,1.513c-0.042,0.154-0.084,0.336-0.084,0.49V204.347z"/>
	<path d="M191.326,200.327l1.471,4.006c0.168,0.448,0.336,0.98,0.448,1.387h0.028c0.126-0.406,0.266-0.924,0.434-1.415l1.345-3.978
		h1.303l-1.849,4.833c-0.882,2.326-1.485,3.502-2.325,4.245c-0.616,0.518-1.205,0.728-1.513,0.784l-0.308-1.022
		c0.308-0.098,0.714-0.294,1.079-0.602c0.336-0.267,0.742-0.743,1.037-1.373c0.056-0.126,0.098-0.224,0.098-0.294
		c0-0.07-0.028-0.168-0.098-0.322l-2.494-6.248H191.326z"/>
</g>
<g>
	<path d="M392.719,350.459h-3.656v3.404h4.09v1.022h-5.322v-9.441h5.112v1.022h-3.88v2.984h3.656V350.459z"/>
	<path d="M395.264,348.106l0.967,1.456c0.266,0.379,0.477,0.715,0.7,1.093h0.028c0.224-0.392,0.448-0.742,0.687-1.106l0.938-1.442
		h1.345l-2.312,3.277l2.367,3.502h-1.387l-1.009-1.526c-0.266-0.393-0.49-0.771-0.729-1.177h-0.027
		c-0.225,0.406-0.448,0.771-0.715,1.177l-0.98,1.526h-1.358l2.409-3.46l-2.298-3.319H395.264z"/>
	<path d="M402.839,346.481v1.625h1.765v0.938h-1.765v3.655c0,0.841,0.237,1.317,0.924,1.317c0.336,0,0.532-0.028,0.715-0.084
		l0.056,0.938c-0.238,0.084-0.616,0.168-1.093,0.168c-0.574,0-1.036-0.196-1.33-0.519c-0.337-0.378-0.477-0.98-0.477-1.779v-3.697
		h-1.051v-0.938h1.051v-1.261L402.839,346.481z"/>
	<path d="M405.987,350.222c0-0.799-0.014-1.485-0.056-2.115h1.078l0.057,1.345h0.042c0.308-0.911,1.064-1.485,1.891-1.485
		c0.126,0,0.224,0.015,0.336,0.028v1.162c-0.126-0.027-0.252-0.027-0.42-0.027c-0.868,0-1.485,0.645-1.653,1.568
		c-0.027,0.168-0.042,0.379-0.042,0.574v3.614h-1.232V350.222z"/>
	<path d="M415.259,353.261c0,0.589,0.028,1.163,0.098,1.625h-1.106l-0.098-0.854h-0.042c-0.378,0.532-1.106,1.009-2.073,1.009
		c-1.373,0-2.073-0.967-2.073-1.947c0-1.639,1.457-2.535,4.076-2.521v-0.14c0-0.547-0.154-1.569-1.541-1.555
		c-0.645,0-1.303,0.182-1.778,0.504l-0.28-0.826c0.56-0.351,1.387-0.589,2.241-0.589c2.073,0,2.577,1.415,2.577,2.76V353.261z
		 M414.068,351.426c-1.345-0.028-2.872,0.21-2.872,1.527c0,0.812,0.532,1.176,1.148,1.176c0.896,0,1.472-0.56,1.667-1.134
		c0.042-0.141,0.057-0.28,0.057-0.393V351.426z"/>
	<path d="M420.702,348.106l0.91,3.445c0.183,0.757,0.364,1.457,0.491,2.157h0.042c0.153-0.687,0.378-1.415,0.602-2.143l1.106-3.46
		h1.037l1.051,3.39c0.252,0.812,0.448,1.526,0.602,2.213h0.043c0.111-0.687,0.294-1.4,0.518-2.199l0.967-3.403h1.219l-2.186,6.779
		h-1.12l-1.037-3.235c-0.238-0.757-0.434-1.429-0.603-2.228h-0.027c-0.168,0.812-0.378,1.513-0.616,2.241l-1.093,3.222h-1.121
		l-2.045-6.779H420.702z"/>
	<path d="M436.511,351.439c0,2.508-1.751,3.601-3.376,3.601c-1.821,0-3.25-1.345-3.25-3.488c0-2.255,1.499-3.586,3.362-3.586
		C435.193,347.966,436.511,349.381,436.511,351.439z M431.146,351.51c0,1.485,0.841,2.605,2.045,2.605
		c1.177,0,2.06-1.106,2.06-2.634c0-1.148-0.574-2.591-2.031-2.591C431.775,348.891,431.146,350.235,431.146,351.51z"/>
	<path d="M438.061,350.222c0-0.799-0.014-1.485-0.056-2.115h1.078l0.057,1.345h0.042c0.308-0.911,1.064-1.485,1.891-1.485
		c0.126,0,0.225,0.015,0.336,0.028v1.162c-0.126-0.027-0.252-0.027-0.42-0.027c-0.868,0-1.484,0.645-1.653,1.568
		c-0.027,0.168-0.042,0.379-0.042,0.574v3.614h-1.232V350.222z"/>
	<path d="M443.914,351.216h0.028c0.168-0.238,0.392-0.532,0.588-0.771l2.003-2.339h1.471l-2.605,2.787l2.984,3.992h-1.513
		l-2.326-3.25l-0.63,0.7v2.55h-1.219v-9.945h1.219V351.216z"/>
	<path d="M449.121,349.227c0-0.519,0.351-0.883,0.826-0.883c0.505,0,0.827,0.364,0.827,0.883c0,0.49-0.322,0.868-0.841,0.868
		C449.457,350.095,449.121,349.717,449.121,349.227z M449.121,354.171c0-0.518,0.351-0.882,0.826-0.882
		c0.505,0,0.827,0.364,0.827,0.882c0,0.491-0.322,0.869-0.841,0.869C449.457,355.04,449.121,354.662,449.121,354.171z"/>
	<path d="M390.085,363.729h-0.028l-1.582,0.854l-0.238-0.938l1.989-1.064h1.05v9.104h-1.19V363.729z"/>
	<path d="M394.689,370.957c0-0.504,0.35-0.883,0.84-0.883c0.491,0,0.827,0.364,0.827,0.883c0,0.504-0.336,0.883-0.854,0.883
		C395.025,371.84,394.689,371.461,394.689,370.957z"/>
	<path d="M400.849,366.741c0-0.715-0.028-1.275-0.056-1.835h1.078l0.057,1.106h0.042c0.378-0.645,1.008-1.247,2.143-1.247
		c0.911,0,1.611,0.561,1.905,1.359h0.028c0.21-0.393,0.49-0.673,0.771-0.883c0.406-0.309,0.84-0.477,1.484-0.477
		c0.91,0,2.241,0.589,2.241,2.941v3.979h-1.205v-3.824c0-1.316-0.49-2.087-1.471-2.087c-0.714,0-1.246,0.519-1.471,1.106
		c-0.056,0.183-0.098,0.393-0.098,0.616v4.188h-1.205v-4.062c0-1.078-0.476-1.849-1.414-1.849c-0.757,0-1.331,0.616-1.527,1.232
		c-0.07,0.168-0.098,0.393-0.098,0.603v4.076h-1.205V366.741z"/>
	<path d="M417.287,370.061c0,0.589,0.028,1.163,0.098,1.625h-1.106l-0.098-0.854h-0.042c-0.379,0.532-1.106,1.009-2.073,1.009
		c-1.373,0-2.073-0.967-2.073-1.947c0-1.639,1.457-2.535,4.076-2.521v-0.14c0-0.547-0.154-1.569-1.541-1.555
		c-0.645,0-1.303,0.182-1.778,0.504l-0.28-0.826c0.56-0.351,1.387-0.589,2.241-0.589c2.073,0,2.577,1.415,2.577,2.76V370.061z
		 M416.097,368.226c-1.345-0.028-2.872,0.21-2.872,1.527c0,0.812,0.532,1.176,1.148,1.176c0.896,0,1.472-0.56,1.667-1.134
		c0.042-0.141,0.057-0.28,0.057-0.393V368.226z"/>
	<path d="M419.104,370.438c0.378,0.225,1.022,0.477,1.639,0.477c0.883,0,1.303-0.435,1.303-1.009c0-0.588-0.35-0.896-1.246-1.232
		c-1.233-0.448-1.808-1.106-1.808-1.919c0-1.093,0.896-1.989,2.34-1.989c0.686,0,1.288,0.183,1.652,0.42l-0.294,0.896
		c-0.267-0.168-0.757-0.405-1.387-0.405c-0.729,0-1.121,0.42-1.121,0.924c0,0.561,0.393,0.812,1.275,1.163
		c1.162,0.434,1.778,1.022,1.778,2.031c0,1.204-0.938,2.045-2.521,2.045c-0.742,0-1.429-0.196-1.904-0.477L419.104,370.438z"/>
	<path d="M426.035,368.016h0.028c0.168-0.238,0.392-0.532,0.588-0.771l2.003-2.339h1.471l-2.605,2.787l2.984,3.992h-1.513
		l-2.326-3.25l-0.63,0.7v2.55h-1.219v-9.945h1.219V368.016z"/>
	<path d="M434.35,361.74h1.219v4.258h0.028c0.434-0.756,1.219-1.232,2.311-1.232c1.695,0,2.872,1.401,2.872,3.446
		c0,2.423-1.541,3.628-3.054,3.628c-0.98,0-1.765-0.379-2.283-1.261h-0.028l-0.07,1.106h-1.05c0.027-0.462,0.056-1.148,0.056-1.751
		V361.74z M435.568,368.968c0,0.154,0.014,0.309,0.056,0.448c0.225,0.854,0.953,1.443,1.85,1.443c1.303,0,2.059-1.051,2.059-2.605
		c0-1.359-0.7-2.521-2.031-2.521c-0.826,0-1.61,0.588-1.862,1.513c-0.042,0.154-0.07,0.322-0.07,0.519V368.968z"/>
	<path d="M447.988,369.822c0,0.715,0.015,1.331,0.057,1.863h-1.093l-0.07-1.106h-0.028c-0.308,0.546-1.036,1.261-2.241,1.261
		c-1.064,0-2.339-0.603-2.339-2.97v-3.964h1.232v3.739c0,1.289,0.406,2.172,1.513,2.172c0.827,0,1.401-0.574,1.625-1.135
		c0.07-0.168,0.112-0.393,0.112-0.631v-4.146h1.232V369.822z"/>
	<path d="M454.231,371.686v-5.841h-2.857v5.841h-1.219v-5.841h-0.938v-0.938h0.938v-0.211c0-0.952,0.225-1.765,0.757-2.311
		c0.392-0.393,0.952-0.631,1.709-0.631c0.392,0,0.756,0.126,0.966,0.238l-0.252,0.925c-0.182-0.099-0.448-0.183-0.729-0.183
		c-0.966,0-1.232,0.827-1.232,1.892v0.28h2.857v-0.322c0-0.953,0.21-1.821,0.784-2.367c0.463-0.448,1.079-0.631,1.64-0.631
		c0.448,0,0.826,0.099,1.05,0.196l-0.153,0.952c-0.196-0.084-0.435-0.153-0.799-0.153c-1.036,0-1.303,0.91-1.303,1.961v0.364h1.625
		v0.938h-1.625v5.841H454.231z"/>
	<path d="M458.696,368.52c0.028,1.667,1.078,2.354,2.325,2.354c0.883,0,1.429-0.154,1.877-0.351l0.225,0.883
		c-0.435,0.196-1.191,0.435-2.27,0.435c-2.087,0-3.334-1.387-3.334-3.432c0-2.046,1.205-3.643,3.18-3.643
		c2.228,0,2.802,1.934,2.802,3.18c0,0.252-0.015,0.435-0.042,0.574H458.696z M462.311,367.638c0.014-0.771-0.322-1.989-1.709-1.989
		c-1.261,0-1.793,1.135-1.892,1.989H462.311z"/>
	<path d="M465.023,367.021c0-0.799-0.014-1.485-0.056-2.115h1.078l0.057,1.345h0.042c0.308-0.911,1.064-1.485,1.891-1.485
		c0.126,0,0.225,0.015,0.336,0.028v1.162c-0.126-0.027-0.252-0.027-0.42-0.027c-0.868,0-1.484,0.645-1.653,1.568
		c-0.027,0.168-0.042,0.378-0.042,0.574v3.614h-1.232V367.021z"/>
	<path d="M387.409,388.485v-0.757l0.967-0.938c2.325-2.213,3.39-3.39,3.39-4.762c0-0.925-0.434-1.779-1.793-1.779
		c-0.826,0-1.513,0.42-1.933,0.771l-0.393-0.869c0.616-0.518,1.527-0.924,2.563-0.924c1.961,0,2.788,1.345,2.788,2.647
		c0,1.681-1.219,3.039-3.138,4.889l-0.715,0.672v0.028h4.076v1.022H387.409z"/>
	<path d="M394.689,387.757c0-0.504,0.35-0.883,0.84-0.883c0.491,0,0.827,0.364,0.827,0.883c0,0.505-0.336,0.883-0.854,0.883
		C395.025,388.64,394.689,388.262,394.689,387.757z"/>
	<path d="M405.682,388.247c-0.322,0.154-1.037,0.393-1.947,0.393c-2.045,0-3.376-1.387-3.376-3.46c0-2.087,1.429-3.614,3.642-3.614
		c0.729,0,1.373,0.183,1.709,0.364l-0.279,0.938c-0.295-0.154-0.757-0.322-1.43-0.322c-1.555,0-2.395,1.163-2.395,2.563
		c0,1.569,1.008,2.535,2.353,2.535c0.701,0,1.163-0.168,1.514-0.322L405.682,388.247z"/>
	<path d="M413.172,385.039c0,2.508-1.751,3.601-3.376,3.601c-1.821,0-3.25-1.345-3.25-3.488c0-2.255,1.499-3.586,3.362-3.586
		C411.854,381.565,413.172,382.98,413.172,385.039z M407.807,385.109c0,1.485,0.841,2.605,2.045,2.605
		c1.177,0,2.06-1.106,2.06-2.634c0-1.148-0.574-2.591-2.031-2.591C408.437,382.49,407.807,383.835,407.807,385.109z"/>
	<path d="M414.722,383.919c0-0.868-0.028-1.569-0.056-2.213h1.093l0.069,1.162h0.028c0.49-0.826,1.303-1.303,2.409-1.303
		c1.653,0,2.886,1.387,2.886,3.432c0,2.438-1.499,3.643-3.096,3.643c-0.896,0-1.681-0.393-2.087-1.064h-0.028v3.684h-1.219V383.919z
		 M415.94,385.726c0,0.183,0.014,0.351,0.056,0.505c0.225,0.854,0.967,1.442,1.85,1.442c1.303,0,2.059-1.064,2.059-2.619
		c0-1.345-0.714-2.508-2.017-2.508c-0.841,0-1.639,0.589-1.863,1.513c-0.042,0.154-0.084,0.337-0.084,0.49V385.726z"/>
	<path d="M423.038,381.706l1.471,4.006c0.168,0.448,0.336,0.98,0.448,1.387h0.028c0.126-0.406,0.266-0.925,0.435-1.415l1.345-3.978
		h1.302l-1.849,4.832c-0.883,2.325-1.484,3.502-2.325,4.244c-0.616,0.519-1.205,0.729-1.513,0.785l-0.309-1.022
		c0.309-0.099,0.715-0.295,1.079-0.603c0.336-0.267,0.742-0.742,1.036-1.373c0.057-0.126,0.099-0.224,0.099-0.294
		s-0.028-0.168-0.099-0.322l-2.493-6.247H423.038z"/>
	<path d="M433.637,380.081v1.625h1.765v0.938h-1.765v3.655c0,0.841,0.237,1.317,0.924,1.317c0.336,0,0.532-0.028,0.715-0.084
		l0.056,0.938c-0.238,0.084-0.616,0.168-1.093,0.168c-0.574,0-1.036-0.196-1.33-0.519c-0.337-0.378-0.477-0.98-0.477-1.779v-3.697
		h-1.051v-0.938h1.051v-1.261L433.637,380.081z"/>
	<path d="M442.837,385.039c0,2.508-1.751,3.601-3.376,3.601c-1.821,0-3.25-1.345-3.25-3.488c0-2.255,1.499-3.586,3.362-3.586
		C441.52,381.565,442.837,382.98,442.837,385.039z M437.472,385.109c0,1.485,0.841,2.605,2.045,2.605c1.177,0,2.06-1.106,2.06-2.634
		c0-1.148-0.574-2.591-2.031-2.591C438.102,382.49,437.472,383.835,437.472,385.109z"/>
	<path d="M447.354,378.54h1.219v4.258h0.028c0.434-0.756,1.219-1.232,2.311-1.232c1.695,0,2.872,1.401,2.872,3.446
		c0,2.423-1.541,3.628-3.054,3.628c-0.98,0-1.765-0.378-2.283-1.261h-0.028l-0.069,1.106h-1.051
		c0.027-0.462,0.056-1.148,0.056-1.751V378.54z M448.573,385.768c0,0.154,0.014,0.309,0.056,0.448
		c0.225,0.854,0.953,1.443,1.85,1.443c1.303,0,2.059-1.051,2.059-2.605c0-1.359-0.7-2.521-2.031-2.521
		c-0.826,0-1.61,0.588-1.862,1.513c-0.042,0.154-0.07,0.322-0.07,0.519V385.768z"/>
	<path d="M455.32,383.821c0-0.799-0.014-1.485-0.056-2.115h1.078l0.057,1.345h0.042c0.308-0.911,1.064-1.485,1.891-1.485
		c0.126,0,0.225,0.015,0.336,0.028v1.162c-0.126-0.027-0.252-0.027-0.42-0.027c-0.868,0-1.484,0.645-1.653,1.568
		c-0.027,0.168-0.042,0.379-0.042,0.574v3.614h-1.232V383.821z"/>
	<path d="M461.327,379.801c0,0.42-0.294,0.756-0.784,0.756c-0.448,0-0.743-0.336-0.743-0.756s0.309-0.771,0.771-0.771
		C461.019,379.03,461.327,379.366,461.327,379.801z M459.954,388.485v-6.779h1.232v6.779H459.954z"/>
	<path d="M463.23,383.541c0-0.715-0.014-1.275-0.056-1.835h1.093l0.069,1.12h0.028c0.336-0.63,1.12-1.261,2.241-1.261
		c0.938,0,2.396,0.561,2.396,2.886v4.034h-1.233v-3.908c0-1.093-0.405-2.003-1.568-2.003c-0.799,0-1.429,0.574-1.653,1.261
		c-0.056,0.154-0.084,0.364-0.084,0.574v4.076h-1.232V383.541z"/>
	<path d="M476.799,387.491c0,1.568-0.322,2.507-0.966,3.109c-0.673,0.603-1.625,0.812-2.479,0.812c-0.812,0-1.709-0.196-2.256-0.561
		l0.309-0.952c0.448,0.294,1.148,0.546,1.989,0.546c1.261,0,2.185-0.658,2.185-2.381v-0.743h-0.027
		c-0.364,0.631-1.106,1.135-2.157,1.135c-1.681,0-2.886-1.429-2.886-3.306c0-2.297,1.499-3.586,3.067-3.586
		c1.177,0,1.808,0.603,2.115,1.163h0.028l0.042-1.022h1.093c-0.042,0.476-0.057,1.036-0.057,1.849V387.491z M475.566,384.381
		c0-0.21-0.014-0.392-0.07-0.546c-0.224-0.729-0.812-1.316-1.723-1.316c-1.177,0-2.017,0.994-2.017,2.562
		c0,1.331,0.687,2.438,2.003,2.438c0.771,0,1.457-0.476,1.709-1.261c0.069-0.21,0.098-0.448,0.098-0.658V384.381z"/>
	<path d="M483.167,379.801c0,0.42-0.294,0.756-0.784,0.756c-0.448,0-0.743-0.336-0.743-0.756s0.309-0.771,0.771-0.771
		C482.858,379.03,483.167,379.366,483.167,379.801z M481.794,388.485v-6.779h1.232v6.779H481.794z"/>
	<path d="M485.07,383.541c0-0.715-0.014-1.275-0.056-1.835h1.093l0.069,1.12h0.028c0.336-0.63,1.12-1.261,2.241-1.261
		c0.938,0,2.396,0.561,2.396,2.886v4.034h-1.233v-3.908c0-1.093-0.405-2.003-1.568-2.003c-0.799,0-1.429,0.574-1.653,1.261
		c-0.056,0.154-0.084,0.364-0.084,0.574v4.076h-1.232V383.541z"/>
	<path d="M495.808,378.54h1.219v4.258h0.028c0.434-0.756,1.219-1.232,2.311-1.232c1.695,0,2.872,1.401,2.872,3.446
		c0,2.423-1.541,3.628-3.054,3.628c-0.98,0-1.765-0.378-2.283-1.261h-0.028l-0.069,1.106h-1.051
		c0.027-0.462,0.056-1.148,0.056-1.751V378.54z M497.026,385.768c0,0.154,0.014,0.309,0.056,0.448
		c0.225,0.854,0.953,1.443,1.85,1.443c1.303,0,2.059-1.051,2.059-2.605c0-1.359-0.7-2.521-2.031-2.521
		c-0.826,0-1.61,0.588-1.862,1.513c-0.042,0.154-0.07,0.322-0.07,0.519V385.768z"/>
	<path d="M508.536,386.86c0,0.589,0.028,1.163,0.098,1.625h-1.106l-0.098-0.854h-0.042c-0.378,0.532-1.106,1.009-2.073,1.009
		c-1.373,0-2.073-0.967-2.073-1.947c0-1.639,1.457-2.535,4.076-2.521v-0.14c0-0.547-0.154-1.569-1.541-1.555
		c-0.645,0-1.303,0.182-1.778,0.504l-0.28-0.826c0.56-0.351,1.387-0.589,2.241-0.589c2.073,0,2.577,1.415,2.577,2.76V386.86z
		 M507.346,385.025c-1.345-0.028-2.872,0.21-2.872,1.527c0,0.812,0.532,1.176,1.148,1.176c0.896,0,1.472-0.56,1.667-1.134
		c0.042-0.141,0.057-0.28,0.057-0.393V385.025z"/>
	<path d="M515.354,388.247c-0.322,0.154-1.037,0.393-1.947,0.393c-2.045,0-3.376-1.387-3.376-3.46c0-2.087,1.429-3.614,3.642-3.614
		c0.729,0,1.373,0.183,1.709,0.364l-0.28,0.938c-0.294-0.154-0.756-0.322-1.429-0.322c-1.555,0-2.395,1.163-2.395,2.563
		c0,1.569,1.008,2.535,2.353,2.535c0.701,0,1.163-0.168,1.514-0.322L515.354,388.247z"/>
	<path d="M518.012,384.815h0.028c0.168-0.238,0.392-0.532,0.588-0.771l2.003-2.339h1.471l-2.605,2.787l2.984,3.992h-1.513
		l-2.326-3.25l-0.63,0.7v2.55h-1.219v-9.945h1.219V384.815z"/>
	<path d="M529.2,378.54v8.194c0,0.603,0.028,1.289,0.057,1.751h-1.093l-0.056-1.177h-0.042c-0.364,0.757-1.177,1.331-2.283,1.331
		c-1.64,0-2.914-1.387-2.914-3.446c-0.014-2.255,1.4-3.628,3.04-3.628c1.05,0,1.736,0.49,2.045,1.022h0.028v-4.048H529.2z
		 M527.982,384.465c0-0.153-0.015-0.364-0.057-0.518c-0.182-0.771-0.854-1.415-1.779-1.415c-1.274,0-2.03,1.12-2.03,2.605
		c0,1.373,0.687,2.507,2.003,2.507c0.826,0,1.583-0.56,1.807-1.471c0.042-0.168,0.057-0.336,0.057-0.532V384.465z"/>
	<path d="M531.255,383.821c0-0.799-0.014-1.485-0.056-2.115h1.078l0.057,1.345h0.042c0.308-0.911,1.064-1.485,1.891-1.485
		c0.126,0,0.224,0.015,0.336,0.028v1.162c-0.126-0.027-0.252-0.027-0.42-0.027c-0.868,0-1.485,0.645-1.653,1.568
		c-0.027,0.168-0.042,0.379-0.042,0.574v3.614h-1.232V383.821z"/>
	<path d="M541.829,385.039c0,2.508-1.751,3.601-3.376,3.601c-1.821,0-3.25-1.345-3.25-3.488c0-2.255,1.499-3.586,3.362-3.586
		C540.512,381.565,541.829,382.98,541.829,385.039z M536.464,385.109c0,1.485,0.841,2.605,2.045,2.605
		c1.177,0,2.06-1.106,2.06-2.634c0-1.148-0.574-2.591-2.031-2.591C537.094,382.49,536.464,383.835,536.464,385.109z"/>
	<path d="M543.379,383.919c0-0.868-0.028-1.569-0.056-2.213h1.093l0.069,1.162h0.028c0.49-0.826,1.303-1.303,2.409-1.303
		c1.653,0,2.886,1.387,2.886,3.432c0,2.438-1.499,3.643-3.096,3.643c-0.896,0-1.681-0.393-2.087-1.064h-0.028v3.684h-1.219V383.919z
		 M544.598,385.726c0,0.183,0.014,0.351,0.056,0.505c0.225,0.854,0.967,1.442,1.85,1.442c1.303,0,2.059-1.064,2.059-2.619
		c0-1.345-0.714-2.508-2.017-2.508c-0.841,0-1.639,0.589-1.863,1.513c-0.042,0.154-0.084,0.337-0.084,0.49V385.726z"/>
	<path d="M387.704,403.886c0.35,0.21,1.148,0.56,2.017,0.56c1.569,0,2.073-0.994,2.06-1.765c-0.015-1.274-1.163-1.821-2.354-1.821
		h-0.687v-0.924h0.687c0.896,0,2.031-0.463,2.031-1.541c0-0.729-0.463-1.373-1.597-1.373c-0.729,0-1.429,0.322-1.821,0.603
		l-0.336-0.896c0.49-0.351,1.414-0.7,2.395-0.7c1.793,0,2.605,1.064,2.605,2.171c0,0.952-0.574,1.751-1.681,2.157v0.028
		c1.121,0.21,2.018,1.05,2.031,2.325c0,1.457-1.148,2.731-3.319,2.731c-1.023,0-1.92-0.322-2.368-0.616L387.704,403.886z"/>
	<path d="M394.689,404.558c0-0.504,0.35-0.883,0.84-0.883c0.491,0,0.827,0.364,0.827,0.883c0,0.505-0.336,0.883-0.854,0.883
		C395.025,405.44,394.689,405.062,394.689,404.558z"/>
	<path d="M400.975,405.286v-5.841h-0.938v-0.938h0.938v-0.322c0-0.953,0.225-1.821,0.784-2.367c0.463-0.448,1.079-0.631,1.653-0.631
		c0.448,0,0.812,0.099,1.051,0.196l-0.168,0.952c-0.183-0.084-0.421-0.153-0.785-0.153c-1.05,0-1.316,0.91-1.316,1.961v0.364h1.639
		v0.938h-1.639v5.841H400.975z"/>
	<path d="M410.891,401.84c0,2.508-1.751,3.601-3.376,3.601c-1.821,0-3.25-1.345-3.25-3.488c0-2.255,1.499-3.586,3.362-3.586
		C409.573,398.366,410.891,399.781,410.891,401.84z M405.525,401.91c0,1.485,0.841,2.605,2.045,2.605c1.177,0,2.06-1.106,2.06-2.634
		c0-1.148-0.574-2.591-2.031-2.591C406.155,399.291,405.525,400.636,405.525,401.91z"/>
	<path d="M412.44,400.622c0-0.799-0.014-1.485-0.056-2.115h1.078l0.057,1.345h0.042c0.308-0.911,1.064-1.485,1.891-1.485
		c0.126,0,0.224,0.015,0.336,0.028v1.162c-0.126-0.027-0.252-0.027-0.42-0.027c-0.868,0-1.485,0.645-1.653,1.568
		c-0.027,0.168-0.042,0.379-0.042,0.574v3.614h-1.232V400.622z"/>
	<path d="M420.673,402.12c0.028,1.667,1.078,2.354,2.325,2.354c0.883,0,1.429-0.154,1.877-0.351l0.225,0.883
		c-0.435,0.196-1.191,0.435-2.27,0.435c-2.087,0-3.334-1.387-3.334-3.432c0-2.046,1.205-3.643,3.18-3.643
		c2.228,0,2.802,1.934,2.802,3.18c0,0.252-0.015,0.435-0.042,0.574H420.673z M424.287,401.238c0.014-0.771-0.322-1.989-1.709-1.989
		c-1.261,0-1.793,1.135-1.892,1.989H424.287z"/>
	<path d="M431.763,403.661c0,0.589,0.028,1.163,0.098,1.625h-1.106l-0.098-0.854h-0.042c-0.378,0.532-1.106,1.009-2.073,1.009
		c-1.373,0-2.073-0.967-2.073-1.947c0-1.639,1.457-2.535,4.076-2.521v-0.14c0-0.547-0.154-1.569-1.541-1.555
		c-0.645,0-1.303,0.182-1.778,0.504l-0.28-0.826c0.56-0.351,1.387-0.589,2.241-0.589c2.073,0,2.577,1.415,2.577,2.76V403.661z
		 M430.572,401.826c-1.345-0.028-2.872,0.21-2.872,1.527c0,0.812,0.532,1.176,1.148,1.176c0.896,0,1.472-0.56,1.667-1.134
		c0.042-0.141,0.057-0.28,0.057-0.393V401.826z"/>
	<path d="M438.581,405.048c-0.322,0.154-1.037,0.393-1.947,0.393c-2.045,0-3.376-1.387-3.376-3.46c0-2.087,1.429-3.614,3.642-3.614
		c0.729,0,1.373,0.183,1.709,0.364l-0.28,0.938c-0.294-0.154-0.756-0.322-1.429-0.322c-1.555,0-2.395,1.163-2.395,2.563
		c0,1.569,1.008,2.535,2.353,2.535c0.701,0,1.163-0.168,1.514-0.322L438.581,405.048z"/>
	<path d="M440.021,395.341h1.232v4.244h0.028c0.196-0.351,0.504-0.672,0.883-0.883c0.364-0.21,0.798-0.336,1.261-0.336
		c0.91,0,2.367,0.561,2.367,2.886v4.034h-1.233v-3.895c0-1.092-0.406-2.003-1.568-2.003c-0.799,0-1.415,0.561-1.653,1.219
		c-0.069,0.183-0.084,0.364-0.084,0.589v4.09h-1.232V395.341z"/>
	<path d="M450.59,404.039c0.378,0.225,1.022,0.477,1.639,0.477c0.883,0,1.303-0.435,1.303-1.009c0-0.588-0.35-0.896-1.246-1.232
		c-1.233-0.448-1.808-1.106-1.808-1.919c0-1.093,0.896-1.989,2.34-1.989c0.686,0,1.288,0.183,1.652,0.421l-0.294,0.896
		c-0.267-0.169-0.757-0.406-1.387-0.406c-0.729,0-1.121,0.42-1.121,0.924c0,0.561,0.393,0.812,1.275,1.163
		c1.162,0.434,1.778,1.022,1.778,2.031c0,1.204-0.938,2.045-2.521,2.045c-0.743,0-1.43-0.196-1.905-0.477L450.59,404.039z"/>
	<path d="M456.302,395.341h1.232v4.244h0.028c0.196-0.351,0.504-0.672,0.883-0.883c0.364-0.21,0.798-0.336,1.261-0.336
		c0.91,0,2.367,0.561,2.367,2.886v4.034h-1.233v-3.895c0-1.092-0.406-2.003-1.568-2.003c-0.799,0-1.415,0.561-1.653,1.219
		c-0.069,0.183-0.084,0.364-0.084,0.589v4.09h-1.232V395.341z"/>
	<path d="M468.834,403.661c0,0.589,0.028,1.163,0.098,1.625h-1.106l-0.098-0.854h-0.042c-0.379,0.532-1.106,1.009-2.073,1.009
		c-1.373,0-2.073-0.967-2.073-1.947c0-1.639,1.457-2.535,4.076-2.521v-0.14c0-0.547-0.154-1.569-1.541-1.555
		c-0.645,0-1.303,0.182-1.778,0.504l-0.28-0.826c0.56-0.351,1.387-0.589,2.241-0.589c2.073,0,2.577,1.415,2.577,2.76V403.661z
		 M467.644,401.826c-1.345-0.028-2.872,0.21-2.872,1.527c0,0.812,0.532,1.176,1.148,1.176c0.896,0,1.472-0.56,1.667-1.134
		c0.042-0.141,0.057-0.28,0.057-0.393V401.826z"/>
	<path d="M470.819,400.72c0-0.868-0.028-1.569-0.056-2.213h1.093l0.069,1.162h0.028c0.49-0.826,1.303-1.303,2.409-1.303
		c1.653,0,2.886,1.387,2.886,3.432c0,2.438-1.499,3.643-3.096,3.643c-0.896,0-1.681-0.393-2.087-1.064h-0.028v3.684h-1.219V400.72z
		 M472.038,402.526c0,0.183,0.014,0.351,0.056,0.505c0.225,0.854,0.967,1.442,1.85,1.442c1.303,0,2.059-1.064,2.059-2.619
		c0-1.345-0.714-2.508-2.017-2.508c-0.841,0-1.639,0.589-1.863,1.513c-0.042,0.154-0.084,0.337-0.084,0.49V402.526z"/>
	<path d="M479.472,402.12c0.028,1.667,1.078,2.354,2.325,2.354c0.883,0,1.429-0.154,1.877-0.351l0.225,0.883
		c-0.435,0.196-1.191,0.435-2.27,0.435c-2.087,0-3.334-1.387-3.334-3.432c0-2.046,1.205-3.643,3.18-3.643
		c2.228,0,2.802,1.934,2.802,3.18c0,0.252-0.015,0.435-0.042,0.574H479.472z M483.086,401.238c0.014-0.771-0.322-1.989-1.709-1.989
		c-1.261,0-1.793,1.135-1.892,1.989H483.086z"/>
	<path d="M484.832,407.023c0.309-0.841,0.687-2.34,0.841-3.362l1.373-0.14c-0.336,1.19-0.953,2.745-1.345,3.403L484.832,407.023z"/>
	<path d="M491.496,400.72c0-0.868-0.028-1.569-0.056-2.213h1.093l0.069,1.162h0.028c0.49-0.826,1.303-1.303,2.409-1.303
		c1.653,0,2.886,1.387,2.886,3.432c0,2.438-1.499,3.643-3.096,3.643c-0.896,0-1.681-0.393-2.087-1.064h-0.028v3.684h-1.219V400.72z
		 M492.715,402.526c0,0.183,0.014,0.351,0.056,0.505c0.225,0.854,0.967,1.442,1.85,1.442c1.303,0,2.059-1.064,2.059-2.619
		c0-1.345-0.714-2.508-2.017-2.508c-0.841,0-1.639,0.589-1.863,1.513c-0.042,0.154-0.084,0.337-0.084,0.49V402.526z"/>
	<path d="M505.135,403.423c0,0.715,0.015,1.331,0.057,1.863h-1.093l-0.07-1.106H504c-0.308,0.546-1.036,1.261-2.241,1.261
		c-1.064,0-2.339-0.603-2.339-2.97v-3.964h1.232v3.739c0,1.289,0.406,2.172,1.513,2.172c0.827,0,1.401-0.574,1.625-1.135
		c0.07-0.168,0.112-0.393,0.112-0.631v-4.146h1.232V403.423z"/>
	<path d="M508.661,396.882v1.625h1.765v0.938h-1.765v3.655c0,0.841,0.237,1.317,0.924,1.317c0.336,0,0.532-0.028,0.715-0.084
		l0.056,0.938c-0.238,0.084-0.616,0.168-1.093,0.168c-0.574,0-1.036-0.196-1.33-0.519c-0.337-0.378-0.477-0.98-0.477-1.779v-3.697
		h-1.051v-0.938h1.051v-1.261L508.661,396.882z"/>
	<path d="M519.54,403.661c0,0.589,0.028,1.163,0.098,1.625h-1.106l-0.098-0.854h-0.042c-0.378,0.532-1.106,1.009-2.073,1.009
		c-1.373,0-2.073-0.967-2.073-1.947c0-1.639,1.457-2.535,4.076-2.521v-0.14c0-0.547-0.154-1.569-1.541-1.555
		c-0.645,0-1.303,0.182-1.778,0.504l-0.28-0.826c0.56-0.351,1.387-0.589,2.241-0.589c2.073,0,2.577,1.415,2.577,2.76V403.661z
		 M518.35,401.826c-1.345-0.028-2.872,0.21-2.872,1.527c0,0.812,0.532,1.176,1.148,1.176c0.896,0,1.472-0.56,1.667-1.134
		c0.042-0.141,0.057-0.28,0.057-0.393V401.826z"/>
	<path d="M521.525,395.341h1.232v9.945h-1.232V395.341z"/>
	<path d="M524.829,400.72c0-0.868-0.028-1.569-0.056-2.213h1.093l0.069,1.162h0.028c0.49-0.826,1.303-1.303,2.409-1.303
		c1.653,0,2.886,1.387,2.886,3.432c0,2.438-1.499,3.643-3.096,3.643c-0.896,0-1.681-0.393-2.087-1.064h-0.028v3.684h-1.219V400.72z
		 M526.048,402.526c0,0.183,0.014,0.351,0.056,0.505c0.225,0.854,0.967,1.442,1.85,1.442c1.303,0,2.059-1.064,2.059-2.619
		c0-1.345-0.714-2.508-2.017-2.508c-0.841,0-1.639,0.589-1.863,1.513c-0.042,0.154-0.084,0.337-0.084,0.49V402.526z"/>
	<path d="M532.795,395.341h1.232v4.244h0.028c0.196-0.351,0.504-0.672,0.883-0.883c0.364-0.21,0.798-0.336,1.261-0.336
		c0.91,0,2.367,0.561,2.367,2.886v4.034h-1.233v-3.895c0-1.092-0.405-2.003-1.568-2.003c-0.799,0-1.415,0.561-1.653,1.219
		c-0.069,0.183-0.084,0.364-0.084,0.589v4.09h-1.232V395.341z"/>
	<path d="M545.327,403.661c0,0.589,0.028,1.163,0.098,1.625h-1.106l-0.098-0.854h-0.042c-0.378,0.532-1.106,1.009-2.073,1.009
		c-1.373,0-2.073-0.967-2.073-1.947c0-1.639,1.457-2.535,4.076-2.521v-0.14c0-0.547-0.154-1.569-1.541-1.555
		c-0.645,0-1.303,0.182-1.778,0.504l-0.28-0.826c0.56-0.351,1.387-0.589,2.241-0.589c2.073,0,2.577,1.415,2.577,2.76V403.661z
		 M544.137,401.826c-1.345-0.028-2.872,0.21-2.872,1.527c0,0.812,0.532,1.176,1.148,1.176c0.896,0,1.472-0.56,1.667-1.134
		c0.042-0.141,0.057-0.28,0.057-0.393V401.826z"/>
	<path d="M551.653,396.602c0,0.42-0.294,0.756-0.784,0.756c-0.448,0-0.743-0.336-0.743-0.756s0.309-0.771,0.771-0.771
		C551.345,395.831,551.653,396.167,551.653,396.602z M550.28,405.286v-6.779h1.232v6.779H550.28z"/>
	<path d="M553.557,400.342c0-0.715-0.014-1.275-0.056-1.835h1.093l0.069,1.12h0.028c0.336-0.63,1.12-1.261,2.241-1.261
		c0.938,0,2.396,0.561,2.396,2.886v4.034h-1.233v-3.908c0-1.093-0.405-2.003-1.568-2.003c-0.799,0-1.429,0.574-1.653,1.261
		c-0.056,0.154-0.084,0.364-0.084,0.574v4.076h-1.232V400.342z"/>
	<path d="M564.294,400.342c0-0.715-0.028-1.275-0.056-1.835h1.078l0.057,1.106h0.042c0.378-0.645,1.008-1.247,2.143-1.247
		c0.911,0,1.611,0.561,1.905,1.359h0.028c0.21-0.393,0.49-0.673,0.771-0.883c0.406-0.309,0.84-0.477,1.484-0.477
		c0.91,0,2.241,0.589,2.241,2.941v3.979h-1.205v-3.824c0-1.316-0.49-2.087-1.471-2.087c-0.714,0-1.246,0.519-1.471,1.106
		c-0.056,0.183-0.098,0.393-0.098,0.616v4.188h-1.205v-4.062c0-1.078-0.476-1.849-1.414-1.849c-0.757,0-1.331,0.616-1.527,1.232
		c-0.07,0.168-0.098,0.393-0.098,0.603v4.076h-1.205V400.342z"/>
	<path d="M580.732,403.661c0,0.589,0.028,1.163,0.098,1.625h-1.106l-0.098-0.854h-0.042c-0.379,0.532-1.106,1.009-2.073,1.009
		c-1.373,0-2.073-0.967-2.073-1.947c0-1.639,1.457-2.535,4.076-2.521v-0.14c0-0.547-0.154-1.569-1.541-1.555
		c-0.645,0-1.303,0.182-1.778,0.504l-0.28-0.826c0.56-0.351,1.387-0.589,2.241-0.589c2.073,0,2.577,1.415,2.577,2.76V403.661z
		 M579.542,401.826c-1.345-0.028-2.872,0.21-2.872,1.527c0,0.812,0.532,1.176,1.148,1.176c0.896,0,1.472-0.56,1.667-1.134
		c0.042-0.141,0.057-0.28,0.057-0.393V401.826z"/>
	<path d="M582.55,404.039c0.378,0.225,1.022,0.477,1.639,0.477c0.883,0,1.303-0.435,1.303-1.009c0-0.588-0.35-0.896-1.246-1.232
		c-1.233-0.448-1.808-1.106-1.808-1.919c0-1.093,0.896-1.989,2.34-1.989c0.686,0,1.288,0.183,1.652,0.421l-0.294,0.896
		c-0.267-0.169-0.757-0.406-1.387-0.406c-0.729,0-1.121,0.42-1.121,0.924c0,0.561,0.393,0.812,1.275,1.163
		c1.162,0.434,1.778,1.022,1.778,2.031c0,1.204-0.938,2.045-2.521,2.045c-0.742,0-1.429-0.196-1.904-0.477L582.55,404.039z"/>
	<path d="M589.48,401.616h0.028c0.168-0.238,0.392-0.532,0.588-0.771l2.003-2.339h1.471l-2.605,2.787l2.984,3.992h-1.513
		l-2.326-3.25l-0.63,0.7v2.55h-1.219v-9.945h1.219V401.616z"/>
	<path d="M597.795,395.341h1.219v4.258h0.028c0.434-0.756,1.219-1.232,2.311-1.232c1.695,0,2.872,1.401,2.872,3.446
		c0,2.423-1.541,3.628-3.054,3.628c-0.98,0-1.765-0.378-2.283-1.261h-0.028l-0.07,1.106h-1.05c0.027-0.462,0.056-1.148,0.056-1.751
		V395.341z M599.014,402.568c0,0.154,0.014,0.309,0.056,0.448c0.225,0.854,0.953,1.443,1.85,1.443c1.303,0,2.059-1.051,2.059-2.605
		c0-1.359-0.7-2.521-2.031-2.521c-0.826,0-1.61,0.588-1.862,1.513c-0.042,0.154-0.07,0.322-0.07,0.519V402.568z"/>
	<path d="M611.434,403.423c0,0.715,0.015,1.331,0.057,1.863h-1.093l-0.07-1.106h-0.028c-0.308,0.546-1.036,1.261-2.241,1.261
		c-1.064,0-2.339-0.603-2.339-2.97v-3.964h1.232v3.739c0,1.289,0.406,2.172,1.513,2.172c0.827,0,1.401-0.574,1.625-1.135
		c0.07-0.168,0.112-0.393,0.112-0.631v-4.146h1.232V403.423z"/>
	<path d="M617.677,405.286v-5.841h-2.857v5.841h-1.219v-5.841h-0.938v-0.938h0.938v-0.211c0-0.952,0.225-1.765,0.757-2.311
		c0.392-0.393,0.952-0.631,1.709-0.631c0.392,0,0.756,0.126,0.966,0.238l-0.252,0.925c-0.182-0.099-0.448-0.183-0.729-0.183
		c-0.966,0-1.232,0.827-1.232,1.892v0.28h2.857v-0.322c0-0.953,0.21-1.821,0.784-2.367c0.463-0.448,1.079-0.631,1.64-0.631
		c0.448,0,0.826,0.099,1.05,0.196l-0.153,0.952c-0.196-0.084-0.435-0.153-0.799-0.153c-1.036,0-1.303,0.91-1.303,1.961v0.364h1.625
		v0.938h-1.625v5.841H617.677z"/>
	<path d="M622.142,402.12c0.028,1.667,1.078,2.354,2.325,2.354c0.883,0,1.429-0.154,1.877-0.351l0.225,0.883
		c-0.435,0.196-1.191,0.435-2.27,0.435c-2.087,0-3.334-1.387-3.334-3.432c0-2.046,1.205-3.643,3.18-3.643
		c2.228,0,2.802,1.934,2.802,3.18c0,0.252-0.015,0.435-0.042,0.574H622.142z M625.756,401.238c0.014-0.771-0.322-1.989-1.709-1.989
		c-1.261,0-1.793,1.135-1.892,1.989H625.756z"/>
	<path d="M628.469,400.622c0-0.799-0.014-1.485-0.056-2.115h1.078l0.057,1.345h0.042c0.308-0.911,1.064-1.485,1.891-1.485
		c0.126,0,0.225,0.015,0.336,0.028v1.162c-0.126-0.027-0.252-0.027-0.42-0.027c-0.868,0-1.484,0.645-1.653,1.568
		c-0.027,0.168-0.042,0.379-0.042,0.574v3.614h-1.232V400.622z"/>
	<path d="M391.22,422.086v-2.493h-4.23v-0.799l4.062-5.812h1.331v5.658h1.274v0.953h-1.274v2.493H391.22z M391.22,418.64v-3.039
		c0-0.477,0.014-0.953,0.042-1.429h-0.042c-0.28,0.532-0.504,0.924-0.757,1.345l-2.227,3.096v0.027H391.22z"/>
	<path d="M394.689,421.357c0-0.504,0.35-0.883,0.84-0.883c0.491,0,0.827,0.364,0.827,0.883c0,0.504-0.336,0.883-0.854,0.883
		C395.025,422.24,394.689,421.861,394.689,421.357z"/>
	<path d="M400.849,417.422c0-0.799-0.014-1.485-0.056-2.115h1.078l0.057,1.345h0.042c0.308-0.911,1.064-1.485,1.891-1.485
		c0.126,0,0.224,0.015,0.336,0.028v1.162c-0.126-0.027-0.252-0.027-0.42-0.027c-0.868,0-1.485,0.645-1.653,1.568
		c-0.027,0.168-0.042,0.378-0.042,0.574v3.614h-1.232V417.422z"/>
	<path d="M405.974,418.92c0.028,1.667,1.078,2.354,2.325,2.354c0.883,0,1.429-0.154,1.877-0.351l0.225,0.883
		c-0.435,0.196-1.191,0.435-2.27,0.435c-2.087,0-3.334-1.387-3.334-3.432c0-2.046,1.205-3.643,3.18-3.643
		c2.228,0,2.802,1.934,2.802,3.18c0,0.252-0.015,0.435-0.042,0.574H405.974z M409.588,418.038c0.014-0.771-0.322-1.989-1.709-1.989
		c-1.261,0-1.793,1.135-1.892,1.989H409.588z"/>
	<path d="M412.301,417.142c0-0.715-0.028-1.275-0.056-1.835h1.078l0.057,1.106h0.042c0.378-0.645,1.008-1.247,2.143-1.247
		c0.911,0,1.611,0.561,1.905,1.359h0.028c0.21-0.393,0.49-0.673,0.771-0.883c0.405-0.309,0.84-0.477,1.484-0.477
		c0.91,0,2.241,0.589,2.241,2.941v3.979h-1.205v-3.824c0-1.316-0.49-2.087-1.471-2.087c-0.714,0-1.246,0.519-1.471,1.106
		c-0.056,0.183-0.098,0.393-0.098,0.616v4.188h-1.205v-4.062c0-1.078-0.476-1.849-1.414-1.849c-0.757,0-1.331,0.616-1.527,1.232
		c-0.07,0.168-0.098,0.393-0.098,0.603v4.076h-1.205V417.142z"/>
	<path d="M430.112,418.64c0,2.508-1.751,3.601-3.376,3.601c-1.821,0-3.25-1.345-3.25-3.488c0-2.255,1.499-3.586,3.362-3.586
		C428.795,415.166,430.112,416.581,430.112,418.64z M424.747,418.71c0,1.485,0.841,2.605,2.045,2.605c1.177,0,2.06-1.106,2.06-2.634
		c0-1.148-0.574-2.591-2.031-2.591C425.377,416.091,424.747,417.436,424.747,418.71z"/>
	<path d="M432.041,415.307l1.33,3.796c0.225,0.63,0.406,1.19,0.547,1.751h0.042c0.154-0.561,0.35-1.121,0.574-1.751l1.316-3.796
		h1.289l-2.661,6.779h-1.177l-2.578-6.779H432.041z"/>
	<path d="M438.844,418.92c0.028,1.667,1.078,2.354,2.325,2.354c0.883,0,1.429-0.154,1.877-0.351l0.225,0.883
		c-0.435,0.196-1.191,0.435-2.27,0.435c-2.087,0-3.334-1.387-3.334-3.432c0-2.046,1.205-3.643,3.18-3.643
		c2.228,0,2.802,1.934,2.802,3.18c0,0.252-0.014,0.435-0.042,0.574H438.844z M442.458,418.038c0.014-0.771-0.322-1.989-1.709-1.989
		c-1.261,0-1.793,1.135-1.892,1.989H442.458z"/>
	<path d="M448.139,412.141h1.219v4.258h0.028c0.434-0.756,1.219-1.232,2.311-1.232c1.695,0,2.872,1.401,2.872,3.446
		c0,2.423-1.541,3.628-3.054,3.628c-0.98,0-1.765-0.379-2.283-1.261h-0.028l-0.07,1.106h-1.05c0.027-0.462,0.056-1.148,0.056-1.751
		V412.141z M449.357,419.368c0,0.154,0.014,0.309,0.056,0.448c0.225,0.854,0.953,1.443,1.85,1.443c1.303,0,2.059-1.051,2.059-2.605
		c0-1.359-0.7-2.521-2.031-2.521c-0.826,0-1.61,0.588-1.862,1.513c-0.042,0.154-0.07,0.322-0.07,0.519V419.368z"/>
	<path d="M460.867,420.461c0,0.589,0.028,1.163,0.098,1.625h-1.106l-0.098-0.854h-0.042c-0.379,0.532-1.106,1.009-2.073,1.009
		c-1.373,0-2.073-0.967-2.073-1.947c0-1.639,1.457-2.535,4.076-2.521v-0.14c0-0.547-0.154-1.569-1.541-1.555
		c-0.645,0-1.303,0.182-1.778,0.504l-0.28-0.826c0.56-0.351,1.387-0.589,2.241-0.589c2.073,0,2.577,1.415,2.577,2.76V420.461z
		 M459.677,418.626c-1.345-0.028-2.872,0.21-2.872,1.527c0,0.812,0.532,1.176,1.148,1.176c0.896,0,1.472-0.56,1.667-1.134
		c0.042-0.141,0.057-0.28,0.057-0.393V418.626z"/>
	<path d="M467.686,421.848c-0.322,0.154-1.037,0.393-1.947,0.393c-2.045,0-3.376-1.387-3.376-3.46c0-2.087,1.429-3.614,3.642-3.614
		c0.729,0,1.373,0.183,1.709,0.364l-0.279,0.938c-0.295-0.154-0.757-0.322-1.43-0.322c-1.555,0-2.395,1.163-2.395,2.563
		c0,1.569,1.008,2.535,2.353,2.535c0.701,0,1.163-0.168,1.514-0.322L467.686,421.848z"/>
	<path d="M470.344,418.416h0.028c0.168-0.238,0.392-0.532,0.588-0.771l2.003-2.339h1.471l-2.605,2.787l2.984,3.992H473.3
		l-2.326-3.25l-0.63,0.7v2.55h-1.219v-9.945h1.219V418.416z"/>
	<path d="M481.532,412.141v8.194c0,0.603,0.028,1.289,0.057,1.751h-1.093l-0.056-1.177h-0.042c-0.364,0.757-1.177,1.331-2.283,1.331
		c-1.64,0-2.914-1.387-2.914-3.446c-0.014-2.255,1.4-3.628,3.04-3.628c1.05,0,1.736,0.49,2.045,1.022h0.028v-4.048H481.532z
		 M480.314,418.065c0-0.153-0.015-0.364-0.057-0.518c-0.182-0.771-0.854-1.415-1.779-1.415c-1.274,0-2.03,1.12-2.03,2.605
		c0,1.373,0.687,2.507,2.003,2.507c0.826,0,1.583-0.56,1.807-1.471c0.042-0.168,0.057-0.336,0.057-0.532V418.065z"/>
	<path d="M483.587,417.422c0-0.799-0.014-1.485-0.056-2.115h1.078l0.057,1.345h0.042c0.308-0.911,1.064-1.485,1.891-1.485
		c0.126,0,0.224,0.015,0.336,0.028v1.162c-0.126-0.027-0.252-0.027-0.42-0.027c-0.868,0-1.485,0.645-1.653,1.568
		c-0.027,0.168-0.042,0.378-0.042,0.574v3.614h-1.232V417.422z"/>
	<path d="M494.161,418.64c0,2.508-1.751,3.601-3.376,3.601c-1.821,0-3.25-1.345-3.25-3.488c0-2.255,1.499-3.586,3.362-3.586
		C492.844,415.166,494.161,416.581,494.161,418.64z M488.796,418.71c0,1.485,0.841,2.605,2.045,2.605c1.177,0,2.06-1.106,2.06-2.634
		c0-1.148-0.574-2.591-2.031-2.591C489.426,416.091,488.796,417.436,488.796,418.71z"/>
	<path d="M495.711,417.52c0-0.868-0.028-1.569-0.056-2.213h1.093l0.069,1.162h0.028c0.49-0.826,1.303-1.303,2.409-1.303
		c1.653,0,2.886,1.387,2.886,3.432c0,2.438-1.499,3.643-3.096,3.643c-0.896,0-1.681-0.393-2.087-1.064h-0.028v3.684h-1.219V417.52z
		 M496.93,419.326c0,0.183,0.014,0.351,0.056,0.505c0.225,0.854,0.967,1.442,1.85,1.442c1.303,0,2.059-1.064,2.059-2.619
		c0-1.345-0.714-2.508-2.017-2.508c-0.841,0-1.639,0.589-1.863,1.513c-0.042,0.154-0.084,0.337-0.084,0.49V419.326z"/>
</g>
</svg>
