<?xml version="1.0" encoding="utf-8"?>
<!-- Generator: Adobe Illustrator 15.1.0, SVG Export Plug-In . SVG Version: 6.00 Build 0)  -->
<!DOCTYPE svg PUBLIC "-//W3C//DTD SVG 1.1//EN" "http://www.w3.org/Graphics/SVG/1.1/DTD/svg11.dtd">
<svg version="1.1" id="Layer_1" xmlns="http://www.w3.org/2000/svg" xmlns:xlink="http://www.w3.org/1999/xlink" x="0px" y="0px"
	 width="640px" height="480px" viewBox="0 0 640 480" enable-background="new 0 0 640 480" xml:space="preserve">
<rect x="141.222" y="129.333" fill="#FFFFFF" stroke="#000000" stroke-miterlimit="10" width="124.444" height="86.778"/>
<rect x="305.222" y="130.5" fill="#FFFFFF" stroke="#000000" stroke-miterlimit="10" width="124.444" height="86.778"/>
<rect x="309.223" y="246.611" fill="#FFFFFF" stroke="#000000" stroke-miterlimit="10" width="124.443" height="86.777"/>
<rect x="473.666" y="132.889" fill="#FFFFFF" stroke="#000000" stroke-miterlimit="10" width="124.444" height="86.777"/>
<rect x="141.222" y="246.611" fill="#FFFFFF" stroke="#000000" stroke-miterlimit="10" width="124.444" height="86.777"/>
<rect x="473.668" y="246.611" fill="#FFFFFF" stroke="#000000" stroke-miterlimit="10" width="124.443" height="120.499"/>
<rect x="305.222" y="18.222" fill="#FFFFFF" stroke="#000000" stroke-miterlimit="10" width="124.444" height="86.777"/>
<rect x="309.223" y="358.722" fill="#FFFFFF" stroke="#000000" stroke-miterlimit="10" width="124.443" height="86.777"/>
<circle fill="#FF00FF" stroke="#000000" stroke-miterlimit="10" cx="180" cy="173.889" r="35"/>
<circle fill="#00FFFF" stroke="#000000" stroke-miterlimit="10" cx="391.666" cy="173.889" r="35"/>
<circle fill="#FF00FF" stroke="#000000" stroke-miterlimit="10" cx="514.777" cy="290" r="35"/>
<circle fill="#00FFFF" stroke="#000000" stroke-miterlimit="10" cx="557" cy="290" r="35"/>
<g>
	<circle fill="#FFFF00" stroke="#000000" stroke-miterlimit="10" cx="514.777" cy="321.111" r="35"/>
	<circle fill="#39B54A" stroke="#000000" stroke-miterlimit="10" cx="557" cy="321.111" r="35"/>
</g>
<g>
	<rect x="272.333" y="159.889" fill="none" width="25.555" height="32.778"/>
	<path d="M284.212,166.299v8.459h8.135v2.16h-8.135v8.531h-2.304v-8.531h-8.135v-2.16h8.135v-8.459H284.212z"/>
</g>
<g>
	<g>
		<line fill="none" stroke="#000000" stroke-miterlimit="10" x1="436.777" y1="176.277" x2="453.521" y2="176.277"/>
		<g>
			<path d="M459.556,176.277c-2.84,1.054-6.363,2.852-8.548,4.756l1.721-4.756l-1.721-4.755
				C453.192,173.427,456.716,175.225,459.556,176.277z"/>
		</g>
	</g>
</g>
<circle fill="#FF00FF" stroke="#000000" stroke-miterlimit="10" cx="516.223" cy="176.723" r="35"/>
<circle fill="#00FFFF" stroke="#000000" stroke-miterlimit="10" cx="560.11" cy="176.278" r="35"/>
<circle fill="#FF00FF" stroke="#000000" stroke-miterlimit="10" cx="183.779" cy="290.445" r="35"/>
<circle fill="#00FFFF" stroke="#000000" stroke-miterlimit="10" cx="227.667" cy="290" r="35"/>
<g>
	<rect x="272.333" y="273.611" fill="none" width="25.555" height="32.777"/>
	<path d="M284.212,280.021v8.459h8.135v2.16h-8.135v8.53h-2.304v-8.53h-8.135v-2.16h8.135v-8.459H284.212z"/>
</g>
<g>
	<g>
		<line fill="none" stroke="#000000" stroke-miterlimit="10" x1="436.777" y1="290" x2="453.521" y2="290"/>
		<g>
			<path d="M459.556,290c-2.84,1.054-6.363,2.852-8.548,4.756l1.721-4.756l-1.721-4.755
				C453.192,287.149,456.716,288.947,459.556,290z"/>
		</g>
	</g>
</g>
<circle fill="#00FFFF" stroke="#000000" stroke-miterlimit="10" cx="391.666" cy="61.611" r="35"/>
<g>
	<g>
		<line fill="none" stroke="#000000" stroke-miterlimit="10" x1="371.445" y1="109.333" x2="371.445" y2="116.631"/>
		<g>
			<path d="M371.445,122.667c-1.055-2.84-2.852-6.363-4.756-8.547l4.756,1.72l4.754-1.72
				C374.295,116.303,372.498,119.827,371.445,122.667z"/>
		</g>
	</g>
</g>
<g>
	<path d="M383.146,118.03l-0.98,2.97h-1.26l3.221-9.441h1.457l3.223,9.441h-1.303l-1.009-2.97H383.146z M386.257,117.078
		l-0.938-2.718c-0.211-0.616-0.35-1.177-0.49-1.723H384.8c-0.14,0.546-0.28,1.134-0.476,1.708l-0.925,2.732H386.257z"/>
	<path d="M390.104,116.434c0-0.869-0.027-1.569-0.056-2.213h1.093l0.07,1.163h0.027c0.49-0.826,1.303-1.303,2.41-1.303
		c1.652,0,2.885,1.387,2.885,3.432c0,2.437-1.498,3.642-3.096,3.642c-0.896,0-1.681-0.393-2.087-1.065h-0.028v3.684h-1.219V116.434z
		 M391.322,118.241c0,0.182,0.015,0.35,0.057,0.504c0.225,0.854,0.967,1.443,1.849,1.443c1.303,0,2.06-1.064,2.06-2.619
		c0-1.345-0.715-2.508-2.018-2.508c-0.84,0-1.639,0.588-1.863,1.513c-0.041,0.154-0.084,0.336-0.084,0.49V118.241z"/>
	<path d="M398.07,116.434c0-0.869-0.028-1.569-0.057-2.213h1.093l0.07,1.163h0.028c0.49-0.826,1.303-1.303,2.408-1.303
		c1.653,0,2.887,1.387,2.887,3.432c0,2.437-1.5,3.642-3.096,3.642c-0.896,0-1.682-0.393-2.088-1.065h-0.027v3.684h-1.219V116.434z
		 M399.289,118.241c0,0.182,0.014,0.35,0.056,0.504c0.224,0.854,0.966,1.443,1.849,1.443c1.303,0,2.06-1.064,2.06-2.619
		c0-1.345-0.715-2.508-2.017-2.508c-0.842,0-1.64,0.588-1.863,1.513c-0.043,0.154-0.084,0.336-0.084,0.49V118.241z"/>
	<path d="M406.035,111.055h1.233V121h-1.233V111.055z"/>
	<path d="M409.787,114.22l1.471,4.006c0.169,0.448,0.337,0.98,0.449,1.387h0.027c0.127-0.406,0.267-0.924,0.435-1.415l1.345-3.978
		h1.303l-1.85,4.833c-0.882,2.326-1.484,3.502-2.324,4.245c-0.617,0.518-1.205,0.728-1.514,0.784l-0.308-1.022
		c0.308-0.098,0.714-0.294,1.079-0.602c0.336-0.267,0.742-0.743,1.036-1.373c0.056-0.126,0.098-0.224,0.098-0.294
		c0-0.07-0.028-0.168-0.098-0.322l-2.493-6.248H409.787z"/>
	<path d="M418.943,111.699c0.531-0.126,1.387-0.21,2.227-0.21c1.219,0,2.004,0.21,2.578,0.687c0.49,0.364,0.798,0.924,0.798,1.667
		c0,0.924-0.616,1.723-1.597,2.073v0.042c0.896,0.21,1.947,0.953,1.947,2.354c0,0.812-0.322,1.443-0.812,1.891
		c-0.645,0.602-1.709,0.882-3.25,0.882c-0.84,0-1.484-0.056-1.891-0.112V111.699z M420.162,115.565h1.105
		c1.275,0,2.031-0.686,2.031-1.597c0-1.093-0.826-1.541-2.059-1.541c-0.561,0-0.883,0.042-1.078,0.084V115.565z M420.162,120.076
		c0.252,0.042,0.588,0.056,1.021,0.056c1.262,0,2.424-0.462,2.424-1.835c0-1.274-1.106-1.821-2.438-1.821h-1.008V120.076z"/>
	<path d="M426.488,111.055h1.233V121h-1.233V111.055z"/>
	<path d="M430.479,117.834c0.028,1.667,1.079,2.353,2.326,2.353c0.882,0,1.428-0.154,1.877-0.35l0.224,0.882
		c-0.435,0.196-1.19,0.435-2.269,0.435c-2.088,0-3.334-1.387-3.334-3.432c0-2.045,1.204-3.642,3.18-3.642
		c2.227,0,2.801,1.933,2.801,3.18c0,0.252-0.014,0.435-0.041,0.575H430.479z M434.093,116.952c0.015-0.77-0.322-1.989-1.709-1.989
		c-1.261,0-1.793,1.134-1.891,1.989H434.093z"/>
	<path d="M436.807,116.055c0-0.714-0.015-1.274-0.057-1.835h1.093l0.07,1.121h0.028c0.336-0.63,1.12-1.261,2.24-1.261
		c0.938,0,2.396,0.561,2.396,2.886V121h-1.232v-3.908c0-1.092-0.406-2.003-1.569-2.003c-0.798,0-1.429,0.574-1.652,1.261
		c-0.056,0.154-0.084,0.364-0.084,0.574V121h-1.232V116.055z"/>
	<path d="M450.417,111.055v8.194c0,0.603,0.028,1.289,0.057,1.751h-1.093l-0.056-1.177h-0.042c-0.364,0.756-1.177,1.331-2.283,1.331
		c-1.64,0-2.914-1.387-2.914-3.446c-0.014-2.255,1.4-3.628,3.04-3.628c1.05,0,1.736,0.49,2.045,1.023h0.028v-4.048H450.417z
		 M449.199,116.98c0-0.154-0.015-0.364-0.057-0.519c-0.182-0.771-0.854-1.415-1.779-1.415c-1.274,0-2.03,1.121-2.03,2.605
		c0,1.373,0.687,2.507,2.003,2.507c0.826,0,1.583-0.561,1.807-1.471c0.042-0.168,0.057-0.336,0.057-0.533V116.98z"/>
	<path d="M453.845,112.315c0,0.42-0.294,0.756-0.784,0.756c-0.448,0-0.743-0.336-0.743-0.756c0-0.42,0.309-0.771,0.771-0.771
		C453.536,111.545,453.845,111.881,453.845,112.315z M452.472,121v-6.78h1.232V121H452.472z"/>
	<path d="M455.748,116.055c0-0.714-0.014-1.274-0.056-1.835h1.093l0.069,1.121h0.028c0.336-0.63,1.12-1.261,2.241-1.261
		c0.938,0,2.396,0.561,2.396,2.886V121h-1.233v-3.908c0-1.092-0.405-2.003-1.568-2.003c-0.799,0-1.429,0.574-1.653,1.261
		c-0.056,0.154-0.084,0.364-0.084,0.574V121h-1.232V116.055z"/>
	<path d="M469.316,120.005c0,1.569-0.322,2.507-0.966,3.11c-0.673,0.602-1.625,0.812-2.479,0.812c-0.812,0-1.709-0.196-2.256-0.561
		l0.309-0.953c0.448,0.294,1.148,0.546,1.989,0.546c1.261,0,2.185-0.658,2.185-2.381v-0.742h-0.027
		c-0.364,0.63-1.106,1.135-2.157,1.135c-1.681,0-2.886-1.429-2.886-3.306c0-2.297,1.499-3.586,3.067-3.586
		c1.177,0,1.808,0.603,2.115,1.163h0.028l0.042-1.022h1.093c-0.042,0.477-0.057,1.037-0.057,1.849V120.005z M468.084,116.896
		c0-0.21-0.014-0.393-0.07-0.546c-0.224-0.729-0.812-1.317-1.723-1.317c-1.177,0-2.017,0.995-2.017,2.563
		c0,1.331,0.687,2.438,2.003,2.438c0.771,0,1.457-0.477,1.709-1.261c0.069-0.21,0.098-0.448,0.098-0.659V116.896z"/>
</g>
<g>
	<circle fill="#FFFF00" stroke="#000000" stroke-miterlimit="10" cx="350.668" cy="402.11" r="35"/>
	<circle fill="#39B54A" stroke="#000000" stroke-miterlimit="10" cx="392.89" cy="402.11" r="35"/>
</g>
<g>
	<g>
		<line fill="none" stroke="#000000" stroke-miterlimit="10" x1="371.445" y1="346.703" x2="371.445" y2="354"/>
		<g>
			<path d="M371.445,340.668c-1.055,2.84-2.852,6.363-4.756,8.547l4.756-1.72l4.754,1.72
				C374.295,347.031,372.498,343.508,371.445,340.668z"/>
		</g>
	</g>
</g>
<circle fill="#FF00FF" stroke="#000000" stroke-miterlimit="10" cx="55.223" cy="38.889" r="35"/>
<circle fill="#00FFFF" stroke="#000000" stroke-miterlimit="10" cx="97.445" cy="38.889" r="35"/>
<g>
	<circle fill="#FFFF00" stroke="#000000" stroke-miterlimit="10" cx="55.223" cy="70" r="35"/>
	<circle fill="#39B54A" stroke="#000000" stroke-miterlimit="10" cx="97.445" cy="70" r="35"/>
</g>
<path fill="#0000FF" stroke="#000000" stroke-miterlimit="10" d="M357.389,173.667c0,11.148,5.219,21.072,13.339,27.481
	c7.8-6.419,12.773-16.146,12.773-27.036c0-11.148-5.219-21.072-13.339-27.481C362.362,153.05,357.389,162.777,357.389,173.667z"/>
<g>
	<defs>
		<path id="SVGID_1_" d="M392.555,255.444c-7.93,0-15.242,2.641-21.11,7.087c-5.869-4.446-13.181-7.087-21.11-7.087
			c-19.33,0-35,15.67-35,35.002c0,19.33,15.67,35,35,35c7.93,0,15.241-2.641,21.11-7.086c5.868,4.445,13.181,7.086,21.11,7.086
			c19.332,0,35.002-15.67,35.002-35C427.557,271.114,411.887,255.444,392.555,255.444z"/>
	</defs>
	<clipPath id="SVGID_2_">
		<use xlink:href="#SVGID_1_"  overflow="visible"/>
	</clipPath>
	<circle clip-path="url(#SVGID_2_)" fill="#FF00FF" stroke="#000000" stroke-miterlimit="10" cx="350.334" cy="259.335" r="35"/>
	<circle clip-path="url(#SVGID_2_)" fill="#00FFFF" stroke="#000000" stroke-miterlimit="10" cx="392.556" cy="259.335" r="35"/>
	<g clip-path="url(#SVGID_2_)">
		<circle fill="#FFFF00" stroke="#000000" stroke-miterlimit="10" cx="350.334" cy="290.446" r="35"/>
		<circle fill="#39B54A" stroke="#000000" stroke-miterlimit="10" cx="392.556" cy="290.446" r="35"/>
	</g>
</g>
<g>
	<path d="M380.926,348.585l-0.98,2.97h-1.262l3.223-9.441h1.457l3.221,9.441h-1.303l-1.008-2.97H380.926z M384.035,347.633
		l-0.938-2.718c-0.21-0.616-0.351-1.177-0.49-1.723h-0.028c-0.141,0.546-0.279,1.134-0.477,1.708l-0.924,2.732H384.035z"/>
	<path d="M387.883,346.988c0-0.869-0.028-1.568-0.057-2.213h1.093l0.07,1.162h0.028c0.49-0.826,1.303-1.303,2.408-1.303
		c1.653,0,2.887,1.387,2.887,3.432c0,2.438-1.5,3.643-3.096,3.643c-0.896,0-1.682-0.393-2.088-1.064h-0.027v3.684h-1.219V346.988z
		 M389.102,348.795c0,0.183,0.014,0.351,0.056,0.504c0.224,0.855,0.966,1.443,1.849,1.443c1.303,0,2.06-1.064,2.06-2.619
		c0-1.345-0.715-2.508-2.017-2.508c-0.842,0-1.64,0.588-1.863,1.514c-0.043,0.153-0.084,0.336-0.084,0.49V348.795z"/>
	<path d="M395.848,346.988c0-0.869-0.027-1.568-0.056-2.213h1.093l0.07,1.162h0.027c0.49-0.826,1.303-1.303,2.41-1.303
		c1.652,0,2.885,1.387,2.885,3.432c0,2.438-1.498,3.643-3.096,3.643c-0.896,0-1.681-0.393-2.087-1.064h-0.028v3.684h-1.219V346.988z
		 M397.066,348.795c0,0.183,0.015,0.351,0.057,0.504c0.225,0.855,0.967,1.443,1.849,1.443c1.303,0,2.06-1.064,2.06-2.619
		c0-1.345-0.715-2.508-2.018-2.508c-0.84,0-1.639,0.588-1.863,1.514c-0.041,0.153-0.084,0.336-0.084,0.49V348.795z"/>
	<path d="M403.814,341.609h1.232v9.945h-1.232V341.609z"/>
	<path d="M407.566,344.775l1.471,4.006c0.168,0.448,0.336,0.98,0.447,1.387h0.029c0.125-0.406,0.266-0.924,0.434-1.415l1.345-3.978
		h1.303l-1.849,4.832c-0.883,2.326-1.485,3.502-2.326,4.244c-0.615,0.519-1.204,0.729-1.512,0.785l-0.309-1.023
		c0.309-0.098,0.715-0.293,1.078-0.602c0.336-0.267,0.742-0.742,1.037-1.373c0.056-0.126,0.098-0.225,0.098-0.294
		c0-0.07-0.027-0.169-0.098-0.322l-2.494-6.247H407.566z"/>
	<path d="M416.721,342.254c0.533-0.127,1.387-0.211,2.229-0.211c1.218,0,2.002,0.211,2.576,0.688
		c0.49,0.363,0.799,0.924,0.799,1.666c0,0.925-0.616,1.723-1.597,2.073v0.042c0.896,0.211,1.946,0.953,1.946,2.354
		c0,0.812-0.321,1.443-0.812,1.891c-0.645,0.603-1.709,0.883-3.25,0.883c-0.841,0-1.485-0.057-1.892-0.111V342.254z
		 M417.939,346.119h1.107c1.274,0,2.031-0.686,2.031-1.596c0-1.094-0.827-1.541-2.06-1.541c-0.561,0-0.882,0.041-1.079,0.084
		V346.119z M417.939,350.631c0.252,0.041,0.589,0.055,1.023,0.055c1.26,0,2.423-0.461,2.423-1.834c0-1.275-1.106-1.821-2.437-1.821
		h-1.01V350.631z"/>
	<path d="M424.268,341.609h1.232v9.945h-1.232V341.609z"/>
	<path d="M428.258,348.389c0.027,1.667,1.078,2.354,2.324,2.354c0.883,0,1.43-0.154,1.877-0.35l0.225,0.882
		c-0.434,0.196-1.19,0.435-2.27,0.435c-2.087,0-3.334-1.387-3.334-3.432s1.205-3.643,3.18-3.643c2.228,0,2.803,1.934,2.803,3.18
		c0,0.252-0.015,0.435-0.043,0.574H428.258z M431.871,347.506c0.014-0.77-0.322-1.988-1.709-1.988c-1.261,0-1.793,1.135-1.891,1.988
		H431.871z"/>
	<path d="M434.584,346.609c0-0.714-0.014-1.273-0.056-1.834h1.093l0.07,1.12h0.027c0.337-0.63,1.121-1.261,2.241-1.261
		c0.938,0,2.396,0.561,2.396,2.886v4.034h-1.232v-3.908c0-1.092-0.406-2.003-1.569-2.003c-0.798,0-1.429,0.574-1.652,1.261
		c-0.056,0.154-0.084,0.364-0.084,0.574v4.076h-1.233V346.609z"/>
	<path d="M448.195,341.609v8.194c0,0.603,0.028,1.288,0.057,1.751h-1.093l-0.056-1.177h-0.042c-0.364,0.757-1.177,1.331-2.283,1.331
		c-1.64,0-2.914-1.387-2.914-3.446c-0.014-2.255,1.4-3.628,3.04-3.628c1.05,0,1.736,0.49,2.045,1.023h0.028v-4.049H448.195z
		 M446.978,347.535c0-0.154-0.015-0.365-0.057-0.52c-0.182-0.77-0.854-1.414-1.779-1.414c-1.274,0-2.03,1.121-2.03,2.605
		c0,1.373,0.687,2.508,2.003,2.508c0.826,0,1.583-0.561,1.807-1.471c0.042-0.169,0.057-0.337,0.057-0.533V347.535z"/>
	<path d="M451.623,342.87c0,0.42-0.294,0.757-0.784,0.757c-0.448,0-0.743-0.337-0.743-0.757c0-0.421,0.309-0.771,0.771-0.771
		C451.314,342.1,451.623,342.436,451.623,342.87z M450.25,351.555v-6.779h1.232v6.779H450.25z"/>
	<path d="M453.526,346.609c0-0.714-0.014-1.273-0.056-1.834h1.093l0.069,1.12h0.028c0.336-0.63,1.12-1.261,2.241-1.261
		c0.938,0,2.396,0.561,2.396,2.886v4.034h-1.233v-3.908c0-1.092-0.405-2.003-1.568-2.003c-0.799,0-1.429,0.574-1.653,1.261
		c-0.056,0.154-0.084,0.364-0.084,0.574v4.076h-1.232V346.609z"/>
	<path d="M467.095,350.561c0,1.568-0.322,2.507-0.966,3.109c-0.673,0.602-1.625,0.812-2.479,0.812c-0.812,0-1.709-0.196-2.256-0.561
		l0.309-0.953c0.448,0.295,1.148,0.547,1.989,0.547c1.261,0,2.185-0.658,2.185-2.381v-0.742h-0.027
		c-0.364,0.63-1.106,1.135-2.157,1.135c-1.681,0-2.886-1.43-2.886-3.307c0-2.297,1.499-3.586,3.067-3.586
		c1.177,0,1.808,0.603,2.115,1.162h0.028l0.042-1.021h1.093c-0.042,0.477-0.057,1.036-0.057,1.849V350.561z M465.862,347.451
		c0-0.211-0.014-0.393-0.07-0.547c-0.224-0.729-0.812-1.316-1.723-1.316c-1.177,0-2.017,0.994-2.017,2.562
		c0,1.331,0.687,2.438,2.003,2.438c0.771,0,1.457-0.477,1.709-1.26c0.069-0.211,0.098-0.449,0.098-0.659V347.451z"/>
</g>
</svg>
