<?xml version="1.0" encoding="utf-8"?>
<!-- Generator: Adobe Illustrator 15.1.0, SVG Export Plug-In . SVG Version: 6.00 Build 0)  -->
<!DOCTYPE svg PUBLIC "-//W3C//DTD SVG 1.1//EN" "http://www.w3.org/Graphics/SVG/1.1/DTD/svg11.dtd">
<svg version="1.1" id="Layer_1" xmlns="http://www.w3.org/2000/svg" xmlns:xlink="http://www.w3.org/1999/xlink" x="0px" y="0px"
	 width="640px" height="480px" viewBox="0 0 640 480" enable-background="new 0 0 640 480" xml:space="preserve">
<g>
	<rect x="93.222" y="103.242" fill="#FFFFFF" width="124.444" height="86.778"/>
	<polygon points="217.666,190.02 217.666,189.52 93.722,189.52 93.722,103.742 217.166,103.742 217.166,190.02 217.666,190.02 
		217.666,189.52 217.666,190.02 218.166,190.02 218.166,102.742 92.722,102.742 92.722,190.52 218.166,190.52 218.166,190.02 	"/>
	<polyline fill="#FFFFFF" points="637,194.666 512.556,194.666 512.556,107.889 637,107.889 637,194.666 	"/>
	<polyline points="637,194.666 637,194.166 513.056,194.166 513.056,108.389 636.5,108.389 636.5,194.666 637,194.666 637,194.166 
		637,194.666 637.5,194.666 637.5,107.389 512.056,107.389 512.056,195.166 637.5,195.166 637.5,194.666 637,194.666 	"/>
	<polyline fill="#FFFFFF" points="217.666,308.668 93.222,308.668 93.222,221.891 217.666,221.891 217.666,308.668 	"/>
	<polygon points="217.666,308.668 217.666,308.168 93.722,308.168 93.722,222.391 217.166,222.391 217.166,308.668 217.666,308.668 
		217.666,308.168 217.666,308.668 218.166,308.668 218.166,221.391 92.722,221.391 92.722,309.168 218.166,309.168 218.166,308.668 
			"/>
	<polyline fill="#FFFFFF" points="490.331,306.443 365.888,306.443 365.888,219.666 490.331,219.666 490.331,306.443 	"/>
	<polyline points="490.331,306.443 490.331,305.943 366.388,305.943 366.388,220.166 489.831,220.166 489.831,306.443 
		490.331,306.443 490.331,305.943 490.331,306.443 490.831,306.443 490.831,219.166 365.388,219.166 365.388,306.943 
		490.831,306.943 490.831,306.443 490.331,306.443 	"/>
	<circle fill="#FF00FF" cx="132" cy="147.797" r="35"/>
	<path d="M167,147.797h-0.5c0,9.528-3.861,18.15-10.105,24.395c-6.245,6.244-14.867,10.104-24.395,10.105
		c-9.528,0-18.15-3.861-24.395-10.105c-6.244-6.245-10.105-14.866-10.105-24.395s3.861-18.15,10.105-24.395
		c6.245-6.244,14.866-10.105,24.395-10.105c9.528,0,18.15,3.861,24.395,10.105c6.244,6.245,10.104,14.866,10.105,24.395H167h0.5
		c0-19.606-15.894-35.5-35.5-35.5c-19.606,0-35.5,15.894-35.5,35.5c0,19.606,15.894,35.5,35.5,35.5c19.606,0,35.5-15.894,35.5-35.5
		H167z"/>
	<path fill="#FF00FF" d="M588.112,151.723c0,19.33-15.67,35-35,35s-35-15.67-35-35c0-19.33,15.67-35,35-35
		S588.112,132.393,588.112,151.723"/>
	<path d="M588.112,151.723h-0.5c0,9.528-3.86,18.15-10.104,24.395c-6.245,6.244-14.867,10.104-24.396,10.104
		c-9.528,0-18.15-3.861-24.396-10.104c-6.244-6.245-10.104-14.867-10.104-24.395c0-9.529,3.86-18.15,10.104-24.395
		c6.245-6.244,14.867-10.104,24.396-10.105c9.528,0,18.15,3.861,24.396,10.105c6.244,6.245,10.104,14.866,10.104,24.395H588.112h0.5
		c0-19.606-15.894-35.5-35.5-35.5c-19.606,0-35.5,15.894-35.5,35.5c0,19.606,15.894,35.499,35.5,35.5
		c19.606,0,35.5-15.894,35.5-35.5H588.112"/>
	<path fill="#00FFFF" d="M602,116.778c-9.307,0-17.749,3.684-23.956,9.673c6.523,6.437,10.568,15.383,10.568,25.272l0,0l0,0
		c0,9.657-3.856,18.414-10.112,24.813c6.161,5.735,14.419,9.241,23.5,9.242c9.528,0,18.15-3.861,24.396-10.105
		c6.244-6.245,10.104-14.867,10.104-24.396l0,0c0-9.528-3.86-18.15-10.104-24.396C620.15,120.639,611.528,116.778,602,116.778"/>
	<path fill="#0000FF" d="M577.334,127.156c-6.084,6.222-9.834,14.731-9.834,24.122c0,9.529,3.86,18.151,10.104,24.396
		c0.058,0.057,0.115,0.115,0.173,0.171c6.086-6.222,9.835-14.731,9.835-24.122h0.5l0,0h-0.5c0-9.529-3.86-18.15-10.104-24.395
		C577.45,127.271,577.393,127.213,577.334,127.156"/>
	<path d="M588.612,151.723h-0.5h-0.5c0,9.391-3.749,17.9-9.835,24.122c0.237,0.234,0.479,0.465,0.723,0.692
		C584.756,170.137,588.612,161.38,588.612,151.723 M588.612,151.723L588.612,151.723L588.612,151.723 M578.044,126.451
		c-0.147,0.143-0.294,0.286-0.439,0.431c-0.091,0.091-0.181,0.182-0.271,0.274c0.059,0.057,0.116,0.114,0.174,0.172
		c6.244,6.245,10.104,14.866,10.104,24.395h0.5h0.5l0,0C588.612,141.834,584.567,132.888,578.044,126.451"/>
	<path d="M602,115.778c-9.589,0-18.29,3.802-24.679,9.98c0.244,0.228,0.485,0.458,0.723,0.693c6.207-5.99,14.649-9.673,23.956-9.673
		c9.528,0,18.15,3.861,24.396,10.104c6.244,6.245,10.104,14.867,10.104,24.396v-8.401C632.726,127.326,618.712,115.778,602,115.778"
		/>
	<path d="M636.5,142.877v8.401l0,0h0.5h0.5l0,0C637.5,148.383,637.153,145.57,636.5,142.877"/>
	<path d="M636.5,151.278c0,9.529-3.86,18.151-10.104,24.396c-6.245,6.244-14.867,10.104-24.396,10.105
		c-9.081,0-17.339-3.507-23.5-9.242c-0.233,0.239-0.47,0.474-0.71,0.706c6.342,5.916,14.853,9.536,24.21,9.536
		c16.712,0,30.726-11.548,34.5-27.099V151.278"/>
	<path d="M637.5,151.278H637h-0.5l0,0v8.401C637.153,156.985,637.5,154.173,637.5,151.278"/>
	<path d="M576.612,126.464c-6.257,6.4-10.112,15.156-10.112,24.813c0,9.89,4.044,18.835,10.568,25.272
		c0.147-0.143,0.294-0.287,0.439-0.432c0.09-0.09,0.181-0.182,0.27-0.273c-0.058-0.057-0.115-0.114-0.173-0.171
		c-6.244-6.245-10.104-14.867-10.104-24.396c0-9.39,3.75-17.9,9.834-24.122C577.097,126.922,576.856,126.691,576.612,126.464"/>
	<path d="M577.321,125.758c-0.239,0.232-0.476,0.467-0.709,0.706c0.244,0.227,0.484,0.458,0.722,0.692
		c0.09-0.092,0.18-0.183,0.271-0.274c0.146-0.145,0.292-0.289,0.439-0.431C577.807,126.217,577.565,125.986,577.321,125.758"/>
	<path d="M577.777,175.845c-0.089,0.091-0.18,0.183-0.27,0.273c-0.146,0.145-0.292,0.289-0.439,0.432
		c0.237,0.234,0.478,0.465,0.722,0.693c0.24-0.232,0.477-0.467,0.71-0.706C578.256,176.31,578.015,176.079,577.777,175.845"/>
	<path fill="#FF00FF" d="M169.333,38.889c0,19.331-15.67,35-35,35s-35-15.67-35-35c0-19.33,15.67-35,35-35
		S169.333,19.559,169.333,38.889"/>
	<path d="M169.333,38.889h-0.5c0,9.529-3.861,18.151-10.105,24.396c-6.245,6.244-14.867,10.105-24.395,10.105
		s-18.15-3.861-24.395-10.105c-6.244-6.245-10.104-14.867-10.105-24.396c0-9.529,3.861-18.15,10.105-24.395
		c6.245-6.244,14.866-10.104,24.395-10.105c9.528,0,18.15,3.861,24.395,10.105c6.244,6.245,10.105,14.866,10.105,24.395H169.333h0.5
		c0-19.606-15.894-35.5-35.5-35.5c-19.606,0-35.5,15.894-35.5,35.5c0,19.607,15.894,35.5,35.5,35.5c19.606,0,35.5-15.894,35.5-35.5
		H169.333"/>
	<path fill="#00FFFF" d="M176.554,4.389c-7.582,0-14.589,2.444-20.283,6.589c8.259,6.5,13.561,16.586,13.561,27.911l0,0l0,0
		c0,11.326-5.303,21.412-13.561,27.912c5.693,4.145,12.701,6.589,20.283,6.589c9.529,0,18.151-3.861,24.396-10.105
		c6.244-6.245,10.104-14.867,10.105-24.396h0.5l0,0h-0.5c0-9.529-3.861-18.15-10.105-24.395
		C194.705,8.25,186.083,4.389,176.554,4.389"/>
	<path fill="#0000FF" d="M155.443,11.6c-1.155,0.895-2.252,1.862-3.284,2.894c-6.244,6.245-10.104,14.866-10.105,24.395
		c0,9.529,3.861,18.151,10.105,24.396c1.032,1.032,2.129,1.999,3.284,2.894c1.155-0.895,2.252-1.862,3.284-2.894
		c6.244-6.245,10.105-14.867,10.105-24.396h0.5l0,0h-0.5c0-9.529-3.861-18.15-10.105-24.395
		C157.696,13.461,156.599,12.495,155.443,11.6"/>
	<path d="M169.833,38.889h-0.5h-0.5c0,9.529-3.861,18.151-10.105,24.396c-1.032,1.032-2.129,1.999-3.284,2.894
		c0.272,0.211,0.549,0.419,0.828,0.622C164.53,60.3,169.832,50.214,169.833,38.889 M169.833,38.889L169.833,38.889L169.833,38.889
		 M156.271,10.978c-0.279,0.203-0.556,0.411-0.828,0.622c1.155,0.895,2.252,1.862,3.284,2.894
		c6.244,6.245,10.105,14.866,10.105,24.395h0.5h0.5l0,0C169.832,27.563,164.53,17.478,156.271,10.978"/>
	<path d="M212.055,38.889h-0.5h-0.5c0,9.529-3.861,18.151-10.105,24.396c-6.245,6.244-14.867,10.105-24.396,10.105
		c-7.582,0-14.59-2.444-20.283-6.589c-0.272,0.214-0.55,0.426-0.828,0.632c5.9,4.372,13.203,6.957,21.111,6.957
		C196.162,74.389,212.055,58.496,212.055,38.889 M176.554,3.389c-7.908,0-15.21,2.584-21.111,6.956
		c0.278,0.207,0.556,0.418,0.828,0.633c5.693-4.145,12.701-6.589,20.283-6.589c9.529,0,18.151,3.861,24.396,10.105
		c6.244,6.245,10.104,14.866,10.105,24.395h0.5h0.5l0,0C212.055,19.282,196.162,3.389,176.554,3.389"/>
	<path d="M154.615,10.978c-8.259,6.5-13.561,16.586-13.561,27.911c0,11.326,5.302,21.412,13.561,27.912
		c0.279-0.203,0.556-0.411,0.828-0.622c-1.155-0.895-2.252-1.862-3.284-2.894c-6.244-6.245-10.104-14.867-10.105-24.396
		c0-9.529,3.861-18.15,10.105-24.395c1.032-1.032,2.129-1.999,3.284-2.894C155.171,11.388,154.894,11.181,154.615,10.978"/>
	<path d="M155.443,10.345c-0.279,0.207-0.556,0.418-0.828,0.633c0.279,0.203,0.556,0.411,0.828,0.622
		c0.272-0.211,0.549-0.419,0.828-0.622C156,10.763,155.722,10.551,155.443,10.345"/>
	<path d="M155.443,66.178c-0.272,0.211-0.549,0.419-0.828,0.622c0.272,0.214,0.549,0.426,0.828,0.632
		c0.278-0.206,0.556-0.418,0.828-0.632C155.992,66.597,155.716,66.39,155.443,66.178"/>
	<path fill="#00FFFF" d="M179.666,230.78c-9.529,0-18.15,3.86-24.395,10.104c-6.244,6.245-10.104,14.867-10.105,24.395
		c0,9.529,3.861,18.151,10.105,24.396c6.245,6.245,14.866,10.105,24.395,10.105c9.528,0,18.15-3.86,24.395-10.105
		c6.244-6.244,10.104-14.866,10.105-24.396h0.5l0,0h-0.5c0-9.528-3.861-18.15-10.105-24.395
		C197.816,234.64,189.194,230.78,179.666,230.78"/>
	<path d="M215.166,265.279L215.166,265.279L215.166,265.279 M179.666,229.78c-19.606,0-35.5,15.893-35.5,35.5
		c0,19.607,15.894,35.501,35.5,35.501s35.5-15.894,35.5-35.501h-0.5h-0.5c0,9.529-3.861,18.151-10.105,24.396
		c-6.245,6.245-14.867,10.105-24.395,10.105c-9.529,0-18.15-3.86-24.395-10.105c-6.244-6.244-10.104-14.866-10.105-24.396
		c0-9.528,3.861-18.15,10.105-24.395c6.245-6.244,14.866-10.104,24.395-10.104c9.528,0,18.15,3.86,24.395,10.104
		c6.244,6.245,10.104,14.867,10.105,24.395h0.5h0.5l0,0C215.166,245.673,199.272,229.78,179.666,229.78"/>
	<g>
		<path d="M4.466,261.571c0.547,0.35,1.331,0.616,2.172,0.616c1.246,0,1.975-0.658,1.975-1.611c0-0.868-0.504-1.387-1.779-1.863
			c-1.54-0.56-2.493-1.372-2.493-2.689c0-1.471,1.219-2.562,3.054-2.562c0.953,0,1.667,0.224,2.073,0.462l-0.336,0.994
			c-0.294-0.182-0.925-0.448-1.779-0.448c-1.288,0-1.778,0.771-1.778,1.415c0,0.883,0.574,1.316,1.877,1.821
			c1.597,0.616,2.395,1.387,2.395,2.773c0,1.457-1.064,2.731-3.291,2.731c-0.911,0-1.905-0.28-2.41-0.616L4.466,261.571z"/>
		<path d="M11.48,253.11h1.232v4.244h0.028c0.196-0.351,0.504-0.672,0.883-0.883c0.364-0.21,0.798-0.336,1.261-0.336
			c0.91,0,2.367,0.561,2.367,2.886v4.034h-1.233v-3.895c0-1.092-0.406-2.003-1.568-2.003c-0.799,0-1.415,0.561-1.653,1.219
			c-0.069,0.183-0.084,0.364-0.084,0.589v4.09H11.48V253.11z"/>
		<path d="M24.013,261.431c0,0.589,0.028,1.163,0.098,1.625h-1.106l-0.098-0.854h-0.042c-0.379,0.532-1.106,1.009-2.073,1.009
			c-1.373,0-2.073-0.967-2.073-1.947c0-1.639,1.457-2.535,4.076-2.521v-0.14c0-0.547-0.154-1.569-1.541-1.555
			c-0.645,0-1.303,0.182-1.778,0.504l-0.28-0.826c0.56-0.351,1.387-0.589,2.241-0.589c2.073,0,2.577,1.415,2.577,2.76V261.431z
			 M22.822,259.596c-1.345-0.028-2.872,0.21-2.872,1.527c0,0.812,0.532,1.176,1.148,1.176c0.896,0,1.472-0.56,1.667-1.134
			c0.042-0.141,0.057-0.28,0.057-0.393V259.596z"/>
		<path d="M25.998,258.489c0-0.868-0.028-1.569-0.056-2.213h1.093l0.069,1.162h0.028c0.49-0.826,1.303-1.303,2.409-1.303
			c1.653,0,2.886,1.387,2.886,3.432c0,2.438-1.499,3.643-3.096,3.643c-0.896,0-1.681-0.393-2.087-1.064h-0.028v3.684h-1.219V258.489
			z M27.217,260.296c0,0.183,0.014,0.351,0.056,0.505c0.225,0.854,0.967,1.442,1.85,1.442c1.303,0,2.059-1.064,2.059-2.619
			c0-1.345-0.714-2.508-2.017-2.508c-0.841,0-1.639,0.589-1.863,1.513c-0.042,0.154-0.084,0.337-0.084,0.49V260.296z"/>
		<path d="M34.65,259.89c0.028,1.667,1.078,2.354,2.325,2.354c0.883,0,1.429-0.154,1.877-0.351l0.225,0.883
			c-0.435,0.196-1.191,0.435-2.27,0.435c-2.087,0-3.334-1.387-3.334-3.432c0-2.046,1.205-3.643,3.18-3.643
			c2.228,0,2.802,1.934,2.802,3.18c0,0.252-0.015,0.435-0.042,0.574H34.65z M38.265,259.008c0.014-0.771-0.322-1.989-1.709-1.989
			c-1.261,0-1.793,1.135-1.892,1.989H38.265z"/>
		<path d="M43.553,263.056v-0.757l0.967-0.938c2.325-2.213,3.39-3.39,3.39-4.762c0-0.925-0.434-1.779-1.793-1.779
			c-0.826,0-1.513,0.42-1.933,0.771l-0.393-0.869c0.616-0.518,1.527-0.924,2.563-0.924c1.961,0,2.788,1.345,2.788,2.647
			c0,1.681-1.219,3.039-3.138,4.889l-0.715,0.672v0.028h4.076v1.022H43.553z"/>
		<path d="M50.847,257.396c0-0.519,0.351-0.883,0.826-0.883c0.505,0,0.827,0.364,0.827,0.883c0,0.49-0.322,0.868-0.841,0.868
			C51.183,258.265,50.847,257.887,50.847,257.396z M50.847,262.341c0-0.518,0.351-0.882,0.826-0.882
			c0.505,0,0.827,0.364,0.827,0.882c0,0.491-0.322,0.869-0.841,0.869C51.183,263.21,50.847,262.832,50.847,262.341z"/>
	</g>
	<g>
		<path d="M7.133,149.459c0.547,0.35,1.331,0.616,2.172,0.616c1.246,0,1.975-0.658,1.975-1.611c0-0.868-0.504-1.387-1.779-1.863
			c-1.54-0.561-2.493-1.373-2.493-2.689c0-1.471,1.219-2.563,3.054-2.563c0.953,0,1.667,0.224,2.073,0.462l-0.336,0.995
			c-0.294-0.182-0.925-0.448-1.779-0.448c-1.288,0-1.778,0.77-1.778,1.415c0,0.882,0.574,1.317,1.877,1.821
			c1.597,0.617,2.395,1.387,2.395,2.774c0,1.457-1.064,2.731-3.291,2.731c-0.911,0-1.905-0.28-2.41-0.617L7.133,149.459z"/>
		<path d="M14.147,140.999h1.232v4.244h0.028c0.196-0.35,0.504-0.672,0.883-0.882c0.364-0.21,0.798-0.336,1.261-0.336
			c0.91,0,2.367,0.561,2.367,2.886v4.034h-1.233v-3.894c0-1.093-0.406-2.003-1.568-2.003c-0.799,0-1.415,0.56-1.653,1.218
			c-0.069,0.182-0.084,0.364-0.084,0.588v4.09h-1.232V140.999z"/>
		<path d="M26.68,149.319c0,0.588,0.028,1.163,0.098,1.625h-1.106l-0.098-0.854h-0.042c-0.379,0.532-1.106,1.009-2.073,1.009
			c-1.373,0-2.073-0.967-2.073-1.947c0-1.639,1.457-2.535,4.076-2.521v-0.14c0-0.546-0.154-1.569-1.541-1.555
			c-0.645,0-1.303,0.182-1.778,0.504l-0.28-0.827c0.56-0.35,1.387-0.588,2.241-0.588c2.073,0,2.577,1.415,2.577,2.76V149.319z
			 M25.489,147.484c-1.345-0.028-2.872,0.21-2.872,1.527c0,0.812,0.532,1.177,1.148,1.177c0.896,0,1.472-0.561,1.667-1.135
			c0.042-0.14,0.057-0.28,0.057-0.392V147.484z"/>
		<path d="M28.665,146.378c0-0.869-0.028-1.569-0.056-2.213h1.093l0.069,1.163H29.8c0.49-0.826,1.303-1.303,2.409-1.303
			c1.653,0,2.886,1.387,2.886,3.432c0,2.437-1.499,3.642-3.096,3.642c-0.896,0-1.681-0.393-2.087-1.065h-0.028v3.684h-1.219V146.378
			z M29.884,148.185c0,0.182,0.014,0.35,0.056,0.504c0.225,0.854,0.967,1.443,1.85,1.443c1.303,0,2.059-1.064,2.059-2.619
			c0-1.345-0.714-2.508-2.017-2.508c-0.841,0-1.639,0.588-1.863,1.513c-0.042,0.154-0.084,0.336-0.084,0.49V148.185z"/>
		<path d="M37.317,147.779c0.028,1.667,1.078,2.353,2.325,2.353c0.883,0,1.429-0.154,1.877-0.35l0.225,0.882
			c-0.435,0.196-1.191,0.435-2.27,0.435c-2.087,0-3.334-1.387-3.334-3.432c0-2.045,1.205-3.642,3.18-3.642
			c2.228,0,2.802,1.933,2.802,3.18c0,0.252-0.015,0.435-0.042,0.575H37.317z M40.932,146.896c0.014-0.77-0.322-1.989-1.709-1.989
			c-1.261,0-1.793,1.134-1.892,1.989H40.932z"/>
		<path d="M48.896,142.988h-0.028l-1.582,0.854l-0.238-0.938l1.989-1.064h1.05v9.105h-1.19V142.988z"/>
		<path d="M53.514,145.285c0-0.518,0.351-0.882,0.826-0.882c0.505,0,0.827,0.364,0.827,0.882c0,0.49-0.322,0.869-0.841,0.869
			C53.85,146.154,53.514,145.775,53.514,145.285z M53.514,150.23c0-0.518,0.351-0.882,0.826-0.882c0.505,0,0.827,0.364,0.827,0.882
			c0,0.49-0.322,0.869-0.841,0.869C53.85,151.099,53.514,150.72,53.514,150.23z"/>
	</g>
	<path fill="#00FFFF" d="M487.331,263.055c0,19.331-15.67,35.001-35,35.001s-35-15.67-35-35.001c0-19.33,15.67-35,35-35
		S487.331,243.725,487.331,263.055"/>
	<path d="M487.331,263.055h-0.5c0,9.529-3.86,18.151-10.104,24.396c-6.245,6.244-14.867,10.104-24.396,10.104
		s-18.15-3.86-24.396-10.104c-6.244-6.245-10.104-14.867-10.104-24.396c0-9.528,3.86-18.15,10.104-24.395
		c6.245-6.244,14.867-10.104,24.396-10.104c9.528,0,18.15,3.861,24.396,10.104c6.244,6.245,10.104,14.867,10.104,24.395H487.331h0.5
		c0-19.606-15.894-35.499-35.5-35.5c-19.606,0-35.5,15.893-35.5,35.5c0,19.607,15.894,35.501,35.5,35.501s35.5-15.894,35.5-35.501
		H487.331"/>
	<path fill="#0000FF" d="M430.834,236.442c-7.51,6.331-12.28,15.801-12.28,26.391c0,10.845,5.008,20.51,12.833,26.836
		c7.51-6.33,12.28-15.801,12.28-26.391C443.667,252.434,438.659,242.769,430.834,236.442"/>
	<path d="M418.554,262.833c0-10.59,4.771-20.061,12.28-26.391c7.825,6.327,12.833,15.992,12.833,26.836
		c0,10.59-4.771,20.061-12.28,26.391C423.562,283.343,418.554,273.678,418.554,262.833 M431.408,235.621
		c-1.225,0.936-2.384,1.951-3.473,3.039c-6.195,6.197-10.044,14.733-10.104,24.173h0.222h0.5h-0.5h-0.222
		c-0.001,0.073-0.001,0.147-0.001,0.222c0,9.529,3.86,18.151,10.104,24.396c1.174,1.174,2.433,2.263,3.765,3.259l0.011-0.01
		c7.909-6.509,12.956-16.378,12.956-27.422C444.667,252.097,439.489,242.126,431.408,235.621"/>
	<path d="M417.832,262.833h-0.278c0,11.307,5.294,21.375,13.53,27.874l0.316,0.25l0.3-0.247c-1.332-0.996-2.591-2.085-3.765-3.259
		c-6.244-6.245-10.104-14.867-10.104-24.396C417.831,262.98,417.831,262.906,417.832,262.833 M430.82,235.155l-0.311,0.256
		c-7.909,6.509-12.956,16.378-12.956,27.422h0.278c0.06-9.44,3.908-17.977,10.104-24.173c1.089-1.088,2.248-2.103,3.473-3.039
		c-0.09-0.073-0.181-0.145-0.271-0.217L430.82,235.155"/>
	<polyline points="429.555,219.666 429.555,151.723 428.555,151.723 428.555,219.666 	"/>
	<g>
		<path d="M407.095,144.257c-0.435,0.224-1.345,0.448-2.493,0.448c-2.662,0-4.651-1.681-4.651-4.791
			c0-2.969,2.004-4.958,4.931-4.958c1.163,0,1.919,0.252,2.241,0.42l-0.308,0.994c-0.448-0.224-1.106-0.392-1.892-0.392
			c-2.213,0-3.684,1.415-3.684,3.894c0,2.325,1.331,3.796,3.614,3.796c0.756,0,1.513-0.154,2.003-0.393L407.095,144.257z"/>
		<path d="M414.57,141.105c0,2.507-1.751,3.6-3.376,3.6c-1.821,0-3.25-1.345-3.25-3.488c0-2.255,1.499-3.586,3.362-3.586
			C413.253,137.631,414.57,139.046,414.57,141.105z M409.205,141.175c0,1.485,0.841,2.605,2.045,2.605
			c1.177,0,2.06-1.106,2.06-2.633c0-1.148-0.574-2.591-2.031-2.591C409.835,138.556,409.205,139.9,409.205,141.175z"/>
		<path d="M416.12,139.606c0-0.714-0.028-1.274-0.056-1.835h1.078l0.057,1.107h0.042c0.378-0.645,1.008-1.247,2.143-1.247
			c0.911,0,1.611,0.561,1.905,1.359h0.028c0.21-0.392,0.49-0.672,0.771-0.882c0.406-0.308,0.84-0.477,1.484-0.477
			c0.91,0,2.241,0.588,2.241,2.942v3.978h-1.205v-3.824c0-1.316-0.49-2.087-1.471-2.087c-0.714,0-1.246,0.518-1.471,1.106
			c-0.056,0.182-0.098,0.392-0.098,0.616v4.188h-1.205v-4.062c0-1.079-0.476-1.849-1.414-1.849c-0.757,0-1.331,0.616-1.527,1.232
			c-0.07,0.168-0.098,0.393-0.098,0.603v4.076h-1.205V139.606z"/>
		<path d="M427.797,139.984c0-0.869-0.028-1.569-0.056-2.213h1.093l0.069,1.163h0.028c0.49-0.826,1.303-1.303,2.409-1.303
			c1.653,0,2.886,1.387,2.886,3.432c0,2.437-1.499,3.642-3.096,3.642c-0.896,0-1.681-0.393-2.087-1.065h-0.028v3.684h-1.219V139.984
			z M429.016,141.792c0,0.182,0.014,0.35,0.056,0.504c0.225,0.854,0.967,1.443,1.85,1.443c1.303,0,2.059-1.064,2.059-2.619
			c0-1.345-0.714-2.508-2.017-2.508c-0.841,0-1.639,0.588-1.863,1.513c-0.042,0.154-0.084,0.336-0.084,0.49V141.792z"/>
		<path d="M441.898,141.105c0,2.507-1.751,3.6-3.376,3.6c-1.821,0-3.25-1.345-3.25-3.488c0-2.255,1.499-3.586,3.362-3.586
			C440.581,137.631,441.898,139.046,441.898,141.105z M436.533,141.175c0,1.485,0.841,2.605,2.045,2.605
			c1.177,0,2.06-1.106,2.06-2.633c0-1.148-0.574-2.591-2.031-2.591C437.163,138.556,436.533,139.9,436.533,141.175z"/>
		<path d="M443.28,143.304c0.378,0.224,1.022,0.476,1.639,0.476c0.883,0,1.303-0.434,1.303-1.008c0-0.588-0.35-0.896-1.246-1.233
			c-1.233-0.448-1.808-1.106-1.808-1.919c0-1.093,0.896-1.989,2.34-1.989c0.686,0,1.288,0.182,1.652,0.42l-0.294,0.896
			c-0.267-0.168-0.757-0.406-1.387-0.406c-0.729,0-1.121,0.42-1.121,0.924c0,0.561,0.393,0.812,1.275,1.163
			c1.162,0.434,1.778,1.022,1.778,2.031c0,1.205-0.938,2.045-2.521,2.045c-0.742,0-1.429-0.196-1.904-0.477L443.28,143.304z"/>
		<path d="M450.365,135.866c0,0.42-0.294,0.756-0.784,0.756c-0.448,0-0.743-0.336-0.743-0.756c0-0.42,0.309-0.771,0.771-0.771
			C450.057,135.096,450.365,135.432,450.365,135.866z M448.992,144.551v-6.78h1.232v6.78H448.992z"/>
		<path d="M453.754,136.146v1.625h1.765v0.938h-1.765v3.656c0,0.84,0.237,1.316,0.924,1.316c0.336,0,0.532-0.028,0.715-0.084
			l0.056,0.938c-0.238,0.084-0.616,0.168-1.093,0.168c-0.574,0-1.036-0.196-1.33-0.519c-0.337-0.378-0.477-0.98-0.477-1.779v-3.698
			h-1.051v-0.938h1.051v-1.261L453.754,136.146z"/>
		<path d="M457.519,141.385c0.028,1.667,1.078,2.353,2.325,2.353c0.883,0,1.429-0.154,1.877-0.35l0.225,0.882
			c-0.435,0.196-1.191,0.435-2.27,0.435c-2.087,0-3.334-1.387-3.334-3.432c0-2.045,1.205-3.642,3.18-3.642
			c2.228,0,2.802,1.933,2.802,3.18c0,0.252-0.015,0.435-0.042,0.575H457.519z M461.133,140.502c0.014-0.77-0.322-1.989-1.709-1.989
			c-1.261,0-1.793,1.134-1.892,1.989H461.133z"/>
	</g>
	<polyline points="217.666,151.297 499.744,151.297 499.744,150.297 217.666,150.297 	"/>
	<path d="M505.779,150.797c-2.84,1.054-6.363,2.852-8.547,4.756l1.72-4.756l-1.72-4.755
		C499.416,147.947,502.939,149.745,505.779,150.797z"/>
	<polyline points="217.667,265.78 352.522,265.78 352.522,264.78 217.667,264.78 	"/>
	<path d="M358.558,265.28c-2.84,1.054-6.363,2.852-8.548,4.756l1.721-4.756l-1.721-4.755
		C352.194,262.43,355.718,264.228,358.558,265.28z"/>
	<polyline points="217.667,175.384 281.335,175.384 281.335,174.384 217.667,174.384 	"/>
	<polyline points="280.835,174.884 280.835,265.279 281.835,265.279 281.835,174.884 	"/>
	<g>
		<path d="M289.399,205.028c0.532-0.126,1.387-0.21,2.228-0.21c1.219,0,2.003,0.21,2.577,0.687c0.49,0.364,0.799,0.924,0.799,1.667
			c0,0.924-0.616,1.723-1.598,2.073v0.042c0.896,0.21,1.947,0.953,1.947,2.354c0,0.812-0.322,1.443-0.812,1.891
			c-0.645,0.602-1.709,0.882-3.249,0.882c-0.841,0-1.485-0.056-1.892-0.112V205.028z M290.618,208.894h1.106
			c1.274,0,2.031-0.686,2.031-1.597c0-1.093-0.826-1.541-2.059-1.541c-0.561,0-0.883,0.042-1.079,0.084V208.894z M290.618,213.405
			c0.252,0.042,0.588,0.056,1.022,0.056c1.261,0,2.424-0.462,2.424-1.835c0-1.274-1.107-1.821-2.438-1.821h-1.009V213.405z"/>
		<path d="M296.945,204.384h1.232v9.945h-1.232V204.384z"/>
		<path d="M300.936,211.164c0.028,1.667,1.078,2.353,2.325,2.353c0.883,0,1.429-0.154,1.877-0.35l0.225,0.882
			c-0.435,0.196-1.191,0.435-2.27,0.435c-2.087,0-3.334-1.387-3.334-3.432c0-2.045,1.205-3.642,3.18-3.642
			c2.228,0,2.802,1.933,2.802,3.18c0,0.252-0.014,0.435-0.042,0.575H300.936z M304.55,210.281c0.014-0.77-0.322-1.989-1.709-1.989
			c-1.261,0-1.793,1.134-1.892,1.989H304.55z"/>
		<path d="M307.263,209.384c0-0.714-0.014-1.274-0.056-1.835h1.093l0.069,1.121h0.028c0.336-0.63,1.12-1.261,2.241-1.261
			c0.938,0,2.396,0.561,2.396,2.886v4.034h-1.233v-3.908c0-1.092-0.406-2.003-1.568-2.003c-0.799,0-1.429,0.574-1.653,1.261
			c-0.056,0.154-0.084,0.364-0.084,0.574v4.076h-1.232V209.384z"/>
		<path d="M320.874,204.384v8.194c0,0.603,0.028,1.289,0.057,1.751h-1.093l-0.056-1.177h-0.042
			c-0.364,0.756-1.177,1.331-2.283,1.331c-1.64,0-2.914-1.387-2.914-3.446c-0.014-2.255,1.4-3.628,3.04-3.628
			c1.05,0,1.736,0.49,2.045,1.023h0.028v-4.048H320.874z M319.656,210.309c0-0.154-0.015-0.364-0.057-0.519
			c-0.182-0.771-0.854-1.415-1.779-1.415c-1.274,0-2.03,1.121-2.03,2.605c0,1.373,0.687,2.507,2.003,2.507
			c0.826,0,1.583-0.561,1.807-1.471c0.042-0.168,0.057-0.336,0.057-0.533V210.309z"/>
	</g>
	<g>
		<path d="M122.507,341.775v9.441h-1.232v-9.441H122.507z"/>
		<path d="M124.732,346.272c0-0.715-0.014-1.275-0.056-1.835h1.093l0.069,1.12h0.028c0.336-0.63,1.12-1.261,2.241-1.261
			c0.938,0,2.396,0.561,2.396,2.886v4.034h-1.233v-3.908c0-1.093-0.406-2.003-1.568-2.003c-0.799,0-1.429,0.574-1.653,1.261
			c-0.056,0.154-0.084,0.364-0.084,0.574v4.076h-1.232V346.272z"/>
		<path d="M142.712,350.797c-0.547,0.21-1.639,0.518-2.914,0.518c-1.429,0-2.605-0.364-3.529-1.246
			c-0.812-0.784-1.317-2.045-1.317-3.516c0-2.816,1.947-4.875,5.113-4.875c1.093,0,1.961,0.238,2.367,0.435l-0.309,0.994
			c-0.504-0.238-1.134-0.406-2.087-0.406c-2.297,0-3.796,1.429-3.796,3.796c0,2.396,1.429,3.811,3.642,3.811
			c0.799,0,1.345-0.112,1.625-0.253v-2.815h-1.904v-0.98h3.109V350.797z"/>
		<path d="M144.556,341.888c0.589-0.098,1.358-0.182,2.34-0.182c1.204,0,2.087,0.279,2.646,0.784
			c0.505,0.448,0.827,1.135,0.827,1.975c0,0.854-0.252,1.527-0.729,2.018c-0.658,0.687-1.695,1.036-2.886,1.036
			c-0.364,0-0.7-0.014-0.98-0.084v3.782h-1.219V341.888z M145.774,346.44c0.267,0.069,0.603,0.098,1.009,0.098
			c1.471,0,2.367-0.729,2.367-2.003c0-1.261-0.896-1.863-2.228-1.863c-0.532,0-0.938,0.042-1.148,0.099V346.44z"/>
		<path d="M153.223,341.775v5.604c0,2.101,0.938,2.997,2.199,2.997c1.387,0,2.297-0.924,2.297-2.997v-5.604h1.233v5.52
			c0,2.899-1.527,4.076-3.572,4.076c-1.933,0-3.39-1.093-3.39-4.034v-5.562H153.223z"/>
		<path d="M159.856,352.954c0.309-0.841,0.687-2.34,0.841-3.362l1.373-0.14c-0.336,1.19-0.953,2.745-1.345,3.403L159.856,352.954z"
			/>
		<path d="M166.521,341.271h1.219v4.258h0.028c0.434-0.756,1.219-1.232,2.311-1.232c1.695,0,2.872,1.401,2.872,3.446
			c0,2.423-1.541,3.628-3.054,3.628c-0.98,0-1.765-0.379-2.283-1.261h-0.028l-0.069,1.106h-1.051
			c0.027-0.462,0.056-1.148,0.056-1.751V341.271z M167.74,348.499c0,0.154,0.014,0.309,0.056,0.448
			c0.225,0.854,0.953,1.443,1.85,1.443c1.303,0,2.059-1.051,2.059-2.605c0-1.359-0.7-2.521-2.031-2.521
			c-0.826,0-1.61,0.588-1.862,1.513c-0.042,0.154-0.07,0.322-0.07,0.519V348.499z"/>
		<path d="M174.487,341.271h1.232v9.945h-1.232V341.271z"/>
		<path d="M178.478,348.051c0.028,1.667,1.078,2.354,2.325,2.354c0.883,0,1.429-0.154,1.877-0.351l0.225,0.883
			c-0.435,0.196-1.191,0.435-2.27,0.435c-2.087,0-3.334-1.387-3.334-3.432c0-2.046,1.205-3.643,3.18-3.643
			c2.228,0,2.802,1.934,2.802,3.18c0,0.252-0.014,0.435-0.042,0.574H178.478z M182.092,347.169c0.014-0.771-0.322-1.989-1.709-1.989
			c-1.261,0-1.793,1.135-1.892,1.989H182.092z"/>
		<path d="M184.805,346.272c0-0.715-0.014-1.275-0.056-1.835h1.093l0.069,1.12h0.028c0.336-0.63,1.12-1.261,2.241-1.261
			c0.938,0,2.396,0.561,2.396,2.886v4.034h-1.233v-3.908c0-1.093-0.406-2.003-1.568-2.003c-0.799,0-1.429,0.574-1.653,1.261
			c-0.056,0.154-0.084,0.364-0.084,0.574v4.076h-1.232V346.272z"/>
		<path d="M198.415,341.271v8.194c0,0.603,0.028,1.289,0.057,1.751h-1.093l-0.056-1.177h-0.042
			c-0.364,0.757-1.177,1.331-2.283,1.331c-1.64,0-2.914-1.387-2.914-3.446c-0.014-2.255,1.4-3.628,3.04-3.628
			c1.05,0,1.736,0.49,2.045,1.022h0.028v-4.048H198.415z M197.197,347.196c0-0.153-0.015-0.364-0.057-0.518
			c-0.182-0.771-0.854-1.415-1.778-1.415c-1.275,0-2.031,1.12-2.031,2.605c0,1.373,0.686,2.507,2.003,2.507
			c0.826,0,1.583-0.56,1.807-1.471c0.042-0.168,0.057-0.336,0.057-0.532V347.196z"/>
		<path d="M201.844,342.532c0,0.42-0.294,0.756-0.784,0.756c-0.448,0-0.743-0.336-0.743-0.756s0.309-0.771,0.771-0.771
			C201.535,341.762,201.844,342.098,201.844,342.532z M200.471,351.217v-6.779h1.232v6.779H200.471z"/>
		<path d="M203.746,346.272c0-0.715-0.014-1.275-0.056-1.835h1.093l0.069,1.12h0.028c0.336-0.63,1.12-1.261,2.241-1.261
			c0.938,0,2.396,0.561,2.396,2.886v4.034h-1.233v-3.908c0-1.093-0.406-2.003-1.568-2.003c-0.799,0-1.429,0.574-1.653,1.261
			c-0.056,0.154-0.084,0.364-0.084,0.574v4.076h-1.232V346.272z"/>
		<path d="M217.315,350.223c0,1.568-0.322,2.507-0.966,3.109c-0.673,0.603-1.625,0.812-2.479,0.812
			c-0.812,0-1.709-0.196-2.256-0.561l0.309-0.952c0.448,0.294,1.148,0.546,1.989,0.546c1.261,0,2.185-0.658,2.185-2.381v-0.743
			h-0.027c-0.364,0.631-1.106,1.135-2.157,1.135c-1.681,0-2.886-1.429-2.886-3.306c0-2.297,1.499-3.586,3.067-3.586
			c1.177,0,1.808,0.603,2.115,1.163h0.028l0.042-1.022h1.093c-0.042,0.476-0.057,1.036-0.057,1.849V350.223z M216.083,347.112
			c0-0.21-0.014-0.392-0.07-0.546c-0.224-0.729-0.812-1.316-1.723-1.316c-1.177,0-2.017,0.994-2.017,2.562
			c0,1.331,0.687,2.438,2.003,2.438c0.771,0,1.457-0.476,1.709-1.261c0.069-0.21,0.098-0.448,0.098-0.658V347.112z"/>
		<path d="M222.311,341.271h1.232v4.244h0.028c0.196-0.35,0.504-0.672,0.883-0.883c0.364-0.21,0.798-0.336,1.261-0.336
			c0.91,0,2.367,0.561,2.367,2.886v4.034h-1.233v-3.895c0-1.092-0.406-2.003-1.568-2.003c-0.799,0-1.415,0.561-1.653,1.219
			c-0.069,0.183-0.084,0.364-0.084,0.589v4.09h-1.232V341.271z"/>
		<path d="M234.843,349.592c0,0.589,0.028,1.163,0.098,1.625h-1.106l-0.098-0.854h-0.042c-0.379,0.532-1.106,1.009-2.073,1.009
			c-1.373,0-2.073-0.967-2.073-1.947c0-1.639,1.457-2.535,4.076-2.521v-0.14c0-0.547-0.154-1.569-1.541-1.555
			c-0.645,0-1.303,0.182-1.778,0.504l-0.28-0.826c0.56-0.351,1.387-0.589,2.241-0.589c2.073,0,2.577,1.415,2.577,2.76V349.592z
			 M233.652,347.757c-1.345-0.028-2.872,0.21-2.872,1.527c0,0.812,0.532,1.176,1.148,1.176c0.896,0,1.472-0.56,1.667-1.134
			c0.042-0.141,0.057-0.28,0.057-0.393V347.757z"/>
		<path d="M236.828,346.65c0-0.868-0.028-1.569-0.056-2.213h1.093l0.069,1.162h0.028c0.49-0.826,1.303-1.303,2.409-1.303
			c1.653,0,2.886,1.387,2.886,3.432c0,2.438-1.499,3.643-3.096,3.643c-0.896,0-1.681-0.393-2.087-1.064h-0.028v3.684h-1.219V346.65z
			 M238.047,348.457c0,0.183,0.014,0.351,0.056,0.505c0.225,0.854,0.967,1.442,1.85,1.442c1.303,0,2.059-1.064,2.059-2.619
			c0-1.345-0.714-2.508-2.017-2.508c-0.841,0-1.639,0.589-1.863,1.513c-0.042,0.154-0.084,0.337-0.084,0.49V348.457z"/>
		<path d="M244.794,346.65c0-0.868-0.028-1.569-0.056-2.213h1.093l0.069,1.162h0.028c0.49-0.826,1.303-1.303,2.409-1.303
			c1.653,0,2.886,1.387,2.886,3.432c0,2.438-1.499,3.643-3.096,3.643c-0.896,0-1.681-0.393-2.087-1.064h-0.028v3.684h-1.219V346.65z
			 M246.013,348.457c0,0.183,0.014,0.351,0.056,0.505c0.225,0.854,0.967,1.442,1.85,1.442c1.303,0,2.059-1.064,2.059-2.619
			c0-1.345-0.714-2.508-2.017-2.508c-0.841,0-1.639,0.589-1.863,1.513c-0.042,0.154-0.084,0.337-0.084,0.49V348.457z"/>
		<path d="M253.446,348.051c0.028,1.667,1.078,2.354,2.325,2.354c0.883,0,1.429-0.154,1.877-0.351l0.225,0.883
			c-0.435,0.196-1.191,0.435-2.27,0.435c-2.087,0-3.334-1.387-3.334-3.432c0-2.046,1.205-3.643,3.18-3.643
			c2.228,0,2.802,1.934,2.802,3.18c0,0.252-0.014,0.435-0.042,0.574H253.446z M257.061,347.169c0.014-0.771-0.322-1.989-1.709-1.989
			c-1.261,0-1.793,1.135-1.892,1.989H257.061z"/>
		<path d="M259.773,346.272c0-0.715-0.014-1.275-0.056-1.835h1.093l0.069,1.12h0.028c0.336-0.63,1.12-1.261,2.241-1.261
			c0.938,0,2.396,0.561,2.396,2.886v4.034h-1.233v-3.908c0-1.093-0.406-2.003-1.568-2.003c-0.799,0-1.429,0.574-1.653,1.261
			c-0.056,0.154-0.084,0.364-0.084,0.574v4.076h-1.232V346.272z"/>
		<path d="M267.375,349.97c0.378,0.225,1.022,0.477,1.639,0.477c0.883,0,1.303-0.435,1.303-1.009c0-0.588-0.35-0.896-1.246-1.232
			c-1.233-0.448-1.808-1.106-1.808-1.919c0-1.093,0.896-1.989,2.34-1.989c0.686,0,1.288,0.183,1.652,0.42l-0.294,0.896
			c-0.267-0.168-0.757-0.405-1.387-0.405c-0.729,0-1.121,0.42-1.121,0.924c0,0.561,0.393,0.812,1.275,1.163
			c1.162,0.434,1.778,1.022,1.778,2.031c0,1.204-0.938,2.045-2.521,2.045c-0.742,0-1.429-0.196-1.904-0.477L267.375,349.97z"/>
		<path d="M277.428,342.532c0,0.42-0.294,0.756-0.784,0.756c-0.448,0-0.743-0.336-0.743-0.756s0.309-0.771,0.771-0.771
			C277.119,341.762,277.428,342.098,277.428,342.532z M276.055,351.217v-6.779h1.232v6.779H276.055z"/>
		<path d="M279.331,346.272c0-0.715-0.014-1.275-0.056-1.835h1.093l0.069,1.12h0.028c0.336-0.63,1.12-1.261,2.241-1.261
			c0.938,0,2.396,0.561,2.396,2.886v4.034h-1.233v-3.908c0-1.093-0.405-2.003-1.568-2.003c-0.799,0-1.429,0.574-1.653,1.261
			c-0.056,0.154-0.084,0.364-0.084,0.574v4.076h-1.232V346.272z"/>
		<path d="M294.831,349.592c0,0.589,0.028,1.163,0.098,1.625h-1.106l-0.098-0.854h-0.042c-0.379,0.532-1.106,1.009-2.073,1.009
			c-1.373,0-2.073-0.967-2.073-1.947c0-1.639,1.457-2.535,4.076-2.521v-0.14c0-0.547-0.154-1.569-1.541-1.555
			c-0.645,0-1.303,0.182-1.778,0.504l-0.28-0.826c0.56-0.351,1.387-0.589,2.241-0.589c2.073,0,2.577,1.415,2.577,2.76V349.592z
			 M293.641,347.757c-1.345-0.028-2.872,0.21-2.872,1.527c0,0.812,0.532,1.176,1.148,1.176c0.896,0,1.472-0.56,1.667-1.134
			c0.042-0.141,0.057-0.28,0.057-0.393V347.757z"/>
		<path d="M299.784,346.65c0-0.868-0.028-1.569-0.056-2.213h1.093l0.069,1.162h0.028c0.49-0.826,1.303-1.303,2.409-1.303
			c1.653,0,2.886,1.387,2.886,3.432c0,2.438-1.499,3.643-3.096,3.643c-0.896,0-1.681-0.393-2.087-1.064h-0.028v3.684h-1.219V346.65z
			 M301.003,348.457c0,0.183,0.014,0.351,0.056,0.505c0.225,0.854,0.967,1.442,1.85,1.442c1.303,0,2.059-1.064,2.059-2.619
			c0-1.345-0.714-2.508-2.017-2.508c-0.841,0-1.639,0.589-1.863,1.513c-0.042,0.154-0.084,0.337-0.084,0.49V348.457z"/>
		<path d="M309.123,342.532c0,0.42-0.294,0.756-0.784,0.756c-0.448,0-0.743-0.336-0.743-0.756s0.309-0.771,0.771-0.771
			C308.814,341.762,309.123,342.098,309.123,342.532z M307.75,351.217v-6.779h1.232v6.779H307.75z"/>
		<path d="M311.601,344.438l0.967,1.456c0.266,0.379,0.477,0.715,0.7,1.093h0.028c0.224-0.392,0.448-0.742,0.687-1.106l0.938-1.442
			h1.345l-2.312,3.277l2.367,3.502h-1.387l-1.009-1.526c-0.266-0.393-0.49-0.771-0.729-1.177h-0.027
			c-0.225,0.406-0.448,0.771-0.715,1.177l-0.98,1.526h-1.358l2.409-3.46l-2.298-3.319H311.601z"/>
		<path d="M317.999,348.051c0.028,1.667,1.078,2.354,2.325,2.354c0.883,0,1.429-0.154,1.877-0.351l0.225,0.883
			c-0.435,0.196-1.191,0.435-2.27,0.435c-2.087,0-3.334-1.387-3.334-3.432c0-2.046,1.205-3.643,3.18-3.643
			c2.228,0,2.802,1.934,2.802,3.18c0,0.252-0.014,0.435-0.042,0.574H317.999z M321.613,347.169c0.014-0.771-0.322-1.989-1.709-1.989
			c-1.261,0-1.793,1.135-1.892,1.989H321.613z"/>
		<path d="M324.326,341.271h1.232v9.945h-1.232V341.271z"/>
		<path d="M330.43,349.97c0.378,0.225,1.022,0.477,1.639,0.477c0.883,0,1.303-0.435,1.303-1.009c0-0.588-0.35-0.896-1.246-1.232
			c-1.233-0.448-1.808-1.106-1.808-1.919c0-1.093,0.896-1.989,2.34-1.989c0.686,0,1.288,0.183,1.652,0.42l-0.294,0.896
			c-0.267-0.168-0.757-0.405-1.387-0.405c-0.729,0-1.121,0.42-1.121,0.924c0,0.561,0.393,0.812,1.275,1.163
			c1.162,0.434,1.778,1.022,1.778,2.031c0,1.204-0.938,2.045-2.521,2.045c-0.742,0-1.429-0.196-1.904-0.477L330.43,349.97z"/>
		<path d="M336.142,341.271h1.232v4.244h0.028c0.196-0.35,0.504-0.672,0.883-0.883c0.364-0.21,0.798-0.336,1.261-0.336
			c0.91,0,2.367,0.561,2.367,2.886v4.034h-1.233v-3.895c0-1.092-0.405-2.003-1.568-2.003c-0.799,0-1.415,0.561-1.653,1.219
			c-0.069,0.183-0.084,0.364-0.084,0.589v4.09h-1.232V341.271z"/>
		<path d="M348.675,349.592c0,0.589,0.028,1.163,0.098,1.625h-1.106l-0.098-0.854h-0.042c-0.379,0.532-1.106,1.009-2.073,1.009
			c-1.373,0-2.073-0.967-2.073-1.947c0-1.639,1.457-2.535,4.076-2.521v-0.14c0-0.547-0.154-1.569-1.541-1.555
			c-0.645,0-1.303,0.182-1.778,0.504l-0.28-0.826c0.56-0.351,1.387-0.589,2.241-0.589c2.073,0,2.577,1.415,2.577,2.76V349.592z
			 M347.484,347.757c-1.345-0.028-2.872,0.21-2.872,1.527c0,0.812,0.532,1.176,1.148,1.176c0.896,0,1.472-0.56,1.667-1.134
			c0.042-0.141,0.057-0.28,0.057-0.393V347.757z"/>
		<path d="M356.501,341.271v8.194c0,0.603,0.028,1.289,0.057,1.751h-1.093l-0.056-1.177h-0.042
			c-0.364,0.757-1.177,1.331-2.283,1.331c-1.64,0-2.914-1.387-2.914-3.446c-0.014-2.255,1.4-3.628,3.04-3.628
			c1.05,0,1.736,0.49,2.045,1.022h0.028v-4.048H356.501z M355.283,347.196c0-0.153-0.015-0.364-0.057-0.518
			c-0.182-0.771-0.854-1.415-1.778-1.415c-1.275,0-2.031,1.12-2.031,2.605c0,1.373,0.686,2.507,2.003,2.507
			c0.826,0,1.583-0.56,1.807-1.471c0.042-0.168,0.057-0.336,0.057-0.532V347.196z"/>
		<path d="M359.242,348.051c0.028,1.667,1.078,2.354,2.325,2.354c0.883,0,1.429-0.154,1.877-0.351l0.225,0.883
			c-0.435,0.196-1.191,0.435-2.27,0.435c-2.087,0-3.334-1.387-3.334-3.432c0-2.046,1.205-3.643,3.18-3.643
			c2.228,0,2.802,1.934,2.802,3.18c0,0.252-0.015,0.435-0.042,0.574H359.242z M362.856,347.169c0.014-0.771-0.322-1.989-1.709-1.989
			c-1.261,0-1.793,1.135-1.892,1.989H362.856z"/>
		<path d="M365.569,346.553c0-0.799-0.014-1.485-0.056-2.115h1.078l0.057,1.345h0.042c0.308-0.911,1.064-1.485,1.891-1.485
			c0.126,0,0.225,0.015,0.336,0.028v1.162c-0.126-0.027-0.252-0.027-0.42-0.027c-0.868,0-1.484,0.645-1.653,1.568
			c-0.027,0.168-0.042,0.378-0.042,0.574v3.614h-1.232V346.553z"/>
	</g>
	<g>
		<path d="M122.507,358.575v9.441h-1.232v-9.441H122.507z"/>
		<path d="M124.732,363.072c0-0.715-0.014-1.275-0.056-1.835h1.093l0.069,1.12h0.028c0.336-0.63,1.12-1.261,2.241-1.261
			c0.938,0,2.396,0.561,2.396,2.886v4.034h-1.233v-3.908c0-1.093-0.406-2.003-1.568-2.003c-0.799,0-1.429,0.574-1.653,1.261
			c-0.056,0.154-0.084,0.364-0.084,0.574v4.076h-1.232V363.072z"/>
		<path d="M135.47,363.072c0-0.715-0.014-1.275-0.056-1.835h1.093l0.069,1.12h0.028c0.336-0.63,1.12-1.261,2.241-1.261
			c0.938,0,2.396,0.561,2.396,2.886v4.034h-1.233v-3.908c0-1.093-0.405-2.003-1.568-2.003c-0.799,0-1.429,0.574-1.653,1.261
			c-0.056,0.154-0.084,0.364-0.084,0.574v4.076h-1.232V363.072z"/>
		<path d="M143.926,364.851c0.028,1.667,1.078,2.354,2.325,2.354c0.883,0,1.429-0.154,1.877-0.351l0.225,0.883
			c-0.435,0.196-1.191,0.435-2.27,0.435c-2.087,0-3.334-1.387-3.334-3.432c0-2.046,1.205-3.643,3.18-3.643
			c2.228,0,2.802,1.934,2.802,3.18c0,0.252-0.015,0.435-0.042,0.574H143.926z M147.54,363.969c0.014-0.771-0.322-1.989-1.709-1.989
			c-1.261,0-1.793,1.135-1.892,1.989H147.54z"/>
		<path d="M150.744,361.237l0.91,3.445c0.183,0.757,0.364,1.457,0.491,2.157h0.042c0.153-0.687,0.378-1.415,0.602-2.143l1.106-3.46
			h1.037l1.051,3.39c0.252,0.812,0.448,1.526,0.602,2.213h0.043c0.111-0.687,0.294-1.4,0.518-2.199l0.967-3.403h1.219l-2.186,6.779
			h-1.12l-1.037-3.235c-0.238-0.757-0.434-1.429-0.603-2.228h-0.027c-0.168,0.812-0.378,1.513-0.616,2.241l-1.093,3.222h-1.121
			l-2.045-6.779H150.744z"/>
		<path d="M170.768,367.597c-0.547,0.21-1.639,0.518-2.914,0.518c-1.429,0-2.605-0.364-3.529-1.246
			c-0.812-0.784-1.317-2.045-1.317-3.516c0-2.816,1.947-4.875,5.113-4.875c1.093,0,1.961,0.238,2.367,0.435l-0.309,0.994
			c-0.504-0.238-1.134-0.406-2.087-0.406c-2.297,0-3.796,1.429-3.796,3.796c0,2.396,1.429,3.811,3.642,3.811
			c0.799,0,1.345-0.112,1.625-0.253v-2.815h-1.905v-0.98h3.11V367.597z"/>
		<path d="M172.611,358.688c0.589-0.098,1.358-0.182,2.34-0.182c1.204,0,2.087,0.279,2.647,0.784
			c0.504,0.448,0.826,1.135,0.826,1.975c0,0.854-0.252,1.527-0.729,2.018c-0.658,0.687-1.695,1.036-2.886,1.036
			c-0.364,0-0.7-0.014-0.98-0.084v3.782h-1.219V358.688z M173.83,363.24c0.267,0.07,0.603,0.098,1.009,0.098
			c1.471,0,2.367-0.729,2.367-2.003c0-1.261-0.896-1.863-2.228-1.863c-0.532,0-0.938,0.042-1.148,0.099V363.24z"/>
		<path d="M181.278,358.575v5.604c0,2.101,0.938,2.997,2.199,2.997c1.387,0,2.297-0.924,2.297-2.997v-5.604h1.233v5.52
			c0,2.899-1.527,4.076-3.572,4.076c-1.933,0-3.39-1.093-3.39-4.034v-5.562H181.278z"/>
		<path d="M188.837,366.77c0.378,0.225,1.022,0.477,1.639,0.477c0.883,0,1.303-0.435,1.303-1.009c0-0.588-0.35-0.896-1.246-1.232
			c-1.233-0.448-1.808-1.106-1.808-1.919c0-1.093,0.896-1.989,2.34-1.989c0.686,0,1.288,0.183,1.652,0.421l-0.294,0.896
			c-0.267-0.169-0.757-0.406-1.387-0.406c-0.729,0-1.121,0.42-1.121,0.924c0,0.561,0.393,0.812,1.275,1.163
			c1.162,0.434,1.778,1.022,1.778,2.031c0,1.204-0.938,2.045-2.521,2.045c-0.743,0-1.43-0.196-1.905-0.477L188.837,366.77z"/>
		<path d="M193.61,369.754c0.309-0.841,0.687-2.34,0.841-3.362l1.373-0.14c-0.336,1.19-0.953,2.745-1.345,3.403L193.61,369.754z"/>
		<path d="M200.274,358.071h1.219v4.258h0.028c0.434-0.756,1.219-1.232,2.311-1.232c1.695,0,2.872,1.401,2.872,3.446
			c0,2.423-1.541,3.628-3.054,3.628c-0.98,0-1.765-0.378-2.283-1.261h-0.028l-0.07,1.106h-1.05c0.027-0.462,0.056-1.148,0.056-1.751
			V358.071z M201.493,365.299c0,0.154,0.014,0.309,0.056,0.448c0.225,0.854,0.953,1.443,1.85,1.443c1.303,0,2.059-1.051,2.059-2.605
			c0-1.359-0.7-2.521-2.031-2.521c-0.826,0-1.61,0.588-1.862,1.513c-0.042,0.154-0.07,0.322-0.07,0.519V365.299z"/>
		<path d="M208.24,358.071h1.232v9.945h-1.232V358.071z"/>
		<path d="M212.23,364.851c0.028,1.667,1.078,2.354,2.325,2.354c0.883,0,1.429-0.154,1.877-0.351l0.225,0.883
			c-0.435,0.196-1.191,0.435-2.27,0.435c-2.087,0-3.334-1.387-3.334-3.432c0-2.046,1.205-3.643,3.18-3.643
			c2.228,0,2.802,1.934,2.802,3.18c0,0.252-0.015,0.435-0.042,0.574H212.23z M215.845,363.969c0.014-0.771-0.322-1.989-1.709-1.989
			c-1.261,0-1.793,1.135-1.892,1.989H215.845z"/>
		<path d="M218.559,363.072c0-0.715-0.014-1.275-0.056-1.835h1.093l0.069,1.12h0.028c0.336-0.63,1.12-1.261,2.241-1.261
			c0.938,0,2.396,0.561,2.396,2.886v4.034h-1.233v-3.908c0-1.093-0.406-2.003-1.568-2.003c-0.799,0-1.429,0.574-1.653,1.261
			c-0.056,0.154-0.084,0.364-0.084,0.574v4.076h-1.232V363.072z"/>
		<path d="M232.169,358.071v8.194c0,0.603,0.028,1.289,0.057,1.751h-1.093l-0.056-1.177h-0.042
			c-0.364,0.757-1.177,1.331-2.283,1.331c-1.64,0-2.914-1.387-2.914-3.446c-0.014-2.255,1.4-3.628,3.04-3.628
			c1.05,0,1.736,0.49,2.045,1.022h0.028v-4.048H232.169z M230.951,363.996c0-0.153-0.015-0.364-0.057-0.518
			c-0.182-0.771-0.854-1.415-1.778-1.415c-1.275,0-2.031,1.12-2.031,2.605c0,1.373,0.686,2.507,2.003,2.507
			c0.826,0,1.583-0.56,1.807-1.471c0.042-0.168,0.057-0.336,0.057-0.532V363.996z"/>
		<path d="M241.955,366.392c0,0.589,0.028,1.163,0.098,1.625h-1.106l-0.098-0.854h-0.042c-0.378,0.532-1.106,1.009-2.073,1.009
			c-1.373,0-2.073-0.967-2.073-1.947c0-1.639,1.457-2.535,4.076-2.521v-0.14c0-0.547-0.154-1.569-1.541-1.555
			c-0.645,0-1.303,0.182-1.778,0.504l-0.28-0.826c0.56-0.351,1.387-0.589,2.241-0.589c2.073,0,2.577,1.415,2.577,2.76V366.392z
			 M240.765,364.557c-1.345-0.028-2.872,0.21-2.872,1.527c0,0.812,0.532,1.176,1.148,1.176c0.896,0,1.472-0.56,1.667-1.134
			c0.042-0.141,0.057-0.28,0.057-0.393V364.557z"/>
		<path d="M243.939,363.072c0-0.715-0.014-1.275-0.056-1.835h1.093l0.069,1.12h0.028c0.336-0.63,1.12-1.261,2.241-1.261
			c0.938,0,2.396,0.561,2.396,2.886v4.034h-1.233v-3.908c0-1.093-0.406-2.003-1.568-2.003c-0.799,0-1.429,0.574-1.653,1.261
			c-0.056,0.154-0.084,0.364-0.084,0.574v4.076h-1.232V363.072z"/>
		<path d="M257.551,358.071v8.194c0,0.603,0.028,1.289,0.057,1.751h-1.093l-0.056-1.177h-0.042
			c-0.364,0.757-1.177,1.331-2.283,1.331c-1.64,0-2.914-1.387-2.914-3.446c-0.014-2.255,1.4-3.628,3.04-3.628
			c1.05,0,1.736,0.49,2.045,1.022h0.028v-4.048H257.551z M256.333,363.996c0-0.153-0.015-0.364-0.057-0.518
			c-0.182-0.771-0.854-1.415-1.779-1.415c-1.274,0-2.03,1.12-2.03,2.605c0,1.373,0.687,2.507,2.003,2.507
			c0.826,0,1.583-0.56,1.807-1.471c0.042-0.168,0.057-0.336,0.057-0.532V363.996z"/>
		<path d="M267.406,367.778c-0.322,0.154-1.037,0.393-1.947,0.393c-2.045,0-3.376-1.387-3.376-3.46c0-2.087,1.429-3.614,3.642-3.614
			c0.729,0,1.373,0.183,1.709,0.364l-0.28,0.938c-0.294-0.154-0.756-0.322-1.429-0.322c-1.555,0-2.395,1.163-2.395,2.563
			c0,1.569,1.008,2.535,2.353,2.535c0.701,0,1.163-0.168,1.514-0.322L267.406,367.778z"/>
		<path d="M274.911,364.57c0,2.508-1.751,3.601-3.376,3.601c-1.821,0-3.25-1.345-3.25-3.488c0-2.255,1.499-3.586,3.362-3.586
			C273.594,361.097,274.911,362.512,274.911,364.57z M269.546,364.641c0,1.485,0.841,2.605,2.045,2.605
			c1.177,0,2.06-1.106,2.06-2.634c0-1.148-0.574-2.591-2.031-2.591C270.176,362.021,269.546,363.366,269.546,364.641z"/>
		<path d="M276.462,363.072c0-0.715-0.028-1.275-0.056-1.835h1.078l0.057,1.106h0.042c0.378-0.645,1.008-1.247,2.143-1.247
			c0.911,0,1.611,0.561,1.905,1.359h0.028c0.21-0.393,0.49-0.673,0.771-0.883c0.405-0.309,0.84-0.477,1.484-0.477
			c0.91,0,2.241,0.589,2.241,2.941v3.979h-1.205v-3.824c0-1.316-0.49-2.087-1.471-2.087c-0.714,0-1.246,0.519-1.471,1.106
			c-0.056,0.183-0.098,0.393-0.098,0.616v4.188h-1.205v-4.062c0-1.078-0.476-1.849-1.414-1.849c-0.757,0-1.331,0.616-1.527,1.232
			c-0.07,0.168-0.098,0.393-0.098,0.603v4.076h-1.205V363.072z"/>
		<path d="M288.138,363.45c0-0.868-0.028-1.569-0.056-2.213h1.093l0.069,1.162h0.028c0.49-0.826,1.303-1.303,2.409-1.303
			c1.653,0,2.886,1.387,2.886,3.432c0,2.438-1.499,3.643-3.096,3.643c-0.896,0-1.681-0.393-2.087-1.064h-0.028v3.684h-1.219V363.45z
			 M289.356,365.257c0,0.183,0.014,0.351,0.056,0.505c0.225,0.854,0.967,1.442,1.85,1.442c1.303,0,2.059-1.064,2.059-2.619
			c0-1.345-0.714-2.508-2.017-2.508c-0.841,0-1.639,0.589-1.863,1.513c-0.042,0.154-0.084,0.337-0.084,0.49V365.257z"/>
		<path d="M302.239,364.57c0,2.508-1.751,3.601-3.376,3.601c-1.821,0-3.25-1.345-3.25-3.488c0-2.255,1.499-3.586,3.362-3.586
			C300.922,361.097,302.239,362.512,302.239,364.57z M296.874,364.641c0,1.485,0.841,2.605,2.045,2.605
			c1.177,0,2.06-1.106,2.06-2.634c0-1.148-0.574-2.591-2.031-2.591C297.504,362.021,296.874,363.366,296.874,364.641z"/>
		<path d="M303.621,366.77c0.378,0.225,1.022,0.477,1.639,0.477c0.883,0,1.303-0.435,1.303-1.009c0-0.588-0.35-0.896-1.246-1.232
			c-1.233-0.448-1.808-1.106-1.808-1.919c0-1.093,0.896-1.989,2.34-1.989c0.686,0,1.288,0.183,1.652,0.421l-0.294,0.896
			c-0.267-0.169-0.757-0.406-1.387-0.406c-0.729,0-1.121,0.42-1.121,0.924c0,0.561,0.393,0.812,1.275,1.163
			c1.162,0.434,1.778,1.022,1.778,2.031c0,1.204-0.938,2.045-2.521,2.045c-0.742,0-1.429-0.196-1.904-0.477L303.621,366.77z"/>
		<path d="M310.706,359.332c0,0.42-0.294,0.756-0.784,0.756c-0.448,0-0.743-0.336-0.743-0.756s0.309-0.771,0.771-0.771
			C310.397,358.562,310.706,358.897,310.706,359.332z M309.333,368.017v-6.779h1.232v6.779H309.333z"/>
		<path d="M314.095,359.612v1.625h1.765v0.938h-1.765v3.655c0,0.841,0.237,1.317,0.924,1.317c0.336,0,0.532-0.028,0.715-0.084
			l0.056,0.938c-0.238,0.084-0.616,0.168-1.093,0.168c-0.574,0-1.036-0.196-1.33-0.519c-0.337-0.378-0.477-0.98-0.477-1.779v-3.697
			h-1.051v-0.938h1.051v-1.261L314.095,359.612z"/>
		<path d="M317.859,364.851c0.028,1.667,1.078,2.354,2.325,2.354c0.883,0,1.429-0.154,1.877-0.351l0.225,0.883
			c-0.435,0.196-1.191,0.435-2.27,0.435c-2.087,0-3.334-1.387-3.334-3.432c0-2.046,1.205-3.643,3.18-3.643
			c2.228,0,2.802,1.934,2.802,3.18c0,0.252-0.015,0.435-0.042,0.574H317.859z M321.474,363.969c0.014-0.771-0.322-1.989-1.709-1.989
			c-1.261,0-1.793,1.135-1.892,1.989H321.474z"/>
		<path d="M327.154,358.071h1.232v4.244h0.028c0.196-0.351,0.504-0.672,0.883-0.883c0.364-0.21,0.798-0.336,1.261-0.336
			c0.91,0,2.367,0.561,2.367,2.886v4.034h-1.233v-3.895c0-1.092-0.406-2.003-1.568-2.003c-0.799,0-1.415,0.561-1.653,1.219
			c-0.069,0.183-0.084,0.364-0.084,0.589v4.09h-1.232V358.071z"/>
		<path d="M339.688,366.392c0,0.589,0.028,1.163,0.098,1.625h-1.106l-0.098-0.854h-0.042c-0.378,0.532-1.106,1.009-2.073,1.009
			c-1.373,0-2.073-0.967-2.073-1.947c0-1.639,1.457-2.535,4.076-2.521v-0.14c0-0.547-0.154-1.569-1.541-1.555
			c-0.645,0-1.303,0.182-1.778,0.504l-0.28-0.826c0.56-0.351,1.387-0.589,2.241-0.589c2.073,0,2.577,1.415,2.577,2.76V366.392z
			 M338.497,364.557c-1.345-0.028-2.872,0.21-2.872,1.527c0,0.812,0.532,1.176,1.148,1.176c0.896,0,1.472-0.56,1.667-1.134
			c0.042-0.141,0.057-0.28,0.057-0.393V364.557z"/>
		<path d="M341.673,363.45c0-0.868-0.028-1.569-0.056-2.213h1.093l0.069,1.162h0.028c0.49-0.826,1.303-1.303,2.409-1.303
			c1.653,0,2.886,1.387,2.886,3.432c0,2.438-1.499,3.643-3.096,3.643c-0.896,0-1.681-0.393-2.087-1.064h-0.028v3.684h-1.219V363.45z
			 M342.892,365.257c0,0.183,0.014,0.351,0.056,0.505c0.225,0.854,0.967,1.442,1.85,1.442c1.303,0,2.059-1.064,2.059-2.619
			c0-1.345-0.714-2.508-2.017-2.508c-0.841,0-1.639,0.589-1.863,1.513c-0.042,0.154-0.084,0.337-0.084,0.49V365.257z"/>
		<path d="M349.639,363.45c0-0.868-0.028-1.569-0.056-2.213h1.093l0.069,1.162h0.028c0.49-0.826,1.303-1.303,2.409-1.303
			c1.653,0,2.886,1.387,2.886,3.432c0,2.438-1.499,3.643-3.096,3.643c-0.896,0-1.681-0.393-2.087-1.064h-0.028v3.684h-1.219V363.45z
			 M350.857,365.257c0,0.183,0.014,0.351,0.056,0.505c0.225,0.854,0.967,1.442,1.85,1.442c1.303,0,2.059-1.064,2.059-2.619
			c0-1.345-0.714-2.508-2.017-2.508c-0.841,0-1.639,0.589-1.863,1.513c-0.042,0.154-0.084,0.337-0.084,0.49V365.257z"/>
		<path d="M358.291,364.851c0.028,1.667,1.078,2.354,2.325,2.354c0.883,0,1.429-0.154,1.877-0.351l0.225,0.883
			c-0.435,0.196-1.191,0.435-2.27,0.435c-2.087,0-3.334-1.387-3.334-3.432c0-2.046,1.205-3.643,3.18-3.643
			c2.228,0,2.802,1.934,2.802,3.18c0,0.252-0.015,0.435-0.042,0.574H358.291z M361.905,363.969c0.014-0.771-0.322-1.989-1.709-1.989
			c-1.261,0-1.793,1.135-1.892,1.989H361.905z"/>
		<path d="M364.618,363.072c0-0.715-0.014-1.275-0.056-1.835h1.093l0.069,1.12h0.028c0.336-0.63,1.12-1.261,2.241-1.261
			c0.938,0,2.396,0.561,2.396,2.886v4.034h-1.233v-3.908c0-1.093-0.405-2.003-1.568-2.003c-0.799,0-1.429,0.574-1.653,1.261
			c-0.056,0.154-0.084,0.364-0.084,0.574v4.076h-1.232V363.072z"/>
		<path d="M372.22,366.77c0.378,0.225,1.022,0.477,1.639,0.477c0.883,0,1.303-0.435,1.303-1.009c0-0.588-0.35-0.896-1.246-1.232
			c-1.233-0.448-1.808-1.106-1.808-1.919c0-1.093,0.896-1.989,2.34-1.989c0.686,0,1.288,0.183,1.652,0.421l-0.294,0.896
			c-0.267-0.169-0.757-0.406-1.387-0.406c-0.729,0-1.121,0.42-1.121,0.924c0,0.561,0.393,0.812,1.275,1.163
			c1.162,0.434,1.778,1.022,1.778,2.031c0,1.204-0.938,2.045-2.521,2.045c-0.743,0-1.43-0.196-1.905-0.477L372.22,366.77z"/>
		<path d="M382.272,359.332c0,0.42-0.294,0.756-0.784,0.756c-0.448,0-0.743-0.336-0.743-0.756s0.309-0.771,0.771-0.771
			C381.964,358.562,382.272,358.897,382.272,359.332z M380.899,368.017v-6.779h1.232v6.779H380.899z"/>
		<path d="M384.176,363.072c0-0.715-0.014-1.275-0.056-1.835h1.093l0.069,1.12h0.028c0.336-0.63,1.12-1.261,2.241-1.261
			c0.938,0,2.396,0.561,2.396,2.886v4.034h-1.233v-3.908c0-1.093-0.406-2.003-1.568-2.003c-0.799,0-1.429,0.574-1.653,1.261
			c-0.056,0.154-0.084,0.364-0.084,0.574v4.076h-1.232V363.072z"/>
		<path d="M399.676,366.392c0,0.589,0.028,1.163,0.098,1.625h-1.106l-0.098-0.854h-0.042c-0.378,0.532-1.106,1.009-2.073,1.009
			c-1.373,0-2.073-0.967-2.073-1.947c0-1.639,1.457-2.535,4.076-2.521v-0.14c0-0.547-0.154-1.569-1.541-1.555
			c-0.645,0-1.303,0.182-1.778,0.504l-0.28-0.826c0.56-0.351,1.387-0.589,2.241-0.589c2.073,0,2.577,1.415,2.577,2.76V366.392z
			 M398.485,364.557c-1.345-0.028-2.872,0.21-2.872,1.527c0,0.812,0.532,1.176,1.148,1.176c0.896,0,1.472-0.56,1.667-1.134
			c0.042-0.141,0.057-0.28,0.057-0.393V364.557z"/>
		<path d="M404.629,358.071h1.219v4.258h0.028c0.434-0.756,1.219-1.232,2.311-1.232c1.695,0,2.872,1.401,2.872,3.446
			c0,2.423-1.541,3.628-3.054,3.628c-0.98,0-1.765-0.378-2.283-1.261h-0.028l-0.069,1.106h-1.051
			c0.027-0.462,0.056-1.148,0.056-1.751V358.071z M405.848,365.299c0,0.154,0.014,0.309,0.056,0.448
			c0.225,0.854,0.953,1.443,1.85,1.443c1.303,0,2.059-1.051,2.059-2.605c0-1.359-0.7-2.521-2.031-2.521
			c-0.826,0-1.61,0.588-1.862,1.513c-0.042,0.154-0.07,0.322-0.07,0.519V365.299z"/>
		<path d="M412.595,358.071h1.232v9.945h-1.232V358.071z"/>
		<path d="M416.585,364.851c0.028,1.667,1.078,2.354,2.325,2.354c0.883,0,1.429-0.154,1.877-0.351l0.225,0.883
			c-0.435,0.196-1.191,0.435-2.27,0.435c-2.087,0-3.334-1.387-3.334-3.432c0-2.046,1.205-3.643,3.18-3.643
			c2.228,0,2.802,1.934,2.802,3.18c0,0.252-0.014,0.435-0.042,0.574H416.585z M420.199,363.969c0.014-0.771-0.322-1.989-1.709-1.989
			c-1.261,0-1.793,1.135-1.892,1.989H420.199z"/>
		<path d="M422.913,363.072c0-0.715-0.014-1.275-0.056-1.835h1.093l0.069,1.12h0.028c0.336-0.63,1.12-1.261,2.241-1.261
			c0.938,0,2.396,0.561,2.396,2.886v4.034h-1.233v-3.908c0-1.093-0.405-2.003-1.568-2.003c-0.799,0-1.429,0.574-1.653,1.261
			c-0.056,0.154-0.084,0.364-0.084,0.574v4.076h-1.232V363.072z"/>
		<path d="M436.523,358.071v8.194c0,0.603,0.028,1.289,0.057,1.751h-1.093l-0.056-1.177h-0.042
			c-0.364,0.757-1.177,1.331-2.283,1.331c-1.64,0-2.914-1.387-2.914-3.446c-0.014-2.255,1.4-3.628,3.04-3.628
			c1.05,0,1.736,0.49,2.045,1.022h0.028v-4.048H436.523z M435.306,363.996c0-0.153-0.015-0.364-0.057-0.518
			c-0.182-0.771-0.854-1.415-1.779-1.415c-1.274,0-2.03,1.12-2.03,2.605c0,1.373,0.687,2.507,2.003,2.507
			c0.826,0,1.583-0.56,1.807-1.471c0.042-0.168,0.057-0.336,0.057-0.532V363.996z"/>
		<path d="M441.379,366.77c0.378,0.225,1.022,0.477,1.639,0.477c0.883,0,1.303-0.435,1.303-1.009c0-0.588-0.35-0.896-1.246-1.232
			c-1.233-0.448-1.808-1.106-1.808-1.919c0-1.093,0.896-1.989,2.34-1.989c0.686,0,1.288,0.183,1.652,0.421l-0.294,0.896
			c-0.267-0.169-0.757-0.406-1.387-0.406c-0.729,0-1.121,0.42-1.121,0.924c0,0.561,0.393,0.812,1.275,1.163
			c1.162,0.434,1.778,1.022,1.778,2.031c0,1.204-0.938,2.045-2.521,2.045c-0.742,0-1.429-0.196-1.904-0.477L441.379,366.77z"/>
		<path d="M447.091,358.071h1.232v4.244h0.028c0.196-0.351,0.504-0.672,0.883-0.883c0.364-0.21,0.798-0.336,1.261-0.336
			c0.91,0,2.367,0.561,2.367,2.886v4.034h-1.233v-3.895c0-1.092-0.405-2.003-1.568-2.003c-0.799,0-1.415,0.561-1.653,1.219
			c-0.069,0.183-0.084,0.364-0.084,0.589v4.09h-1.232V358.071z"/>
		<path d="M459.623,366.392c0,0.589,0.028,1.163,0.098,1.625h-1.106l-0.098-0.854h-0.042c-0.378,0.532-1.106,1.009-2.073,1.009
			c-1.373,0-2.073-0.967-2.073-1.947c0-1.639,1.457-2.535,4.076-2.521v-0.14c0-0.547-0.154-1.569-1.541-1.555
			c-0.645,0-1.303,0.182-1.778,0.504l-0.28-0.826c0.56-0.351,1.387-0.589,2.241-0.589c2.073,0,2.577,1.415,2.577,2.76V366.392z
			 M458.433,364.557c-1.345-0.028-2.872,0.21-2.872,1.527c0,0.812,0.532,1.176,1.148,1.176c0.896,0,1.472-0.56,1.667-1.134
			c0.042-0.141,0.057-0.28,0.057-0.393V364.557z"/>
		<path d="M467.449,358.071v8.194c0,0.603,0.028,1.289,0.057,1.751h-1.093l-0.056-1.177h-0.042
			c-0.364,0.757-1.177,1.331-2.283,1.331c-1.64,0-2.914-1.387-2.914-3.446c-0.014-2.255,1.4-3.628,3.04-3.628
			c1.05,0,1.736,0.49,2.045,1.022h0.028v-4.048H467.449z M466.231,363.996c0-0.153-0.015-0.364-0.057-0.518
			c-0.182-0.771-0.854-1.415-1.779-1.415c-1.274,0-2.03,1.12-2.03,2.605c0,1.373,0.687,2.507,2.003,2.507
			c0.826,0,1.583-0.56,1.807-1.471c0.042-0.168,0.057-0.336,0.057-0.532V363.996z"/>
		<path d="M470.19,364.851c0.028,1.667,1.078,2.354,2.325,2.354c0.883,0,1.429-0.154,1.877-0.351l0.225,0.883
			c-0.435,0.196-1.191,0.435-2.27,0.435c-2.087,0-3.334-1.387-3.334-3.432c0-2.046,1.205-3.643,3.18-3.643
			c2.228,0,2.802,1.934,2.802,3.18c0,0.252-0.014,0.435-0.042,0.574H470.19z M473.805,363.969c0.014-0.771-0.322-1.989-1.709-1.989
			c-1.261,0-1.793,1.135-1.892,1.989H473.805z"/>
		<path d="M476.519,363.353c0-0.799-0.014-1.485-0.056-2.115h1.078l0.057,1.345h0.042c0.308-0.911,1.064-1.485,1.891-1.485
			c0.126,0,0.225,0.015,0.336,0.028v1.162c-0.126-0.027-0.252-0.027-0.42-0.027c-0.868,0-1.484,0.645-1.653,1.568
			c-0.027,0.168-0.042,0.379-0.042,0.574v3.614h-1.232V363.353z"/>
	</g>
	<g>
		<path d="M190.592,405.701c-0.435,0.224-1.345,0.448-2.493,0.448c-2.662,0-4.651-1.681-4.651-4.791c0-2.97,2.004-4.958,4.931-4.958
			c1.163,0,1.919,0.252,2.241,0.42l-0.308,0.994c-0.448-0.224-1.106-0.392-1.892-0.392c-2.213,0-3.684,1.414-3.684,3.894
			c0,2.325,1.331,3.796,3.614,3.796c0.756,0,1.513-0.153,2.003-0.392L190.592,405.701z"/>
		<path d="M198.081,402.549c0,2.508-1.751,3.601-3.376,3.601c-1.821,0-3.25-1.345-3.25-3.488c0-2.255,1.499-3.586,3.362-3.586
			C196.764,399.075,198.081,400.49,198.081,402.549z M192.716,402.619c0,1.485,0.841,2.605,2.045,2.605
			c1.177,0,2.06-1.106,2.06-2.634c0-1.148-0.574-2.591-2.031-2.591C193.346,400,192.716,401.345,192.716,402.619z"/>
		<path d="M199.632,401.051c0-0.715-0.028-1.275-0.056-1.835h1.078l0.057,1.106h0.042c0.378-0.645,1.008-1.247,2.143-1.247
			c0.911,0,1.611,0.561,1.905,1.359h0.028c0.21-0.393,0.49-0.673,0.771-0.883c0.405-0.309,0.84-0.477,1.484-0.477
			c0.91,0,2.241,0.589,2.241,2.941v3.979h-1.205v-3.824c0-1.316-0.49-2.087-1.471-2.087c-0.714,0-1.246,0.519-1.471,1.106
			c-0.056,0.183-0.098,0.393-0.098,0.616v4.188h-1.205v-4.062c0-1.078-0.476-1.849-1.414-1.849c-0.757,0-1.331,0.616-1.527,1.232
			c-0.07,0.168-0.098,0.393-0.098,0.603v4.076h-1.205V401.051z"/>
		<path d="M211.308,401.429c0-0.868-0.028-1.569-0.056-2.213h1.093l0.069,1.162h0.028c0.49-0.826,1.303-1.303,2.409-1.303
			c1.653,0,2.886,1.387,2.886,3.432c0,2.438-1.499,3.643-3.096,3.643c-0.896,0-1.681-0.393-2.087-1.064h-0.028v3.684h-1.219V401.429
			z M212.526,403.235c0,0.183,0.014,0.351,0.056,0.505c0.225,0.854,0.967,1.442,1.85,1.442c1.303,0,2.059-1.064,2.059-2.619
			c0-1.345-0.714-2.508-2.017-2.508c-0.841,0-1.639,0.589-1.863,1.513c-0.042,0.154-0.084,0.337-0.084,0.49V403.235z"/>
		<path d="M224.036,404.37c0,0.589,0.028,1.163,0.098,1.625h-1.106l-0.098-0.854h-0.042c-0.379,0.532-1.106,1.009-2.073,1.009
			c-1.373,0-2.073-0.967-2.073-1.947c0-1.639,1.457-2.535,4.076-2.521v-0.14c0-0.547-0.154-1.569-1.541-1.555
			c-0.645,0-1.303,0.182-1.778,0.504l-0.28-0.826c0.56-0.351,1.387-0.589,2.241-0.589c2.073,0,2.577,1.415,2.577,2.76V404.37z
			 M222.846,402.535c-1.345-0.028-2.872,0.21-2.872,1.527c0,0.812,0.532,1.176,1.148,1.176c0.896,0,1.472-0.56,1.667-1.134
			c0.042-0.141,0.057-0.28,0.057-0.393V402.535z"/>
		<path d="M226.021,401.331c0-0.799-0.014-1.485-0.056-2.115h1.078l0.057,1.345h0.042c0.308-0.911,1.064-1.485,1.891-1.485
			c0.126,0,0.224,0.015,0.336,0.028v1.162c-0.126-0.027-0.252-0.027-0.42-0.027c-0.868,0-1.485,0.645-1.653,1.568
			c-0.027,0.168-0.042,0.379-0.042,0.574v3.614h-1.232V401.331z"/>
		<path d="M231.146,402.829c0.028,1.667,1.078,2.354,2.325,2.354c0.883,0,1.429-0.154,1.877-0.351l0.225,0.883
			c-0.435,0.196-1.191,0.435-2.27,0.435c-2.087,0-3.334-1.387-3.334-3.432c0-2.046,1.205-3.643,3.18-3.643
			c2.228,0,2.802,1.934,2.802,3.18c0,0.252-0.014,0.435-0.042,0.574H231.146z M234.76,401.947c0.014-0.771-0.322-1.989-1.709-1.989
			c-1.261,0-1.793,1.135-1.892,1.989H234.76z"/>
		<path d="M243.313,396.05v8.194c0,0.603,0.028,1.289,0.057,1.751h-1.093l-0.056-1.177h-0.042c-0.364,0.757-1.177,1.331-2.283,1.331
			c-1.64,0-2.914-1.387-2.914-3.446c-0.014-2.255,1.4-3.628,3.04-3.628c1.05,0,1.736,0.49,2.045,1.022h0.028v-4.048H243.313z
			 M242.096,401.975c0-0.153-0.015-0.364-0.057-0.518c-0.182-0.771-0.854-1.415-1.778-1.415c-1.275,0-2.031,1.12-2.031,2.605
			c0,1.373,0.686,2.507,2.003,2.507c0.826,0,1.583-0.56,1.807-1.471c0.042-0.168,0.057-0.336,0.057-0.532V401.975z"/>
		<path d="M249.822,397.591v1.625h1.765v0.938h-1.765v3.655c0,0.841,0.237,1.317,0.924,1.317c0.336,0,0.532-0.028,0.715-0.084
			l0.056,0.938c-0.238,0.084-0.616,0.168-1.093,0.168c-0.574,0-1.036-0.196-1.33-0.519c-0.337-0.378-0.477-0.98-0.477-1.779v-3.697
			h-1.051v-0.938h1.051v-1.261L249.822,397.591z"/>
		<path d="M259.022,402.549c0,2.508-1.751,3.601-3.376,3.601c-1.821,0-3.25-1.345-3.25-3.488c0-2.255,1.499-3.586,3.362-3.586
			C257.705,399.075,259.022,400.49,259.022,402.549z M253.657,402.619c0,1.485,0.841,2.605,2.045,2.605
			c1.177,0,2.06-1.106,2.06-2.634c0-1.148-0.574-2.591-2.031-2.591C254.287,400,253.657,401.345,253.657,402.619z"/>
		<path d="M268.304,404.37c0,0.589,0.028,1.163,0.098,1.625h-1.106l-0.098-0.854h-0.042c-0.379,0.532-1.106,1.009-2.073,1.009
			c-1.373,0-2.073-0.967-2.073-1.947c0-1.639,1.457-2.535,4.076-2.521v-0.14c0-0.547-0.154-1.569-1.541-1.555
			c-0.645,0-1.303,0.182-1.778,0.504l-0.28-0.826c0.56-0.351,1.387-0.589,2.241-0.589c2.073,0,2.577,1.415,2.577,2.76V404.37z
			 M267.113,402.535c-1.345-0.028-2.872,0.21-2.872,1.527c0,0.812,0.532,1.176,1.148,1.176c0.896,0,1.472-0.56,1.667-1.134
			c0.042-0.141,0.057-0.28,0.057-0.393V402.535z"/>
		<path d="M270.288,396.05h1.232v9.945h-1.232V396.05z"/>
		<path d="M273.593,401.429c0-0.868-0.028-1.569-0.056-2.213h1.093l0.069,1.162h0.028c0.49-0.826,1.303-1.303,2.409-1.303
			c1.653,0,2.886,1.387,2.886,3.432c0,2.438-1.499,3.643-3.096,3.643c-0.896,0-1.681-0.393-2.087-1.064h-0.028v3.684h-1.219V401.429
			z M274.812,403.235c0,0.183,0.014,0.351,0.056,0.505c0.225,0.854,0.967,1.442,1.85,1.442c1.303,0,2.059-1.064,2.059-2.619
			c0-1.345-0.714-2.508-2.017-2.508c-0.841,0-1.639,0.589-1.863,1.513c-0.042,0.154-0.084,0.337-0.084,0.49V403.235z"/>
		<path d="M281.559,396.05h1.232v4.244h0.028c0.196-0.351,0.504-0.672,0.883-0.883c0.364-0.21,0.798-0.336,1.261-0.336
			c0.91,0,2.367,0.561,2.367,2.886v4.034h-1.233v-3.895c0-1.092-0.406-2.003-1.568-2.003c-0.799,0-1.415,0.561-1.653,1.219
			c-0.069,0.183-0.084,0.364-0.084,0.589v4.09h-1.232V396.05z"/>
		<path d="M294.091,404.37c0,0.589,0.028,1.163,0.098,1.625h-1.106l-0.098-0.854h-0.042c-0.379,0.532-1.106,1.009-2.073,1.009
			c-1.373,0-2.073-0.967-2.073-1.947c0-1.639,1.457-2.535,4.076-2.521v-0.14c0-0.547-0.154-1.569-1.541-1.555
			c-0.645,0-1.303,0.182-1.778,0.504l-0.28-0.826c0.56-0.351,1.387-0.589,2.241-0.589c2.073,0,2.577,1.415,2.577,2.76V404.37z
			 M292.9,402.535c-1.345-0.028-2.872,0.21-2.872,1.527c0,0.812,0.532,1.176,1.148,1.176c0.896,0,1.472-0.56,1.667-1.134
			c0.042-0.141,0.057-0.28,0.057-0.393V402.535z"/>
		<path d="M303.877,405.757c-0.322,0.154-1.037,0.393-1.947,0.393c-2.045,0-3.376-1.387-3.376-3.46c0-2.087,1.429-3.614,3.642-3.614
			c0.729,0,1.373,0.183,1.709,0.364l-0.28,0.938c-0.294-0.154-0.756-0.322-1.429-0.322c-1.555,0-2.395,1.163-2.395,2.563
			c0,1.569,1.008,2.535,2.353,2.535c0.701,0,1.163-0.168,1.514-0.322L303.877,405.757z"/>
		<path d="M311.382,402.549c0,2.508-1.751,3.601-3.376,3.601c-1.821,0-3.25-1.345-3.25-3.488c0-2.255,1.499-3.586,3.362-3.586
			C310.064,399.075,311.382,400.49,311.382,402.549z M306.017,402.619c0,1.485,0.841,2.605,2.045,2.605
			c1.177,0,2.06-1.106,2.06-2.634c0-1.148-0.574-2.591-2.031-2.591C306.646,400,306.017,401.345,306.017,402.619z"/>
		<path d="M312.932,401.051c0-0.715-0.028-1.275-0.056-1.835h1.078l0.057,1.106h0.042c0.378-0.645,1.008-1.247,2.143-1.247
			c0.911,0,1.611,0.561,1.905,1.359h0.028c0.21-0.393,0.49-0.673,0.771-0.883c0.406-0.309,0.84-0.477,1.484-0.477
			c0.91,0,2.241,0.589,2.241,2.941v3.979h-1.205v-3.824c0-1.316-0.49-2.087-1.471-2.087c-0.714,0-1.246,0.519-1.471,1.106
			c-0.056,0.183-0.098,0.393-0.098,0.616v4.188h-1.205v-4.062c0-1.078-0.476-1.849-1.414-1.849c-0.757,0-1.331,0.616-1.527,1.232
			c-0.07,0.168-0.098,0.393-0.098,0.603v4.076h-1.205V401.051z"/>
		<path d="M324.607,401.429c0-0.868-0.028-1.569-0.056-2.213h1.093l0.069,1.162h0.028c0.49-0.826,1.303-1.303,2.409-1.303
			c1.653,0,2.886,1.387,2.886,3.432c0,2.438-1.499,3.643-3.096,3.643c-0.896,0-1.681-0.393-2.087-1.064h-0.028v3.684h-1.219V401.429
			z M325.826,403.235c0,0.183,0.014,0.351,0.056,0.505c0.225,0.854,0.967,1.442,1.85,1.442c1.303,0,2.059-1.064,2.059-2.619
			c0-1.345-0.714-2.508-2.017-2.508c-0.841,0-1.639,0.589-1.863,1.513c-0.042,0.154-0.084,0.337-0.084,0.49V403.235z"/>
		<path d="M338.709,402.549c0,2.508-1.751,3.601-3.376,3.601c-1.821,0-3.25-1.345-3.25-3.488c0-2.255,1.499-3.586,3.362-3.586
			C337.392,399.075,338.709,400.49,338.709,402.549z M333.344,402.619c0,1.485,0.841,2.605,2.045,2.605
			c1.177,0,2.06-1.106,2.06-2.634c0-1.148-0.574-2.591-2.031-2.591C333.974,400,333.344,401.345,333.344,402.619z"/>
		<path d="M340.092,404.748c0.378,0.225,1.022,0.477,1.639,0.477c0.883,0,1.303-0.435,1.303-1.009c0-0.588-0.35-0.896-1.246-1.232
			c-1.233-0.448-1.808-1.106-1.808-1.919c0-1.093,0.896-1.989,2.34-1.989c0.686,0,1.288,0.183,1.652,0.421l-0.294,0.896
			c-0.267-0.169-0.757-0.406-1.387-0.406c-0.729,0-1.121,0.42-1.121,0.924c0,0.561,0.393,0.812,1.275,1.163
			c1.162,0.434,1.778,1.022,1.778,2.031c0,1.204-0.938,2.045-2.521,2.045c-0.742,0-1.429-0.196-1.904-0.477L340.092,404.748z"/>
		<path d="M347.177,397.311c0,0.42-0.294,0.756-0.784,0.756c-0.448,0-0.743-0.336-0.743-0.756s0.309-0.771,0.771-0.771
			C346.868,396.54,347.177,396.876,347.177,397.311z M345.804,405.995v-6.779h1.232v6.779H345.804z"/>
		<path d="M350.564,397.591v1.625h1.765v0.938h-1.765v3.655c0,0.841,0.237,1.317,0.924,1.317c0.336,0,0.532-0.028,0.715-0.084
			l0.056,0.938c-0.238,0.084-0.616,0.168-1.093,0.168c-0.574,0-1.036-0.196-1.33-0.519c-0.337-0.378-0.477-0.98-0.477-1.779v-3.697
			h-1.051v-0.938h1.051v-1.261L350.564,397.591z"/>
		<path d="M355.086,397.311c0,0.42-0.294,0.756-0.784,0.756c-0.448,0-0.743-0.336-0.743-0.756s0.309-0.771,0.771-0.771
			C354.777,396.54,355.086,396.876,355.086,397.311z M353.713,405.995v-6.779h1.232v6.779H353.713z"/>
		<path d="M356.989,401.051c0-0.715-0.014-1.275-0.056-1.835h1.093l0.069,1.12h0.028c0.336-0.63,1.12-1.261,2.241-1.261
			c0.938,0,2.396,0.561,2.396,2.886v4.034h-1.233v-3.908c0-1.093-0.405-2.003-1.568-2.003c-0.799,0-1.429,0.574-1.653,1.261
			c-0.056,0.154-0.084,0.364-0.084,0.574v4.076h-1.232V401.051z"/>
		<path d="M370.558,405.001c0,1.568-0.322,2.507-0.966,3.109c-0.673,0.603-1.625,0.812-2.479,0.812
			c-0.812,0-1.709-0.196-2.256-0.561l0.309-0.952c0.448,0.294,1.148,0.546,1.989,0.546c1.261,0,2.185-0.658,2.185-2.381v-0.743
			h-0.027c-0.364,0.631-1.106,1.135-2.157,1.135c-1.681,0-2.886-1.429-2.886-3.306c0-2.297,1.499-3.586,3.067-3.586
			c1.177,0,1.808,0.603,2.115,1.163h0.028l0.042-1.022h1.093c-0.042,0.476-0.057,1.036-0.057,1.849V405.001z M369.325,401.891
			c0-0.21-0.014-0.392-0.07-0.546c-0.224-0.729-0.812-1.316-1.723-1.316c-1.177,0-2.017,0.994-2.017,2.562
			c0,1.331,0.687,2.438,2.003,2.438c0.771,0,1.457-0.476,1.709-1.261c0.069-0.21,0.098-0.448,0.098-0.658V401.891z"/>
	</g>
	<g>
		<path d="M183.798,421.548c0.378,0.225,1.022,0.477,1.639,0.477c0.883,0,1.303-0.435,1.303-1.009c0-0.588-0.35-0.896-1.246-1.232
			c-1.233-0.448-1.808-1.106-1.808-1.919c0-1.093,0.896-1.989,2.34-1.989c0.686,0,1.288,0.183,1.652,0.42l-0.294,0.896
			c-0.267-0.168-0.757-0.405-1.387-0.405c-0.729,0-1.121,0.42-1.121,0.924c0,0.561,0.393,0.812,1.275,1.163
			c1.162,0.434,1.778,1.022,1.778,2.031c0,1.204-0.938,2.045-2.521,2.045c-0.743,0-1.43-0.196-1.905-0.477L183.798,421.548z"/>
		<path d="M195.646,419.349c0,2.508-1.751,3.601-3.376,3.601c-1.821,0-3.25-1.345-3.25-3.488c0-2.255,1.499-3.586,3.362-3.586
			C194.328,415.875,195.646,417.29,195.646,419.349z M190.28,419.419c0,1.485,0.841,2.605,2.045,2.605
			c1.177,0,2.06-1.106,2.06-2.634c0-1.148-0.574-2.591-2.031-2.591C190.91,416.8,190.28,418.145,190.28,419.419z"/>
		<path d="M197.321,422.795v-5.841h-0.938v-0.938h0.938v-0.322c0-0.953,0.225-1.821,0.784-2.367
			c0.463-0.448,1.079-0.631,1.653-0.631c0.448,0,0.812,0.099,1.051,0.196l-0.168,0.952c-0.183-0.084-0.421-0.153-0.785-0.153
			c-1.05,0-1.316,0.91-1.316,1.961v0.364h1.639v0.938h-1.639v5.841H197.321z"/>
		<path d="M202.909,414.391v1.625h1.765v0.938h-1.765v3.655c0,0.841,0.237,1.317,0.924,1.317c0.336,0,0.532-0.028,0.715-0.084
			l0.056,0.938c-0.238,0.084-0.616,0.168-1.093,0.168c-0.574,0-1.036-0.196-1.33-0.519c-0.337-0.378-0.477-0.98-0.477-1.779v-3.697
			h-1.051v-0.938h1.051v-1.261L202.909,414.391z"/>
		<path d="M206.66,416.016l0.91,3.445c0.183,0.757,0.364,1.457,0.491,2.157h0.042c0.153-0.687,0.378-1.415,0.602-2.143l1.106-3.46
			h1.037l1.051,3.39c0.252,0.812,0.448,1.526,0.602,2.213h0.043c0.111-0.687,0.294-1.4,0.518-2.199l0.967-3.403h1.219l-2.186,6.779
			h-1.12l-1.037-3.235c-0.238-0.757-0.434-1.429-0.603-2.228h-0.027c-0.168,0.812-0.378,1.513-0.616,2.241l-1.093,3.222h-1.121
			l-2.045-6.779H206.66z"/>
		<path d="M221.194,421.17c0,0.589,0.028,1.163,0.098,1.625h-1.106l-0.098-0.854h-0.042c-0.379,0.532-1.106,1.009-2.073,1.009
			c-1.373,0-2.073-0.967-2.073-1.947c0-1.639,1.457-2.535,4.076-2.521v-0.14c0-0.547-0.154-1.569-1.541-1.555
			c-0.645,0-1.303,0.182-1.778,0.504l-0.28-0.826c0.56-0.351,1.387-0.589,2.241-0.589c2.073,0,2.577,1.415,2.577,2.76V421.17z
			 M220.004,419.335c-1.345-0.028-2.872,0.21-2.872,1.527c0,0.812,0.532,1.176,1.148,1.176c0.896,0,1.472-0.56,1.667-1.134
			c0.042-0.141,0.057-0.28,0.057-0.393V419.335z"/>
		<path d="M223.18,418.131c0-0.799-0.014-1.485-0.056-2.115h1.078l0.057,1.345h0.042c0.308-0.911,1.064-1.485,1.891-1.485
			c0.126,0,0.224,0.015,0.336,0.028v1.162c-0.126-0.027-0.252-0.027-0.42-0.027c-0.868,0-1.485,0.645-1.653,1.568
			c-0.027,0.168-0.042,0.378-0.042,0.574v3.614h-1.232V418.131z"/>
		<path d="M228.304,419.629c0.028,1.667,1.078,2.354,2.325,2.354c0.883,0,1.429-0.154,1.877-0.351l0.225,0.883
			c-0.435,0.196-1.191,0.435-2.27,0.435c-2.087,0-3.334-1.387-3.334-3.432c0-2.046,1.205-3.643,3.18-3.643
			c2.228,0,2.802,1.934,2.802,3.18c0,0.252-0.014,0.435-0.042,0.574H228.304z M231.918,418.747c0.014-0.771-0.322-1.989-1.709-1.989
			c-1.261,0-1.793,1.135-1.892,1.989H231.918z"/>
		<path d="M234.351,417.136c0-0.519,0.351-0.883,0.826-0.883c0.505,0,0.827,0.364,0.827,0.883c0,0.49-0.322,0.868-0.841,0.868
			C234.687,418.004,234.351,417.626,234.351,417.136z M234.351,422.08c0-0.518,0.351-0.882,0.826-0.882
			c0.505,0,0.827,0.364,0.827,0.882c0,0.49-0.322,0.869-0.841,0.869C234.687,422.949,234.351,422.57,234.351,422.08z"/>
		<path d="M241.184,419.629c0.028,1.667,1.078,2.354,2.325,2.354c0.883,0,1.429-0.154,1.877-0.351l0.225,0.883
			c-0.435,0.196-1.191,0.435-2.27,0.435c-2.087,0-3.334-1.387-3.334-3.432c0-2.046,1.205-3.643,3.18-3.643
			c2.228,0,2.802,1.934,2.802,3.18c0,0.252-0.015,0.435-0.042,0.574H241.184z M244.798,418.747c0.014-0.771-0.322-1.989-1.709-1.989
			c-1.261,0-1.793,1.135-1.892,1.989H244.798z"/>
		<path d="M248.043,416.016l0.967,1.456c0.266,0.379,0.477,0.715,0.7,1.093h0.028c0.224-0.392,0.448-0.742,0.687-1.106l0.938-1.442
			h1.345l-2.312,3.277l2.367,3.502h-1.387l-1.009-1.526c-0.266-0.393-0.49-0.771-0.729-1.177h-0.027
			c-0.225,0.406-0.448,0.771-0.715,1.177l-0.98,1.526h-1.358l2.409-3.46l-2.297-3.319H248.043z"/>
		<path d="M255.618,414.391v1.625h1.765v0.938h-1.765v3.655c0,0.841,0.237,1.317,0.924,1.317c0.336,0,0.532-0.028,0.715-0.084
			l0.056,0.938c-0.238,0.084-0.616,0.168-1.093,0.168c-0.574,0-1.036-0.196-1.33-0.519c-0.337-0.378-0.477-0.98-0.477-1.779v-3.697
			h-1.051v-0.938h1.051v-1.261L255.618,414.391z"/>
		<path d="M258.767,418.131c0-0.799-0.014-1.485-0.056-2.115h1.078l0.057,1.345h0.042c0.308-0.911,1.064-1.485,1.891-1.485
			c0.126,0,0.225,0.015,0.336,0.028v1.162c-0.126-0.027-0.252-0.027-0.42-0.027c-0.868,0-1.484,0.645-1.653,1.568
			c-0.027,0.168-0.042,0.378-0.042,0.574v3.614h-1.232V418.131z"/>
		<path d="M268.037,421.17c0,0.589,0.028,1.163,0.098,1.625h-1.106l-0.098-0.854h-0.042c-0.378,0.532-1.106,1.009-2.073,1.009
			c-1.373,0-2.073-0.967-2.073-1.947c0-1.639,1.457-2.535,4.076-2.521v-0.14c0-0.547-0.154-1.569-1.541-1.555
			c-0.645,0-1.303,0.182-1.778,0.504l-0.28-0.826c0.56-0.351,1.387-0.589,2.241-0.589c2.073,0,2.577,1.415,2.577,2.76V421.17z
			 M266.847,419.335c-1.345-0.028-2.872,0.21-2.872,1.527c0,0.812,0.532,1.176,1.148,1.176c0.896,0,1.472-0.56,1.667-1.134
			c0.042-0.141,0.057-0.28,0.057-0.393V419.335z"/>
		<path d="M272.99,418.131c0-0.799-0.014-1.485-0.056-2.115h1.078l0.057,1.345h0.042c0.308-0.911,1.064-1.485,1.891-1.485
			c0.126,0,0.224,0.015,0.336,0.028v1.162c-0.126-0.027-0.252-0.027-0.42-0.027c-0.868,0-1.485,0.645-1.653,1.568
			c-0.027,0.168-0.042,0.378-0.042,0.574v3.614h-1.232V418.131z"/>
		<path d="M278.129,419.629c0.028,1.667,1.078,2.354,2.325,2.354c0.883,0,1.429-0.154,1.877-0.351l0.225,0.883
			c-0.435,0.196-1.191,0.435-2.27,0.435c-2.087,0-3.334-1.387-3.334-3.432c0-2.046,1.205-3.643,3.18-3.643
			c2.228,0,2.802,1.934,2.802,3.18c0,0.252-0.015,0.435-0.042,0.574H278.129z M281.743,418.747c0.014-0.771-0.322-1.989-1.709-1.989
			c-1.261,0-1.793,1.135-1.892,1.989H281.743z"/>
		<path d="M289.219,421.17c0,0.589,0.028,1.163,0.098,1.625h-1.106l-0.098-0.854h-0.042c-0.378,0.532-1.106,1.009-2.073,1.009
			c-1.373,0-2.073-0.967-2.073-1.947c0-1.639,1.457-2.535,4.076-2.521v-0.14c0-0.547-0.154-1.569-1.541-1.555
			c-0.645,0-1.303,0.182-1.778,0.504l-0.28-0.826c0.56-0.351,1.387-0.589,2.241-0.589c2.073,0,2.577,1.415,2.577,2.76V421.17z
			 M288.028,419.335c-1.345-0.028-2.872,0.21-2.872,1.527c0,0.812,0.532,1.176,1.148,1.176c0.896,0,1.472-0.56,1.667-1.134
			c0.042-0.141,0.057-0.28,0.057-0.393V419.335z"/>
		<path d="M297.045,412.85v8.194c0,0.603,0.028,1.289,0.057,1.751h-1.093l-0.056-1.177h-0.042c-0.364,0.757-1.177,1.331-2.283,1.331
			c-1.64,0-2.914-1.387-2.914-3.446c-0.014-2.255,1.4-3.628,3.04-3.628c1.05,0,1.736,0.49,2.045,1.022h0.028v-4.048H297.045z
			 M295.827,418.774c0-0.153-0.015-0.364-0.057-0.518c-0.182-0.771-0.854-1.415-1.779-1.415c-1.274,0-2.03,1.12-2.03,2.605
			c0,1.373,0.687,2.507,2.003,2.507c0.826,0,1.583-0.56,1.807-1.471c0.042-0.168,0.057-0.336,0.057-0.532V418.774z"/>
		<path d="M307.908,412.85v8.194c0,0.603,0.028,1.289,0.057,1.751h-1.093l-0.056-1.177h-0.042c-0.364,0.757-1.177,1.331-2.283,1.331
			c-1.64,0-2.914-1.387-2.914-3.446c-0.014-2.255,1.4-3.628,3.04-3.628c1.05,0,1.736,0.49,2.045,1.022h0.028v-4.048H307.908z
			 M306.69,418.774c0-0.153-0.015-0.364-0.057-0.518c-0.182-0.771-0.854-1.415-1.779-1.415c-1.274,0-2.03,1.12-2.03,2.605
			c0,1.373,0.687,2.507,2.003,2.507c0.826,0,1.583-0.56,1.807-1.471c0.042-0.168,0.057-0.336,0.057-0.532V418.774z"/>
		<path d="M315.637,420.932c0,0.715,0.015,1.331,0.057,1.863h-1.093l-0.07-1.106h-0.028c-0.308,0.546-1.036,1.261-2.241,1.261
			c-1.064,0-2.339-0.603-2.339-2.97v-3.964h1.232v3.739c0,1.289,0.406,2.172,1.513,2.172c0.827,0,1.401-0.574,1.625-1.135
			c0.07-0.168,0.112-0.393,0.112-0.631v-4.146h1.232V420.932z"/>
		<path d="M317.678,418.131c0-0.799-0.014-1.485-0.056-2.115h1.078l0.057,1.345h0.042c0.308-0.911,1.064-1.485,1.891-1.485
			c0.126,0,0.224,0.015,0.336,0.028v1.162c-0.126-0.027-0.252-0.027-0.42-0.027c-0.868,0-1.485,0.645-1.653,1.568
			c-0.027,0.168-0.042,0.378-0.042,0.574v3.614h-1.232V418.131z"/>
		<path d="M323.685,414.11c0,0.42-0.294,0.756-0.784,0.756c-0.448,0-0.743-0.336-0.743-0.756s0.309-0.771,0.771-0.771
			C323.376,413.34,323.685,413.676,323.685,414.11z M322.312,422.795v-6.779h1.232v6.779H322.312z"/>
		<path d="M325.588,417.851c0-0.715-0.014-1.275-0.056-1.835h1.093l0.069,1.12h0.028c0.336-0.63,1.12-1.261,2.241-1.261
			c0.938,0,2.396,0.561,2.396,2.886v4.034h-1.233v-3.908c0-1.093-0.406-2.003-1.568-2.003c-0.799,0-1.429,0.574-1.653,1.261
			c-0.056,0.154-0.084,0.364-0.084,0.574v4.076h-1.232V417.851z"/>
		<path d="M339.156,421.801c0,1.568-0.321,2.507-0.966,3.109c-0.673,0.603-1.625,0.812-2.479,0.812
			c-0.812,0-1.709-0.196-2.255-0.561l0.308-0.952c0.448,0.294,1.148,0.546,1.989,0.546c1.261,0,2.186-0.658,2.186-2.381v-0.743
			h-0.028c-0.364,0.631-1.106,1.135-2.157,1.135c-1.681,0-2.886-1.429-2.886-3.306c0-2.297,1.499-3.586,3.067-3.586
			c1.177,0,1.808,0.603,2.115,1.163h0.028l0.042-1.022h1.093c-0.042,0.476-0.057,1.036-0.057,1.849V421.801z M337.924,418.69
			c0-0.21-0.014-0.392-0.07-0.546c-0.224-0.729-0.812-1.316-1.723-1.316c-1.177,0-2.017,0.994-2.017,2.562
			c0,1.331,0.686,2.438,2.003,2.438c0.771,0,1.457-0.476,1.709-1.261c0.069-0.21,0.098-0.448,0.098-0.658V418.69z"/>
		<path d="M344.151,412.85h1.219v4.258h0.028c0.434-0.756,1.219-1.232,2.311-1.232c1.695,0,2.872,1.401,2.872,3.446
			c0,2.423-1.541,3.628-3.054,3.628c-0.98,0-1.765-0.379-2.283-1.261h-0.028l-0.07,1.106h-1.05c0.027-0.462,0.056-1.148,0.056-1.751
			V412.85z M345.37,420.077c0,0.154,0.014,0.309,0.056,0.448c0.225,0.854,0.953,1.443,1.85,1.443c1.303,0,2.059-1.051,2.059-2.605
			c0-1.359-0.7-2.521-2.031-2.521c-0.826,0-1.61,0.588-1.862,1.513c-0.042,0.154-0.07,0.322-0.07,0.519V420.077z"/>
		<path d="M352.117,412.85h1.232v9.945h-1.232V412.85z"/>
		<path d="M356.107,419.629c0.028,1.667,1.078,2.354,2.325,2.354c0.883,0,1.429-0.154,1.877-0.351l0.225,0.883
			c-0.435,0.196-1.191,0.435-2.27,0.435c-2.087,0-3.334-1.387-3.334-3.432c0-2.046,1.205-3.643,3.18-3.643
			c2.228,0,2.802,1.934,2.802,3.18c0,0.252-0.015,0.435-0.042,0.574H356.107z M359.722,418.747c0.014-0.771-0.322-1.989-1.709-1.989
			c-1.261,0-1.793,1.135-1.892,1.989H359.722z"/>
		<path d="M362.435,417.851c0-0.715-0.014-1.275-0.056-1.835h1.093l0.069,1.12h0.028c0.336-0.63,1.12-1.261,2.241-1.261
			c0.938,0,2.396,0.561,2.396,2.886v4.034h-1.233v-3.908c0-1.093-0.405-2.003-1.568-2.003c-0.799,0-1.429,0.574-1.653,1.261
			c-0.056,0.154-0.084,0.364-0.084,0.574v4.076h-1.232V417.851z"/>
		<path d="M376.046,412.85v8.194c0,0.603,0.028,1.289,0.057,1.751h-1.093l-0.056-1.177h-0.042c-0.364,0.757-1.177,1.331-2.283,1.331
			c-1.64,0-2.914-1.387-2.914-3.446c-0.014-2.255,1.4-3.628,3.04-3.628c1.05,0,1.736,0.49,2.045,1.022h0.028v-4.048H376.046z
			 M374.828,418.774c0-0.153-0.015-0.364-0.057-0.518c-0.182-0.771-0.854-1.415-1.778-1.415c-1.275,0-2.031,1.12-2.031,2.605
			c0,1.373,0.686,2.507,2.003,2.507c0.826,0,1.583-0.56,1.807-1.471c0.042-0.168,0.057-0.336,0.057-0.532V418.774z"/>
		<path d="M379.474,414.11c0,0.42-0.294,0.756-0.784,0.756c-0.448,0-0.743-0.336-0.743-0.756s0.309-0.771,0.771-0.771
			C379.165,413.34,379.474,413.676,379.474,414.11z M378.101,422.795v-6.779h1.232v6.779H378.101z"/>
		<path d="M381.377,417.851c0-0.715-0.014-1.275-0.056-1.835h1.093l0.069,1.12h0.028c0.336-0.63,1.12-1.261,2.241-1.261
			c0.938,0,2.396,0.561,2.396,2.886v4.034h-1.233v-3.908c0-1.093-0.406-2.003-1.568-2.003c-0.799,0-1.429,0.574-1.653,1.261
			c-0.056,0.154-0.084,0.364-0.084,0.574v4.076h-1.232V417.851z"/>
		<path d="M394.945,421.801c0,1.568-0.321,2.507-0.966,3.109c-0.673,0.603-1.625,0.812-2.479,0.812
			c-0.812,0-1.709-0.196-2.255-0.561l0.308-0.952c0.448,0.294,1.148,0.546,1.989,0.546c1.261,0,2.186-0.658,2.186-2.381v-0.743
			h-0.028c-0.364,0.631-1.106,1.135-2.157,1.135c-1.681,0-2.886-1.429-2.886-3.306c0-2.297,1.499-3.586,3.067-3.586
			c1.177,0,1.808,0.603,2.115,1.163h0.028l0.042-1.022h1.093c-0.042,0.476-0.057,1.036-0.057,1.849V421.801z M393.713,418.69
			c0-0.21-0.014-0.392-0.07-0.546c-0.224-0.729-0.812-1.316-1.723-1.316c-1.177,0-2.017,0.994-2.017,2.562
			c0,1.331,0.686,2.438,2.003,2.438c0.771,0,1.457-0.476,1.709-1.261c0.069-0.21,0.098-0.448,0.098-0.658V418.69z"/>
	</g>
	<g>
		<path d="M189.765,438.601c0,1.568-0.322,2.507-0.966,3.109c-0.673,0.603-1.625,0.812-2.479,0.812
			c-0.812,0-1.709-0.196-2.256-0.561l0.309-0.952c0.448,0.294,1.148,0.546,1.989,0.546c1.261,0,2.185-0.658,2.185-2.381v-0.743
			h-0.027c-0.364,0.631-1.106,1.135-2.157,1.135c-1.681,0-2.886-1.429-2.886-3.306c0-2.297,1.499-3.586,3.067-3.586
			c1.177,0,1.808,0.603,2.115,1.163h0.028l0.042-1.022h1.093c-0.042,0.476-0.057,1.036-0.057,1.849V438.601z M188.532,435.49
			c0-0.21-0.014-0.392-0.07-0.546c-0.224-0.729-0.812-1.316-1.723-1.316c-1.177,0-2.017,0.994-2.017,2.562
			c0,1.331,0.687,2.438,2.003,2.438c0.771,0,1.457-0.476,1.709-1.261c0.069-0.21,0.098-0.448,0.098-0.658V435.49z"/>
		<path d="M191.722,435.028c0-0.868-0.028-1.569-0.056-2.213h1.093l0.069,1.162h0.028c0.49-0.826,1.303-1.303,2.409-1.303
			c1.653,0,2.886,1.387,2.886,3.432c0,2.438-1.499,3.643-3.096,3.643c-0.896,0-1.681-0.393-2.087-1.064h-0.028v3.684h-1.219V435.028
			z M192.94,436.835c0,0.183,0.014,0.351,0.056,0.505c0.225,0.854,0.967,1.442,1.85,1.442c1.303,0,2.059-1.064,2.059-2.619
			c0-1.345-0.714-2.508-2.017-2.508c-0.841,0-1.639,0.589-1.863,1.513c-0.042,0.154-0.084,0.337-0.084,0.49V436.835z"/>
		<path d="M205.36,437.731c0,0.715,0.015,1.331,0.057,1.863h-1.093l-0.07-1.106h-0.028c-0.308,0.546-1.036,1.261-2.241,1.261
			c-1.064,0-2.339-0.603-2.339-2.97v-3.964h1.232v3.739c0,1.289,0.406,2.172,1.513,2.172c0.827,0,1.401-0.574,1.625-1.135
			c0.07-0.168,0.112-0.393,0.112-0.631v-4.146h1.232V437.731z"/>
		<path d="M207.121,433.936c0-0.519,0.351-0.883,0.827-0.883c0.504,0,0.826,0.364,0.826,0.883c0,0.49-0.322,0.868-0.841,0.868
			C207.457,434.804,207.121,434.426,207.121,433.936z M207.121,438.88c0-0.518,0.351-0.882,0.827-0.882
			c0.504,0,0.826,0.364,0.826,0.882c0,0.491-0.322,0.869-0.841,0.869C207.457,439.749,207.121,439.371,207.121,438.88z"/>
		<path d="M213.953,436.429c0.028,1.667,1.078,2.354,2.325,2.354c0.883,0,1.429-0.154,1.877-0.351l0.225,0.883
			c-0.435,0.196-1.191,0.435-2.27,0.435c-2.087,0-3.334-1.387-3.334-3.432c0-2.046,1.205-3.643,3.18-3.643
			c2.228,0,2.802,1.934,2.802,3.18c0,0.252-0.015,0.435-0.042,0.574H213.953z M217.567,435.547c0.014-0.771-0.322-1.989-1.709-1.989
			c-1.261,0-1.793,1.135-1.892,1.989H217.567z"/>
		<path d="M220.827,432.815l0.967,1.456c0.266,0.379,0.477,0.715,0.7,1.093h0.028c0.224-0.392,0.448-0.742,0.687-1.106l0.938-1.442
			h1.345l-2.312,3.277l2.367,3.502h-1.387l-1.009-1.526c-0.266-0.393-0.49-0.771-0.729-1.177h-0.027
			c-0.225,0.406-0.448,0.771-0.715,1.177l-0.98,1.526h-1.358l2.409-3.46l-2.298-3.319H220.827z"/>
		<path d="M228.389,431.19v1.625h1.765v0.938h-1.765v3.655c0,0.841,0.237,1.317,0.924,1.317c0.336,0,0.532-0.028,0.715-0.084
			l0.056,0.938c-0.238,0.084-0.616,0.168-1.093,0.168c-0.574,0-1.036-0.196-1.33-0.519c-0.337-0.378-0.477-0.98-0.477-1.779v-3.697
			h-1.051v-0.938h1.051v-1.261L228.389,431.19z"/>
		<path d="M231.537,434.931c0-0.799-0.014-1.485-0.056-2.115h1.078l0.057,1.345h0.042c0.308-0.911,1.064-1.485,1.891-1.485
			c0.126,0,0.224,0.015,0.336,0.028v1.162c-0.126-0.027-0.252-0.027-0.42-0.027c-0.868,0-1.485,0.645-1.653,1.568
			c-0.027,0.168-0.042,0.379-0.042,0.574v3.614h-1.232V434.931z"/>
		<path d="M240.808,437.97c0,0.589,0.028,1.163,0.098,1.625h-1.106l-0.098-0.854h-0.042c-0.379,0.532-1.106,1.009-2.073,1.009
			c-1.373,0-2.073-0.967-2.073-1.947c0-1.639,1.457-2.535,4.076-2.521v-0.14c0-0.547-0.154-1.569-1.541-1.555
			c-0.645,0-1.303,0.182-1.778,0.504l-0.28-0.826c0.56-0.351,1.387-0.589,2.241-0.589c2.073,0,2.577,1.415,2.577,2.76V437.97z
			 M239.617,436.135c-1.345-0.028-2.872,0.21-2.872,1.527c0,0.812,0.532,1.176,1.148,1.176c0.896,0,1.472-0.56,1.667-1.134
			c0.042-0.141,0.057-0.28,0.057-0.393V436.135z"/>
		<path d="M245.761,429.649h1.219v4.258h0.028c0.434-0.756,1.219-1.232,2.311-1.232c1.695,0,2.872,1.401,2.872,3.446
			c0,2.423-1.541,3.628-3.054,3.628c-0.98,0-1.765-0.378-2.283-1.261h-0.028l-0.07,1.106h-1.05c0.027-0.462,0.056-1.148,0.056-1.751
			V429.649z M246.979,436.877c0,0.154,0.014,0.309,0.056,0.448c0.225,0.854,0.953,1.443,1.85,1.443c1.303,0,2.059-1.051,2.059-2.605
			c0-1.359-0.7-2.521-2.031-2.521c-0.826,0-1.61,0.588-1.862,1.513c-0.042,0.154-0.07,0.322-0.07,0.519V436.877z"/>
		<path d="M259.399,437.731c0,0.715,0.015,1.331,0.057,1.863h-1.093l-0.07-1.106h-0.028c-0.308,0.546-1.036,1.261-2.241,1.261
			c-1.064,0-2.339-0.603-2.339-2.97v-3.964h1.232v3.739c0,1.289,0.406,2.172,1.513,2.172c0.827,0,1.401-0.574,1.625-1.135
			c0.07-0.168,0.112-0.393,0.112-0.631v-4.146h1.232V437.731z"/>
		<path d="M265.643,439.595v-5.841h-2.857v5.841h-1.219v-5.841h-0.938v-0.938h0.938v-0.211c0-0.952,0.225-1.765,0.757-2.311
			c0.392-0.393,0.952-0.631,1.709-0.631c0.392,0,0.756,0.126,0.966,0.238l-0.252,0.925c-0.182-0.099-0.448-0.183-0.729-0.183
			c-0.966,0-1.232,0.827-1.232,1.892v0.28h2.857v-0.322c0-0.953,0.21-1.821,0.784-2.367c0.463-0.448,1.079-0.631,1.64-0.631
			c0.448,0,0.826,0.099,1.05,0.196l-0.153,0.952c-0.196-0.084-0.435-0.153-0.799-0.153c-1.036,0-1.303,0.91-1.303,1.961v0.364h1.625
			v0.938h-1.625v5.841H265.643z"/>
		<path d="M270.121,436.429c0.028,1.667,1.078,2.354,2.325,2.354c0.883,0,1.429-0.154,1.877-0.351l0.225,0.883
			c-0.435,0.196-1.191,0.435-2.27,0.435c-2.087,0-3.334-1.387-3.334-3.432c0-2.046,1.205-3.643,3.18-3.643
			c2.228,0,2.802,1.934,2.802,3.18c0,0.252-0.015,0.435-0.042,0.574H270.121z M273.735,435.547c0.014-0.771-0.322-1.989-1.709-1.989
			c-1.261,0-1.793,1.135-1.892,1.989H273.735z"/>
		<path d="M276.448,434.931c0-0.799-0.014-1.485-0.056-2.115h1.078l0.057,1.345h0.042c0.308-0.911,1.064-1.485,1.891-1.485
			c0.126,0,0.225,0.015,0.336,0.028v1.162c-0.126-0.027-0.252-0.027-0.42-0.027c-0.868,0-1.484,0.645-1.653,1.568
			c-0.027,0.168-0.042,0.379-0.042,0.574v3.614h-1.232V434.931z"/>
		<path d="M287.594,432.143v3.292h3.166v0.841h-3.166v3.319h-0.896v-3.319h-3.165v-0.841h3.165v-3.292H287.594z"/>
		<path d="M295.992,436.429c0.028,1.667,1.078,2.354,2.325,2.354c0.883,0,1.429-0.154,1.877-0.351l0.225,0.883
			c-0.435,0.196-1.191,0.435-2.27,0.435c-2.087,0-3.334-1.387-3.334-3.432c0-2.046,1.205-3.643,3.18-3.643
			c2.228,0,2.802,1.934,2.802,3.18c0,0.252-0.015,0.435-0.042,0.574H295.992z M299.606,435.547c0.014-0.771-0.322-1.989-1.709-1.989
			c-1.261,0-1.793,1.135-1.892,1.989H299.606z"/>
		<path d="M302.866,432.815l0.967,1.456c0.266,0.379,0.477,0.715,0.7,1.093h0.028c0.224-0.392,0.448-0.742,0.687-1.106l0.938-1.442
			h1.345l-2.312,3.277l2.367,3.502H306.2l-1.009-1.526c-0.266-0.393-0.49-0.771-0.729-1.177h-0.027
			c-0.225,0.406-0.448,0.771-0.715,1.177l-0.98,1.526h-1.358l2.409-3.46l-2.298-3.319H302.866z"/>
		<path d="M310.427,431.19v1.625h1.765v0.938h-1.765v3.655c0,0.841,0.237,1.317,0.924,1.317c0.336,0,0.532-0.028,0.715-0.084
			l0.056,0.938c-0.238,0.084-0.616,0.168-1.093,0.168c-0.574,0-1.036-0.196-1.33-0.519c-0.337-0.378-0.477-0.98-0.477-1.779v-3.697
			h-1.051v-0.938h1.051v-1.261L310.427,431.19z"/>
		<path d="M313.575,434.931c0-0.799-0.014-1.485-0.056-2.115h1.078l0.057,1.345h0.042c0.308-0.911,1.064-1.485,1.891-1.485
			c0.126,0,0.225,0.015,0.336,0.028v1.162c-0.126-0.027-0.252-0.027-0.42-0.027c-0.868,0-1.484,0.645-1.653,1.568
			c-0.027,0.168-0.042,0.379-0.042,0.574v3.614h-1.232V434.931z"/>
		<path d="M322.846,437.97c0,0.589,0.028,1.163,0.098,1.625h-1.106l-0.098-0.854h-0.042c-0.378,0.532-1.106,1.009-2.073,1.009
			c-1.373,0-2.073-0.967-2.073-1.947c0-1.639,1.457-2.535,4.076-2.521v-0.14c0-0.547-0.154-1.569-1.541-1.555
			c-0.645,0-1.303,0.182-1.778,0.504l-0.28-0.826c0.56-0.351,1.387-0.589,2.241-0.589c2.073,0,2.577,1.415,2.577,2.76V437.97z
			 M321.655,436.135c-1.345-0.028-2.872,0.21-2.872,1.527c0,0.812,0.532,1.176,1.148,1.176c0.896,0,1.472-0.56,1.667-1.134
			c0.042-0.141,0.057-0.28,0.057-0.393V436.135z"/>
		<path d="M327.799,434.931c0-0.799-0.014-1.485-0.056-2.115h1.078l0.057,1.345h0.042c0.308-0.911,1.064-1.485,1.891-1.485
			c0.126,0,0.224,0.015,0.336,0.028v1.162c-0.126-0.027-0.252-0.027-0.42-0.027c-0.868,0-1.485,0.645-1.653,1.568
			c-0.027,0.168-0.042,0.379-0.042,0.574v3.614h-1.232V434.931z"/>
		<path d="M332.938,436.429c0.028,1.667,1.078,2.354,2.325,2.354c0.883,0,1.429-0.154,1.877-0.351l0.225,0.883
			c-0.435,0.196-1.191,0.435-2.27,0.435c-2.087,0-3.334-1.387-3.334-3.432c0-2.046,1.205-3.643,3.18-3.643
			c2.228,0,2.802,1.934,2.802,3.18c0,0.252-0.015,0.435-0.042,0.574H332.938z M336.552,435.547c0.014-0.771-0.322-1.989-1.709-1.989
			c-1.261,0-1.793,1.135-1.892,1.989H336.552z"/>
		<path d="M344.027,437.97c0,0.589,0.028,1.163,0.098,1.625h-1.106l-0.098-0.854h-0.042c-0.378,0.532-1.106,1.009-2.073,1.009
			c-1.373,0-2.073-0.967-2.073-1.947c0-1.639,1.457-2.535,4.076-2.521v-0.14c0-0.547-0.154-1.569-1.541-1.555
			c-0.645,0-1.303,0.182-1.778,0.504l-0.28-0.826c0.56-0.351,1.387-0.589,2.241-0.589c2.073,0,2.577,1.415,2.577,2.76V437.97z
			 M342.837,436.135c-1.345-0.028-2.872,0.21-2.872,1.527c0,0.812,0.532,1.176,1.148,1.176c0.896,0,1.472-0.56,1.667-1.134
			c0.042-0.141,0.057-0.28,0.057-0.393V436.135z"/>
		<path d="M351.854,429.649v8.194c0,0.603,0.028,1.289,0.057,1.751h-1.093l-0.056-1.177h-0.042
			c-0.364,0.757-1.177,1.331-2.283,1.331c-1.64,0-2.914-1.387-2.914-3.446c-0.014-2.255,1.4-3.628,3.04-3.628
			c1.05,0,1.736,0.49,2.045,1.022h0.028v-4.048H351.854z M350.636,435.574c0-0.153-0.015-0.364-0.057-0.518
			c-0.182-0.771-0.854-1.415-1.779-1.415c-1.274,0-2.03,1.12-2.03,2.605c0,1.373,0.687,2.507,2.003,2.507
			c0.826,0,1.583-0.56,1.807-1.471c0.042-0.168,0.057-0.336,0.057-0.532V435.574z"/>
		<path d="M362.718,429.649v8.194c0,0.603,0.028,1.289,0.057,1.751h-1.093l-0.056-1.177h-0.042
			c-0.364,0.757-1.177,1.331-2.283,1.331c-1.64,0-2.914-1.387-2.914-3.446c-0.014-2.255,1.4-3.628,3.04-3.628
			c1.05,0,1.736,0.49,2.045,1.022h0.028v-4.048H362.718z M361.5,435.574c0-0.153-0.015-0.364-0.057-0.518
			c-0.182-0.771-0.854-1.415-1.778-1.415c-1.275,0-2.031,1.12-2.031,2.605c0,1.373,0.686,2.507,2.003,2.507
			c0.826,0,1.583-0.56,1.807-1.471c0.042-0.168,0.057-0.336,0.057-0.532V435.574z"/>
		<path d="M370.445,437.731c0,0.715,0.015,1.331,0.057,1.863h-1.093l-0.07-1.106h-0.028c-0.308,0.546-1.036,1.261-2.241,1.261
			c-1.064,0-2.339-0.603-2.339-2.97v-3.964h1.232v3.739c0,1.289,0.406,2.172,1.513,2.172c0.827,0,1.401-0.574,1.625-1.135
			c0.07-0.168,0.112-0.393,0.112-0.631v-4.146h1.232V437.731z"/>
		<path d="M372.486,434.931c0-0.799-0.014-1.485-0.056-2.115h1.078l0.057,1.345h0.042c0.308-0.911,1.064-1.485,1.891-1.485
			c0.126,0,0.224,0.015,0.336,0.028v1.162c-0.126-0.027-0.252-0.027-0.42-0.027c-0.868,0-1.485,0.645-1.653,1.568
			c-0.027,0.168-0.042,0.379-0.042,0.574v3.614h-1.232V434.931z"/>
		<path d="M378.493,430.91c0,0.42-0.294,0.756-0.784,0.756c-0.448,0-0.743-0.336-0.743-0.756s0.309-0.771,0.771-0.771
			C378.185,430.14,378.493,430.476,378.493,430.91z M377.12,439.595v-6.779h1.232v6.779H377.12z"/>
		<path d="M380.396,434.65c0-0.715-0.014-1.275-0.056-1.835h1.093l0.069,1.12h0.028c0.336-0.63,1.12-1.261,2.241-1.261
			c0.938,0,2.396,0.561,2.396,2.886v4.034h-1.233v-3.908c0-1.093-0.406-2.003-1.568-2.003c-0.799,0-1.429,0.574-1.653,1.261
			c-0.056,0.154-0.084,0.364-0.084,0.574v4.076h-1.232V434.65z"/>
		<path d="M393.965,438.601c0,1.568-0.321,2.507-0.966,3.109c-0.673,0.603-1.625,0.812-2.479,0.812
			c-0.812,0-1.709-0.196-2.255-0.561l0.308-0.952c0.448,0.294,1.148,0.546,1.989,0.546c1.261,0,2.186-0.658,2.186-2.381v-0.743
			h-0.028c-0.364,0.631-1.106,1.135-2.157,1.135c-1.681,0-2.886-1.429-2.886-3.306c0-2.297,1.499-3.586,3.067-3.586
			c1.177,0,1.808,0.603,2.115,1.163h0.028l0.042-1.022h1.093c-0.042,0.476-0.057,1.036-0.057,1.849V438.601z M392.732,435.49
			c0-0.21-0.014-0.392-0.07-0.546c-0.224-0.729-0.812-1.316-1.723-1.316c-1.177,0-2.017,0.994-2.017,2.562
			c0,1.331,0.686,2.438,2.003,2.438c0.771,0,1.457-0.476,1.709-1.261c0.069-0.21,0.098-0.448,0.098-0.658V435.49z"/>
		<path d="M398.792,438.348c0.378,0.225,1.022,0.477,1.639,0.477c0.883,0,1.303-0.435,1.303-1.009c0-0.588-0.35-0.896-1.246-1.232
			c-1.233-0.448-1.808-1.106-1.808-1.919c0-1.093,0.896-1.989,2.34-1.989c0.686,0,1.288,0.183,1.652,0.421l-0.294,0.896
			c-0.267-0.169-0.757-0.406-1.387-0.406c-0.729,0-1.121,0.42-1.121,0.924c0,0.561,0.393,0.812,1.275,1.163
			c1.162,0.434,1.778,1.022,1.778,2.031c0,1.204-0.938,2.045-2.521,2.045c-0.743,0-1.43-0.196-1.905-0.477L398.792,438.348z"/>
		<path d="M404.504,429.649h1.232v4.244h0.028c0.196-0.351,0.504-0.672,0.883-0.883c0.364-0.21,0.798-0.336,1.261-0.336
			c0.91,0,2.367,0.561,2.367,2.886v4.034h-1.233V435.7c0-1.092-0.406-2.003-1.568-2.003c-0.799,0-1.415,0.561-1.653,1.219
			c-0.069,0.183-0.084,0.364-0.084,0.589v4.09h-1.232V429.649z"/>
		<path d="M417.036,437.97c0,0.589,0.028,1.163,0.098,1.625h-1.106l-0.098-0.854h-0.042c-0.379,0.532-1.106,1.009-2.073,1.009
			c-1.373,0-2.073-0.967-2.073-1.947c0-1.639,1.457-2.535,4.076-2.521v-0.14c0-0.547-0.154-1.569-1.541-1.555
			c-0.645,0-1.303,0.182-1.778,0.504l-0.28-0.826c0.56-0.351,1.387-0.589,2.241-0.589c2.073,0,2.577,1.415,2.577,2.76V437.97z
			 M415.846,436.135c-1.345-0.028-2.872,0.21-2.872,1.527c0,0.812,0.532,1.176,1.148,1.176c0.896,0,1.472-0.56,1.667-1.134
			c0.042-0.141,0.057-0.28,0.057-0.393V436.135z"/>
		<path d="M424.862,429.649v8.194c0,0.603,0.028,1.289,0.057,1.751h-1.093l-0.056-1.177h-0.042
			c-0.364,0.757-1.177,1.331-2.283,1.331c-1.64,0-2.914-1.387-2.914-3.446c-0.014-2.255,1.4-3.628,3.04-3.628
			c1.05,0,1.736,0.49,2.045,1.022h0.028v-4.048H424.862z M423.645,435.574c0-0.153-0.015-0.364-0.057-0.518
			c-0.182-0.771-0.854-1.415-1.778-1.415c-1.275,0-2.031,1.12-2.031,2.605c0,1.373,0.686,2.507,2.003,2.507
			c0.826,0,1.583-0.56,1.807-1.471c0.042-0.168,0.057-0.336,0.057-0.532V435.574z"/>
		<path d="M428.291,430.91c0,0.42-0.294,0.756-0.784,0.756c-0.448,0-0.743-0.336-0.743-0.756s0.309-0.771,0.771-0.771
			C427.982,430.14,428.291,430.476,428.291,430.91z M426.918,439.595v-6.779h1.232v6.779H426.918z"/>
		<path d="M430.193,434.65c0-0.715-0.014-1.275-0.056-1.835h1.093l0.069,1.12h0.028c0.336-0.63,1.12-1.261,2.241-1.261
			c0.938,0,2.396,0.561,2.396,2.886v4.034h-1.233v-3.908c0-1.093-0.406-2.003-1.568-2.003c-0.799,0-1.429,0.574-1.653,1.261
			c-0.056,0.154-0.084,0.364-0.084,0.574v4.076h-1.232V434.65z"/>
		<path d="M443.763,438.601c0,1.568-0.322,2.507-0.966,3.109c-0.673,0.603-1.625,0.812-2.479,0.812
			c-0.812,0-1.709-0.196-2.256-0.561l0.309-0.952c0.448,0.294,1.148,0.546,1.989,0.546c1.261,0,2.185-0.658,2.185-2.381v-0.743
			h-0.027c-0.364,0.631-1.106,1.135-2.157,1.135c-1.681,0-2.886-1.429-2.886-3.306c0-2.297,1.499-3.586,3.067-3.586
			c1.177,0,1.808,0.603,2.115,1.163h0.028l0.042-1.022h1.093c-0.042,0.476-0.057,1.036-0.057,1.849V438.601z M442.53,435.49
			c0-0.21-0.014-0.392-0.07-0.546c-0.224-0.729-0.812-1.316-1.723-1.316c-1.177,0-2.017,0.994-2.017,2.562
			c0,1.331,0.687,2.438,2.003,2.438c0.771,0,1.457-0.476,1.709-1.261c0.069-0.21,0.098-0.448,0.098-0.658V435.49z"/>
	</g>
</g>
</svg>
