<?xml version="1.0" encoding="utf-8"?>
<!-- Generator: Adobe Illustrator 15.1.0, SVG Export Plug-In . SVG Version: 6.00 Build 0)  -->
<!DOCTYPE svg PUBLIC "-//W3C//DTD SVG 1.1//EN" "http://www.w3.org/Graphics/SVG/1.1/DTD/svg11.dtd">
<svg version="1.1" id="Layer_1" xmlns="http://www.w3.org/2000/svg" xmlns:xlink="http://www.w3.org/1999/xlink" x="0px" y="0px"
	 width="640px" height="480px" viewBox="0 0 640 480" enable-background="new 0 0 640 480" xml:space="preserve">
<g>
	<rect x="93.222" y="103.242" fill="#FFFFFF" width="124.444" height="86.778"/>
	<polygon points="217.666,190.02 217.666,189.52 93.722,189.52 93.722,103.742 217.166,103.742 217.166,190.02 217.666,190.02 
		217.666,189.52 217.666,190.02 218.166,190.02 218.166,102.742 92.722,102.742 92.722,190.52 218.166,190.52 218.166,190.02 	"/>
	<polyline fill="#FFFFFF" points="637,194.666 512.556,194.666 512.556,107.889 637,107.889 637,194.666 	"/>
	<polyline points="637,194.666 637,194.166 513.056,194.166 513.056,108.389 636.5,108.389 636.5,194.666 637,194.666 637,194.166 
		637,194.666 637.5,194.666 637.5,107.389 512.056,107.389 512.056,195.166 637.5,195.166 637.5,194.666 637,194.666 	"/>
	<polyline fill="#FFFFFF" points="217.666,402.668 93.222,402.668 93.222,315.891 217.666,315.891 217.666,402.668 	"/>
	<polygon points="217.666,402.668 217.666,402.168 93.722,402.168 93.722,316.391 217.166,316.391 217.166,402.668 217.666,402.668 
		217.666,402.168 217.666,402.668 218.166,402.668 218.166,315.391 92.722,315.391 92.722,403.168 218.166,403.168 218.166,402.668 
			"/>
	<polyline fill="#FFFFFF" points="516.331,400.443 391.888,400.443 391.888,313.666 516.331,313.666 516.331,400.443 	"/>
	<polyline points="516.331,400.443 516.331,399.943 392.388,399.943 392.388,314.166 515.831,314.166 515.831,400.443 
		516.331,400.443 516.331,399.943 516.331,400.443 516.831,400.443 516.831,313.166 391.388,313.166 391.388,400.943 
		516.831,400.943 516.831,400.443 516.331,400.443 	"/>
	<circle fill="#FF00FF" cx="132" cy="147.797" r="35"/>
	<path d="M167,147.797h-0.5c0,9.528-3.861,18.15-10.105,24.395c-6.245,6.244-14.867,10.104-24.395,10.105
		c-9.528,0-18.15-3.861-24.395-10.105c-6.244-6.245-10.105-14.866-10.105-24.395s3.861-18.15,10.105-24.395
		c6.245-6.244,14.866-10.105,24.395-10.105c9.528,0,18.15,3.861,24.395,10.105c6.244,6.245,10.104,14.866,10.105,24.395H167h0.5
		c0-19.606-15.894-35.5-35.5-35.5c-19.606,0-35.5,15.894-35.5,35.5c0,19.606,15.894,35.5,35.5,35.5c19.606,0,35.5-15.894,35.5-35.5
		H167z"/>
	<path fill="#FF00FF" d="M588.112,151.723c0,19.33-15.67,35-35,35s-35-15.67-35-35c0-19.33,15.67-35,35-35
		S588.112,132.393,588.112,151.723"/>
	<path d="M588.112,151.723h-0.5c0,9.528-3.86,18.15-10.104,24.395c-6.245,6.244-14.867,10.104-24.396,10.104
		c-9.528,0-18.15-3.861-24.396-10.104c-6.244-6.245-10.104-14.867-10.104-24.395c0-9.529,3.86-18.15,10.104-24.395
		c6.245-6.244,14.867-10.104,24.396-10.105c9.528,0,18.15,3.861,24.396,10.105c6.244,6.245,10.104,14.866,10.104,24.395H588.112h0.5
		c0-19.606-15.894-35.5-35.5-35.5c-19.606,0-35.5,15.894-35.5,35.5c0,19.606,15.894,35.499,35.5,35.5
		c19.606,0,35.5-15.894,35.5-35.5H588.112"/>
	<path fill="#00FFFF" d="M602,116.778c-9.307,0-17.749,3.684-23.956,9.673c6.523,6.437,10.568,15.383,10.568,25.272l0,0l0,0
		c0,9.657-3.856,18.414-10.112,24.813c6.161,5.735,14.419,9.241,23.5,9.242c9.528,0,18.15-3.861,24.396-10.105
		c6.244-6.245,10.104-14.867,10.104-24.396l0,0c0-9.528-3.86-18.15-10.104-24.396C620.15,120.639,611.528,116.778,602,116.778"/>
	<path fill="#0000FF" d="M577.334,127.156c-6.084,6.222-9.834,14.731-9.834,24.122c0,9.529,3.86,18.151,10.104,24.396
		c0.058,0.057,0.115,0.115,0.173,0.171c6.086-6.222,9.835-14.731,9.835-24.122h0.5l0,0h-0.5c0-9.529-3.86-18.15-10.104-24.395
		C577.45,127.271,577.393,127.213,577.334,127.156"/>
	<path d="M588.612,151.723h-0.5h-0.5c0,9.391-3.749,17.9-9.835,24.122c0.237,0.234,0.479,0.465,0.723,0.692
		C584.756,170.137,588.612,161.38,588.612,151.723 M588.612,151.723L588.612,151.723L588.612,151.723 M578.044,126.451
		c-0.147,0.143-0.294,0.286-0.439,0.431c-0.091,0.091-0.181,0.182-0.271,0.274c0.059,0.057,0.116,0.114,0.174,0.172
		c6.244,6.245,10.104,14.866,10.104,24.395h0.5h0.5l0,0C588.612,141.834,584.567,132.888,578.044,126.451"/>
	<path d="M602,115.778c-9.589,0-18.29,3.802-24.679,9.98c0.244,0.228,0.485,0.458,0.723,0.693c6.207-5.99,14.649-9.673,23.956-9.673
		c9.528,0,18.15,3.861,24.396,10.104c6.244,6.245,10.104,14.867,10.104,24.396v-8.401C632.726,127.326,618.712,115.778,602,115.778"
		/>
	<path d="M636.5,142.877v8.401l0,0h0.5h0.5l0,0C637.5,148.383,637.153,145.57,636.5,142.877"/>
	<path d="M636.5,151.278c0,9.529-3.86,18.151-10.104,24.396c-6.245,6.244-14.867,10.104-24.396,10.105
		c-9.081,0-17.339-3.507-23.5-9.242c-0.233,0.239-0.47,0.474-0.71,0.706c6.342,5.916,14.853,9.536,24.21,9.536
		c16.712,0,30.726-11.548,34.5-27.099V151.278"/>
	<path d="M637.5,151.278H637h-0.5l0,0v8.401C637.153,156.985,637.5,154.173,637.5,151.278"/>
	<path d="M576.612,126.464c-6.257,6.4-10.112,15.156-10.112,24.813c0,9.89,4.044,18.835,10.568,25.272
		c0.147-0.143,0.294-0.287,0.439-0.432c0.09-0.09,0.181-0.182,0.27-0.273c-0.058-0.057-0.115-0.114-0.173-0.171
		c-6.244-6.245-10.104-14.867-10.104-24.396c0-9.39,3.75-17.9,9.834-24.122C577.097,126.922,576.856,126.691,576.612,126.464"/>
	<path d="M577.321,125.758c-0.239,0.232-0.476,0.467-0.709,0.706c0.244,0.227,0.484,0.458,0.722,0.692
		c0.09-0.092,0.18-0.183,0.271-0.274c0.146-0.145,0.292-0.289,0.439-0.431C577.807,126.217,577.565,125.986,577.321,125.758"/>
	<path d="M577.777,175.845c-0.089,0.091-0.18,0.183-0.27,0.273c-0.146,0.145-0.292,0.289-0.439,0.432
		c0.237,0.234,0.478,0.465,0.722,0.693c0.24-0.232,0.477-0.467,0.71-0.706C578.256,176.31,578.015,176.079,577.777,175.845"/>
	<path fill="#FF00FF" d="M169.333,38.889c0,19.331-15.67,35-35,35s-35-15.67-35-35c0-19.33,15.67-35,35-35
		S169.333,19.559,169.333,38.889"/>
	<path d="M169.333,38.889h-0.5c0,9.529-3.861,18.151-10.105,24.396c-6.245,6.244-14.867,10.105-24.395,10.105
		s-18.15-3.861-24.395-10.105c-6.244-6.245-10.104-14.867-10.105-24.396c0-9.529,3.861-18.15,10.105-24.395
		c6.245-6.244,14.866-10.104,24.395-10.105c9.528,0,18.15,3.861,24.395,10.105c6.244,6.245,10.105,14.866,10.105,24.395H169.333h0.5
		c0-19.606-15.894-35.5-35.5-35.5c-19.606,0-35.5,15.894-35.5,35.5c0,19.607,15.894,35.5,35.5,35.5c19.606,0,35.5-15.894,35.5-35.5
		H169.333"/>
	<path fill="#00FFFF" d="M176.554,4.389c-7.582,0-14.589,2.444-20.283,6.589c8.259,6.5,13.561,16.586,13.561,27.911l0,0l0,0
		c0,11.326-5.303,21.412-13.561,27.912c5.693,4.145,12.701,6.589,20.283,6.589c9.529,0,18.151-3.861,24.396-10.105
		c6.244-6.245,10.104-14.867,10.105-24.396h0.5l0,0h-0.5c0-9.529-3.861-18.15-10.105-24.395
		C194.705,8.25,186.083,4.389,176.554,4.389"/>
	<path fill="#0000FF" d="M155.443,11.6c-1.155,0.895-2.252,1.862-3.284,2.894c-6.244,6.245-10.104,14.866-10.105,24.395
		c0,9.529,3.861,18.151,10.105,24.396c1.032,1.032,2.129,1.999,3.284,2.894c1.155-0.895,2.252-1.862,3.284-2.894
		c6.244-6.245,10.105-14.867,10.105-24.396h0.5l0,0h-0.5c0-9.529-3.861-18.15-10.105-24.395
		C157.696,13.461,156.599,12.495,155.443,11.6"/>
	<path d="M169.833,38.889h-0.5h-0.5c0,9.529-3.861,18.151-10.105,24.396c-1.032,1.032-2.129,1.999-3.284,2.894
		c0.272,0.211,0.549,0.419,0.828,0.622C164.53,60.3,169.832,50.214,169.833,38.889 M169.833,38.889L169.833,38.889L169.833,38.889
		 M156.271,10.978c-0.279,0.203-0.556,0.411-0.828,0.622c1.155,0.895,2.252,1.862,3.284,2.894
		c6.244,6.245,10.105,14.866,10.105,24.395h0.5h0.5l0,0C169.832,27.563,164.53,17.478,156.271,10.978"/>
	<path d="M212.055,38.889h-0.5h-0.5c0,9.529-3.861,18.151-10.105,24.396c-6.245,6.244-14.867,10.105-24.396,10.105
		c-7.582,0-14.59-2.444-20.283-6.589c-0.272,0.214-0.55,0.426-0.828,0.632c5.9,4.372,13.203,6.957,21.111,6.957
		C196.162,74.389,212.055,58.496,212.055,38.889 M176.554,3.389c-7.908,0-15.21,2.584-21.111,6.956
		c0.278,0.207,0.556,0.418,0.828,0.633c5.693-4.145,12.701-6.589,20.283-6.589c9.529,0,18.151,3.861,24.396,10.105
		c6.244,6.245,10.104,14.866,10.105,24.395h0.5h0.5l0,0C212.055,19.282,196.162,3.389,176.554,3.389"/>
	<path d="M154.615,10.978c-8.259,6.5-13.561,16.586-13.561,27.911c0,11.326,5.302,21.412,13.561,27.912
		c0.279-0.203,0.556-0.411,0.828-0.622c-1.155-0.895-2.252-1.862-3.284-2.894c-6.244-6.245-10.104-14.867-10.105-24.396
		c0-9.529,3.861-18.15,10.105-24.395c1.032-1.032,2.129-1.999,3.284-2.894C155.171,11.388,154.894,11.181,154.615,10.978"/>
	<path d="M155.443,10.345c-0.279,0.207-0.556,0.418-0.828,0.633c0.279,0.203,0.556,0.411,0.828,0.622
		c0.272-0.211,0.549-0.419,0.828-0.622C156,10.763,155.722,10.551,155.443,10.345"/>
	<path d="M155.443,66.178c-0.272,0.211-0.549,0.419-0.828,0.622c0.272,0.214,0.549,0.426,0.828,0.632
		c0.278-0.206,0.556-0.418,0.828-0.632C155.992,66.597,155.716,66.39,155.443,66.178"/>
	<path fill="#00FFFF" d="M179.666,324.779c-9.529,0-18.15,3.86-24.395,10.104c-6.244,6.245-10.104,14.867-10.105,24.396
		c0,9.529,3.861,18.151,10.105,24.396c6.245,6.244,14.866,10.104,24.395,10.104c9.528,0,18.15-3.86,24.395-10.104
		c6.244-6.245,10.104-14.867,10.105-24.396h0.5l0,0h-0.5c0-9.528-3.861-18.15-10.105-24.396
		C197.816,328.64,189.194,324.779,179.666,324.779"/>
	<path d="M215.166,359.279L215.166,359.279L215.166,359.279 M179.666,323.779c-19.606,0-35.5,15.894-35.5,35.5
		c0,19.607,15.894,35.501,35.5,35.501s35.5-15.894,35.5-35.501h-0.5h-0.5c0,9.529-3.861,18.151-10.105,24.396
		c-6.245,6.244-14.867,10.104-24.395,10.104c-9.529,0-18.15-3.86-24.395-10.104c-6.244-6.245-10.104-14.867-10.105-24.396
		c0-9.528,3.861-18.15,10.105-24.396c6.245-6.244,14.866-10.104,24.395-10.104c9.528,0,18.15,3.86,24.395,10.104
		c6.244,6.245,10.104,14.867,10.105,24.396h0.5h0.5l0,0C215.166,339.673,199.272,323.779,179.666,323.779"/>
	<g>
		<path d="M4.466,355.571c0.547,0.35,1.331,0.616,2.172,0.616c1.246,0,1.975-0.658,1.975-1.611c0-0.868-0.504-1.387-1.779-1.863
			c-1.54-0.56-2.493-1.372-2.493-2.689c0-1.471,1.219-2.562,3.054-2.562c0.953,0,1.667,0.224,2.073,0.462l-0.336,0.994
			c-0.294-0.182-0.925-0.448-1.779-0.448c-1.288,0-1.778,0.771-1.778,1.415c0,0.883,0.574,1.316,1.877,1.821
			c1.597,0.616,2.395,1.387,2.395,2.773c0,1.457-1.064,2.731-3.291,2.731c-0.911,0-1.905-0.28-2.41-0.616L4.466,355.571z"/>
		<path d="M11.48,347.11h1.232v4.244h0.028c0.196-0.351,0.504-0.672,0.883-0.883c0.364-0.21,0.798-0.336,1.261-0.336
			c0.91,0,2.367,0.561,2.367,2.886v4.034h-1.233v-3.895c0-1.092-0.406-2.003-1.568-2.003c-0.799,0-1.415,0.561-1.653,1.219
			c-0.069,0.183-0.084,0.364-0.084,0.589v4.09H11.48V347.11z"/>
		<path d="M24.013,355.431c0,0.589,0.028,1.163,0.098,1.625h-1.106l-0.098-0.854h-0.042c-0.379,0.532-1.106,1.009-2.073,1.009
			c-1.373,0-2.073-0.967-2.073-1.947c0-1.639,1.457-2.535,4.076-2.521v-0.14c0-0.547-0.154-1.569-1.541-1.555
			c-0.645,0-1.303,0.182-1.778,0.504l-0.28-0.826c0.56-0.351,1.387-0.589,2.241-0.589c2.073,0,2.577,1.415,2.577,2.76V355.431z
			 M22.822,353.596c-1.345-0.028-2.872,0.21-2.872,1.527c0,0.812,0.532,1.176,1.148,1.176c0.896,0,1.472-0.56,1.667-1.134
			c0.042-0.141,0.057-0.28,0.057-0.393V353.596z"/>
		<path d="M25.998,352.489c0-0.868-0.028-1.569-0.056-2.213h1.093l0.069,1.162h0.028c0.49-0.826,1.303-1.303,2.409-1.303
			c1.653,0,2.886,1.387,2.886,3.432c0,2.438-1.499,3.643-3.096,3.643c-0.896,0-1.681-0.393-2.087-1.064h-0.028v3.684h-1.219V352.489
			z M27.217,354.296c0,0.183,0.014,0.351,0.056,0.505c0.225,0.854,0.967,1.442,1.85,1.442c1.303,0,2.059-1.064,2.059-2.619
			c0-1.345-0.714-2.508-2.017-2.508c-0.841,0-1.639,0.589-1.863,1.513c-0.042,0.154-0.084,0.337-0.084,0.49V354.296z"/>
		<path d="M34.65,353.89c0.028,1.667,1.078,2.354,2.325,2.354c0.883,0,1.429-0.154,1.877-0.351l0.225,0.883
			c-0.435,0.196-1.191,0.435-2.27,0.435c-2.087,0-3.334-1.387-3.334-3.432c0-2.046,1.205-3.643,3.18-3.643
			c2.228,0,2.802,1.934,2.802,3.18c0,0.252-0.015,0.435-0.042,0.574H34.65z M38.265,353.008c0.014-0.771-0.322-1.989-1.709-1.989
			c-1.261,0-1.793,1.135-1.892,1.989H38.265z"/>
		<path d="M43.553,357.056v-0.757l0.967-0.938c2.325-2.213,3.39-3.39,3.39-4.762c0-0.925-0.434-1.779-1.793-1.779
			c-0.826,0-1.513,0.42-1.933,0.771l-0.393-0.869c0.616-0.518,1.527-0.924,2.563-0.924c1.961,0,2.788,1.345,2.788,2.647
			c0,1.681-1.219,3.039-3.138,4.889l-0.715,0.672v0.028h4.076v1.022H43.553z"/>
		<path d="M50.847,351.396c0-0.519,0.351-0.883,0.826-0.883c0.505,0,0.827,0.364,0.827,0.883c0,0.49-0.322,0.868-0.841,0.868
			C51.183,352.265,50.847,351.887,50.847,351.396z M50.847,356.341c0-0.518,0.351-0.882,0.826-0.882
			c0.505,0,0.827,0.364,0.827,0.882c0,0.491-0.322,0.869-0.841,0.869C51.183,357.21,50.847,356.832,50.847,356.341z"/>
	</g>
	<g>
		<path d="M7.133,149.459c0.547,0.35,1.331,0.616,2.172,0.616c1.246,0,1.975-0.658,1.975-1.611c0-0.868-0.504-1.387-1.779-1.863
			c-1.54-0.561-2.493-1.373-2.493-2.689c0-1.471,1.219-2.563,3.054-2.563c0.953,0,1.667,0.224,2.073,0.462l-0.336,0.995
			c-0.294-0.182-0.925-0.448-1.779-0.448c-1.288,0-1.778,0.77-1.778,1.415c0,0.882,0.574,1.317,1.877,1.821
			c1.597,0.617,2.395,1.387,2.395,2.774c0,1.457-1.064,2.731-3.291,2.731c-0.911,0-1.905-0.28-2.41-0.617L7.133,149.459z"/>
		<path d="M14.147,140.999h1.232v4.244h0.028c0.196-0.35,0.504-0.672,0.883-0.882c0.364-0.21,0.798-0.336,1.261-0.336
			c0.91,0,2.367,0.561,2.367,2.886v4.034h-1.233v-3.894c0-1.093-0.406-2.003-1.568-2.003c-0.799,0-1.415,0.56-1.653,1.218
			c-0.069,0.182-0.084,0.364-0.084,0.588v4.09h-1.232V140.999z"/>
		<path d="M26.68,149.319c0,0.588,0.028,1.163,0.098,1.625h-1.106l-0.098-0.854h-0.042c-0.379,0.532-1.106,1.009-2.073,1.009
			c-1.373,0-2.073-0.967-2.073-1.947c0-1.639,1.457-2.535,4.076-2.521v-0.14c0-0.546-0.154-1.569-1.541-1.555
			c-0.645,0-1.303,0.182-1.778,0.504l-0.28-0.827c0.56-0.35,1.387-0.588,2.241-0.588c2.073,0,2.577,1.415,2.577,2.76V149.319z
			 M25.489,147.484c-1.345-0.028-2.872,0.21-2.872,1.527c0,0.812,0.532,1.177,1.148,1.177c0.896,0,1.472-0.561,1.667-1.135
			c0.042-0.14,0.057-0.28,0.057-0.392V147.484z"/>
		<path d="M28.665,146.378c0-0.869-0.028-1.569-0.056-2.213h1.093l0.069,1.163H29.8c0.49-0.826,1.303-1.303,2.409-1.303
			c1.653,0,2.886,1.387,2.886,3.432c0,2.437-1.499,3.642-3.096,3.642c-0.896,0-1.681-0.393-2.087-1.065h-0.028v3.684h-1.219V146.378
			z M29.884,148.185c0,0.182,0.014,0.35,0.056,0.504c0.225,0.854,0.967,1.443,1.85,1.443c1.303,0,2.059-1.064,2.059-2.619
			c0-1.345-0.714-2.508-2.017-2.508c-0.841,0-1.639,0.588-1.863,1.513c-0.042,0.154-0.084,0.336-0.084,0.49V148.185z"/>
		<path d="M37.317,147.779c0.028,1.667,1.078,2.353,2.325,2.353c0.883,0,1.429-0.154,1.877-0.35l0.225,0.882
			c-0.435,0.196-1.191,0.435-2.27,0.435c-2.087,0-3.334-1.387-3.334-3.432c0-2.045,1.205-3.642,3.18-3.642
			c2.228,0,2.802,1.933,2.802,3.18c0,0.252-0.015,0.435-0.042,0.575H37.317z M40.932,146.896c0.014-0.77-0.322-1.989-1.709-1.989
			c-1.261,0-1.793,1.134-1.892,1.989H40.932z"/>
		<path d="M48.896,142.988h-0.028l-1.582,0.854l-0.238-0.938l1.989-1.064h1.05v9.105h-1.19V142.988z"/>
		<path d="M53.514,145.285c0-0.518,0.351-0.882,0.826-0.882c0.505,0,0.827,0.364,0.827,0.882c0,0.49-0.322,0.869-0.841,0.869
			C53.85,146.154,53.514,145.775,53.514,145.285z M53.514,150.23c0-0.518,0.351-0.882,0.826-0.882c0.505,0,0.827,0.364,0.827,0.882
			c0,0.49-0.322,0.869-0.841,0.869C53.85,151.099,53.514,150.72,53.514,150.23z"/>
	</g>
	<path fill="#00FFFF" d="M513.331,357.055c0,19.331-15.67,35.001-35,35.001s-35-15.67-35-35.001c0-19.33,15.67-35,35-35
		S513.331,337.725,513.331,357.055"/>
	<path d="M513.331,357.055h-0.5c0,9.529-3.86,18.151-10.104,24.396c-6.245,6.244-14.867,10.104-24.396,10.104
		s-18.15-3.86-24.396-10.104c-6.244-6.245-10.104-14.867-10.104-24.396c0-9.528,3.86-18.15,10.104-24.396
		c6.245-6.244,14.867-10.104,24.396-10.104s18.15,3.86,24.396,10.104c6.244,6.245,10.104,14.867,10.104,24.396H513.331h0.5
		c0-19.606-15.894-35.5-35.5-35.5s-35.5,15.894-35.5,35.5c0,19.607,15.894,35.501,35.5,35.501s35.5-15.894,35.5-35.501H513.331"/>
	<path fill="#0000FF" d="M456.834,330.442c-7.51,6.329-12.28,15.801-12.28,26.391c0,10.845,5.008,20.511,12.833,26.836
		c7.51-6.33,12.28-15.801,12.28-26.391C469.667,346.434,464.659,336.769,456.834,330.442"/>
	<path d="M444.554,356.833c0-10.59,4.771-20.062,12.28-26.391c7.825,6.326,12.833,15.991,12.833,26.836
		c0,10.59-4.771,20.061-12.28,26.391C449.562,377.344,444.554,367.678,444.554,356.833 M457.408,329.621
		c-1.224,0.935-2.385,1.951-3.473,3.038c-6.195,6.196-10.044,14.733-10.104,24.174h0.222h0.5h-0.5h-0.222
		c-0.001,0.073-0.001,0.147-0.001,0.222c0,9.529,3.86,18.151,10.104,24.396c1.174,1.174,2.433,2.263,3.765,3.259l0.011-0.01
		c7.909-6.509,12.956-16.378,12.956-27.422C470.667,346.097,465.489,336.126,457.408,329.621"/>
	<path d="M443.832,356.833h-0.278c0,11.307,5.294,21.375,13.53,27.874l0.316,0.25l0.3-0.247c-1.332-0.996-2.591-2.085-3.765-3.259
		c-6.244-6.245-10.104-14.867-10.104-24.396C443.831,356.98,443.831,356.906,443.832,356.833 M456.82,329.154l-0.311,0.257
		c-7.909,6.509-12.956,16.378-12.956,27.422h0.278c0.06-9.44,3.908-17.978,10.104-24.174c1.088-1.087,2.249-2.104,3.473-3.038
		c-0.09-0.073-0.181-0.145-0.271-0.217L456.82,329.154"/>
	<polyline points="455.555,313.666 455.555,150.797 454.555,150.797 454.555,313.666 	"/>
	<g>
		<path d="M432.095,144.257c-0.435,0.224-1.345,0.448-2.493,0.448c-2.662,0-4.651-1.681-4.651-4.791
			c0-2.969,2.004-4.958,4.931-4.958c1.163,0,1.919,0.252,2.241,0.42l-0.308,0.994c-0.448-0.224-1.106-0.392-1.892-0.392
			c-2.213,0-3.684,1.415-3.684,3.894c0,2.325,1.331,3.796,3.614,3.796c0.756,0,1.513-0.154,2.003-0.393L432.095,144.257z"/>
		<path d="M439.57,141.105c0,2.507-1.751,3.6-3.376,3.6c-1.821,0-3.25-1.345-3.25-3.488c0-2.255,1.499-3.586,3.362-3.586
			C438.253,137.631,439.57,139.046,439.57,141.105z M434.205,141.175c0,1.485,0.841,2.605,2.045,2.605
			c1.177,0,2.06-1.106,2.06-2.633c0-1.148-0.574-2.591-2.031-2.591C434.835,138.556,434.205,139.9,434.205,141.175z"/>
		<path d="M441.12,139.606c0-0.714-0.028-1.274-0.056-1.835h1.078l0.057,1.107h0.042c0.378-0.645,1.008-1.247,2.143-1.247
			c0.911,0,1.611,0.561,1.905,1.359h0.028c0.21-0.392,0.49-0.672,0.771-0.882c0.406-0.308,0.84-0.477,1.484-0.477
			c0.91,0,2.241,0.588,2.241,2.942v3.978h-1.205v-3.824c0-1.316-0.49-2.087-1.471-2.087c-0.714,0-1.246,0.518-1.471,1.106
			c-0.056,0.182-0.098,0.392-0.098,0.616v4.188h-1.205v-4.062c0-1.079-0.476-1.849-1.414-1.849c-0.757,0-1.331,0.616-1.527,1.232
			c-0.07,0.168-0.098,0.393-0.098,0.603v4.076h-1.205V139.606z"/>
		<path d="M452.797,139.984c0-0.869-0.028-1.569-0.056-2.213h1.093l0.069,1.163h0.028c0.49-0.826,1.303-1.303,2.409-1.303
			c1.653,0,2.886,1.387,2.886,3.432c0,2.437-1.499,3.642-3.096,3.642c-0.896,0-1.681-0.393-2.087-1.065h-0.028v3.684h-1.219V139.984
			z M454.016,141.792c0,0.182,0.014,0.35,0.056,0.504c0.225,0.854,0.967,1.443,1.85,1.443c1.303,0,2.059-1.064,2.059-2.619
			c0-1.345-0.714-2.508-2.017-2.508c-0.841,0-1.639,0.588-1.863,1.513c-0.042,0.154-0.084,0.336-0.084,0.49V141.792z"/>
		<path d="M466.898,141.105c0,2.507-1.751,3.6-3.376,3.6c-1.821,0-3.25-1.345-3.25-3.488c0-2.255,1.499-3.586,3.362-3.586
			C465.581,137.631,466.898,139.046,466.898,141.105z M461.533,141.175c0,1.485,0.841,2.605,2.045,2.605
			c1.177,0,2.06-1.106,2.06-2.633c0-1.148-0.574-2.591-2.031-2.591C462.163,138.556,461.533,139.9,461.533,141.175z"/>
		<path d="M468.28,143.304c0.378,0.224,1.022,0.476,1.639,0.476c0.883,0,1.303-0.434,1.303-1.008c0-0.588-0.35-0.896-1.246-1.233
			c-1.233-0.448-1.808-1.106-1.808-1.919c0-1.093,0.896-1.989,2.34-1.989c0.686,0,1.288,0.182,1.652,0.42l-0.294,0.896
			c-0.267-0.168-0.757-0.406-1.387-0.406c-0.729,0-1.121,0.42-1.121,0.924c0,0.561,0.393,0.812,1.275,1.163
			c1.162,0.434,1.778,1.022,1.778,2.031c0,1.205-0.938,2.045-2.521,2.045c-0.742,0-1.429-0.196-1.904-0.477L468.28,143.304z"/>
		<path d="M475.365,135.866c0,0.42-0.294,0.756-0.784,0.756c-0.448,0-0.743-0.336-0.743-0.756c0-0.42,0.309-0.771,0.771-0.771
			C475.057,135.096,475.365,135.432,475.365,135.866z M473.992,144.551v-6.78h1.232v6.78H473.992z"/>
		<path d="M478.754,136.146v1.625h1.765v0.938h-1.765v3.656c0,0.84,0.237,1.316,0.924,1.316c0.336,0,0.532-0.028,0.715-0.084
			l0.056,0.938c-0.238,0.084-0.616,0.168-1.093,0.168c-0.574,0-1.036-0.196-1.33-0.519c-0.337-0.378-0.477-0.98-0.477-1.779v-3.698
			h-1.051v-0.938h1.051v-1.261L478.754,136.146z"/>
		<path d="M482.519,141.385c0.028,1.667,1.078,2.353,2.325,2.353c0.883,0,1.429-0.154,1.877-0.35l0.225,0.882
			c-0.435,0.196-1.191,0.435-2.27,0.435c-2.087,0-3.334-1.387-3.334-3.432c0-2.045,1.205-3.642,3.18-3.642
			c2.228,0,2.802,1.933,2.802,3.18c0,0.252-0.015,0.435-0.042,0.575H482.519z M486.133,140.502c0.014-0.77-0.322-1.989-1.709-1.989
			c-1.261,0-1.793,1.134-1.892,1.989H486.133z"/>
	</g>
	<polyline points="217.666,151.297 499.744,151.297 499.744,150.297 217.666,150.297 	"/>
	<path d="M505.779,150.797c-2.84,1.054-6.363,2.852-8.547,4.756l1.72-4.756l-1.72-4.755
		C499.416,147.947,502.939,149.745,505.779,150.797z"/>
	<polyline points="217.667,359.78 385.853,359.78 385.853,358.78 217.667,358.78 	"/>
	<path d="M391.888,359.28c-2.84,1.054-6.363,2.852-8.548,4.756l1.721-4.756l-1.721-4.755
		C385.524,356.43,389.048,358.228,391.888,359.28z"/>
	<polyline points="217.667,175.384 281.501,175.384 281.501,174.384 217.667,174.384 	"/>
	<polyline points="280.835,285.995 280.835,359.279 281.835,359.279 281.835,285.995 	"/>
	<g>
		<path d="M285.399,306.028c0.532-0.126,1.387-0.21,2.228-0.21c1.219,0,2.003,0.21,2.577,0.686c0.49,0.364,0.799,0.925,0.799,1.667
			c0,0.925-0.616,1.724-1.598,2.073v0.042c0.896,0.21,1.947,0.953,1.947,2.354c0,0.812-0.322,1.442-0.812,1.891
			c-0.645,0.603-1.709,0.883-3.249,0.883c-0.841,0-1.485-0.056-1.892-0.112V306.028z M286.618,309.895h1.106
			c1.274,0,2.031-0.687,2.031-1.598c0-1.092-0.826-1.54-2.059-1.54c-0.561,0-0.883,0.042-1.079,0.084V309.895z M286.618,314.404
			c0.252,0.042,0.588,0.057,1.022,0.057c1.261,0,2.424-0.463,2.424-1.835c0-1.275-1.107-1.821-2.438-1.821h-1.009V314.404z"/>
		<path d="M292.945,305.384h1.232v9.945h-1.232V305.384z"/>
		<path d="M296.936,312.163c0.028,1.667,1.078,2.354,2.325,2.354c0.883,0,1.429-0.154,1.877-0.351l0.225,0.883
			c-0.435,0.196-1.191,0.435-2.27,0.435c-2.087,0-3.334-1.387-3.334-3.432c0-2.046,1.205-3.643,3.18-3.643
			c2.228,0,2.802,1.934,2.802,3.18c0,0.252-0.014,0.435-0.042,0.574H296.936z M300.55,311.281c0.014-0.771-0.322-1.989-1.709-1.989
			c-1.261,0-1.793,1.135-1.892,1.989H300.55z"/>
		<path d="M303.263,310.385c0-0.715-0.014-1.275-0.056-1.835h1.093l0.069,1.12h0.028c0.336-0.63,1.12-1.261,2.241-1.261
			c0.938,0,2.396,0.561,2.396,2.886v4.034h-1.233v-3.908c0-1.093-0.406-2.003-1.568-2.003c-0.799,0-1.429,0.574-1.653,1.261
			c-0.056,0.154-0.084,0.364-0.084,0.574v4.076h-1.232V310.385z"/>
		<path d="M316.874,305.384v8.194c0,0.603,0.028,1.289,0.057,1.751h-1.093l-0.056-1.177h-0.042
			c-0.364,0.757-1.177,1.331-2.283,1.331c-1.64,0-2.914-1.387-2.914-3.446c-0.014-2.255,1.4-3.628,3.04-3.628
			c1.05,0,1.736,0.49,2.045,1.022h0.028v-4.048H316.874z M315.656,311.309c0-0.153-0.015-0.364-0.057-0.518
			c-0.182-0.771-0.854-1.415-1.779-1.415c-1.274,0-2.03,1.12-2.03,2.605c0,1.373,0.687,2.507,2.003,2.507
			c0.826,0,1.583-0.56,1.807-1.471c0.042-0.168,0.057-0.336,0.057-0.532V311.309z"/>
		<path d="M321.729,314.082c0.378,0.225,1.022,0.477,1.639,0.477c0.883,0,1.303-0.435,1.303-1.009c0-0.588-0.35-0.896-1.246-1.232
			c-1.233-0.448-1.808-1.106-1.808-1.919c0-1.093,0.896-1.989,2.34-1.989c0.686,0,1.288,0.183,1.652,0.421l-0.294,0.896
			c-0.267-0.169-0.757-0.406-1.387-0.406c-0.729,0-1.121,0.42-1.121,0.924c0,0.561,0.393,0.812,1.275,1.163
			c1.162,0.434,1.778,1.022,1.778,2.031c0,1.204-0.938,2.045-2.521,2.045c-0.743,0-1.43-0.196-1.905-0.477L321.729,314.082z"/>
		<path d="M327.44,305.384h1.232v4.244h0.028c0.196-0.351,0.504-0.672,0.883-0.883c0.364-0.21,0.798-0.336,1.261-0.336
			c0.91,0,2.367,0.561,2.367,2.886v4.034h-1.233v-3.895c0-1.092-0.406-2.003-1.568-2.003c-0.799,0-1.415,0.561-1.653,1.219
			c-0.069,0.183-0.084,0.364-0.084,0.589v4.09h-1.232V305.384z"/>
		<path d="M339.974,313.704c0,0.589,0.028,1.163,0.098,1.625h-1.106l-0.098-0.854h-0.042c-0.378,0.532-1.106,1.009-2.073,1.009
			c-1.373,0-2.073-0.967-2.073-1.947c0-1.639,1.457-2.535,4.076-2.521v-0.14c0-0.547-0.154-1.569-1.541-1.555
			c-0.645,0-1.303,0.182-1.778,0.504l-0.28-0.826c0.56-0.351,1.387-0.589,2.241-0.589c2.073,0,2.577,1.415,2.577,2.76V313.704z
			 M338.783,311.869c-1.345-0.028-2.872,0.21-2.872,1.527c0,0.812,0.532,1.176,1.148,1.176c0.896,0,1.472-0.56,1.667-1.134
			c0.042-0.141,0.057-0.28,0.057-0.393V311.869z"/>
		<path d="M347.8,305.384v8.194c0,0.603,0.028,1.289,0.057,1.751h-1.093l-0.056-1.177h-0.042c-0.364,0.757-1.177,1.331-2.283,1.331
			c-1.64,0-2.914-1.387-2.914-3.446c-0.014-2.255,1.4-3.628,3.04-3.628c1.05,0,1.736,0.49,2.045,1.022h0.028v-4.048H347.8z
			 M346.582,311.309c0-0.153-0.015-0.364-0.057-0.518c-0.182-0.771-0.854-1.415-1.779-1.415c-1.274,0-2.03,1.12-2.03,2.605
			c0,1.373,0.687,2.507,2.003,2.507c0.826,0,1.583-0.56,1.807-1.471c0.042-0.168,0.057-0.336,0.057-0.532V311.309z"/>
		<path d="M350.541,312.163c0.028,1.667,1.078,2.354,2.325,2.354c0.883,0,1.429-0.154,1.877-0.351l0.225,0.883
			c-0.435,0.196-1.191,0.435-2.27,0.435c-2.087,0-3.334-1.387-3.334-3.432c0-2.046,1.205-3.643,3.18-3.643
			c2.228,0,2.802,1.934,2.802,3.18c0,0.252-0.014,0.435-0.042,0.574H350.541z M354.155,311.281c0.014-0.771-0.322-1.989-1.709-1.989
			c-1.261,0-1.793,1.135-1.892,1.989H354.155z"/>
		<path d="M356.868,310.665c0-0.799-0.014-1.485-0.056-2.115h1.078l0.057,1.345h0.042c0.308-0.911,1.064-1.485,1.891-1.485
			c0.126,0,0.224,0.015,0.336,0.028v1.162c-0.126-0.027-0.252-0.027-0.42-0.027c-0.868,0-1.485,0.645-1.653,1.568
			c-0.027,0.168-0.042,0.379-0.042,0.574v3.614h-1.232V310.665z"/>
	</g>
	<rect x="219.279" y="198.666" fill="#FFFFFF" width="124.444" height="86.777"/>
	<polygon points="343.723,285.443 343.723,284.943 219.779,284.943 219.779,199.166 343.223,199.166 343.223,285.443 
		343.723,285.443 343.723,284.943 343.723,285.443 344.223,285.443 344.223,198.166 218.779,198.166 218.779,285.943 
		344.223,285.943 344.223,285.443 	"/>
	<circle fill="#FF00FF" cx="258.057" cy="243.221" r="35"/>
	<path d="M293.057,243.221h-0.5c0,9.528-3.861,18.15-10.105,24.396c-6.245,6.244-14.866,10.104-24.395,10.104
		s-18.15-3.86-24.395-10.104c-6.244-6.245-10.105-14.867-10.105-24.396c0-9.528,3.861-18.149,10.105-24.395
		c6.245-6.244,14.866-10.104,24.395-10.104c9.528,0,18.15,3.861,24.395,10.104c6.244,6.245,10.104,14.866,10.105,24.395H293.057h0.5
		c0-19.605-15.894-35.499-35.5-35.499c-19.606,0-35.5,15.894-35.5,35.499c0,19.606,15.894,35.5,35.5,35.5s35.5-15.894,35.5-35.5
		H293.057z"/>
	<polyline points="281.877,192.634 282.001,174.888 281.001,174.881 280.877,192.627 	"/>
	<path d="M281.335,198.666c1.074-2.833,2.896-6.343,4.815-8.514l-4.768,1.687l-4.743-1.753
		C278.529,192.283,280.302,195.819,281.335,198.666z"/>
	<g>
		<path d="M400.024,408.954c0,3.235-1.975,4.973-4.384,4.973c-2.508,0-4.245-1.947-4.245-4.805c0-2.998,1.85-4.959,4.371-4.959
			C398.357,404.163,400.024,406.139,400.024,408.954z M392.685,409.094c0,2.031,1.093,3.838,3.025,3.838
			c1.934,0,3.026-1.778,3.026-3.922c0-1.891-0.981-3.852-3.012-3.852C393.693,405.158,392.685,407.035,392.685,409.094z"/>
		<path d="M407.261,411.909c0,0.715,0.015,1.331,0.057,1.863h-1.093l-0.07-1.106h-0.028c-0.308,0.546-1.036,1.261-2.241,1.261
			c-1.064,0-2.339-0.603-2.339-2.97v-3.964h1.232v3.739c0,1.289,0.406,2.172,1.513,2.172c0.827,0,1.401-0.574,1.625-1.135
			c0.07-0.168,0.112-0.393,0.112-0.631v-4.146h1.232V411.909z"/>
		<path d="M410.787,405.368v1.625h1.765v0.938h-1.765v3.655c0,0.841,0.237,1.317,0.924,1.317c0.336,0,0.532-0.028,0.715-0.084
			l0.056,0.938c-0.238,0.084-0.616,0.168-1.093,0.168c-0.574,0-1.036-0.196-1.33-0.519c-0.337-0.378-0.477-0.98-0.477-1.779v-3.697
			h-1.051v-0.938h1.051v-1.261L410.787,405.368z"/>
		<path d="M413.936,409.206c0-0.868-0.028-1.569-0.056-2.213h1.093l0.069,1.162h0.028c0.49-0.826,1.303-1.303,2.409-1.303
			c1.653,0,2.886,1.387,2.886,3.432c0,2.438-1.499,3.643-3.096,3.643c-0.896,0-1.681-0.393-2.087-1.064h-0.028v3.684h-1.219V409.206
			z M415.154,411.013c0,0.183,0.014,0.351,0.056,0.505c0.225,0.854,0.967,1.442,1.85,1.442c1.303,0,2.059-1.064,2.059-2.619
			c0-1.345-0.714-2.508-2.017-2.508c-0.841,0-1.639,0.589-1.863,1.513c-0.042,0.154-0.084,0.337-0.084,0.49V411.013z"/>
		<path d="M427.574,411.909c0,0.715,0.015,1.331,0.057,1.863h-1.093l-0.07-1.106h-0.028c-0.308,0.546-1.036,1.261-2.241,1.261
			c-1.064,0-2.339-0.603-2.339-2.97v-3.964h1.232v3.739c0,1.289,0.406,2.172,1.513,2.172c0.827,0,1.401-0.574,1.625-1.135
			c0.07-0.168,0.112-0.393,0.112-0.631v-4.146h1.232V411.909z"/>
		<path d="M431.101,405.368v1.625h1.765v0.938h-1.765v3.655c0,0.841,0.237,1.317,0.924,1.317c0.336,0,0.532-0.028,0.715-0.084
			l0.056,0.938c-0.238,0.084-0.616,0.168-1.093,0.168c-0.574,0-1.036-0.196-1.33-0.519c-0.337-0.378-0.477-0.98-0.477-1.779v-3.697
			h-1.051v-0.938h1.051v-1.261L431.101,405.368z"/>
		<path d="M443.354,410.326c0,2.508-1.751,3.601-3.376,3.601c-1.821,0-3.25-1.345-3.25-3.488c0-2.255,1.499-3.586,3.362-3.586
			C442.036,406.853,443.354,408.268,443.354,410.326z M437.988,410.396c0,1.485,0.841,2.605,2.045,2.605
			c1.177,0,2.06-1.106,2.06-2.634c0-1.148-0.574-2.591-2.031-2.591C438.618,407.777,437.988,409.122,437.988,410.396z"/>
		<path d="M445.029,413.772v-5.841h-0.938v-0.938h0.938v-0.322c0-0.953,0.225-1.821,0.784-2.367
			c0.463-0.448,1.079-0.631,1.653-0.631c0.448,0,0.812,0.099,1.051,0.196l-0.168,0.952c-0.183-0.084-0.421-0.153-0.785-0.153
			c-1.05,0-1.316,0.91-1.316,1.961v0.364h1.639v0.938h-1.639v5.841H445.029z"/>
		<path d="M451.959,403.827h1.219v4.258h0.028c0.434-0.756,1.219-1.232,2.311-1.232c1.695,0,2.872,1.401,2.872,3.446
			c0,2.423-1.541,3.628-3.054,3.628c-0.98,0-1.765-0.378-2.283-1.261h-0.028l-0.07,1.106h-1.05c0.027-0.462,0.056-1.148,0.056-1.751
			V403.827z M453.178,411.055c0,0.154,0.014,0.309,0.056,0.448c0.225,0.854,0.953,1.443,1.85,1.443c1.303,0,2.059-1.051,2.059-2.605
			c0-1.359-0.7-2.521-2.031-2.521c-0.826,0-1.61,0.588-1.862,1.513c-0.042,0.154-0.07,0.322-0.07,0.519V411.055z"/>
		<path d="M459.925,403.827h1.232v9.945h-1.232V403.827z"/>
		<path d="M463.915,410.606c0.028,1.667,1.078,2.354,2.325,2.354c0.883,0,1.429-0.154,1.877-0.351l0.225,0.883
			c-0.435,0.196-1.191,0.435-2.27,0.435c-2.087,0-3.334-1.387-3.334-3.432c0-2.046,1.205-3.643,3.18-3.643
			c2.228,0,2.802,1.934,2.802,3.18c0,0.252-0.015,0.435-0.042,0.574H463.915z M467.529,409.725c0.014-0.771-0.322-1.989-1.709-1.989
			c-1.261,0-1.793,1.135-1.892,1.989H467.529z"/>
		<path d="M470.242,408.828c0-0.715-0.014-1.275-0.056-1.835h1.093l0.069,1.12h0.028c0.336-0.63,1.12-1.261,2.241-1.261
			c0.938,0,2.396,0.561,2.396,2.886v4.034h-1.233v-3.908c0-1.093-0.405-2.003-1.568-2.003c-0.799,0-1.429,0.574-1.653,1.261
			c-0.056,0.154-0.084,0.364-0.084,0.574v4.076h-1.232V408.828z"/>
		<path d="M483.854,403.827v8.194c0,0.603,0.028,1.289,0.057,1.751h-1.093l-0.056-1.177h-0.042
			c-0.364,0.757-1.177,1.331-2.283,1.331c-1.64,0-2.914-1.387-2.914-3.446c-0.014-2.255,1.4-3.628,3.04-3.628
			c1.05,0,1.736,0.49,2.045,1.022h0.028v-4.048H483.854z M482.636,409.752c0-0.153-0.015-0.364-0.057-0.518
			c-0.182-0.771-0.854-1.415-1.778-1.415c-1.275,0-2.031,1.12-2.031,2.605c0,1.373,0.686,2.507,2.003,2.507
			c0.826,0,1.583-0.56,1.807-1.471c0.042-0.168,0.057-0.336,0.057-0.532V409.752z"/>
		<path d="M488.708,412.525c0.378,0.225,1.022,0.477,1.639,0.477c0.883,0,1.303-0.435,1.303-1.009c0-0.588-0.35-0.896-1.246-1.232
			c-1.233-0.448-1.808-1.106-1.808-1.919c0-1.093,0.896-1.989,2.34-1.989c0.686,0,1.288,0.183,1.652,0.421l-0.294,0.896
			c-0.267-0.169-0.757-0.406-1.387-0.406c-0.729,0-1.121,0.42-1.121,0.924c0,0.561,0.393,0.812,1.275,1.163
			c1.162,0.434,1.778,1.022,1.778,2.031c0,1.204-0.938,2.045-2.521,2.045c-0.742,0-1.429-0.196-1.904-0.477L488.708,412.525z"/>
		<path d="M494.42,403.827h1.232v4.244h0.028c0.196-0.351,0.504-0.672,0.883-0.883c0.364-0.21,0.798-0.336,1.261-0.336
			c0.91,0,2.367,0.561,2.367,2.886v4.034h-1.233v-3.895c0-1.092-0.405-2.003-1.568-2.003c-0.799,0-1.415,0.561-1.653,1.219
			c-0.069,0.183-0.084,0.364-0.084,0.589v4.09h-1.232V403.827z"/>
		<path d="M506.953,412.147c0,0.589,0.028,1.163,0.098,1.625h-1.106l-0.098-0.854h-0.042c-0.379,0.532-1.106,1.009-2.073,1.009
			c-1.373,0-2.073-0.967-2.073-1.947c0-1.639,1.457-2.535,4.076-2.521v-0.14c0-0.547-0.154-1.569-1.541-1.555
			c-0.645,0-1.303,0.182-1.778,0.504l-0.28-0.826c0.56-0.351,1.387-0.589,2.241-0.589c2.073,0,2.577,1.415,2.577,2.76V412.147z
			 M505.763,410.312c-1.345-0.028-2.872,0.21-2.872,1.527c0,0.812,0.532,1.176,1.148,1.176c0.896,0,1.472-0.56,1.667-1.134
			c0.042-0.141,0.057-0.28,0.057-0.393V410.312z"/>
		<path d="M514.779,403.827v8.194c0,0.603,0.028,1.289,0.057,1.751h-1.093l-0.056-1.177h-0.042
			c-0.364,0.757-1.177,1.331-2.283,1.331c-1.64,0-2.914-1.387-2.914-3.446c-0.014-2.255,1.4-3.628,3.04-3.628
			c1.05,0,1.736,0.49,2.045,1.022h0.028v-4.048H514.779z M513.562,409.752c0-0.153-0.015-0.364-0.057-0.518
			c-0.182-0.771-0.854-1.415-1.778-1.415c-1.275,0-2.031,1.12-2.031,2.605c0,1.373,0.686,2.507,2.003,2.507
			c0.826,0,1.583-0.56,1.807-1.471c0.042-0.168,0.057-0.336,0.057-0.532V409.752z"/>
		<path d="M517.521,410.606c0.028,1.667,1.078,2.354,2.325,2.354c0.883,0,1.429-0.154,1.877-0.351l0.225,0.883
			c-0.435,0.196-1.191,0.435-2.27,0.435c-2.087,0-3.334-1.387-3.334-3.432c0-2.046,1.205-3.643,3.18-3.643
			c2.228,0,2.802,1.934,2.802,3.18c0,0.252-0.015,0.435-0.042,0.574H517.521z M521.135,409.725c0.014-0.771-0.322-1.989-1.709-1.989
			c-1.261,0-1.793,1.135-1.892,1.989H521.135z"/>
		<path d="M523.848,409.108c0-0.799-0.014-1.485-0.056-2.115h1.078l0.057,1.345h0.042c0.308-0.911,1.064-1.485,1.891-1.485
			c0.126,0,0.225,0.015,0.336,0.028v1.162c-0.126-0.027-0.252-0.027-0.42-0.027c-0.868,0-1.484,0.645-1.653,1.568
			c-0.027,0.168-0.042,0.379-0.042,0.574v3.614h-1.232V409.108z"/>
	</g>
	<g>
		<path d="M114.489,204.019c-0.547,0.21-1.639,0.519-2.914,0.519c-1.429,0-2.605-0.364-3.529-1.247
			c-0.812-0.785-1.317-2.045-1.317-3.516c0-2.815,1.947-4.875,5.113-4.875c1.093,0,1.961,0.238,2.367,0.434l-0.309,0.995
			c-0.504-0.238-1.134-0.406-2.087-0.406c-2.297,0-3.796,1.429-3.796,3.796c0,2.396,1.429,3.81,3.642,3.81
			c0.799,0,1.345-0.112,1.625-0.252v-2.815h-1.905v-0.98h3.11V204.019z"/>
		<path d="M116.291,199.775c0-0.798-0.014-1.485-0.056-2.115h1.078l0.057,1.345h0.042c0.308-0.91,1.064-1.485,1.891-1.485
			c0.126,0,0.225,0.014,0.336,0.028v1.163c-0.126-0.028-0.252-0.028-0.42-0.028c-0.868,0-1.484,0.645-1.653,1.569
			c-0.027,0.168-0.042,0.378-0.042,0.575v3.614h-1.232V199.775z"/>
		<path d="M126.864,200.994c0,2.507-1.751,3.6-3.376,3.6c-1.821,0-3.25-1.345-3.25-3.488c0-2.255,1.499-3.586,3.362-3.586
			C125.547,197.52,126.864,198.935,126.864,200.994z M121.499,201.063c0,1.485,0.841,2.605,2.045,2.605
			c1.177,0,2.06-1.106,2.06-2.633c0-1.148-0.574-2.591-2.031-2.591C122.129,198.444,121.499,199.789,121.499,201.063z"/>
		<path d="M134.088,202.577c0,0.714,0.015,1.331,0.057,1.863h-1.093l-0.07-1.106h-0.028c-0.308,0.546-1.036,1.261-2.241,1.261
			c-1.064,0-2.339-0.603-2.339-2.97v-3.964h1.232v3.74c0,1.289,0.406,2.171,1.513,2.171c0.827,0,1.401-0.574,1.625-1.134
			c0.07-0.168,0.112-0.393,0.112-0.63v-4.146h1.232V202.577z"/>
		<path d="M136.129,199.873c0-0.869-0.028-1.569-0.056-2.213h1.093l0.069,1.163h0.028c0.49-0.826,1.303-1.303,2.409-1.303
			c1.653,0,2.886,1.387,2.886,3.432c0,2.437-1.499,3.642-3.096,3.642c-0.896,0-1.681-0.393-2.087-1.065h-0.028v3.684h-1.219V199.873
			z M137.348,201.68c0,0.182,0.014,0.35,0.056,0.504c0.225,0.854,0.967,1.443,1.85,1.443c1.303,0,2.059-1.064,2.059-2.619
			c0-1.345-0.714-2.508-2.017-2.508c-0.841,0-1.639,0.588-1.863,1.513c-0.042,0.154-0.084,0.336-0.084,0.49V201.68z"/>
		<path d="M147.062,194.494h1.219v4.258h0.028c0.434-0.756,1.219-1.233,2.311-1.233c1.695,0,2.872,1.401,2.872,3.446
			c0,2.423-1.541,3.628-3.054,3.628c-0.98,0-1.765-0.378-2.283-1.261h-0.028l-0.07,1.106h-1.05c0.027-0.462,0.056-1.148,0.056-1.751
			V194.494z M148.281,201.722c0,0.154,0.014,0.308,0.056,0.448c0.225,0.854,0.953,1.442,1.85,1.442c1.303,0,2.059-1.05,2.059-2.605
			c0-1.359-0.7-2.521-2.031-2.521c-0.826,0-1.61,0.588-1.862,1.513c-0.042,0.154-0.07,0.322-0.07,0.519V201.722z"/>
		<path d="M160.701,202.577c0,0.714,0.015,1.331,0.057,1.863h-1.093l-0.07-1.106h-0.028c-0.308,0.546-1.036,1.261-2.241,1.261
			c-1.064,0-2.339-0.603-2.339-2.97v-3.964h1.232v3.74c0,1.289,0.406,2.171,1.513,2.171c0.827,0,1.401-0.574,1.625-1.134
			c0.07-0.168,0.112-0.393,0.112-0.63v-4.146h1.232V202.577z"/>
		<path d="M166.944,204.439v-5.841h-2.857v5.841h-1.219v-5.841h-0.938v-0.938h0.938v-0.21c0-0.953,0.225-1.765,0.757-2.311
			c0.392-0.393,0.952-0.63,1.709-0.63c0.392,0,0.756,0.126,0.966,0.238l-0.252,0.925c-0.182-0.098-0.448-0.182-0.729-0.182
			c-0.966,0-1.232,0.826-1.232,1.891v0.28h2.857v-0.322c0-0.952,0.21-1.821,0.784-2.367c0.463-0.448,1.079-0.63,1.64-0.63
			c0.448,0,0.826,0.098,1.05,0.196l-0.153,0.953c-0.196-0.084-0.435-0.154-0.799-0.154c-1.036,0-1.303,0.911-1.303,1.961v0.364
			h1.625v0.938h-1.625v5.841H166.944z"/>
		<path d="M171.423,201.274c0.028,1.667,1.078,2.353,2.325,2.353c0.883,0,1.429-0.154,1.877-0.35l0.225,0.882
			c-0.435,0.196-1.191,0.435-2.27,0.435c-2.087,0-3.334-1.387-3.334-3.432c0-2.045,1.205-3.642,3.18-3.642
			c2.228,0,2.802,1.933,2.802,3.18c0,0.252-0.015,0.435-0.042,0.575H171.423z M175.037,200.391c0.014-0.77-0.322-1.989-1.709-1.989
			c-1.261,0-1.793,1.134-1.892,1.989H175.037z"/>
		<path d="M177.75,199.775c0-0.798-0.014-1.485-0.056-2.115h1.078l0.057,1.345h0.042c0.308-0.91,1.064-1.485,1.891-1.485
			c0.126,0,0.225,0.014,0.336,0.028v1.163c-0.126-0.028-0.252-0.028-0.42-0.028c-0.868,0-1.484,0.645-1.653,1.569
			c-0.027,0.168-0.042,0.378-0.042,0.575v3.614h-1.232V199.775z"/>
		<path d="M184.611,196.483h-0.028l-1.582,0.854l-0.238-0.938l1.989-1.064h1.05v9.105h-1.19V196.483z"/>
	</g>
	<g>
		<path d="M354.207,239.146c-0.435,0.224-1.345,0.448-2.494,0.448c-2.661,0-4.65-1.681-4.65-4.791c0-2.969,2.004-4.958,4.931-4.958
			c1.163,0,1.919,0.252,2.241,0.42l-0.308,0.994c-0.448-0.224-1.106-0.392-1.892-0.392c-2.213,0-3.684,1.415-3.684,3.894
			c0,2.325,1.331,3.796,3.614,3.796c0.756,0,1.513-0.154,2.003-0.393L354.207,239.146z"/>
		<path d="M361.696,235.994c0,2.507-1.751,3.6-3.376,3.6c-1.821,0-3.25-1.345-3.25-3.488c0-2.255,1.499-3.586,3.362-3.586
			C360.379,232.52,361.696,233.935,361.696,235.994z M356.331,236.063c0,1.485,0.841,2.605,2.045,2.605
			c1.177,0,2.06-1.106,2.06-2.633c0-1.148-0.574-2.591-2.031-2.591C356.961,233.444,356.331,234.789,356.331,236.063z"/>
		<path d="M363.247,234.873c0-0.869-0.028-1.569-0.056-2.213h1.093l0.069,1.163h0.028c0.49-0.826,1.303-1.303,2.409-1.303
			c1.653,0,2.886,1.387,2.886,3.432c0,2.437-1.499,3.642-3.096,3.642c-0.896,0-1.681-0.393-2.087-1.065h-0.028v3.684h-1.219V234.873
			z M364.466,236.68c0,0.182,0.014,0.35,0.056,0.504c0.225,0.854,0.967,1.443,1.85,1.443c1.303,0,2.059-1.064,2.059-2.619
			c0-1.345-0.714-2.508-2.017-2.508c-0.841,0-1.639,0.588-1.863,1.513c-0.042,0.154-0.084,0.336-0.084,0.49V236.68z"/>
		<path d="M371.577,232.66l1.471,4.006c0.168,0.448,0.336,0.98,0.448,1.387h0.028c0.126-0.406,0.266-0.924,0.435-1.415l1.345-3.978
			h1.302l-1.849,4.833c-0.883,2.326-1.484,3.502-2.325,4.244c-0.616,0.519-1.205,0.729-1.513,0.785l-0.309-1.022
			c0.309-0.099,0.715-0.295,1.079-0.603c0.336-0.267,0.742-0.743,1.036-1.373c0.057-0.126,0.099-0.224,0.099-0.294
			c0-0.07-0.028-0.168-0.099-0.322l-2.493-6.248H371.577z"/>
		<path d="M386.826,235.994c0,2.507-1.751,3.6-3.376,3.6c-1.821,0-3.25-1.345-3.25-3.488c0-2.255,1.499-3.586,3.362-3.586
			C385.509,232.52,386.826,233.935,386.826,235.994z M381.461,236.063c0,1.485,0.841,2.605,2.045,2.605
			c1.177,0,2.06-1.106,2.06-2.633c0-1.148-0.574-2.591-2.031-2.591C382.091,233.444,381.461,234.789,381.461,236.063z"/>
		<path d="M388.502,239.439v-5.841h-0.938v-0.938h0.938v-0.322c0-0.952,0.225-1.821,0.784-2.367c0.463-0.448,1.079-0.63,1.653-0.63
			c0.448,0,0.812,0.098,1.051,0.196l-0.168,0.953c-0.183-0.084-0.421-0.154-0.785-0.154c-1.05,0-1.316,0.911-1.316,1.961v0.364
			h1.639v0.938h-1.639v5.841H388.502z"/>
		<path d="M395.432,229.494h1.219v4.258h0.028c0.434-0.756,1.219-1.233,2.311-1.233c1.695,0,2.872,1.401,2.872,3.446
			c0,2.423-1.541,3.628-3.054,3.628c-0.98,0-1.765-0.378-2.283-1.261h-0.028l-0.07,1.106h-1.05c0.027-0.462,0.056-1.148,0.056-1.751
			V229.494z M396.65,236.722c0,0.154,0.014,0.308,0.056,0.448c0.225,0.854,0.953,1.442,1.85,1.442c1.303,0,2.059-1.05,2.059-2.605
			c0-1.359-0.7-2.521-2.031-2.521c-0.826,0-1.61,0.588-1.862,1.513c-0.042,0.154-0.07,0.322-0.07,0.519V236.722z"/>
		<path d="M409.07,237.577c0,0.714,0.015,1.331,0.057,1.863h-1.093l-0.07-1.106h-0.028c-0.308,0.546-1.036,1.261-2.241,1.261
			c-1.064,0-2.339-0.603-2.339-2.97v-3.964h1.232v3.74c0,1.289,0.406,2.171,1.513,2.171c0.827,0,1.401-0.574,1.625-1.134
			c0.07-0.168,0.112-0.393,0.112-0.63v-4.146h1.232V237.577z"/>
		<path d="M415.313,239.439v-5.841h-2.857v5.841h-1.219v-5.841h-0.938v-0.938h0.938v-0.21c0-0.953,0.225-1.765,0.757-2.311
			c0.392-0.393,0.952-0.63,1.709-0.63c0.392,0,0.756,0.126,0.966,0.238l-0.252,0.925c-0.182-0.098-0.448-0.182-0.729-0.182
			c-0.966,0-1.232,0.826-1.232,1.891v0.28h2.857v-0.322c0-0.952,0.21-1.821,0.784-2.367c0.463-0.448,1.079-0.63,1.64-0.63
			c0.448,0,0.826,0.098,1.05,0.196l-0.153,0.953c-0.196-0.084-0.435-0.154-0.799-0.154c-1.036,0-1.303,0.911-1.303,1.961v0.364
			h1.625v0.938h-1.625v5.841H415.313z"/>
		<path d="M419.792,236.274c0.028,1.667,1.078,2.353,2.325,2.353c0.883,0,1.429-0.154,1.877-0.35l0.225,0.882
			c-0.435,0.196-1.191,0.435-2.27,0.435c-2.087,0-3.334-1.387-3.334-3.432c0-2.045,1.205-3.642,3.18-3.642
			c2.228,0,2.802,1.933,2.802,3.18c0,0.252-0.015,0.435-0.042,0.575H419.792z M423.406,235.391c0.014-0.77-0.322-1.989-1.709-1.989
			c-1.261,0-1.793,1.134-1.892,1.989H423.406z"/>
		<path d="M426.119,234.775c0-0.798-0.014-1.485-0.056-2.115h1.078l0.057,1.345h0.042c0.308-0.91,1.064-1.485,1.891-1.485
			c0.126,0,0.225,0.014,0.336,0.028v1.163c-0.126-0.028-0.252-0.028-0.42-0.028c-0.868,0-1.484,0.645-1.653,1.569
			c-0.027,0.168-0.042,0.378-0.042,0.575v3.614h-1.232V234.775z"/>
		<path d="M432.98,231.483h-0.028l-1.582,0.854l-0.238-0.938l1.989-1.064h1.05v9.105h-1.19V231.483z"/>
	</g>
</g>
</svg>
