<?xml version="1.0" encoding="utf-8"?>
<!-- Generator: Adobe Illustrator 15.1.0, SVG Export Plug-In . SVG Version: 6.00 Build 0)  -->
<!DOCTYPE svg PUBLIC "-//W3C//DTD SVG 1.1//EN" "http://www.w3.org/Graphics/SVG/1.1/DTD/svg11.dtd">
<svg version="1.1" id="Layer_1" xmlns="http://www.w3.org/2000/svg" xmlns:xlink="http://www.w3.org/1999/xlink" x="0px" y="0px"
	 width="640px" height="480px" viewBox="0 0 640 480" enable-background="new 0 0 640 480" xml:space="preserve">
<rect x="93.222" y="103.242" fill="#FFFFFF" stroke="#000000" stroke-miterlimit="10" width="124.444" height="86.778"/>
<rect x="512.556" y="107.889" fill="#FFFFFF" stroke="#000000" stroke-miterlimit="10" width="124.444" height="86.777"/>
<rect x="93.222" y="315.891" fill="#FFFFFF" stroke="#000000" stroke-miterlimit="10" width="124.444" height="86.777"/>
<rect x="391.888" y="313.666" fill="#FFFFFF" stroke="#000000" stroke-miterlimit="10" width="124.443" height="86.777"/>
<circle fill="#FF00FF" stroke="#000000" stroke-miterlimit="10" cx="132" cy="147.797" r="35"/>
<circle fill="#FF00FF" stroke="#000000" stroke-miterlimit="10" cx="553.112" cy="151.723" r="35"/>
<circle fill="#00FFFF" stroke="#000000" stroke-miterlimit="10" cx="602" cy="151.278" r="35"/>
<circle fill="#FF00FF" stroke="#000000" stroke-miterlimit="10" cx="134.333" cy="38.889" r="35"/>
<circle fill="#00FFFF" stroke="#000000" stroke-miterlimit="10" cx="176.555" cy="38.889" r="35"/>
<circle fill="#00FFFF" stroke="#000000" stroke-miterlimit="10" cx="179.666" cy="359.279" r="35"/>
<g>
	<path d="M4.466,355.57c0.546,0.35,1.331,0.617,2.171,0.617c1.247,0,1.975-0.658,1.975-1.611c0-0.869-0.504-1.387-1.779-1.863
		c-1.541-0.561-2.493-1.373-2.493-2.689c0-1.471,1.218-2.562,3.053-2.562c0.953,0,1.667,0.223,2.073,0.461l-0.336,0.994
		c-0.294-0.182-0.925-0.447-1.779-0.447c-1.289,0-1.779,0.77-1.779,1.414c0,0.883,0.574,1.316,1.877,1.822
		c1.597,0.615,2.396,1.387,2.396,2.773c0,1.457-1.065,2.73-3.292,2.73c-0.911,0-1.905-0.279-2.409-0.615L4.466,355.57z"/>
	<path d="M11.479,347.109h1.233v4.244h0.028c0.196-0.35,0.504-0.672,0.882-0.883c0.364-0.209,0.799-0.336,1.261-0.336
		c0.911,0,2.367,0.561,2.367,2.887v4.033h-1.232v-3.895c0-1.092-0.406-2.002-1.569-2.002c-0.798,0-1.415,0.561-1.653,1.219
		c-0.07,0.182-0.084,0.363-0.084,0.588v4.09h-1.233V347.109z"/>
	<path d="M24.012,355.43c0,0.59,0.028,1.164,0.098,1.625h-1.107l-0.098-0.854h-0.042c-0.378,0.531-1.107,1.008-2.073,1.008
		c-1.373,0-2.073-0.967-2.073-1.947c0-1.639,1.457-2.535,4.076-2.521v-0.139c0-0.547-0.154-1.57-1.541-1.555
		c-0.645,0-1.303,0.182-1.779,0.504l-0.28-0.826c0.561-0.352,1.387-0.59,2.241-0.59c2.073,0,2.578,1.416,2.578,2.76V355.43z
		 M22.821,353.596c-1.345-0.029-2.871,0.209-2.871,1.527c0,0.812,0.532,1.176,1.148,1.176c0.896,0,1.471-0.561,1.667-1.135
		c0.042-0.141,0.056-0.279,0.056-0.393V353.596z"/>
	<path d="M25.998,352.488c0-0.867-0.028-1.568-0.056-2.213h1.093l0.07,1.162h0.028c0.49-0.826,1.303-1.303,2.409-1.303
		c1.653,0,2.886,1.387,2.886,3.432c0,2.438-1.499,3.643-3.096,3.643c-0.896,0-1.681-0.393-2.087-1.064h-0.028v3.684h-1.219V352.488z
		 M27.216,354.295c0,0.184,0.014,0.352,0.056,0.506c0.224,0.854,0.966,1.441,1.849,1.441c1.303,0,2.06-1.064,2.06-2.619
		c0-1.344-0.715-2.508-2.017-2.508c-0.841,0-1.639,0.59-1.863,1.514c-0.042,0.154-0.084,0.336-0.084,0.49V354.295z"/>
	<path d="M34.65,353.889c0.028,1.668,1.079,2.354,2.325,2.354c0.882,0,1.429-0.154,1.877-0.35l0.224,0.883
		c-0.434,0.195-1.19,0.434-2.269,0.434c-2.087,0-3.334-1.387-3.334-3.432s1.205-3.643,3.18-3.643c2.227,0,2.802,1.934,2.802,3.18
		c0,0.252-0.014,0.436-0.042,0.574H34.65z M38.264,353.008c0.014-0.771-0.322-1.99-1.709-1.99c-1.261,0-1.793,1.135-1.891,1.99
		H38.264z"/>
	<path d="M43.553,357.055v-0.756l0.966-0.939c2.326-2.213,3.39-3.389,3.39-4.762c0-0.924-0.435-1.779-1.793-1.779
		c-0.827,0-1.513,0.42-1.933,0.771l-0.392-0.869c0.616-0.518,1.527-0.924,2.563-0.924c1.961,0,2.788,1.344,2.788,2.646
		c0,1.682-1.219,3.039-3.138,4.889l-0.714,0.672v0.029h4.076v1.021H43.553z"/>
	<path d="M50.847,351.396c0-0.52,0.351-0.883,0.827-0.883c0.504,0,0.827,0.363,0.827,0.883c0,0.49-0.322,0.867-0.841,0.867
		C51.183,352.264,50.847,351.887,50.847,351.396z M50.847,356.34c0-0.518,0.351-0.881,0.827-0.881c0.504,0,0.827,0.363,0.827,0.881
		c0,0.492-0.322,0.869-0.841,0.869C51.183,357.209,50.847,356.832,50.847,356.34z"/>
</g>
<g>
	<path d="M7.132,149.459c0.546,0.35,1.331,0.616,2.171,0.616c1.247,0,1.975-0.658,1.975-1.611c0-0.868-0.504-1.387-1.779-1.863
		c-1.541-0.56-2.493-1.372-2.493-2.689c0-1.471,1.218-2.562,3.053-2.562c0.953,0,1.667,0.224,2.073,0.462l-0.336,0.994
		c-0.294-0.182-0.925-0.448-1.779-0.448c-1.289,0-1.779,0.771-1.779,1.415c0,0.883,0.574,1.316,1.877,1.821
		c1.597,0.616,2.396,1.387,2.396,2.773c0,1.457-1.065,2.731-3.292,2.731c-0.911,0-1.905-0.28-2.409-0.616L7.132,149.459z"/>
	<path d="M14.146,140.999h1.233v4.244h0.028c0.196-0.351,0.504-0.672,0.882-0.883c0.364-0.21,0.799-0.336,1.261-0.336
		c0.911,0,2.367,0.561,2.367,2.886v4.034h-1.232v-3.895c0-1.092-0.406-2.003-1.569-2.003c-0.798,0-1.415,0.561-1.653,1.219
		c-0.07,0.183-0.084,0.364-0.084,0.589v4.09h-1.233V140.999z"/>
	<path d="M26.679,149.319c0,0.589,0.028,1.163,0.098,1.625H25.67l-0.098-0.854H25.53c-0.378,0.532-1.107,1.009-2.073,1.009
		c-1.373,0-2.073-0.967-2.073-1.947c0-1.639,1.457-2.535,4.076-2.521v-0.14c0-0.547-0.154-1.569-1.541-1.555
		c-0.645,0-1.303,0.182-1.779,0.504l-0.28-0.826c0.561-0.351,1.387-0.589,2.241-0.589c2.073,0,2.578,1.415,2.578,2.76V149.319z
		 M25.488,147.484c-1.345-0.028-2.871,0.21-2.871,1.527c0,0.812,0.532,1.176,1.148,1.176c0.896,0,1.471-0.56,1.667-1.134
		c0.042-0.141,0.056-0.28,0.056-0.393V147.484z"/>
	<path d="M28.664,146.377c0-0.868-0.028-1.569-0.056-2.213h1.093l0.07,1.162h0.028c0.49-0.826,1.303-1.303,2.409-1.303
		c1.653,0,2.886,1.387,2.886,3.432c0,2.438-1.499,3.643-3.096,3.643c-0.896,0-1.681-0.393-2.087-1.064h-0.028v3.684h-1.219V146.377z
		 M29.883,148.184c0,0.183,0.014,0.351,0.056,0.505c0.224,0.854,0.966,1.442,1.849,1.442c1.303,0,2.06-1.064,2.06-2.619
		c0-1.345-0.715-2.508-2.017-2.508c-0.841,0-1.639,0.589-1.863,1.513c-0.042,0.154-0.084,0.337-0.084,0.49V148.184z"/>
	<path d="M37.316,147.778c0.028,1.667,1.079,2.354,2.325,2.354c0.882,0,1.429-0.154,1.877-0.351l0.224,0.883
		c-0.434,0.196-1.19,0.435-2.269,0.435c-2.087,0-3.334-1.387-3.334-3.432c0-2.046,1.205-3.643,3.18-3.643
		c2.227,0,2.802,1.934,2.802,3.18c0,0.252-0.014,0.435-0.042,0.574H37.316z M40.93,146.896c0.014-0.771-0.322-1.989-1.709-1.989
		c-1.261,0-1.793,1.135-1.891,1.989H40.93z"/>
	<path d="M48.895,142.988h-0.028l-1.583,0.854l-0.238-0.938l1.989-1.064h1.051v9.104h-1.191V142.988z"/>
	<path d="M53.513,145.285c0-0.519,0.351-0.883,0.827-0.883c0.504,0,0.827,0.364,0.827,0.883c0,0.49-0.322,0.868-0.841,0.868
		C53.85,146.153,53.513,145.775,53.513,145.285z M53.513,150.229c0-0.518,0.351-0.882,0.827-0.882c0.504,0,0.827,0.364,0.827,0.882
		c0,0.491-0.322,0.869-0.841,0.869C53.85,151.098,53.513,150.72,53.513,150.229z"/>
</g>
<g>
</g>
<circle fill="#00FFFF" stroke="#000000" stroke-miterlimit="10" cx="478.331" cy="357.055" r="35"/>
<path fill="#0000FF" stroke="#000000" stroke-miterlimit="10" d="M444.054,356.833c0,11.148,5.219,21.072,13.34,27.481
	c7.799-6.419,12.773-16.146,12.773-27.036c0-11.148-5.219-21.072-13.34-27.481C449.028,336.216,444.054,345.943,444.054,356.833z"/>
<line fill="none" stroke="#000000" stroke-miterlimit="10" x1="455.055" y1="313.666" x2="455.055" y2="150.797"/>
<g>
	<path d="M432.095,144.257c-0.435,0.224-1.345,0.448-2.493,0.448c-2.662,0-4.651-1.681-4.651-4.791c0-2.969,2.004-4.958,4.931-4.958
		c1.163,0,1.919,0.252,2.241,0.42l-0.308,0.994c-0.448-0.224-1.106-0.392-1.892-0.392c-2.213,0-3.684,1.415-3.684,3.894
		c0,2.325,1.331,3.796,3.614,3.796c0.756,0,1.513-0.154,2.003-0.393L432.095,144.257z"/>
	<path d="M439.57,141.105c0,2.507-1.751,3.6-3.376,3.6c-1.821,0-3.25-1.345-3.25-3.488c0-2.255,1.499-3.586,3.362-3.586
		C438.253,137.631,439.57,139.046,439.57,141.105z M434.205,141.175c0,1.485,0.841,2.605,2.045,2.605c1.177,0,2.06-1.106,2.06-2.633
		c0-1.148-0.574-2.591-2.031-2.591C434.835,138.556,434.205,139.9,434.205,141.175z"/>
	<path d="M441.121,139.606c0-0.714-0.028-1.274-0.056-1.835h1.078l0.057,1.107h0.042c0.378-0.645,1.008-1.247,2.143-1.247
		c0.911,0,1.611,0.561,1.905,1.359h0.028c0.21-0.392,0.49-0.672,0.771-0.882c0.405-0.308,0.84-0.477,1.484-0.477
		c0.91,0,2.241,0.588,2.241,2.942v3.978h-1.205v-3.824c0-1.316-0.49-2.087-1.471-2.087c-0.714,0-1.246,0.518-1.471,1.106
		c-0.056,0.182-0.098,0.392-0.098,0.616v4.188h-1.205v-4.062c0-1.079-0.476-1.849-1.414-1.849c-0.757,0-1.331,0.616-1.527,1.232
		c-0.07,0.168-0.098,0.393-0.098,0.603v4.076h-1.205V139.606z"/>
	<path d="M452.797,139.984c0-0.869-0.028-1.569-0.056-2.213h1.093l0.069,1.163h0.028c0.49-0.826,1.303-1.303,2.409-1.303
		c1.653,0,2.886,1.387,2.886,3.432c0,2.437-1.499,3.642-3.096,3.642c-0.896,0-1.681-0.393-2.087-1.065h-0.028v3.684h-1.219V139.984z
		 M454.016,141.792c0,0.182,0.014,0.35,0.056,0.504c0.225,0.854,0.967,1.443,1.85,1.443c1.303,0,2.059-1.064,2.059-2.619
		c0-1.345-0.714-2.508-2.017-2.508c-0.841,0-1.639,0.588-1.863,1.513c-0.042,0.154-0.084,0.336-0.084,0.49V141.792z"/>
	<path d="M466.898,141.105c0,2.507-1.751,3.6-3.376,3.6c-1.821,0-3.25-1.345-3.25-3.488c0-2.255,1.499-3.586,3.362-3.586
		C465.581,137.631,466.898,139.046,466.898,141.105z M461.533,141.175c0,1.485,0.841,2.605,2.045,2.605
		c1.177,0,2.06-1.106,2.06-2.633c0-1.148-0.574-2.591-2.031-2.591C462.163,138.556,461.533,139.9,461.533,141.175z"/>
	<path d="M468.28,143.304c0.378,0.224,1.022,0.476,1.639,0.476c0.883,0,1.303-0.434,1.303-1.008c0-0.588-0.35-0.896-1.246-1.233
		c-1.233-0.448-1.808-1.106-1.808-1.919c0-1.093,0.896-1.989,2.34-1.989c0.686,0,1.288,0.182,1.652,0.42l-0.294,0.896
		c-0.267-0.168-0.757-0.406-1.387-0.406c-0.729,0-1.121,0.42-1.121,0.924c0,0.561,0.393,0.812,1.275,1.163
		c1.162,0.434,1.778,1.022,1.778,2.031c0,1.205-0.938,2.045-2.521,2.045c-0.742,0-1.429-0.196-1.904-0.477L468.28,143.304z"/>
	<path d="M475.365,135.866c0,0.42-0.294,0.756-0.784,0.756c-0.448,0-0.743-0.336-0.743-0.756c0-0.42,0.309-0.771,0.771-0.771
		C475.057,135.096,475.365,135.432,475.365,135.866z M473.992,144.551v-6.78h1.232v6.78H473.992z"/>
	<path d="M478.754,136.146v1.625h1.765v0.938h-1.765v3.656c0,0.84,0.237,1.316,0.924,1.316c0.336,0,0.532-0.028,0.715-0.084
		l0.056,0.938c-0.238,0.084-0.616,0.168-1.093,0.168c-0.574,0-1.036-0.196-1.33-0.519c-0.337-0.378-0.477-0.98-0.477-1.779v-3.698
		h-1.051v-0.938h1.051v-1.261L478.754,136.146z"/>
	<path d="M482.505,141.385c0.028,1.667,1.078,2.353,2.325,2.353c0.883,0,1.429-0.154,1.877-0.35l0.225,0.882
		c-0.435,0.196-1.191,0.435-2.27,0.435c-2.087,0-3.334-1.387-3.334-3.432c0-2.045,1.205-3.642,3.18-3.642
		c2.228,0,2.802,1.933,2.802,3.18c0,0.252-0.015,0.435-0.042,0.575H482.505z M486.119,140.502c0.014-0.77-0.322-1.989-1.709-1.989
		c-1.261,0-1.793,1.134-1.892,1.989H486.119z"/>
</g>
<g>
	<g>
		<line fill="none" stroke="#000000" stroke-miterlimit="10" x1="217.666" y1="150.797" x2="499.744" y2="150.797"/>
		<g>
			<path d="M505.779,150.797c-2.84,1.054-6.363,2.852-8.547,4.756l1.72-4.756l-1.72-4.755
				C499.416,147.947,502.939,149.745,505.779,150.797z"/>
		</g>
	</g>
</g>
<g>
	<g>
		<line fill="none" stroke="#000000" stroke-miterlimit="10" x1="217.667" y1="359.28" x2="385.853" y2="359.28"/>
		<g>
			<path d="M391.888,359.28c-2.84,1.054-6.363,2.852-8.548,4.756l1.721-4.756l-1.721-4.755
				C385.524,356.43,389.048,358.228,391.888,359.28z"/>
		</g>
	</g>
</g>
<line fill="none" stroke="#000000" stroke-miterlimit="10" x1="217.667" y1="174.884" x2="281.501" y2="174.884"/>
<line fill="none" stroke="#000000" stroke-miterlimit="10" x1="281.335" y1="285.995" x2="281.335" y2="359.279"/>
<g>
	<path d="M285.399,306.028c0.532-0.126,1.387-0.21,2.228-0.21c1.218,0,2.003,0.21,2.577,0.686c0.49,0.365,0.798,0.925,0.798,1.668
		c0,0.924-0.616,1.723-1.597,2.072v0.042c0.896,0.21,1.947,0.952,1.947,2.354c0,0.812-0.322,1.442-0.812,1.892
		c-0.645,0.602-1.709,0.882-3.25,0.882c-0.84,0-1.485-0.056-1.891-0.112V306.028z M286.618,309.895h1.106
		c1.275,0,2.031-0.687,2.031-1.598c0-1.092-0.826-1.541-2.059-1.541c-0.56,0-0.882,0.043-1.079,0.084V309.895z M286.618,314.404
		c0.252,0.043,0.588,0.057,1.022,0.057c1.261,0,2.423-0.463,2.423-1.836c0-1.273-1.106-1.82-2.437-1.82h-1.009V314.404z"/>
	<path d="M292.945,305.384h1.233v9.945h-1.233V305.384z"/>
	<path d="M296.936,312.164c0.028,1.666,1.079,2.353,2.325,2.353c0.882,0,1.429-0.153,1.877-0.351l0.224,0.883
		c-0.434,0.196-1.19,0.435-2.269,0.435c-2.087,0-3.334-1.387-3.334-3.433c0-2.045,1.205-3.642,3.18-3.642
		c2.228,0,2.802,1.933,2.802,3.18c0,0.253-0.014,0.435-0.042,0.575H296.936z M300.549,311.281c0.014-0.771-0.322-1.989-1.709-1.989
		c-1.26,0-1.793,1.134-1.891,1.989H300.549z"/>
	<path d="M303.263,310.385c0-0.715-0.014-1.275-0.056-1.836h1.093l0.07,1.121h0.028c0.336-0.631,1.121-1.261,2.241-1.261
		c0.938,0,2.395,0.561,2.395,2.886v4.034h-1.232v-3.908c0-1.093-0.406-2.003-1.569-2.003c-0.798,0-1.429,0.574-1.653,1.261
		c-0.056,0.153-0.084,0.364-0.084,0.574v4.076h-1.233V310.385z"/>
	<path d="M316.874,305.384v8.194c0,0.603,0.028,1.289,0.057,1.751h-1.093l-0.056-1.177h-0.042c-0.364,0.756-1.177,1.331-2.283,1.331
		c-1.64,0-2.914-1.387-2.914-3.446c-0.014-2.255,1.4-3.628,3.04-3.628c1.05,0,1.736,0.49,2.045,1.022h0.028v-4.048H316.874z
		 M315.656,311.309c0-0.154-0.015-0.363-0.057-0.518c-0.182-0.771-0.854-1.415-1.779-1.415c-1.274,0-2.03,1.12-2.03,2.605
		c0,1.372,0.687,2.507,2.003,2.507c0.826,0,1.583-0.561,1.807-1.471c0.042-0.168,0.057-0.336,0.057-0.532V311.309z"/>
	<path d="M321.729,314.082c0.378,0.225,1.022,0.477,1.639,0.477c0.883,0,1.303-0.434,1.303-1.008c0-0.589-0.35-0.896-1.246-1.233
		c-1.233-0.448-1.808-1.106-1.808-1.919c0-1.093,0.896-1.989,2.34-1.989c0.686,0,1.288,0.183,1.652,0.421l-0.294,0.896
		c-0.267-0.168-0.757-0.406-1.387-0.406c-0.729,0-1.121,0.42-1.121,0.924c0,0.561,0.393,0.812,1.275,1.163
		c1.162,0.435,1.778,1.022,1.778,2.03c0,1.205-0.938,2.046-2.521,2.046c-0.743,0-1.43-0.196-1.905-0.477L321.729,314.082z"/>
	<path d="M327.44,305.384h1.232v4.244h0.028c0.196-0.351,0.504-0.673,0.883-0.882c0.364-0.211,0.798-0.337,1.261-0.337
		c0.91,0,2.367,0.561,2.367,2.886v4.034h-1.233v-3.894c0-1.094-0.406-2.004-1.568-2.004c-0.799,0-1.415,0.561-1.653,1.219
		c-0.069,0.182-0.084,0.364-0.084,0.588v4.091h-1.232V305.384z"/>
	<path d="M339.974,313.704c0,0.589,0.028,1.163,0.098,1.625h-1.106l-0.098-0.854h-0.042c-0.378,0.532-1.106,1.009-2.073,1.009
		c-1.373,0-2.073-0.967-2.073-1.947c0-1.639,1.457-2.535,4.076-2.521v-0.14c0-0.547-0.154-1.569-1.541-1.555
		c-0.645,0-1.303,0.182-1.778,0.504l-0.28-0.826c0.56-0.351,1.387-0.589,2.241-0.589c2.073,0,2.577,1.415,2.577,2.76V313.704z
		 M338.783,311.869c-1.345-0.027-2.872,0.21-2.872,1.527c0,0.812,0.532,1.176,1.148,1.176c0.896,0,1.472-0.561,1.667-1.135
		c0.042-0.14,0.057-0.279,0.057-0.392V311.869z"/>
	<path d="M347.8,305.384v8.194c0,0.603,0.028,1.289,0.057,1.751h-1.093l-0.056-1.177h-0.042c-0.364,0.756-1.177,1.331-2.283,1.331
		c-1.64,0-2.914-1.387-2.914-3.446c-0.014-2.255,1.4-3.628,3.04-3.628c1.05,0,1.736,0.49,2.045,1.022h0.028v-4.048H347.8z
		 M346.582,311.309c0-0.154-0.015-0.363-0.057-0.518c-0.182-0.771-0.854-1.415-1.779-1.415c-1.274,0-2.03,1.12-2.03,2.605
		c0,1.372,0.687,2.507,2.003,2.507c0.826,0,1.583-0.561,1.807-1.471c0.042-0.168,0.057-0.336,0.057-0.532V311.309z"/>
	<path d="M350.541,312.164c0.028,1.666,1.078,2.353,2.325,2.353c0.883,0,1.429-0.153,1.877-0.351l0.225,0.883
		c-0.435,0.196-1.191,0.435-2.27,0.435c-2.087,0-3.334-1.387-3.334-3.433c0-2.045,1.205-3.642,3.18-3.642
		c2.228,0,2.802,1.933,2.802,3.18c0,0.253-0.014,0.435-0.042,0.575H350.541z M354.155,311.281c0.014-0.771-0.322-1.989-1.709-1.989
		c-1.261,0-1.793,1.134-1.892,1.989H354.155z"/>
	<path d="M356.868,310.664c0-0.798-0.014-1.484-0.056-2.115h1.078l0.057,1.346h0.042c0.308-0.91,1.064-1.485,1.891-1.485
		c0.126,0,0.224,0.015,0.336,0.028v1.162c-0.126-0.027-0.252-0.027-0.42-0.027c-0.868,0-1.485,0.645-1.653,1.568
		c-0.027,0.168-0.042,0.379-0.042,0.574v3.614h-1.232V310.664z"/>
</g>
<g>
</g>
<rect x="219.279" y="198.666" fill="#FFFFFF" stroke="#000000" stroke-miterlimit="10" width="124.444" height="86.777"/>
<circle fill="#FF00FF" stroke="#000000" stroke-miterlimit="10" cx="258.057" cy="243.221" r="35"/>
<g>
</g>
<g>
	<g>
		<line fill="none" stroke="#000000" stroke-miterlimit="10" x1="281.377" y1="192.631" x2="281.501" y2="174.884"/>
		<g>
			<path d="M281.335,198.666c1.074-2.833,2.896-6.343,4.815-8.514l-4.768,1.687l-4.743-1.753
				C278.529,192.283,280.302,195.819,281.335,198.666z"/>
		</g>
	</g>
</g>
<g>
	<path d="M400.024,408.954c0,3.235-1.975,4.973-4.384,4.973c-2.508,0-4.245-1.947-4.245-4.805c0-2.998,1.85-4.959,4.371-4.959
		C398.357,404.163,400.024,406.139,400.024,408.954z M392.685,409.094c0,2.031,1.093,3.838,3.025,3.838
		c1.934,0,3.026-1.778,3.026-3.922c0-1.891-0.981-3.852-3.012-3.852C393.693,405.158,392.685,407.035,392.685,409.094z"/>
	<path d="M407.274,411.909c0,0.715,0.015,1.331,0.057,1.863h-1.093l-0.07-1.106h-0.028c-0.308,0.546-1.036,1.261-2.241,1.261
		c-1.064,0-2.339-0.603-2.339-2.97v-3.964h1.232v3.739c0,1.289,0.406,2.172,1.513,2.172c0.827,0,1.401-0.574,1.625-1.135
		c0.07-0.168,0.112-0.393,0.112-0.631v-4.146h1.232V411.909z"/>
	<path d="M410.801,405.368v1.625h1.765v0.938h-1.765v3.655c0,0.841,0.237,1.317,0.924,1.317c0.336,0,0.532-0.028,0.715-0.084
		l0.056,0.938c-0.238,0.084-0.616,0.168-1.093,0.168c-0.574,0-1.036-0.196-1.33-0.519c-0.337-0.378-0.477-0.98-0.477-1.779v-3.697
		h-1.051v-0.938h1.051v-1.261L410.801,405.368z"/>
	<path d="M413.95,409.206c0-0.868-0.028-1.569-0.056-2.213h1.093l0.069,1.162h0.028c0.49-0.826,1.303-1.303,2.409-1.303
		c1.653,0,2.886,1.387,2.886,3.432c0,2.438-1.499,3.643-3.096,3.643c-0.896,0-1.681-0.393-2.087-1.064h-0.028v3.684h-1.219V409.206z
		 M415.169,411.013c0,0.183,0.014,0.351,0.056,0.505c0.225,0.854,0.967,1.442,1.85,1.442c1.303,0,2.059-1.064,2.059-2.619
		c0-1.345-0.714-2.508-2.017-2.508c-0.841,0-1.639,0.589-1.863,1.513c-0.042,0.154-0.084,0.337-0.084,0.49V411.013z"/>
	<path d="M427.588,411.909c0,0.715,0.015,1.331,0.057,1.863h-1.093l-0.07-1.106h-0.028c-0.308,0.546-1.036,1.261-2.241,1.261
		c-1.064,0-2.339-0.603-2.339-2.97v-3.964h1.232v3.739c0,1.289,0.406,2.172,1.513,2.172c0.827,0,1.401-0.574,1.625-1.135
		c0.07-0.168,0.112-0.393,0.112-0.631v-4.146h1.232V411.909z"/>
	<path d="M431.115,405.368v1.625h1.765v0.938h-1.765v3.655c0,0.841,0.237,1.317,0.924,1.317c0.336,0,0.532-0.028,0.715-0.084
		l0.056,0.938c-0.238,0.084-0.616,0.168-1.093,0.168c-0.574,0-1.036-0.196-1.33-0.519c-0.337-0.378-0.477-0.98-0.477-1.779v-3.697
		h-1.051v-0.938h1.051v-1.261L431.115,405.368z"/>
	<path d="M443.367,410.326c0,2.508-1.751,3.601-3.376,3.601c-1.821,0-3.25-1.345-3.25-3.488c0-2.255,1.499-3.586,3.362-3.586
		C442.05,406.853,443.367,408.268,443.367,410.326z M438.002,410.396c0,1.485,0.841,2.605,2.045,2.605
		c1.177,0,2.06-1.106,2.06-2.634c0-1.148-0.574-2.591-2.031-2.591C438.632,407.777,438.002,409.122,438.002,410.396z"/>
	<path d="M445.043,413.772v-5.841h-0.938v-0.938h0.938v-0.322c0-0.953,0.225-1.821,0.784-2.367c0.463-0.448,1.079-0.631,1.653-0.631
		c0.448,0,0.812,0.099,1.051,0.196l-0.168,0.952c-0.183-0.084-0.421-0.153-0.785-0.153c-1.05,0-1.316,0.91-1.316,1.961v0.364h1.639
		v0.938h-1.639v5.841H445.043z"/>
	<path d="M451.973,403.827h1.219v4.258h0.028c0.434-0.756,1.219-1.232,2.311-1.232c1.695,0,2.872,1.401,2.872,3.446
		c0,2.423-1.541,3.628-3.054,3.628c-0.98,0-1.765-0.378-2.283-1.261h-0.028l-0.07,1.106h-1.05c0.027-0.462,0.056-1.148,0.056-1.751
		V403.827z M453.191,411.055c0,0.154,0.014,0.309,0.056,0.448c0.225,0.854,0.953,1.443,1.85,1.443c1.303,0,2.059-1.051,2.059-2.605
		c0-1.359-0.7-2.521-2.031-2.521c-0.826,0-1.61,0.588-1.862,1.513c-0.042,0.154-0.07,0.322-0.07,0.519V411.055z"/>
	<path d="M459.938,403.827h1.232v9.945h-1.232V403.827z"/>
	<path d="M463.929,410.606c0.028,1.667,1.078,2.354,2.325,2.354c0.883,0,1.429-0.154,1.877-0.351l0.225,0.883
		c-0.435,0.196-1.191,0.435-2.27,0.435c-2.087,0-3.334-1.387-3.334-3.432c0-2.046,1.205-3.643,3.18-3.643
		c2.228,0,2.802,1.934,2.802,3.18c0,0.252-0.015,0.435-0.042,0.574H463.929z M467.543,409.725c0.014-0.771-0.322-1.989-1.709-1.989
		c-1.261,0-1.793,1.135-1.892,1.989H467.543z"/>
	<path d="M470.257,408.828c0-0.715-0.014-1.275-0.056-1.835h1.093l0.069,1.12h0.028c0.336-0.63,1.12-1.261,2.241-1.261
		c0.938,0,2.396,0.561,2.396,2.886v4.034h-1.233v-3.908c0-1.093-0.406-2.003-1.568-2.003c-0.799,0-1.429,0.574-1.653,1.261
		c-0.056,0.154-0.084,0.364-0.084,0.574v4.076h-1.232V408.828z"/>
	<path d="M483.867,403.827v8.194c0,0.603,0.028,1.289,0.057,1.751h-1.093l-0.056-1.177h-0.042c-0.364,0.757-1.177,1.331-2.283,1.331
		c-1.64,0-2.914-1.387-2.914-3.446c-0.014-2.255,1.4-3.628,3.04-3.628c1.05,0,1.736,0.49,2.045,1.022h0.028v-4.048H483.867z
		 M482.649,409.752c0-0.153-0.015-0.364-0.057-0.518c-0.182-0.771-0.854-1.415-1.778-1.415c-1.275,0-2.031,1.12-2.031,2.605
		c0,1.373,0.686,2.507,2.003,2.507c0.826,0,1.583-0.56,1.807-1.471c0.042-0.168,0.057-0.336,0.057-0.532V409.752z"/>
	<path d="M488.723,412.525c0.378,0.225,1.022,0.477,1.639,0.477c0.883,0,1.303-0.435,1.303-1.009c0-0.588-0.35-0.896-1.246-1.232
		c-1.233-0.448-1.808-1.106-1.808-1.919c0-1.093,0.896-1.989,2.34-1.989c0.686,0,1.288,0.183,1.652,0.421l-0.294,0.896
		c-0.267-0.169-0.757-0.406-1.387-0.406c-0.729,0-1.121,0.42-1.121,0.924c0,0.561,0.393,0.812,1.275,1.163
		c1.162,0.434,1.778,1.022,1.778,2.031c0,1.204-0.938,2.045-2.521,2.045c-0.743,0-1.43-0.196-1.905-0.477L488.723,412.525z"/>
	<path d="M494.435,403.827h1.232v4.244h0.028c0.196-0.351,0.504-0.672,0.883-0.883c0.364-0.21,0.798-0.336,1.261-0.336
		c0.91,0,2.367,0.561,2.367,2.886v4.034h-1.233v-3.895c0-1.092-0.406-2.003-1.568-2.003c-0.799,0-1.415,0.561-1.653,1.219
		c-0.069,0.183-0.084,0.364-0.084,0.589v4.09h-1.232V403.827z"/>
	<path d="M506.967,412.147c0,0.589,0.028,1.163,0.098,1.625h-1.106l-0.098-0.854h-0.042c-0.379,0.532-1.106,1.009-2.073,1.009
		c-1.373,0-2.073-0.967-2.073-1.947c0-1.639,1.457-2.535,4.076-2.521v-0.14c0-0.547-0.154-1.569-1.541-1.555
		c-0.645,0-1.303,0.182-1.778,0.504l-0.28-0.826c0.56-0.351,1.387-0.589,2.241-0.589c2.073,0,2.577,1.415,2.577,2.76V412.147z
		 M505.776,410.312c-1.345-0.028-2.872,0.21-2.872,1.527c0,0.812,0.532,1.176,1.148,1.176c0.896,0,1.472-0.56,1.667-1.134
		c0.042-0.141,0.057-0.28,0.057-0.393V410.312z"/>
	<path d="M514.793,403.827v8.194c0,0.603,0.028,1.289,0.057,1.751h-1.093l-0.056-1.177h-0.042c-0.364,0.757-1.177,1.331-2.283,1.331
		c-1.64,0-2.914-1.387-2.914-3.446c-0.014-2.255,1.4-3.628,3.04-3.628c1.05,0,1.736,0.49,2.045,1.022h0.028v-4.048H514.793z
		 M513.575,409.752c0-0.153-0.015-0.364-0.057-0.518c-0.182-0.771-0.854-1.415-1.778-1.415c-1.275,0-2.031,1.12-2.031,2.605
		c0,1.373,0.686,2.507,2.003,2.507c0.826,0,1.583-0.56,1.807-1.471c0.042-0.168,0.057-0.336,0.057-0.532V409.752z"/>
	<path d="M517.534,410.606c0.028,1.667,1.078,2.354,2.325,2.354c0.883,0,1.429-0.154,1.877-0.351l0.225,0.883
		c-0.435,0.196-1.191,0.435-2.27,0.435c-2.087,0-3.334-1.387-3.334-3.432c0-2.046,1.205-3.643,3.18-3.643
		c2.228,0,2.802,1.934,2.802,3.18c0,0.252-0.015,0.435-0.042,0.574H517.534z M521.148,409.725c0.014-0.771-0.322-1.989-1.709-1.989
		c-1.261,0-1.793,1.135-1.892,1.989H521.148z"/>
	<path d="M523.861,409.108c0-0.799-0.014-1.485-0.056-2.115h1.078l0.057,1.345h0.042c0.308-0.911,1.064-1.485,1.891-1.485
		c0.126,0,0.225,0.015,0.336,0.028v1.162c-0.126-0.027-0.252-0.027-0.42-0.027c-0.868,0-1.484,0.645-1.653,1.568
		c-0.027,0.168-0.042,0.379-0.042,0.574v3.614h-1.232V409.108z"/>
</g>
<g>
	<path d="M114.489,204.019c-0.546,0.21-1.639,0.519-2.914,0.519c-1.429,0-2.605-0.364-3.53-1.247
		c-0.812-0.785-1.316-2.045-1.316-3.516c0-2.815,1.947-4.875,5.113-4.875c1.092,0,1.961,0.238,2.367,0.434l-0.308,0.995
		c-0.504-0.238-1.135-0.406-2.087-0.406c-2.297,0-3.796,1.429-3.796,3.796c0,2.396,1.429,3.81,3.642,3.81
		c0.798,0,1.345-0.112,1.625-0.252v-2.815h-1.905v-0.98h3.11V204.019z"/>
	<path d="M116.291,199.775c0-0.798-0.014-1.485-0.056-2.115h1.079l0.056,1.345h0.042c0.308-0.91,1.064-1.485,1.891-1.485
		c0.126,0,0.224,0.014,0.336,0.028v1.163c-0.126-0.028-0.252-0.028-0.42-0.028c-0.869,0-1.485,0.645-1.653,1.569
		c-0.028,0.168-0.042,0.378-0.042,0.575v3.614h-1.233V199.775z"/>
	<path d="M126.864,200.994c0,2.507-1.751,3.6-3.375,3.6c-1.821,0-3.25-1.345-3.25-3.488c0-2.255,1.499-3.586,3.362-3.586
		C125.548,197.52,126.864,198.935,126.864,200.994z M121.5,201.063c0,1.485,0.84,2.605,2.045,2.605c1.177,0,2.059-1.106,2.059-2.633
		c0-1.148-0.574-2.591-2.031-2.591C122.13,198.444,121.5,199.789,121.5,201.063z"/>
	<path d="M134.088,202.577c0,0.714,0.014,1.331,0.056,1.863h-1.092l-0.07-1.106h-0.028c-0.308,0.546-1.037,1.261-2.241,1.261
		c-1.064,0-2.339-0.603-2.339-2.97v-3.964h1.233v3.74c0,1.289,0.406,2.171,1.513,2.171c0.826,0,1.401-0.574,1.625-1.134
		c0.07-0.168,0.112-0.393,0.112-0.63v-4.146h1.233V202.577z"/>
	<path d="M136.129,199.873c0-0.869-0.028-1.569-0.056-2.213h1.093l0.07,1.163h0.028c0.49-0.826,1.303-1.303,2.409-1.303
		c1.653,0,2.886,1.387,2.886,3.432c0,2.437-1.499,3.642-3.096,3.642c-0.896,0-1.681-0.393-2.087-1.065h-0.028v3.684h-1.219V199.873z
		 M137.348,201.68c0,0.182,0.014,0.35,0.056,0.504c0.224,0.854,0.966,1.443,1.849,1.443c1.302,0,2.059-1.064,2.059-2.619
		c0-1.345-0.714-2.508-2.017-2.508c-0.841,0-1.639,0.588-1.863,1.513c-0.042,0.154-0.084,0.336-0.084,0.49V201.68z"/>
	<path d="M147.062,194.494h1.219v4.258h0.028c0.435-0.756,1.219-1.233,2.312-1.233c1.695,0,2.872,1.401,2.872,3.446
		c0,2.423-1.541,3.628-3.054,3.628c-0.98,0-1.765-0.378-2.283-1.261h-0.028l-0.07,1.106h-1.051c0.028-0.462,0.056-1.148,0.056-1.751
		V194.494z M148.281,201.722c0,0.154,0.014,0.308,0.056,0.448c0.224,0.854,0.953,1.442,1.849,1.442c1.302,0,2.059-1.05,2.059-2.605
		c0-1.359-0.701-2.521-2.031-2.521c-0.827,0-1.611,0.588-1.863,1.513c-0.042,0.154-0.07,0.322-0.07,0.519V201.722z"/>
	<path d="M160.702,202.577c0,0.714,0.014,1.331,0.056,1.863h-1.092l-0.07-1.106h-0.028c-0.308,0.546-1.037,1.261-2.241,1.261
		c-1.064,0-2.339-0.603-2.339-2.97v-3.964h1.233v3.74c0,1.289,0.406,2.171,1.513,2.171c0.826,0,1.401-0.574,1.625-1.134
		c0.07-0.168,0.112-0.393,0.112-0.63v-4.146h1.233V202.577z"/>
	<path d="M166.944,204.439v-5.841h-2.857v5.841h-1.219v-5.841h-0.938v-0.938h0.938v-0.21c0-0.953,0.224-1.765,0.757-2.311
		c0.392-0.393,0.952-0.63,1.708-0.63c0.393,0,0.756,0.126,0.967,0.238l-0.252,0.925c-0.182-0.098-0.448-0.182-0.728-0.182
		c-0.967,0-1.233,0.826-1.233,1.891v0.28h2.857v-0.322c0-0.952,0.21-1.821,0.785-2.367c0.462-0.448,1.079-0.63,1.639-0.63
		c0.448,0,0.827,0.098,1.051,0.196l-0.154,0.953c-0.196-0.084-0.434-0.154-0.798-0.154c-1.037,0-1.303,0.911-1.303,1.961v0.364
		h1.625v0.938h-1.625v5.841H166.944z"/>
	<path d="M171.409,201.274c0.028,1.667,1.079,2.353,2.325,2.353c0.882,0,1.429-0.154,1.877-0.35l0.224,0.882
		c-0.434,0.196-1.19,0.435-2.269,0.435c-2.087,0-3.334-1.387-3.334-3.432c0-2.045,1.205-3.642,3.18-3.642
		c2.227,0,2.802,1.933,2.802,3.18c0,0.252-0.014,0.435-0.042,0.575H171.409z M175.022,200.391c0.014-0.77-0.322-1.989-1.709-1.989
		c-1.261,0-1.793,1.134-1.891,1.989H175.022z"/>
	<path d="M177.736,199.775c0-0.798-0.014-1.485-0.056-2.115h1.079l0.056,1.345h0.042c0.308-0.91,1.064-1.485,1.891-1.485
		c0.126,0,0.224,0.014,0.336,0.028v1.163c-0.126-0.028-0.252-0.028-0.42-0.028c-0.869,0-1.485,0.645-1.653,1.569
		c-0.028,0.168-0.042,0.378-0.042,0.575v3.614h-1.233V199.775z"/>
	<path d="M184.598,196.483h-0.028l-1.583,0.854l-0.238-0.938l1.989-1.064h1.051v9.105h-1.191V196.483z"/>
</g>
<g>
	<path d="M354.206,239.146c-0.435,0.224-1.345,0.448-2.493,0.448c-2.662,0-4.65-1.681-4.65-4.791c0-2.969,2.003-4.958,4.931-4.958
		c1.163,0,1.919,0.252,2.241,0.42l-0.309,0.994c-0.447-0.224-1.106-0.392-1.891-0.392c-2.213,0-3.684,1.415-3.684,3.894
		c0,2.325,1.33,3.796,3.613,3.796c0.756,0,1.514-0.154,2.004-0.393L354.206,239.146z"/>
	<path d="M361.682,235.994c0,2.507-1.751,3.6-3.375,3.6c-1.822,0-3.25-1.345-3.25-3.488c0-2.255,1.498-3.586,3.361-3.586
		C360.365,232.52,361.682,233.935,361.682,235.994z M356.316,236.063c0,1.485,0.841,2.605,2.045,2.605
		c1.178,0,2.06-1.106,2.06-2.633c0-1.148-0.574-2.591-2.03-2.591C356.947,233.444,356.316,234.789,356.316,236.063z"/>
	<path d="M363.232,234.873c0-0.869-0.027-1.569-0.057-2.213h1.094l0.07,1.163h0.027c0.49-0.826,1.303-1.303,2.409-1.303
		c1.653,0,2.886,1.387,2.886,3.432c0,2.437-1.499,3.642-3.096,3.642c-0.896,0-1.682-0.393-2.088-1.065h-0.027v3.684h-1.219V234.873z
		 M364.451,236.68c0,0.182,0.014,0.35,0.057,0.504c0.224,0.854,0.966,1.443,1.848,1.443c1.303,0,2.061-1.064,2.061-2.619
		c0-1.345-0.715-2.508-2.018-2.508c-0.841,0-1.639,0.588-1.863,1.513c-0.042,0.154-0.084,0.336-0.084,0.49V236.68z"/>
	<path d="M371.549,232.66l1.471,4.006c0.168,0.448,0.336,0.98,0.448,1.387h0.028c0.126-0.406,0.266-0.924,0.434-1.415l1.346-3.978
		h1.303l-1.85,4.833c-0.883,2.326-1.484,3.502-2.325,4.244c-0.616,0.519-1.204,0.729-1.513,0.785l-0.309-1.023
		c0.309-0.098,0.715-0.293,1.079-0.602c0.336-0.267,0.742-0.743,1.036-1.373c0.057-0.126,0.098-0.224,0.098-0.294
		c0-0.07-0.027-0.168-0.098-0.322l-2.493-6.248H371.549z"/>
	<path d="M386.797,235.994c0,2.507-1.75,3.6-3.375,3.6c-1.821,0-3.25-1.345-3.25-3.488c0-2.255,1.499-3.586,3.361-3.586
		C385.48,232.52,386.797,233.935,386.797,235.994z M381.433,236.063c0,1.485,0.841,2.605,2.045,2.605c1.177,0,2.06-1.106,2.06-2.633
		c0-1.148-0.574-2.591-2.031-2.591C382.062,233.444,381.433,234.789,381.433,236.063z"/>
	<path d="M388.475,239.439v-5.841h-0.939v-0.938h0.939v-0.322c0-0.952,0.224-1.821,0.784-2.367c0.462-0.448,1.079-0.63,1.653-0.63
		c0.447,0,0.812,0.098,1.051,0.196l-0.169,0.953c-0.183-0.084-0.42-0.154-0.784-0.154c-1.051,0-1.316,0.911-1.316,1.961v0.364h1.639
		v0.938h-1.639v5.841H388.475z"/>
	<path d="M395.404,229.494h1.219v4.258h0.027c0.435-0.756,1.219-1.233,2.312-1.233c1.694,0,2.872,1.401,2.872,3.446
		c0,2.423-1.541,3.628-3.055,3.628c-0.98,0-1.765-0.378-2.283-1.261h-0.027l-0.07,1.106h-1.051c0.028-0.462,0.057-1.148,0.057-1.751
		V229.494z M396.623,236.722c0,0.154,0.014,0.308,0.056,0.448c0.224,0.854,0.952,1.442,1.849,1.442c1.303,0,2.06-1.05,2.06-2.605
		c0-1.359-0.7-2.521-2.031-2.521c-0.827,0-1.61,0.588-1.863,1.513c-0.042,0.154-0.069,0.322-0.069,0.519V236.722z"/>
	<path d="M409.043,237.577c0,0.714,0.014,1.331,0.056,1.863h-1.093l-0.07-1.106h-0.027c-0.309,0.546-1.037,1.261-2.241,1.261
		c-1.064,0-2.339-0.603-2.339-2.97v-3.964h1.232v3.74c0,1.289,0.406,2.171,1.513,2.171c0.826,0,1.401-0.574,1.625-1.134
		c0.069-0.168,0.112-0.393,0.112-0.63v-4.146h1.232V237.577z"/>
	<path d="M415.285,239.439v-5.841h-2.857v5.841h-1.219v-5.841h-0.938v-0.938h0.938v-0.21c0-0.953,0.225-1.765,0.758-2.311
		c0.392-0.393,0.951-0.63,1.708-0.63c0.393,0,0.757,0.126,0.967,0.238l-0.253,0.925c-0.182-0.098-0.447-0.182-0.728-0.182
		c-0.967,0-1.233,0.826-1.233,1.891v0.28h2.857v-0.322c0-0.952,0.211-1.821,0.785-2.367c0.463-0.448,1.078-0.63,1.639-0.63
		c0.448,0,0.826,0.098,1.051,0.196l-0.154,0.953c-0.195-0.084-0.434-0.154-0.799-0.154c-1.036,0-1.303,0.911-1.303,1.961v0.364
		h1.625v0.938h-1.625v5.841H415.285z"/>
	<path d="M419.75,236.274c0.028,1.667,1.079,2.353,2.326,2.353c0.882,0,1.428-0.154,1.877-0.35l0.224,0.882
		c-0.435,0.196-1.19,0.435-2.269,0.435c-2.088,0-3.334-1.387-3.334-3.432c0-2.045,1.204-3.642,3.18-3.642
		c2.227,0,2.801,1.933,2.801,3.18c0,0.252-0.014,0.435-0.041,0.575H419.75z M423.364,235.391c0.015-0.77-0.322-1.989-1.709-1.989
		c-1.261,0-1.793,1.134-1.891,1.989H423.364z"/>
	<path d="M426.078,234.775c0-0.798-0.014-1.485-0.057-2.115h1.078l0.057,1.345h0.042c0.308-0.91,1.064-1.485,1.892-1.485
		c0.125,0,0.224,0.014,0.336,0.028v1.163c-0.127-0.028-0.252-0.028-0.42-0.028c-0.869,0-1.485,0.645-1.653,1.569
		c-0.028,0.168-0.042,0.378-0.042,0.575v3.614h-1.232V234.775z"/>
	<path d="M432.939,231.483h-0.028l-1.583,0.854l-0.238-0.938l1.989-1.064h1.051v9.105h-1.19V231.483z"/>
</g>
</svg>
