<?xml version="1.0" encoding="utf-8"?>
<!-- Generator: Adobe Illustrator 15.1.0, SVG Export Plug-In . SVG Version: 6.00 Build 0)  -->
<!DOCTYPE svg PUBLIC "-//W3C//DTD SVG 1.1//EN" "http://www.w3.org/Graphics/SVG/1.1/DTD/svg11.dtd">
<svg version="1.1" id="Layer_1" xmlns="http://www.w3.org/2000/svg" xmlns:xlink="http://www.w3.org/1999/xlink" x="0px" y="0px"
	 width="640px" height="480px" viewBox="0 0 640 480" enable-background="new 0 0 640 480" xml:space="preserve">
<g>
	<rect x="93.222" y="103.242" fill="#FFFFFF" width="124.444" height="86.778"/>
	<polygon points="217.666,190.02 217.666,189.52 93.722,189.52 93.722,103.742 217.166,103.742 217.166,190.02 217.666,190.02 
		217.666,189.52 217.666,190.02 218.166,190.02 218.166,102.742 92.722,102.742 92.722,190.52 218.166,190.52 218.166,190.02 	"/>
	<polyline fill="#FFFFFF" points="637,194.666 512.556,194.666 512.556,107.889 637,107.889 637,194.666 	"/>
	<polyline points="637,194.666 637,194.166 513.056,194.166 513.056,108.389 636.5,108.389 636.5,194.666 637,194.666 637,194.166 
		637,194.666 637.5,194.666 637.5,107.389 512.056,107.389 512.056,195.166 637.5,195.166 637.5,194.666 637,194.666 	"/>
	<rect x="93.222" y="219.667" fill="#FFFFFF" width="124.444" height="86.778"/>
	<polygon points="217.666,306.445 217.666,305.945 93.722,305.945 93.722,220.167 217.166,220.167 217.166,306.445 217.666,306.445 
		217.666,305.945 217.666,306.445 218.166,306.445 218.166,219.167 92.722,219.167 92.722,306.945 218.166,306.945 218.166,306.445 
			"/>
	<polyline fill="#FFFFFF" points="354.109,306.445 229.665,306.445 229.665,219.668 354.109,219.668 354.109,306.445 	"/>
	<polyline points="354.109,306.445 354.109,305.945 230.165,305.945 230.165,220.168 353.609,220.168 353.609,306.445 
		354.109,306.445 354.109,305.945 354.109,306.445 354.609,306.445 354.609,219.168 229.165,219.168 229.165,306.945 
		354.609,306.945 354.609,306.445 354.109,306.445 	"/>
	<polyline fill="#FFFFFF" points="351.109,419.995 226.665,419.995 226.665,333.218 351.109,333.218 351.109,419.995 	"/>
	<polyline points="351.109,419.995 351.109,419.495 227.165,419.495 227.165,333.718 350.609,333.718 350.609,419.995 
		351.109,419.995 351.109,419.495 351.109,419.995 351.609,419.995 351.609,332.718 226.165,332.718 226.165,420.495 
		351.609,420.495 351.609,419.995 351.109,419.995 	"/>
	<polyline fill="#FFFFFF" points="501.331,306.443 376.888,306.443 376.888,219.666 501.331,219.666 501.331,306.443 	"/>
	<polyline points="501.331,306.443 501.331,305.943 377.388,305.943 377.388,220.166 500.831,220.166 500.831,306.443 
		501.331,306.443 501.331,305.943 501.331,306.443 501.831,306.443 501.831,219.166 376.388,219.166 376.388,306.943 
		501.831,306.943 501.831,306.443 501.331,306.443 	"/>
	<circle fill="#FF00FF" cx="132" cy="147.797" r="35"/>
	<path d="M167,147.797h-0.5c0,9.528-3.861,18.15-10.105,24.395c-6.245,6.244-14.867,10.104-24.395,10.105
		c-9.528,0-18.15-3.861-24.395-10.105c-6.244-6.245-10.105-14.866-10.105-24.395s3.861-18.15,10.105-24.395
		c6.245-6.244,14.866-10.105,24.395-10.105c9.528,0,18.15,3.861,24.395,10.105c6.244,6.245,10.104,14.866,10.105,24.395H167h0.5
		c0-19.606-15.894-35.5-35.5-35.5c-19.606,0-35.5,15.894-35.5,35.5c0,19.606,15.894,35.5,35.5,35.5c19.606,0,35.5-15.894,35.5-35.5
		H167z"/>
	<path fill="#FF00FF" d="M588.112,151.723c0,19.33-15.67,35-35,35s-35-15.67-35-35c0-19.33,15.67-35,35-35
		S588.112,132.393,588.112,151.723"/>
	<path d="M588.112,151.723h-0.5c0,9.528-3.86,18.15-10.104,24.395c-6.245,6.244-14.867,10.104-24.396,10.104
		c-9.528,0-18.15-3.861-24.396-10.104c-6.244-6.245-10.104-14.867-10.104-24.395c0-9.529,3.86-18.15,10.104-24.395
		c6.245-6.244,14.867-10.104,24.396-10.105c9.528,0,18.15,3.861,24.396,10.105c6.244,6.245,10.104,14.866,10.104,24.395H588.112h0.5
		c0-19.606-15.894-35.5-35.5-35.5c-19.606,0-35.5,15.894-35.5,35.5c0,19.606,15.894,35.499,35.5,35.5
		c19.606,0,35.5-15.894,35.5-35.5H588.112"/>
	<path fill="#00FFFF" d="M602,116.778c-9.307,0-17.749,3.684-23.956,9.673c6.523,6.437,10.568,15.383,10.568,25.272l0,0l0,0
		c0,9.657-3.856,18.414-10.112,24.813c6.161,5.735,14.419,9.241,23.5,9.242c9.528,0,18.15-3.861,24.396-10.105
		c6.244-6.245,10.104-14.867,10.104-24.396l0,0c0-9.528-3.86-18.15-10.104-24.396C620.15,120.639,611.528,116.778,602,116.778"/>
	<path fill="#0000FF" d="M577.334,127.156c-6.084,6.222-9.834,14.731-9.834,24.122c0,9.529,3.86,18.151,10.104,24.396
		c0.058,0.057,0.115,0.115,0.173,0.171c6.086-6.222,9.835-14.731,9.835-24.122h0.5l0,0h-0.5c0-9.529-3.86-18.15-10.104-24.395
		C577.45,127.271,577.393,127.213,577.334,127.156"/>
	<path d="M588.612,151.723h-0.5h-0.5c0,9.391-3.749,17.9-9.835,24.122c0.237,0.234,0.479,0.465,0.723,0.692
		C584.756,170.137,588.612,161.38,588.612,151.723 M588.612,151.723L588.612,151.723L588.612,151.723 M578.044,126.451
		c-0.147,0.143-0.294,0.286-0.439,0.431c-0.091,0.091-0.181,0.182-0.271,0.274c0.059,0.057,0.116,0.114,0.174,0.172
		c6.244,6.245,10.104,14.866,10.104,24.395h0.5h0.5l0,0C588.612,141.834,584.567,132.888,578.044,126.451"/>
	<path d="M602,115.778c-9.589,0-18.29,3.802-24.679,9.98c0.244,0.228,0.485,0.458,0.723,0.693c6.207-5.99,14.649-9.673,23.956-9.673
		c9.528,0,18.15,3.861,24.396,10.104c6.244,6.245,10.104,14.867,10.104,24.396v-8.401C632.726,127.326,618.712,115.778,602,115.778"
		/>
	<path d="M636.5,142.877v8.401l0,0h0.5h0.5l0,0C637.5,148.383,637.153,145.57,636.5,142.877"/>
	<path d="M636.5,151.278c0,9.529-3.86,18.151-10.104,24.396c-6.245,6.244-14.867,10.104-24.396,10.105
		c-9.081,0-17.339-3.507-23.5-9.242c-0.233,0.239-0.47,0.474-0.71,0.706c6.342,5.916,14.853,9.536,24.21,9.536
		c16.712,0,30.726-11.548,34.5-27.099V151.278"/>
	<path d="M637.5,151.278H637h-0.5l0,0v8.401C637.153,156.985,637.5,154.173,637.5,151.278"/>
	<path d="M576.612,126.464c-6.257,6.4-10.112,15.156-10.112,24.813c0,9.89,4.044,18.835,10.568,25.272
		c0.147-0.143,0.294-0.287,0.439-0.432c0.09-0.09,0.181-0.182,0.27-0.273c-0.058-0.057-0.115-0.114-0.173-0.171
		c-6.244-6.245-10.104-14.867-10.104-24.396c0-9.39,3.75-17.9,9.834-24.122C577.097,126.922,576.856,126.691,576.612,126.464"/>
	<path d="M577.321,125.758c-0.239,0.232-0.476,0.467-0.709,0.706c0.244,0.227,0.484,0.458,0.722,0.692
		c0.09-0.092,0.18-0.183,0.271-0.274c0.146-0.145,0.292-0.289,0.439-0.431C577.807,126.217,577.565,125.986,577.321,125.758"/>
	<path d="M577.777,175.845c-0.089,0.091-0.18,0.183-0.27,0.273c-0.146,0.145-0.292,0.289-0.439,0.432
		c0.237,0.234,0.478,0.465,0.722,0.693c0.24-0.232,0.477-0.467,0.71-0.706C578.256,176.31,578.015,176.079,577.777,175.845"/>
	<path fill="#FF00FF" d="M169.333,38.889c0,19.331-15.67,35-35,35s-35-15.67-35-35c0-19.33,15.67-35,35-35
		S169.333,19.559,169.333,38.889"/>
	<path d="M169.333,38.889h-0.5c0,9.529-3.861,18.151-10.105,24.396c-6.245,6.244-14.867,10.105-24.395,10.105
		s-18.15-3.861-24.395-10.105c-6.244-6.245-10.104-14.867-10.105-24.396c0-9.529,3.861-18.15,10.105-24.395
		c6.245-6.244,14.866-10.104,24.395-10.105c9.528,0,18.15,3.861,24.395,10.105c6.244,6.245,10.105,14.866,10.105,24.395H169.333h0.5
		c0-19.606-15.894-35.5-35.5-35.5c-19.606,0-35.5,15.894-35.5,35.5c0,19.607,15.894,35.5,35.5,35.5c19.606,0,35.5-15.894,35.5-35.5
		H169.333"/>
	<path fill="#00FFFF" d="M176.554,4.389c-7.582,0-14.589,2.444-20.283,6.589c8.259,6.5,13.561,16.586,13.561,27.911l0,0l0,0
		c0,11.326-5.303,21.412-13.561,27.912c5.693,4.145,12.701,6.589,20.283,6.589c9.529,0,18.151-3.861,24.396-10.105
		c6.244-6.245,10.104-14.867,10.105-24.396h0.5l0,0h-0.5c0-9.529-3.861-18.15-10.105-24.395
		C194.705,8.25,186.083,4.389,176.554,4.389"/>
	<path fill="#0000FF" d="M155.443,11.6c-1.155,0.895-2.252,1.862-3.284,2.894c-6.244,6.245-10.104,14.866-10.105,24.395
		c0,9.529,3.861,18.151,10.105,24.396c1.032,1.032,2.129,1.999,3.284,2.894c1.155-0.895,2.252-1.862,3.284-2.894
		c6.244-6.245,10.105-14.867,10.105-24.396h0.5l0,0h-0.5c0-9.529-3.861-18.15-10.105-24.395
		C157.696,13.461,156.599,12.495,155.443,11.6"/>
	<path d="M169.833,38.889h-0.5h-0.5c0,9.529-3.861,18.151-10.105,24.396c-1.032,1.032-2.129,1.999-3.284,2.894
		c0.272,0.211,0.549,0.419,0.828,0.622C164.53,60.3,169.832,50.214,169.833,38.889 M169.833,38.889L169.833,38.889L169.833,38.889
		 M156.271,10.978c-0.279,0.203-0.556,0.411-0.828,0.622c1.155,0.895,2.252,1.862,3.284,2.894
		c6.244,6.245,10.105,14.866,10.105,24.395h0.5h0.5l0,0C169.832,27.563,164.53,17.478,156.271,10.978"/>
	<path d="M212.055,38.889h-0.5h-0.5c0,9.529-3.861,18.151-10.105,24.396c-6.245,6.244-14.867,10.105-24.396,10.105
		c-7.582,0-14.59-2.444-20.283-6.589c-0.272,0.214-0.55,0.426-0.828,0.632c5.9,4.372,13.203,6.957,21.111,6.957
		C196.162,74.389,212.055,58.496,212.055,38.889 M176.554,3.389c-7.908,0-15.21,2.584-21.111,6.956
		c0.278,0.207,0.556,0.418,0.828,0.633c5.693-4.145,12.701-6.589,20.283-6.589c9.529,0,18.151,3.861,24.396,10.105
		c6.244,6.245,10.104,14.866,10.105,24.395h0.5h0.5l0,0C212.055,19.282,196.162,3.389,176.554,3.389"/>
	<path d="M154.615,10.978c-8.259,6.5-13.561,16.586-13.561,27.911c0,11.326,5.302,21.412,13.561,27.912
		c0.279-0.203,0.556-0.411,0.828-0.622c-1.155-0.895-2.252-1.862-3.284-2.894c-6.244-6.245-10.104-14.867-10.105-24.396
		c0-9.529,3.861-18.15,10.105-24.395c1.032-1.032,2.129-1.999,3.284-2.894C155.171,11.388,154.894,11.181,154.615,10.978"/>
	<path d="M155.443,10.345c-0.279,0.207-0.556,0.418-0.828,0.633c0.279,0.203,0.556,0.411,0.828,0.622
		c0.272-0.211,0.549-0.419,0.828-0.622C156,10.763,155.722,10.551,155.443,10.345"/>
	<path d="M155.443,66.178c-0.272,0.211-0.549,0.419-0.828,0.622c0.272,0.214,0.549,0.426,0.828,0.632
		c0.278-0.206,0.556-0.418,0.828-0.632C155.992,66.597,155.716,66.39,155.443,66.178"/>
	<circle fill="#FF00FF" cx="132" cy="264.223" r="35"/>
	<path d="M167,264.223h-0.5c0,9.528-3.861,18.15-10.105,24.396c-6.245,6.244-14.867,10.104-24.395,10.104s-18.15-3.86-24.395-10.104
		c-6.244-6.245-10.105-14.867-10.105-24.396s3.861-18.15,10.105-24.395c6.245-6.244,14.866-10.105,24.395-10.105
		c9.528,0,18.15,3.861,24.395,10.105c6.244,6.245,10.104,14.867,10.105,24.395H167h0.5c0-19.606-15.894-35.5-35.5-35.5
		c-19.606,0-35.5,15.894-35.5,35.5c0,19.606,15.894,35.5,35.5,35.5s35.5-15.894,35.5-35.5H167z"/>
	<path fill="#FF00FF" d="M307.222,263.502c0,19.33-15.67,35-35,35s-35-15.67-35-35s15.67-35,35-35S307.222,244.172,307.222,263.502"
		/>
	<path d="M307.222,263.502h-0.5c0,9.528-3.861,18.15-10.105,24.396c-6.245,6.244-14.866,10.104-24.395,10.104
		c-9.528,0-18.15-3.86-24.396-10.104c-6.244-6.245-10.104-14.867-10.104-24.396s3.861-18.15,10.104-24.395
		c6.245-6.244,14.867-10.104,24.396-10.104c9.529,0,18.15,3.861,24.395,10.104c6.244,6.245,10.104,14.867,10.105,24.395H307.222h0.5
		c0-19.606-15.894-35.499-35.5-35.5c-19.606,0-35.5,15.893-35.5,35.5c0,19.606,15.894,35.5,35.5,35.5s35.5-15.894,35.5-35.5H307.222
		"/>
	<path fill="#00FFFF" d="M316.109,228.557c-8.096,0-15.538,2.788-21.423,7.456c7.957,6.51,13.036,16.407,13.036,27.489l0,0l0,0
		c0,10.824-4.845,20.518-12.483,27.028c5.795,4.41,13.025,7.027,20.871,7.027c9.528,0,18.15-3.86,24.396-10.104
		c6.244-6.245,10.104-14.867,10.104-24.396h0.5l0,0h-0.5c0-9.528-3.86-18.15-10.104-24.395
		C334.26,232.417,325.638,228.557,316.109,228.557"/>
	<path fill="#0000FF" d="M293.896,236.659c-0.755,0.636-1.483,1.304-2.181,2.002c-6.244,6.245-10.105,14.867-10.105,24.395
		c0,9.529,3.861,18.151,10.105,24.396c0.863,0.862,1.771,1.68,2.72,2.447c0.756-0.637,1.484-1.305,2.182-2.003
		c6.244-6.245,10.104-14.867,10.105-24.396h0.5l0,0h-0.5c0-9.528-3.861-18.15-10.105-24.395
		C295.754,238.244,294.846,237.427,293.896,236.659"/>
	<path d="M307.722,263.502h-0.5h-0.5c0,9.528-3.861,18.15-10.105,24.396c-0.698,0.698-1.426,1.366-2.182,2.003
		c0.265,0.214,0.533,0.424,0.804,0.63C302.876,284.02,307.722,274.326,307.722,263.502 M307.722,263.502L307.722,263.502
		L307.722,263.502 M294.686,236.013c-0.267,0.211-0.53,0.427-0.791,0.646c0.95,0.768,1.858,1.585,2.721,2.448
		c6.244,6.245,10.104,14.867,10.105,24.395h0.5h0.5l0,0C307.722,252.42,302.643,242.522,294.686,236.013"/>
	<path d="M351.609,263.057h-0.5h-0.5c0,9.529-3.86,18.151-10.104,24.396c-6.245,6.244-14.867,10.104-24.396,10.104
		c-7.846,0-15.076-2.617-20.871-7.027c-0.261,0.223-0.523,0.439-0.791,0.654c5.994,4.623,13.506,7.373,21.662,7.373
		C335.716,298.558,351.609,282.664,351.609,263.057 M316.109,227.557c-8.414,0-16.143,2.926-22.227,7.817
		c0.271,0.209,0.539,0.422,0.803,0.638c5.885-4.668,13.327-7.456,21.423-7.456c9.528,0,18.15,3.86,24.396,10.104
		c6.244,6.245,10.104,14.867,10.104,24.395h0.5h0.5l0,0C351.609,243.45,335.716,227.558,316.109,227.557"/>
	<path d="M293.092,236.029c-7.638,6.511-12.483,16.204-12.483,27.028c0,11.083,5.079,20.979,13.035,27.49
		c0.267-0.212,0.53-0.428,0.79-0.646c-0.95-0.768-1.857-1.585-2.72-2.447c-6.244-6.245-10.104-14.867-10.105-24.396
		c0-9.528,3.861-18.15,10.105-24.395c0.698-0.698,1.426-1.366,2.181-2.002C293.631,236.445,293.363,236.235,293.092,236.029"/>
	<path d="M293.883,235.375c-0.267,0.214-0.53,0.433-0.791,0.654c0.271,0.207,0.539,0.416,0.803,0.63
		c0.261-0.219,0.524-0.435,0.791-0.646C294.421,235.796,294.154,235.583,293.883,235.375"/>
	<path d="M294.435,289.9c-0.26,0.219-0.523,0.435-0.79,0.646c0.264,0.216,0.532,0.429,0.803,0.638
		c0.267-0.215,0.529-0.432,0.791-0.654C294.967,290.324,294.699,290.114,294.435,289.9"/>
	<path d="M313.109,342.106c-9.529,0-18.15,3.86-24.396,10.104c-6.244,6.244-10.104,14.866-10.104,24.395
		c0,9.529,3.861,18.152,10.104,24.396c6.245,6.245,14.867,10.105,24.396,10.105s18.151-3.86,24.396-10.105
		c6.243-6.244,10.104-14.867,10.104-24.396h0.5l0,0h-0.5c0-9.528-3.86-18.15-10.104-24.395
		C331.26,345.967,322.638,342.106,313.109,342.106"/>
	<path d="M348.609,376.605L348.609,376.605L348.609,376.605 M313.109,341.106c-19.606,0-35.5,15.893-35.5,35.499
		c0,19.608,15.894,35.502,35.5,35.502c19.607,0,35.5-15.894,35.5-35.502h-0.5h-0.5c0,9.529-3.861,18.152-10.104,24.396
		c-6.245,6.245-14.867,10.105-24.396,10.105s-18.15-3.86-24.396-10.105c-6.244-6.244-10.104-14.867-10.104-24.396
		c0-9.528,3.861-18.15,10.104-24.395c6.245-6.244,14.867-10.104,24.396-10.104s18.151,3.86,24.396,10.104
		c6.244,6.244,10.104,14.866,10.104,24.395h0.5h0.5l0,0C348.609,356.999,332.716,341.106,313.109,341.106"/>
	<g>
		<path d="M2.91,380.066c0.547,0.35,1.331,0.616,2.172,0.616c1.246,0,1.975-0.658,1.975-1.611c0-0.868-0.504-1.387-1.779-1.863
			c-1.54-0.56-2.493-1.372-2.493-2.689c0-1.471,1.219-2.562,3.054-2.562c0.953,0,1.667,0.224,2.073,0.462l-0.336,0.994
			c-0.294-0.182-0.925-0.448-1.779-0.448c-1.288,0-1.778,0.771-1.778,1.415c0,0.883,0.574,1.316,1.877,1.821
			c1.597,0.616,2.395,1.387,2.395,2.773c0,1.456-1.064,2.731-3.291,2.731c-0.911,0-1.905-0.28-2.41-0.616L2.91,380.066z"/>
		<path d="M9.925,371.605h1.232v4.244h0.028c0.196-0.35,0.504-0.672,0.883-0.883c0.364-0.21,0.798-0.336,1.261-0.336
			c0.91,0,2.367,0.561,2.367,2.886v4.034h-1.233v-3.895c0-1.092-0.406-2.003-1.568-2.003c-0.799,0-1.415,0.561-1.653,1.219
			c-0.069,0.183-0.084,0.364-0.084,0.589v4.09H9.925V371.605z"/>
		<path d="M22.457,379.926c0,0.589,0.028,1.163,0.098,1.625h-1.106l-0.098-0.854h-0.042c-0.379,0.532-1.106,1.009-2.073,1.009
			c-1.373,0-2.073-0.967-2.073-1.947c0-1.639,1.457-2.535,4.076-2.521v-0.14c0-0.547-0.154-1.569-1.541-1.555
			c-0.645,0-1.303,0.182-1.778,0.504l-0.28-0.826c0.56-0.351,1.387-0.589,2.241-0.589c2.073,0,2.577,1.415,2.577,2.76V379.926z
			 M21.267,378.091c-1.345-0.028-2.872,0.21-2.872,1.527c0,0.812,0.532,1.176,1.148,1.176c0.896,0,1.472-0.56,1.667-1.134
			c0.042-0.141,0.057-0.28,0.057-0.393V378.091z"/>
		<path d="M24.442,376.984c0-0.868-0.028-1.569-0.056-2.213h1.093l0.069,1.162h0.028c0.49-0.826,1.303-1.303,2.409-1.303
			c1.653,0,2.886,1.387,2.886,3.432c0,2.438-1.499,3.643-3.096,3.643c-0.896,0-1.681-0.393-2.087-1.064h-0.028v3.684h-1.219V376.984
			z M25.661,378.791c0,0.183,0.014,0.351,0.056,0.505c0.225,0.854,0.967,1.442,1.85,1.442c1.303,0,2.059-1.064,2.059-2.619
			c0-1.345-0.714-2.508-2.017-2.508c-0.841,0-1.639,0.589-1.863,1.513c-0.042,0.154-0.084,0.337-0.084,0.49V378.791z"/>
		<path d="M33.095,378.385c0.028,1.667,1.078,2.354,2.325,2.354c0.883,0,1.429-0.154,1.877-0.351l0.225,0.883
			c-0.435,0.196-1.191,0.435-2.27,0.435c-2.087,0-3.334-1.387-3.334-3.432c0-2.046,1.205-3.643,3.18-3.643
			c2.228,0,2.802,1.934,2.802,3.18c0,0.252-0.015,0.435-0.042,0.574H33.095z M36.709,377.503c0.014-0.771-0.322-1.989-1.709-1.989
			c-1.261,0-1.793,1.135-1.892,1.989H36.709z"/>
		<path d="M47.223,381.312c-0.322,0.154-1.037,0.393-1.947,0.393c-2.045,0-3.376-1.387-3.376-3.46c0-2.087,1.429-3.614,3.642-3.614
			c0.729,0,1.373,0.183,1.709,0.364l-0.279,0.938c-0.295-0.154-0.757-0.322-1.43-0.322c-1.555,0-2.395,1.163-2.395,2.563
			c0,1.569,1.008,2.535,2.353,2.535c0.701,0,1.163-0.168,1.514-0.322L47.223,381.312z"/>
		<path d="M48.662,371.605h1.232v4.244h0.028c0.196-0.35,0.504-0.672,0.883-0.883c0.364-0.21,0.798-0.336,1.261-0.336
			c0.91,0,2.367,0.561,2.367,2.886v4.034H53.2v-3.895c0-1.092-0.405-2.003-1.568-2.003c-0.799,0-1.415,0.561-1.653,1.219
			c-0.069,0.183-0.084,0.364-0.084,0.589v4.09h-1.232V371.605z"/>
		<path d="M61.194,379.926c0,0.589,0.028,1.163,0.098,1.625h-1.106l-0.098-0.854h-0.042c-0.378,0.532-1.106,1.009-2.073,1.009
			c-1.373,0-2.073-0.967-2.073-1.947c0-1.639,1.457-2.535,4.076-2.521v-0.14c0-0.547-0.154-1.569-1.541-1.555
			c-0.645,0-1.303,0.182-1.778,0.504l-0.28-0.826c0.56-0.351,1.387-0.589,2.241-0.589c2.073,0,2.577,1.415,2.577,2.76V379.926z
			 M60.004,378.091c-1.345-0.028-2.872,0.21-2.872,1.527c0,0.812,0.532,1.176,1.148,1.176c0.896,0,1.472-0.56,1.667-1.134
			c0.042-0.141,0.057-0.28,0.057-0.393V378.091z"/>
		<path d="M63.18,376.606c0-0.715-0.014-1.275-0.056-1.835h1.093l0.069,1.12h0.028c0.336-0.63,1.12-1.261,2.241-1.261
			c0.938,0,2.396,0.561,2.396,2.886v4.034h-1.233v-3.908c0-1.093-0.405-2.003-1.568-2.003c-0.799,0-1.429,0.574-1.653,1.261
			c-0.056,0.154-0.084,0.364-0.084,0.574v4.076H63.18V376.606z"/>
		<path d="M70.949,376.606c0-0.715-0.014-1.275-0.056-1.835h1.093l0.069,1.12h0.028c0.336-0.63,1.12-1.261,2.241-1.261
			c0.938,0,2.396,0.561,2.396,2.886v4.034h-1.233v-3.908c0-1.093-0.405-2.003-1.568-2.003c-0.799,0-1.429,0.574-1.653,1.261
			c-0.056,0.154-0.084,0.364-0.084,0.574v4.076h-1.232V376.606z"/>
		<path d="M79.406,378.385c0.028,1.667,1.078,2.354,2.325,2.354c0.883,0,1.429-0.154,1.877-0.351l0.225,0.883
			c-0.435,0.196-1.191,0.435-2.27,0.435c-2.087,0-3.334-1.387-3.334-3.432c0-2.046,1.205-3.643,3.18-3.643
			c2.228,0,2.802,1.934,2.802,3.18c0,0.252-0.014,0.435-0.042,0.574H79.406z M83.021,377.503c0.014-0.771-0.322-1.989-1.709-1.989
			c-1.261,0-1.793,1.135-1.892,1.989H83.021z"/>
		<path d="M85.733,371.605h1.232v9.945h-1.232V371.605z"/>
		<path d="M88.757,375.892c0-0.519,0.351-0.883,0.827-0.883c0.504,0,0.826,0.364,0.826,0.883c0,0.49-0.322,0.868-0.841,0.868
			C89.093,376.76,88.757,376.382,88.757,375.892z M88.757,380.836c0-0.518,0.351-0.882,0.827-0.882c0.504,0,0.826,0.364,0.826,0.882
			c0,0.49-0.322,0.869-0.841,0.869C89.093,381.705,88.757,381.326,88.757,380.836z"/>
	</g>
	<g>
		<path d="M4.466,261.571c0.547,0.35,1.331,0.616,2.172,0.616c1.246,0,1.975-0.658,1.975-1.611c0-0.868-0.504-1.387-1.779-1.863
			c-1.54-0.56-2.493-1.372-2.493-2.689c0-1.471,1.219-2.562,3.054-2.562c0.953,0,1.667,0.224,2.073,0.462l-0.336,0.994
			c-0.294-0.182-0.925-0.448-1.779-0.448c-1.288,0-1.778,0.771-1.778,1.415c0,0.883,0.574,1.316,1.877,1.821
			c1.597,0.616,2.395,1.387,2.395,2.773c0,1.457-1.064,2.731-3.291,2.731c-0.911,0-1.905-0.28-2.41-0.616L4.466,261.571z"/>
		<path d="M11.48,253.11h1.232v4.244h0.028c0.196-0.351,0.504-0.672,0.883-0.883c0.364-0.21,0.798-0.336,1.261-0.336
			c0.91,0,2.367,0.561,2.367,2.886v4.034h-1.233v-3.895c0-1.092-0.406-2.003-1.568-2.003c-0.799,0-1.415,0.561-1.653,1.219
			c-0.069,0.183-0.084,0.364-0.084,0.589v4.09H11.48V253.11z"/>
		<path d="M24.013,261.431c0,0.589,0.028,1.163,0.098,1.625h-1.106l-0.098-0.854h-0.042c-0.379,0.532-1.106,1.009-2.073,1.009
			c-1.373,0-2.073-0.967-2.073-1.947c0-1.639,1.457-2.535,4.076-2.521v-0.14c0-0.547-0.154-1.569-1.541-1.555
			c-0.645,0-1.303,0.182-1.778,0.504l-0.28-0.826c0.56-0.351,1.387-0.589,2.241-0.589c2.073,0,2.577,1.415,2.577,2.76V261.431z
			 M22.822,259.596c-1.345-0.028-2.872,0.21-2.872,1.527c0,0.812,0.532,1.176,1.148,1.176c0.896,0,1.472-0.56,1.667-1.134
			c0.042-0.141,0.057-0.28,0.057-0.393V259.596z"/>
		<path d="M25.998,258.489c0-0.868-0.028-1.569-0.056-2.213h1.093l0.069,1.162h0.028c0.49-0.826,1.303-1.303,2.409-1.303
			c1.653,0,2.886,1.387,2.886,3.432c0,2.438-1.499,3.643-3.096,3.643c-0.896,0-1.681-0.393-2.087-1.064h-0.028v3.684h-1.219V258.489
			z M27.217,260.296c0,0.183,0.014,0.351,0.056,0.505c0.225,0.854,0.967,1.442,1.85,1.442c1.303,0,2.059-1.064,2.059-2.619
			c0-1.345-0.714-2.508-2.017-2.508c-0.841,0-1.639,0.589-1.863,1.513c-0.042,0.154-0.084,0.337-0.084,0.49V260.296z"/>
		<path d="M34.65,259.89c0.028,1.667,1.078,2.354,2.325,2.354c0.883,0,1.429-0.154,1.877-0.351l0.225,0.883
			c-0.435,0.196-1.191,0.435-2.27,0.435c-2.087,0-3.334-1.387-3.334-3.432c0-2.046,1.205-3.643,3.18-3.643
			c2.228,0,2.802,1.934,2.802,3.18c0,0.252-0.015,0.435-0.042,0.574H34.65z M38.265,259.008c0.014-0.771-0.322-1.989-1.709-1.989
			c-1.261,0-1.793,1.135-1.892,1.989H38.265z"/>
		<path d="M43.553,263.056v-0.757l0.967-0.938c2.325-2.213,3.39-3.39,3.39-4.762c0-0.925-0.434-1.779-1.793-1.779
			c-0.826,0-1.513,0.42-1.933,0.771l-0.393-0.869c0.616-0.518,1.527-0.924,2.563-0.924c1.961,0,2.788,1.345,2.788,2.647
			c0,1.681-1.219,3.039-3.138,4.889l-0.715,0.672v0.028h4.076v1.022H43.553z"/>
		<path d="M50.847,257.396c0-0.519,0.351-0.883,0.826-0.883c0.505,0,0.827,0.364,0.827,0.883c0,0.49-0.322,0.868-0.841,0.868
			C51.183,258.265,50.847,257.887,50.847,257.396z M50.847,262.341c0-0.518,0.351-0.882,0.826-0.882
			c0.505,0,0.827,0.364,0.827,0.882c0,0.491-0.322,0.869-0.841,0.869C51.183,263.21,50.847,262.832,50.847,262.341z"/>
	</g>
	<g>
		<path d="M7.133,149.459c0.547,0.35,1.331,0.616,2.172,0.616c1.246,0,1.975-0.658,1.975-1.611c0-0.868-0.504-1.387-1.779-1.863
			c-1.54-0.561-2.493-1.373-2.493-2.689c0-1.471,1.219-2.563,3.054-2.563c0.953,0,1.667,0.224,2.073,0.462l-0.336,0.995
			c-0.294-0.182-0.925-0.448-1.779-0.448c-1.288,0-1.778,0.77-1.778,1.415c0,0.882,0.574,1.317,1.877,1.821
			c1.597,0.617,2.395,1.387,2.395,2.774c0,1.457-1.064,2.731-3.291,2.731c-0.911,0-1.905-0.28-2.41-0.617L7.133,149.459z"/>
		<path d="M14.147,140.999h1.232v4.244h0.028c0.196-0.35,0.504-0.672,0.883-0.882c0.364-0.21,0.798-0.336,1.261-0.336
			c0.91,0,2.367,0.561,2.367,2.886v4.034h-1.233v-3.894c0-1.093-0.406-2.003-1.568-2.003c-0.799,0-1.415,0.56-1.653,1.218
			c-0.069,0.182-0.084,0.364-0.084,0.588v4.09h-1.232V140.999z"/>
		<path d="M26.68,149.319c0,0.588,0.028,1.163,0.098,1.625h-1.106l-0.098-0.854h-0.042c-0.379,0.532-1.106,1.009-2.073,1.009
			c-1.373,0-2.073-0.967-2.073-1.947c0-1.639,1.457-2.535,4.076-2.521v-0.14c0-0.546-0.154-1.569-1.541-1.555
			c-0.645,0-1.303,0.182-1.778,0.504l-0.28-0.827c0.56-0.35,1.387-0.588,2.241-0.588c2.073,0,2.577,1.415,2.577,2.76V149.319z
			 M25.489,147.484c-1.345-0.028-2.872,0.21-2.872,1.527c0,0.812,0.532,1.177,1.148,1.177c0.896,0,1.472-0.561,1.667-1.135
			c0.042-0.14,0.057-0.28,0.057-0.392V147.484z"/>
		<path d="M28.665,146.378c0-0.869-0.028-1.569-0.056-2.213h1.093l0.069,1.163H29.8c0.49-0.826,1.303-1.303,2.409-1.303
			c1.653,0,2.886,1.387,2.886,3.432c0,2.437-1.499,3.642-3.096,3.642c-0.896,0-1.681-0.393-2.087-1.065h-0.028v3.684h-1.219V146.378
			z M29.884,148.185c0,0.182,0.014,0.35,0.056,0.504c0.225,0.854,0.967,1.443,1.85,1.443c1.303,0,2.059-1.064,2.059-2.619
			c0-1.345-0.714-2.508-2.017-2.508c-0.841,0-1.639,0.588-1.863,1.513c-0.042,0.154-0.084,0.336-0.084,0.49V148.185z"/>
		<path d="M37.317,147.779c0.028,1.667,1.078,2.353,2.325,2.353c0.883,0,1.429-0.154,1.877-0.35l0.225,0.882
			c-0.435,0.196-1.191,0.435-2.27,0.435c-2.087,0-3.334-1.387-3.334-3.432c0-2.045,1.205-3.642,3.18-3.642
			c2.228,0,2.802,1.933,2.802,3.18c0,0.252-0.015,0.435-0.042,0.575H37.317z M40.932,146.896c0.014-0.77-0.322-1.989-1.709-1.989
			c-1.261,0-1.793,1.134-1.892,1.989H40.932z"/>
		<path d="M48.896,142.988h-0.028l-1.582,0.854l-0.238-0.938l1.989-1.064h1.05v9.105h-1.19V142.988z"/>
		<path d="M53.514,145.285c0-0.518,0.351-0.882,0.826-0.882c0.505,0,0.827,0.364,0.827,0.882c0,0.49-0.322,0.869-0.841,0.869
			C53.85,146.154,53.514,145.775,53.514,145.285z M53.514,150.23c0-0.518,0.351-0.882,0.826-0.882c0.505,0,0.827,0.364,0.827,0.882
			c0,0.49-0.322,0.869-0.841,0.869C53.85,151.099,53.514,150.72,53.514,150.23z"/>
	</g>
	<path fill="#00FFFF" d="M498.331,263.055c0,19.331-15.67,35.001-35,35.001s-35-15.67-35-35.001c0-19.33,15.67-35,35-35
		S498.331,243.725,498.331,263.055"/>
	<path d="M498.331,263.055h-0.5c0,9.529-3.86,18.151-10.104,24.396c-6.245,6.244-14.867,10.104-24.396,10.104
		s-18.15-3.86-24.396-10.104c-6.244-6.245-10.104-14.867-10.104-24.396c0-9.528,3.86-18.15,10.104-24.395
		c6.245-6.244,14.867-10.104,24.396-10.104c9.528,0,18.15,3.861,24.396,10.104c6.244,6.245,10.104,14.867,10.104,24.395H498.331h0.5
		c0-19.606-15.894-35.499-35.5-35.5c-19.606,0-35.5,15.893-35.5,35.5c0,19.607,15.894,35.501,35.5,35.501s35.5-15.894,35.5-35.501
		H498.331"/>
	<path fill="#0000FF" d="M441.834,236.442c-7.51,6.331-12.28,15.801-12.28,26.391c0,10.845,5.008,20.511,12.833,26.836
		c7.51-6.33,12.28-15.801,12.28-26.391C454.667,252.434,449.659,242.769,441.834,236.442"/>
	<path d="M429.554,262.833c0-10.59,4.771-20.061,12.28-26.391c7.825,6.327,12.833,15.992,12.833,26.836
		c0,10.59-4.771,20.061-12.28,26.391C434.562,283.344,429.554,273.678,429.554,262.833 M442.408,235.621
		c-1.225,0.936-2.384,1.951-3.473,3.039c-6.195,6.197-10.044,14.733-10.104,24.173h0.222h0.5h-0.5h-0.222
		c-0.001,0.073-0.001,0.147-0.001,0.222c0,9.529,3.86,18.151,10.104,24.396c1.174,1.174,2.433,2.263,3.765,3.259l0.011-0.01
		c7.909-6.509,12.956-16.378,12.956-27.422C455.667,252.097,450.489,242.126,442.408,235.621"/>
	<path d="M428.832,262.833h-0.278c0,11.307,5.294,21.375,13.53,27.874l0.316,0.25l0.3-0.247c-1.332-0.996-2.591-2.085-3.765-3.259
		c-6.244-6.245-10.104-14.867-10.104-24.396C428.831,262.98,428.831,262.906,428.832,262.833 M441.82,235.155l-0.311,0.256
		c-7.909,6.509-12.956,16.378-12.956,27.422h0.278c0.06-9.44,3.908-17.977,10.104-24.173c1.089-1.088,2.248-2.103,3.473-3.039
		c-0.09-0.073-0.181-0.145-0.271-0.217L441.82,235.155"/>
	<polyline points="429.555,219.666 429.555,151.723 428.555,151.723 428.555,219.666 	"/>
	<polyline points="358.35,264.002 367.87,263.73 367.841,262.73 358.32,263.002 	"/>
	<path d="M373.888,263.058c-2.809,1.135-6.279,3.032-8.408,4.998l1.584-4.803l-1.855-4.704
		C367.445,260.39,371.019,262.086,373.888,263.058z"/>
	<polyline points="358.835,370.439 358.835,263.502 357.835,263.502 357.835,370.439 	"/>
	<polyline points="358.335,369.939 354.109,369.939 354.109,370.939 358.335,370.939 	"/>
	<g>
		<path d="M407.095,144.257c-0.435,0.224-1.345,0.448-2.493,0.448c-2.662,0-4.651-1.681-4.651-4.791
			c0-2.969,2.004-4.958,4.931-4.958c1.163,0,1.919,0.252,2.241,0.42l-0.308,0.994c-0.448-0.224-1.106-0.392-1.892-0.392
			c-2.213,0-3.684,1.415-3.684,3.894c0,2.325,1.331,3.796,3.614,3.796c0.756,0,1.513-0.154,2.003-0.393L407.095,144.257z"/>
		<path d="M414.57,141.105c0,2.507-1.751,3.6-3.376,3.6c-1.821,0-3.25-1.345-3.25-3.488c0-2.255,1.499-3.586,3.362-3.586
			C413.253,137.631,414.57,139.046,414.57,141.105z M409.205,141.175c0,1.485,0.841,2.605,2.045,2.605
			c1.177,0,2.06-1.106,2.06-2.633c0-1.148-0.574-2.591-2.031-2.591C409.835,138.556,409.205,139.9,409.205,141.175z"/>
		<path d="M416.12,139.606c0-0.714-0.028-1.274-0.056-1.835h1.078l0.057,1.107h0.042c0.378-0.645,1.008-1.247,2.143-1.247
			c0.911,0,1.611,0.561,1.905,1.359h0.028c0.21-0.392,0.49-0.672,0.771-0.882c0.406-0.308,0.84-0.477,1.484-0.477
			c0.91,0,2.241,0.588,2.241,2.942v3.978h-1.205v-3.824c0-1.316-0.49-2.087-1.471-2.087c-0.714,0-1.246,0.518-1.471,1.106
			c-0.056,0.182-0.098,0.392-0.098,0.616v4.188h-1.205v-4.062c0-1.079-0.476-1.849-1.414-1.849c-0.757,0-1.331,0.616-1.527,1.232
			c-0.07,0.168-0.098,0.393-0.098,0.603v4.076h-1.205V139.606z"/>
		<path d="M427.797,139.984c0-0.869-0.028-1.569-0.056-2.213h1.093l0.069,1.163h0.028c0.49-0.826,1.303-1.303,2.409-1.303
			c1.653,0,2.886,1.387,2.886,3.432c0,2.437-1.499,3.642-3.096,3.642c-0.896,0-1.681-0.393-2.087-1.065h-0.028v3.684h-1.219V139.984
			z M429.016,141.792c0,0.182,0.014,0.35,0.056,0.504c0.225,0.854,0.967,1.443,1.85,1.443c1.303,0,2.059-1.064,2.059-2.619
			c0-1.345-0.714-2.508-2.017-2.508c-0.841,0-1.639,0.588-1.863,1.513c-0.042,0.154-0.084,0.336-0.084,0.49V141.792z"/>
		<path d="M441.898,141.105c0,2.507-1.751,3.6-3.376,3.6c-1.821,0-3.25-1.345-3.25-3.488c0-2.255,1.499-3.586,3.362-3.586
			C440.581,137.631,441.898,139.046,441.898,141.105z M436.533,141.175c0,1.485,0.841,2.605,2.045,2.605
			c1.177,0,2.06-1.106,2.06-2.633c0-1.148-0.574-2.591-2.031-2.591C437.163,138.556,436.533,139.9,436.533,141.175z"/>
		<path d="M443.28,143.304c0.378,0.224,1.022,0.476,1.639,0.476c0.883,0,1.303-0.434,1.303-1.008c0-0.588-0.35-0.896-1.246-1.233
			c-1.233-0.448-1.808-1.106-1.808-1.919c0-1.093,0.896-1.989,2.34-1.989c0.686,0,1.288,0.182,1.652,0.42l-0.294,0.896
			c-0.267-0.168-0.757-0.406-1.387-0.406c-0.729,0-1.121,0.42-1.121,0.924c0,0.561,0.393,0.812,1.275,1.163
			c1.162,0.434,1.778,1.022,1.778,2.031c0,1.205-0.938,2.045-2.521,2.045c-0.742,0-1.429-0.196-1.904-0.477L443.28,143.304z"/>
		<path d="M450.365,135.866c0,0.42-0.294,0.756-0.784,0.756c-0.448,0-0.743-0.336-0.743-0.756c0-0.42,0.309-0.771,0.771-0.771
			C450.057,135.096,450.365,135.432,450.365,135.866z M448.992,144.551v-6.78h1.232v6.78H448.992z"/>
		<path d="M453.754,136.146v1.625h1.765v0.938h-1.765v3.656c0,0.84,0.237,1.316,0.924,1.316c0.336,0,0.532-0.028,0.715-0.084
			l0.056,0.938c-0.238,0.084-0.616,0.168-1.093,0.168c-0.574,0-1.036-0.196-1.33-0.519c-0.337-0.378-0.477-0.98-0.477-1.779v-3.698
			h-1.051v-0.938h1.051v-1.261L453.754,136.146z"/>
		<path d="M457.519,141.385c0.028,1.667,1.078,2.353,2.325,2.353c0.883,0,1.429-0.154,1.877-0.35l0.225,0.882
			c-0.435,0.196-1.191,0.435-2.27,0.435c-2.087,0-3.334-1.387-3.334-3.432c0-2.045,1.205-3.642,3.18-3.642
			c2.228,0,2.802,1.933,2.802,3.18c0,0.252-0.015,0.435-0.042,0.575H457.519z M461.133,140.502c0.014-0.77-0.322-1.989-1.709-1.989
			c-1.261,0-1.793,1.134-1.892,1.989H461.133z"/>
	</g>
	<polyline points="217.666,151.297 499.744,151.297 499.744,150.297 217.666,150.297 	"/>
	<path d="M505.779,150.797c-2.84,1.054-6.363,2.852-8.547,4.756l1.72-4.756l-1.72-4.755
		C499.416,147.947,502.939,149.745,505.779,150.797z"/>
	<polyline points="154.944,194.667 154.944,207.738 155.944,207.738 155.944,194.667 	"/>
	<path d="M155.444,213.773c-1.054-2.84-2.852-6.363-4.756-8.547l4.756,1.72l4.755-1.72
		C158.294,207.41,156.497,210.933,155.444,213.773z"/>
	<g>
		<path d="M173.983,206.812c-0.435,0.224-1.345,0.448-2.493,0.448c-2.662,0-4.651-1.681-4.651-4.791
			c0-2.969,2.004-4.958,4.931-4.958c1.163,0,1.919,0.252,2.241,0.42l-0.308,0.994c-0.448-0.224-1.106-0.392-1.892-0.392
			c-2.213,0-3.684,1.415-3.684,3.894c0,2.325,1.331,3.796,3.614,3.796c0.756,0,1.513-0.154,2.003-0.393L173.983,206.812z"/>
		<path d="M181.473,203.661c0,2.507-1.751,3.6-3.376,3.6c-1.821,0-3.25-1.345-3.25-3.488c0-2.255,1.499-3.586,3.362-3.586
			C180.155,200.187,181.473,201.602,181.473,203.661z M176.107,203.73c0,1.485,0.841,2.605,2.045,2.605
			c1.177,0,2.06-1.106,2.06-2.633c0-1.148-0.574-2.591-2.031-2.591C176.737,201.111,176.107,202.456,176.107,203.73z"/>
		<path d="M183.023,202.54c0-0.869-0.028-1.569-0.056-2.213h1.093l0.069,1.163h0.028c0.49-0.826,1.303-1.303,2.409-1.303
			c1.653,0,2.886,1.387,2.886,3.432c0,2.437-1.499,3.642-3.096,3.642c-0.896,0-1.681-0.393-2.087-1.065h-0.028v3.684h-1.219V202.54z
			 M184.242,204.347c0,0.182,0.014,0.35,0.056,0.504c0.225,0.854,0.967,1.443,1.85,1.443c1.303,0,2.059-1.064,2.059-2.619
			c0-1.345-0.714-2.508-2.017-2.508c-0.841,0-1.639,0.588-1.863,1.513c-0.042,0.154-0.084,0.336-0.084,0.49V204.347z"/>
		<path d="M191.354,200.327l1.471,4.006c0.168,0.448,0.336,0.98,0.448,1.387h0.028c0.126-0.406,0.266-0.924,0.435-1.415l1.345-3.978
			h1.303l-1.85,4.833c-0.883,2.326-1.484,3.502-2.325,4.245c-0.616,0.518-1.204,0.728-1.513,0.784l-0.309-1.022
			c0.309-0.098,0.715-0.294,1.079-0.602c0.336-0.267,0.742-0.743,1.036-1.373c0.057-0.126,0.099-0.224,0.099-0.294
			c0-0.07-0.028-0.168-0.099-0.322l-2.493-6.248H191.354z"/>
	</g>
	<g>
		<path d="M392.719,350.459h-3.656v3.404h4.09v1.022h-5.322v-9.441h5.112v1.022h-3.88v2.984h3.656V350.459z"/>
		<path d="M395.264,348.106l0.967,1.456c0.266,0.379,0.477,0.715,0.7,1.093h0.028c0.224-0.392,0.448-0.742,0.687-1.106l0.938-1.442
			h1.345l-2.312,3.277l2.367,3.502h-1.387l-1.009-1.526c-0.266-0.393-0.49-0.771-0.729-1.177h-0.027
			c-0.225,0.406-0.448,0.771-0.715,1.177l-0.98,1.526h-1.358l2.409-3.46l-2.298-3.319H395.264z"/>
		<path d="M402.825,346.481v1.625h1.765v0.938h-1.765v3.655c0,0.841,0.237,1.317,0.924,1.317c0.336,0,0.532-0.028,0.715-0.084
			l0.056,0.938c-0.238,0.084-0.616,0.168-1.093,0.168c-0.574,0-1.036-0.196-1.33-0.519c-0.337-0.378-0.477-0.98-0.477-1.779v-3.697
			h-1.051v-0.938h1.051v-1.261L402.825,346.481z"/>
		<path d="M405.974,350.222c0-0.799-0.014-1.485-0.056-2.115h1.078l0.057,1.345h0.042c0.308-0.911,1.064-1.485,1.891-1.485
			c0.126,0,0.224,0.015,0.336,0.028v1.162c-0.126-0.027-0.252-0.027-0.42-0.027c-0.868,0-1.485,0.645-1.653,1.568
			c-0.027,0.168-0.042,0.379-0.042,0.574v3.614h-1.232V350.222z"/>
		<path d="M415.258,353.261c0,0.589,0.028,1.163,0.098,1.625h-1.106l-0.098-0.854h-0.042c-0.379,0.532-1.106,1.009-2.073,1.009
			c-1.373,0-2.073-0.967-2.073-1.947c0-1.639,1.457-2.535,4.076-2.521v-0.14c0-0.547-0.154-1.569-1.541-1.555
			c-0.645,0-1.303,0.182-1.778,0.504l-0.28-0.826c0.56-0.351,1.387-0.589,2.241-0.589c2.073,0,2.577,1.415,2.577,2.76V353.261z
			 M414.067,351.426c-1.345-0.028-2.872,0.21-2.872,1.527c0,0.812,0.532,1.176,1.148,1.176c0.896,0,1.472-0.56,1.667-1.134
			c0.042-0.141,0.057-0.28,0.057-0.393V351.426z"/>
		<path d="M420.701,348.106l0.91,3.445c0.183,0.757,0.364,1.457,0.49,2.157h0.043c0.153-0.687,0.378-1.415,0.602-2.143l1.106-3.46
			h1.037l1.051,3.39c0.252,0.812,0.448,1.526,0.602,2.213h0.042c0.112-0.687,0.295-1.4,0.519-2.199l0.967-3.403h1.219l-2.186,6.779
			h-1.12l-1.037-3.235c-0.238-0.757-0.434-1.429-0.602-2.228h-0.028c-0.168,0.812-0.378,1.513-0.616,2.241l-1.093,3.222h-1.121
			l-2.045-6.779H420.701z"/>
		<path d="M436.511,351.439c0,2.508-1.751,3.601-3.376,3.601c-1.821,0-3.25-1.345-3.25-3.488c0-2.255,1.499-3.586,3.362-3.586
			C435.193,347.966,436.511,349.381,436.511,351.439z M431.146,351.51c0,1.485,0.841,2.605,2.045,2.605
			c1.177,0,2.06-1.106,2.06-2.634c0-1.148-0.574-2.591-2.031-2.591C431.775,348.891,431.146,350.235,431.146,351.51z"/>
		<path d="M438.062,350.222c0-0.799-0.014-1.485-0.056-2.115h1.078l0.057,1.345h0.042c0.308-0.911,1.064-1.485,1.891-1.485
			c0.126,0,0.224,0.015,0.336,0.028v1.162c-0.126-0.027-0.252-0.027-0.42-0.027c-0.868,0-1.485,0.645-1.653,1.568
			c-0.027,0.168-0.042,0.379-0.042,0.574v3.614h-1.232V350.222z"/>
		<path d="M443.914,351.216h0.028c0.168-0.238,0.392-0.532,0.588-0.771l2.003-2.339h1.471l-2.605,2.787l2.984,3.992h-1.513
			l-2.326-3.25l-0.63,0.7v2.55h-1.219v-9.945h1.219V351.216z"/>
		<path d="M449.106,349.227c0-0.519,0.351-0.883,0.827-0.883c0.504,0,0.826,0.364,0.826,0.883c0,0.49-0.322,0.868-0.841,0.868
			C449.442,350.095,449.106,349.717,449.106,349.227z M449.106,354.171c0-0.518,0.351-0.882,0.827-0.882
			c0.504,0,0.826,0.364,0.826,0.882c0,0.491-0.322,0.869-0.841,0.869C449.442,355.04,449.106,354.662,449.106,354.171z"/>
	</g>
	<g>
		<path d="M390.085,363.729h-0.028l-1.582,0.854l-0.238-0.938l1.989-1.064h1.05v9.104h-1.19V363.729z"/>
		<path d="M394.689,370.957c0-0.504,0.35-0.883,0.84-0.883c0.491,0,0.827,0.364,0.827,0.883c0,0.504-0.336,0.883-0.854,0.883
			C395.025,371.84,394.689,371.461,394.689,370.957z"/>
		<path d="M400.85,366.741c0-0.715-0.028-1.275-0.056-1.835h1.078l0.057,1.106h0.042c0.378-0.645,1.008-1.247,2.143-1.247
			c0.911,0,1.611,0.561,1.905,1.359h0.028c0.21-0.393,0.49-0.673,0.771-0.883c0.405-0.309,0.84-0.477,1.484-0.477
			c0.91,0,2.241,0.589,2.241,2.941v3.979h-1.205v-3.824c0-1.316-0.49-2.087-1.471-2.087c-0.714,0-1.246,0.519-1.471,1.106
			c-0.056,0.183-0.098,0.393-0.098,0.616v4.188h-1.205v-4.062c0-1.078-0.476-1.849-1.414-1.849c-0.757,0-1.331,0.616-1.527,1.232
			c-0.07,0.168-0.098,0.393-0.098,0.603v4.076h-1.205V366.741z"/>
		<path d="M417.288,370.061c0,0.589,0.028,1.163,0.098,1.625h-1.106l-0.098-0.854h-0.042c-0.378,0.532-1.106,1.009-2.073,1.009
			c-1.373,0-2.073-0.967-2.073-1.947c0-1.639,1.457-2.535,4.076-2.521v-0.14c0-0.547-0.154-1.569-1.541-1.555
			c-0.645,0-1.303,0.182-1.778,0.504l-0.28-0.826c0.56-0.351,1.387-0.589,2.241-0.589c2.073,0,2.577,1.415,2.577,2.76V370.061z
			 M416.098,368.226c-1.345-0.028-2.872,0.21-2.872,1.527c0,0.812,0.532,1.176,1.148,1.176c0.896,0,1.472-0.56,1.667-1.134
			c0.042-0.141,0.057-0.28,0.057-0.393V368.226z"/>
		<path d="M419.105,370.438c0.378,0.225,1.022,0.477,1.639,0.477c0.883,0,1.303-0.435,1.303-1.009c0-0.588-0.35-0.896-1.246-1.232
			c-1.233-0.448-1.808-1.106-1.808-1.919c0-1.093,0.896-1.989,2.34-1.989c0.686,0,1.288,0.183,1.652,0.42l-0.294,0.896
			c-0.267-0.168-0.757-0.405-1.387-0.405c-0.729,0-1.121,0.42-1.121,0.924c0,0.561,0.393,0.812,1.275,1.163
			c1.162,0.434,1.778,1.022,1.778,2.031c0,1.204-0.938,2.045-2.521,2.045c-0.743,0-1.43-0.196-1.905-0.477L419.105,370.438z"/>
		<path d="M426.036,368.016h0.028c0.168-0.238,0.392-0.532,0.588-0.771l2.003-2.339h1.471l-2.605,2.787l2.984,3.992h-1.513
			l-2.326-3.25l-0.63,0.7v2.55h-1.219v-9.945h1.219V368.016z"/>
		<path d="M434.351,361.74h1.219v4.258h0.028c0.434-0.756,1.219-1.232,2.311-1.232c1.695,0,2.872,1.401,2.872,3.446
			c0,2.423-1.541,3.628-3.054,3.628c-0.98,0-1.765-0.379-2.283-1.261h-0.028l-0.069,1.106h-1.051
			c0.027-0.462,0.056-1.148,0.056-1.751V361.74z M435.569,368.968c0,0.154,0.014,0.309,0.056,0.448
			c0.225,0.854,0.953,1.443,1.85,1.443c1.303,0,2.059-1.051,2.059-2.605c0-1.359-0.7-2.521-2.031-2.521
			c-0.826,0-1.61,0.588-1.862,1.513c-0.042,0.154-0.07,0.322-0.07,0.519V368.968z"/>
		<path d="M447.989,369.822c0,0.715,0.015,1.331,0.057,1.863h-1.093l-0.07-1.106h-0.028c-0.308,0.546-1.036,1.261-2.241,1.261
			c-1.064,0-2.339-0.603-2.339-2.97v-3.964h1.232v3.739c0,1.289,0.406,2.172,1.513,2.172c0.827,0,1.401-0.574,1.625-1.135
			c0.07-0.168,0.112-0.393,0.112-0.631v-4.146h1.232V369.822z"/>
		<path d="M454.232,371.686v-5.841h-2.857v5.841h-1.219v-5.841h-0.938v-0.938h0.938v-0.211c0-0.952,0.225-1.765,0.757-2.311
			c0.392-0.393,0.952-0.631,1.709-0.631c0.392,0,0.756,0.126,0.966,0.238l-0.252,0.925c-0.182-0.099-0.448-0.183-0.729-0.183
			c-0.966,0-1.232,0.827-1.232,1.892v0.28h2.857v-0.322c0-0.953,0.21-1.821,0.784-2.367c0.463-0.448,1.079-0.631,1.64-0.631
			c0.448,0,0.826,0.099,1.05,0.196l-0.153,0.952c-0.196-0.084-0.435-0.153-0.799-0.153c-1.036,0-1.303,0.91-1.303,1.961v0.364h1.625
			v0.938h-1.625v5.841H454.232z"/>
		<path d="M458.711,368.52c0.028,1.667,1.078,2.354,2.325,2.354c0.883,0,1.429-0.154,1.877-0.351l0.225,0.883
			c-0.435,0.196-1.191,0.435-2.27,0.435c-2.087,0-3.334-1.387-3.334-3.432c0-2.046,1.205-3.643,3.18-3.643
			c2.228,0,2.802,1.934,2.802,3.18c0,0.252-0.014,0.435-0.042,0.574H458.711z M462.325,367.638c0.014-0.771-0.322-1.989-1.709-1.989
			c-1.261,0-1.793,1.135-1.892,1.989H462.325z"/>
		<path d="M465.038,367.021c0-0.799-0.014-1.485-0.056-2.115h1.078l0.057,1.345h0.042c0.308-0.911,1.064-1.485,1.891-1.485
			c0.126,0,0.224,0.015,0.336,0.028v1.162c-0.126-0.027-0.252-0.027-0.42-0.027c-0.868,0-1.485,0.645-1.653,1.568
			c-0.027,0.168-0.042,0.378-0.042,0.574v3.614h-1.232V367.021z"/>
	</g>
	<g>
		<path d="M387.409,388.485v-0.757l0.967-0.938c2.325-2.213,3.39-3.39,3.39-4.762c0-0.925-0.434-1.779-1.793-1.779
			c-0.826,0-1.513,0.42-1.933,0.771l-0.393-0.869c0.616-0.518,1.527-0.924,2.563-0.924c1.961,0,2.788,1.345,2.788,2.647
			c0,1.681-1.219,3.039-3.138,4.889l-0.715,0.672v0.028h4.076v1.022H387.409z"/>
		<path d="M394.689,387.757c0-0.504,0.35-0.883,0.84-0.883c0.491,0,0.827,0.364,0.827,0.883c0,0.505-0.336,0.883-0.854,0.883
			C395.025,388.64,394.689,388.262,394.689,387.757z"/>
		<path d="M405.683,388.247c-0.322,0.154-1.037,0.393-1.947,0.393c-2.045,0-3.376-1.387-3.376-3.46c0-2.087,1.429-3.614,3.642-3.614
			c0.729,0,1.373,0.183,1.709,0.364l-0.28,0.938c-0.294-0.154-0.756-0.322-1.429-0.322c-1.555,0-2.395,1.163-2.395,2.563
			c0,1.569,1.008,2.535,2.353,2.535c0.701,0,1.163-0.168,1.514-0.322L405.683,388.247z"/>
		<path d="M413.187,385.039c0,2.508-1.751,3.601-3.376,3.601c-1.821,0-3.25-1.345-3.25-3.488c0-2.255,1.499-3.586,3.362-3.586
			C411.869,381.565,413.187,382.98,413.187,385.039z M407.821,385.109c0,1.485,0.841,2.605,2.045,2.605
			c1.177,0,2.06-1.106,2.06-2.634c0-1.148-0.574-2.591-2.031-2.591C408.451,382.49,407.821,383.835,407.821,385.109z"/>
		<path d="M414.737,383.919c0-0.868-0.028-1.569-0.056-2.213h1.093l0.069,1.162h0.028c0.49-0.826,1.303-1.303,2.409-1.303
			c1.653,0,2.886,1.387,2.886,3.432c0,2.438-1.499,3.643-3.096,3.643c-0.896,0-1.681-0.393-2.087-1.064h-0.028v3.684h-1.219V383.919
			z M415.956,385.726c0,0.183,0.014,0.351,0.056,0.505c0.225,0.854,0.967,1.442,1.85,1.442c1.303,0,2.059-1.064,2.059-2.619
			c0-1.345-0.714-2.508-2.017-2.508c-0.841,0-1.639,0.589-1.863,1.513c-0.042,0.154-0.084,0.337-0.084,0.49V385.726z"/>
		<path d="M423.067,381.706l1.471,4.006c0.168,0.448,0.336,0.98,0.448,1.387h0.028c0.126-0.406,0.266-0.925,0.435-1.415l1.345-3.978
			h1.302l-1.849,4.832c-0.883,2.325-1.484,3.502-2.325,4.244c-0.616,0.519-1.205,0.729-1.513,0.785l-0.309-1.022
			c0.309-0.099,0.715-0.295,1.079-0.603c0.336-0.267,0.742-0.742,1.036-1.373c0.057-0.126,0.099-0.224,0.099-0.294
			s-0.028-0.168-0.099-0.322l-2.493-6.247H423.067z"/>
		<path d="M433.666,380.081v1.625h1.765v0.938h-1.765v3.655c0,0.841,0.237,1.317,0.924,1.317c0.336,0,0.532-0.028,0.715-0.084
			l0.056,0.938c-0.238,0.084-0.616,0.168-1.093,0.168c-0.574,0-1.036-0.196-1.33-0.519c-0.337-0.378-0.477-0.98-0.477-1.779v-3.697
			h-1.051v-0.938h1.051v-1.261L433.666,380.081z"/>
		<path d="M442.88,385.039c0,2.508-1.751,3.601-3.376,3.601c-1.821,0-3.25-1.345-3.25-3.488c0-2.255,1.499-3.586,3.362-3.586
			C441.562,381.565,442.88,382.98,442.88,385.039z M437.515,385.109c0,1.485,0.841,2.605,2.045,2.605c1.177,0,2.06-1.106,2.06-2.634
			c0-1.148-0.574-2.591-2.031-2.591C438.145,382.49,437.515,383.835,437.515,385.109z"/>
		<path d="M447.398,378.54h1.219v4.258h0.028c0.434-0.756,1.219-1.232,2.311-1.232c1.695,0,2.872,1.401,2.872,3.446
			c0,2.423-1.541,3.628-3.054,3.628c-0.98,0-1.765-0.378-2.283-1.261h-0.028l-0.07,1.106h-1.05c0.027-0.462,0.056-1.148,0.056-1.751
			V378.54z M448.617,385.768c0,0.154,0.014,0.309,0.056,0.448c0.225,0.854,0.953,1.443,1.85,1.443c1.303,0,2.059-1.051,2.059-2.605
			c0-1.359-0.7-2.521-2.031-2.521c-0.826,0-1.61,0.588-1.862,1.513c-0.042,0.154-0.07,0.322-0.07,0.519V385.768z"/>
		<path d="M455.364,383.821c0-0.799-0.014-1.485-0.056-2.115h1.078l0.057,1.345h0.042c0.308-0.911,1.064-1.485,1.891-1.485
			c0.126,0,0.224,0.015,0.336,0.028v1.162c-0.126-0.027-0.252-0.027-0.42-0.027c-0.868,0-1.485,0.645-1.653,1.568
			c-0.027,0.168-0.042,0.379-0.042,0.574v3.614h-1.232V383.821z"/>
		<path d="M461.357,379.801c0,0.42-0.294,0.756-0.784,0.756c-0.448,0-0.743-0.336-0.743-0.756s0.309-0.771,0.771-0.771
			C461.049,379.03,461.357,379.366,461.357,379.801z M459.984,388.485v-6.779h1.232v6.779H459.984z"/>
		<path d="M463.26,383.541c0-0.715-0.014-1.275-0.056-1.835h1.093l0.069,1.12h0.028c0.336-0.63,1.12-1.261,2.241-1.261
			c0.938,0,2.396,0.561,2.396,2.886v4.034h-1.233v-3.908c0-1.093-0.405-2.003-1.568-2.003c-0.799,0-1.429,0.574-1.653,1.261
			c-0.056,0.154-0.084,0.364-0.084,0.574v4.076h-1.232V383.541z"/>
		<path d="M476.829,387.491c0,1.568-0.321,2.507-0.966,3.109c-0.673,0.603-1.625,0.812-2.479,0.812
			c-0.812,0-1.709-0.196-2.255-0.561l0.308-0.952c0.448,0.294,1.148,0.546,1.989,0.546c1.261,0,2.186-0.658,2.186-2.381v-0.743
			h-0.028c-0.364,0.631-1.106,1.135-2.157,1.135c-1.681,0-2.886-1.429-2.886-3.306c0-2.297,1.499-3.586,3.067-3.586
			c1.177,0,1.808,0.603,2.115,1.163h0.028l0.042-1.022h1.093c-0.042,0.476-0.057,1.036-0.057,1.849V387.491z M475.597,384.381
			c0-0.21-0.014-0.392-0.07-0.546c-0.224-0.729-0.812-1.316-1.723-1.316c-1.177,0-2.017,0.994-2.017,2.562
			c0,1.331,0.686,2.438,2.003,2.438c0.771,0,1.457-0.476,1.709-1.261c0.069-0.21,0.098-0.448,0.098-0.658V384.381z"/>
		<path d="M483.196,379.801c0,0.42-0.294,0.756-0.784,0.756c-0.448,0-0.743-0.336-0.743-0.756s0.309-0.771,0.771-0.771
			C482.888,379.03,483.196,379.366,483.196,379.801z M481.823,388.485v-6.779h1.232v6.779H481.823z"/>
		<path d="M485.1,383.541c0-0.715-0.014-1.275-0.056-1.835h1.093l0.069,1.12h0.028c0.336-0.63,1.12-1.261,2.241-1.261
			c0.938,0,2.396,0.561,2.396,2.886v4.034h-1.233v-3.908c0-1.093-0.405-2.003-1.568-2.003c-0.799,0-1.429,0.574-1.653,1.261
			c-0.056,0.154-0.084,0.364-0.084,0.574v4.076H485.1V383.541z"/>
		<path d="M495.837,378.54h1.219v4.258h0.028c0.434-0.756,1.219-1.232,2.311-1.232c1.695,0,2.872,1.401,2.872,3.446
			c0,2.423-1.541,3.628-3.054,3.628c-0.98,0-1.765-0.378-2.283-1.261h-0.028l-0.069,1.106h-1.051
			c0.027-0.462,0.056-1.148,0.056-1.751V378.54z M497.056,385.768c0,0.154,0.014,0.309,0.056,0.448
			c0.225,0.854,0.953,1.443,1.85,1.443c1.303,0,2.059-1.051,2.059-2.605c0-1.359-0.7-2.521-2.031-2.521
			c-0.826,0-1.61,0.588-1.862,1.513c-0.042,0.154-0.07,0.322-0.07,0.519V385.768z"/>
		<path d="M508.565,386.86c0,0.589,0.028,1.163,0.098,1.625h-1.106l-0.098-0.854h-0.042c-0.378,0.532-1.106,1.009-2.073,1.009
			c-1.373,0-2.073-0.967-2.073-1.947c0-1.639,1.457-2.535,4.076-2.521v-0.14c0-0.547-0.154-1.569-1.541-1.555
			c-0.645,0-1.303,0.182-1.778,0.504l-0.28-0.826c0.56-0.351,1.387-0.589,2.241-0.589c2.073,0,2.577,1.415,2.577,2.76V386.86z
			 M507.375,385.025c-1.345-0.028-2.872,0.21-2.872,1.527c0,0.812,0.532,1.176,1.148,1.176c0.896,0,1.472-0.56,1.667-1.134
			c0.042-0.141,0.057-0.28,0.057-0.393V385.025z"/>
		<path d="M515.384,388.247c-0.322,0.154-1.037,0.393-1.947,0.393c-2.045,0-3.376-1.387-3.376-3.46c0-2.087,1.429-3.614,3.642-3.614
			c0.729,0,1.373,0.183,1.709,0.364l-0.28,0.938c-0.294-0.154-0.756-0.322-1.429-0.322c-1.555,0-2.395,1.163-2.395,2.563
			c0,1.569,1.008,2.535,2.353,2.535c0.701,0,1.163-0.168,1.514-0.322L515.384,388.247z"/>
		<path d="M518.042,384.815h0.028c0.168-0.238,0.392-0.532,0.588-0.771l2.003-2.339h1.471l-2.605,2.787l2.984,3.992h-1.513
			l-2.326-3.25l-0.63,0.7v2.55h-1.219v-9.945h1.219V384.815z"/>
		<path d="M529.229,378.54v8.194c0,0.603,0.028,1.289,0.057,1.751h-1.093l-0.056-1.177h-0.042c-0.364,0.757-1.177,1.331-2.283,1.331
			c-1.64,0-2.914-1.387-2.914-3.446c-0.014-2.255,1.4-3.628,3.04-3.628c1.05,0,1.736,0.49,2.045,1.022h0.028v-4.048H529.229z
			 M528.012,384.465c0-0.153-0.015-0.364-0.057-0.518c-0.182-0.771-0.854-1.415-1.779-1.415c-1.274,0-2.03,1.12-2.03,2.605
			c0,1.373,0.687,2.507,2.003,2.507c0.826,0,1.583-0.56,1.807-1.471c0.042-0.168,0.057-0.336,0.057-0.532V384.465z"/>
		<path d="M531.285,383.821c0-0.799-0.014-1.485-0.056-2.115h1.078l0.057,1.345h0.042c0.308-0.911,1.064-1.485,1.891-1.485
			c0.126,0,0.225,0.015,0.336,0.028v1.162c-0.126-0.027-0.252-0.027-0.42-0.027c-0.868,0-1.484,0.645-1.653,1.568
			c-0.027,0.168-0.042,0.379-0.042,0.574v3.614h-1.232V383.821z"/>
		<path d="M541.873,385.039c0,2.508-1.751,3.601-3.376,3.601c-1.821,0-3.25-1.345-3.25-3.488c0-2.255,1.499-3.586,3.362-3.586
			C540.556,381.565,541.873,382.98,541.873,385.039z M536.508,385.109c0,1.485,0.841,2.605,2.045,2.605
			c1.177,0,2.06-1.106,2.06-2.634c0-1.148-0.574-2.591-2.031-2.591C537.138,382.49,536.508,383.835,536.508,385.109z"/>
		<path d="M543.423,383.919c0-0.868-0.028-1.569-0.056-2.213h1.093l0.069,1.162h0.028c0.49-0.826,1.303-1.303,2.409-1.303
			c1.653,0,2.886,1.387,2.886,3.432c0,2.438-1.499,3.643-3.096,3.643c-0.896,0-1.681-0.393-2.087-1.064h-0.028v3.684h-1.219V383.919
			z M544.642,385.726c0,0.183,0.014,0.351,0.056,0.505c0.225,0.854,0.967,1.442,1.85,1.442c1.303,0,2.059-1.064,2.059-2.619
			c0-1.345-0.714-2.508-2.017-2.508c-0.841,0-1.639,0.589-1.863,1.513c-0.042,0.154-0.084,0.337-0.084,0.49V385.726z"/>
	</g>
	<g>
		<path d="M387.704,403.886c0.35,0.21,1.148,0.56,2.017,0.56c1.569,0,2.073-0.994,2.06-1.765c-0.015-1.274-1.163-1.821-2.354-1.821
			h-0.687v-0.924h0.687c0.896,0,2.031-0.463,2.031-1.541c0-0.729-0.463-1.373-1.597-1.373c-0.729,0-1.429,0.322-1.821,0.603
			l-0.336-0.896c0.49-0.351,1.414-0.7,2.395-0.7c1.793,0,2.605,1.064,2.605,2.171c0,0.952-0.574,1.751-1.681,2.157v0.028
			c1.121,0.21,2.018,1.05,2.031,2.325c0,1.457-1.148,2.731-3.319,2.731c-1.023,0-1.92-0.322-2.368-0.616L387.704,403.886z"/>
		<path d="M394.689,404.558c0-0.504,0.35-0.883,0.84-0.883c0.491,0,0.827,0.364,0.827,0.883c0,0.505-0.336,0.883-0.854,0.883
			C395.025,405.44,394.689,405.062,394.689,404.558z"/>
		<path d="M400.976,405.286v-5.841h-0.938v-0.938h0.938v-0.322c0-0.953,0.225-1.821,0.784-2.367
			c0.463-0.448,1.079-0.631,1.653-0.631c0.448,0,0.812,0.099,1.051,0.196l-0.168,0.952c-0.183-0.084-0.421-0.153-0.785-0.153
			c-1.05,0-1.316,0.91-1.316,1.961v0.364h1.639v0.938h-1.639v5.841H400.976z"/>
		<path d="M410.905,401.84c0,2.508-1.751,3.601-3.376,3.601c-1.821,0-3.25-1.345-3.25-3.488c0-2.255,1.499-3.586,3.362-3.586
			C409.588,398.366,410.905,399.781,410.905,401.84z M405.54,401.91c0,1.485,0.841,2.605,2.045,2.605c1.177,0,2.06-1.106,2.06-2.634
			c0-1.148-0.574-2.591-2.031-2.591C406.17,399.291,405.54,400.636,405.54,401.91z"/>
		<path d="M412.455,400.622c0-0.799-0.014-1.485-0.056-2.115h1.078l0.057,1.345h0.042c0.308-0.911,1.064-1.485,1.891-1.485
			c0.126,0,0.225,0.015,0.336,0.028v1.162c-0.126-0.027-0.252-0.027-0.42-0.027c-0.868,0-1.484,0.645-1.653,1.568
			c-0.027,0.168-0.042,0.379-0.042,0.574v3.614h-1.232V400.622z"/>
		<path d="M420.688,402.12c0.028,1.667,1.078,2.354,2.325,2.354c0.883,0,1.429-0.154,1.877-0.351l0.225,0.883
			c-0.435,0.196-1.191,0.435-2.27,0.435c-2.087,0-3.334-1.387-3.334-3.432c0-2.046,1.205-3.643,3.18-3.643
			c2.228,0,2.802,1.934,2.802,3.18c0,0.252-0.014,0.435-0.042,0.574H420.688z M424.302,401.238c0.014-0.771-0.322-1.989-1.709-1.989
			c-1.261,0-1.793,1.135-1.892,1.989H424.302z"/>
		<path d="M431.777,403.661c0,0.589,0.028,1.163,0.098,1.625h-1.106l-0.098-0.854h-0.042c-0.379,0.532-1.106,1.009-2.073,1.009
			c-1.373,0-2.073-0.967-2.073-1.947c0-1.639,1.457-2.535,4.076-2.521v-0.14c0-0.547-0.154-1.569-1.541-1.555
			c-0.645,0-1.303,0.182-1.778,0.504l-0.28-0.826c0.56-0.351,1.387-0.589,2.241-0.589c2.073,0,2.577,1.415,2.577,2.76V403.661z
			 M430.587,401.826c-1.345-0.028-2.872,0.21-2.872,1.527c0,0.812,0.532,1.176,1.148,1.176c0.896,0,1.472-0.56,1.667-1.134
			c0.042-0.141,0.057-0.28,0.057-0.393V401.826z"/>
		<path d="M438.596,405.048c-0.322,0.154-1.037,0.393-1.947,0.393c-2.045,0-3.376-1.387-3.376-3.46c0-2.087,1.429-3.614,3.642-3.614
			c0.729,0,1.373,0.183,1.709,0.364l-0.279,0.938c-0.295-0.154-0.757-0.322-1.43-0.322c-1.555,0-2.395,1.163-2.395,2.563
			c0,1.569,1.008,2.535,2.353,2.535c0.701,0,1.163-0.168,1.514-0.322L438.596,405.048z"/>
		<path d="M440.034,395.341h1.232v4.244h0.028c0.196-0.351,0.504-0.672,0.883-0.883c0.364-0.21,0.798-0.336,1.261-0.336
			c0.91,0,2.367,0.561,2.367,2.886v4.034h-1.233v-3.895c0-1.092-0.406-2.003-1.568-2.003c-0.799,0-1.415,0.561-1.653,1.219
			c-0.069,0.183-0.084,0.364-0.084,0.589v4.09h-1.232V395.341z"/>
		<path d="M450.604,404.039c0.378,0.225,1.022,0.477,1.639,0.477c0.883,0,1.303-0.435,1.303-1.009c0-0.588-0.35-0.896-1.246-1.232
			c-1.233-0.448-1.808-1.106-1.808-1.919c0-1.093,0.896-1.989,2.34-1.989c0.686,0,1.288,0.183,1.652,0.421l-0.294,0.896
			c-0.267-0.169-0.757-0.406-1.387-0.406c-0.729,0-1.121,0.42-1.121,0.924c0,0.561,0.393,0.812,1.275,1.163
			c1.162,0.434,1.778,1.022,1.778,2.031c0,1.204-0.938,2.045-2.521,2.045c-0.742,0-1.429-0.196-1.904-0.477L450.604,404.039z"/>
		<path d="M456.316,395.341h1.232v4.244h0.028c0.196-0.351,0.504-0.672,0.883-0.883c0.364-0.21,0.798-0.336,1.261-0.336
			c0.91,0,2.367,0.561,2.367,2.886v4.034h-1.233v-3.895c0-1.092-0.405-2.003-1.568-2.003c-0.799,0-1.415,0.561-1.653,1.219
			c-0.069,0.183-0.084,0.364-0.084,0.589v4.09h-1.232V395.341z"/>
		<path d="M468.849,403.661c0,0.589,0.028,1.163,0.098,1.625h-1.106l-0.098-0.854H467.7c-0.378,0.532-1.106,1.009-2.073,1.009
			c-1.373,0-2.073-0.967-2.073-1.947c0-1.639,1.457-2.535,4.076-2.521v-0.14c0-0.547-0.154-1.569-1.541-1.555
			c-0.645,0-1.303,0.182-1.778,0.504l-0.28-0.826c0.56-0.351,1.387-0.589,2.241-0.589c2.073,0,2.577,1.415,2.577,2.76V403.661z
			 M467.658,401.826c-1.345-0.028-2.872,0.21-2.872,1.527c0,0.812,0.532,1.176,1.148,1.176c0.896,0,1.472-0.56,1.667-1.134
			c0.042-0.141,0.057-0.28,0.057-0.393V401.826z"/>
		<path d="M470.834,400.72c0-0.868-0.028-1.569-0.056-2.213h1.093l0.069,1.162h0.028c0.49-0.826,1.303-1.303,2.409-1.303
			c1.653,0,2.886,1.387,2.886,3.432c0,2.438-1.499,3.643-3.096,3.643c-0.896,0-1.681-0.393-2.087-1.064h-0.028v3.684h-1.219V400.72z
			 M472.053,402.526c0,0.183,0.014,0.351,0.056,0.505c0.225,0.854,0.967,1.442,1.85,1.442c1.303,0,2.059-1.064,2.059-2.619
			c0-1.345-0.714-2.508-2.017-2.508c-0.841,0-1.639,0.589-1.863,1.513c-0.042,0.154-0.084,0.337-0.084,0.49V402.526z"/>
		<path d="M479.486,402.12c0.028,1.667,1.078,2.354,2.325,2.354c0.883,0,1.429-0.154,1.877-0.351l0.225,0.883
			c-0.435,0.196-1.191,0.435-2.27,0.435c-2.087,0-3.334-1.387-3.334-3.432c0-2.046,1.205-3.643,3.18-3.643
			c2.228,0,2.802,1.934,2.802,3.18c0,0.252-0.014,0.435-0.042,0.574H479.486z M483.101,401.238c0.014-0.771-0.322-1.989-1.709-1.989
			c-1.261,0-1.793,1.135-1.892,1.989H483.101z"/>
		<path d="M484.861,407.023c0.309-0.841,0.687-2.34,0.841-3.362l1.373-0.14c-0.336,1.19-0.953,2.745-1.345,3.403L484.861,407.023z"
			/>
		<path d="M491.525,400.72c0-0.868-0.028-1.569-0.056-2.213h1.093l0.069,1.162h0.028c0.49-0.826,1.303-1.303,2.409-1.303
			c1.653,0,2.886,1.387,2.886,3.432c0,2.438-1.499,3.643-3.096,3.643c-0.896,0-1.681-0.393-2.087-1.064h-0.028v3.684h-1.219V400.72z
			 M492.744,402.526c0,0.183,0.014,0.351,0.056,0.505c0.225,0.854,0.967,1.442,1.85,1.442c1.303,0,2.059-1.064,2.059-2.619
			c0-1.345-0.714-2.508-2.017-2.508c-0.841,0-1.639,0.589-1.863,1.513c-0.042,0.154-0.084,0.337-0.084,0.49V402.526z"/>
		<path d="M505.164,403.423c0,0.715,0.015,1.331,0.057,1.863h-1.093l-0.07-1.106h-0.028c-0.308,0.546-1.036,1.261-2.241,1.261
			c-1.064,0-2.339-0.603-2.339-2.97v-3.964h1.232v3.739c0,1.289,0.406,2.172,1.513,2.172c0.827,0,1.401-0.574,1.625-1.135
			c0.07-0.168,0.112-0.393,0.112-0.631v-4.146h1.232V403.423z"/>
		<path d="M508.69,396.882v1.625h1.765v0.938h-1.765v3.655c0,0.841,0.237,1.317,0.924,1.317c0.336,0,0.532-0.028,0.715-0.084
			l0.056,0.938c-0.238,0.084-0.616,0.168-1.093,0.168c-0.574,0-1.036-0.196-1.33-0.519c-0.337-0.378-0.477-0.98-0.477-1.779v-3.697
			h-1.051v-0.938h1.051v-1.261L508.69,396.882z"/>
		<path d="M519.569,403.661c0,0.589,0.028,1.163,0.098,1.625h-1.106l-0.098-0.854h-0.042c-0.378,0.532-1.106,1.009-2.073,1.009
			c-1.373,0-2.073-0.967-2.073-1.947c0-1.639,1.457-2.535,4.076-2.521v-0.14c0-0.547-0.154-1.569-1.541-1.555
			c-0.645,0-1.303,0.182-1.778,0.504l-0.28-0.826c0.56-0.351,1.387-0.589,2.241-0.589c2.073,0,2.577,1.415,2.577,2.76V403.661z
			 M518.379,401.826c-1.345-0.028-2.872,0.21-2.872,1.527c0,0.812,0.532,1.176,1.148,1.176c0.896,0,1.472-0.56,1.667-1.134
			c0.042-0.141,0.057-0.28,0.057-0.393V401.826z"/>
		<path d="M521.555,395.341h1.232v9.945h-1.232V395.341z"/>
		<path d="M524.858,400.72c0-0.868-0.028-1.569-0.056-2.213h1.093l0.069,1.162h0.028c0.49-0.826,1.303-1.303,2.409-1.303
			c1.653,0,2.886,1.387,2.886,3.432c0,2.438-1.499,3.643-3.096,3.643c-0.896,0-1.681-0.393-2.087-1.064h-0.028v3.684h-1.219V400.72z
			 M526.077,402.526c0,0.183,0.014,0.351,0.056,0.505c0.225,0.854,0.967,1.442,1.85,1.442c1.303,0,2.059-1.064,2.059-2.619
			c0-1.345-0.714-2.508-2.017-2.508c-0.841,0-1.639,0.589-1.863,1.513c-0.042,0.154-0.084,0.337-0.084,0.49V402.526z"/>
		<path d="M532.824,395.341h1.232v4.244h0.028c0.196-0.351,0.504-0.672,0.883-0.883c0.364-0.21,0.798-0.336,1.261-0.336
			c0.91,0,2.367,0.561,2.367,2.886v4.034h-1.233v-3.895c0-1.092-0.405-2.003-1.568-2.003c-0.799,0-1.415,0.561-1.653,1.219
			c-0.069,0.183-0.084,0.364-0.084,0.589v4.09h-1.232V395.341z"/>
		<path d="M545.357,403.661c0,0.589,0.028,1.163,0.098,1.625h-1.106l-0.098-0.854h-0.042c-0.379,0.532-1.106,1.009-2.073,1.009
			c-1.373,0-2.073-0.967-2.073-1.947c0-1.639,1.457-2.535,4.076-2.521v-0.14c0-0.547-0.154-1.569-1.541-1.555
			c-0.645,0-1.303,0.182-1.778,0.504l-0.28-0.826c0.56-0.351,1.387-0.589,2.241-0.589c2.073,0,2.577,1.415,2.577,2.76V403.661z
			 M544.167,401.826c-1.345-0.028-2.872,0.21-2.872,1.527c0,0.812,0.532,1.176,1.148,1.176c0.896,0,1.472-0.56,1.667-1.134
			c0.042-0.141,0.057-0.28,0.057-0.393V401.826z"/>
		<path d="M551.684,396.602c0,0.42-0.294,0.756-0.784,0.756c-0.448,0-0.743-0.336-0.743-0.756s0.309-0.771,0.771-0.771
			C551.375,395.831,551.684,396.167,551.684,396.602z M550.311,405.286v-6.779h1.232v6.779H550.311z"/>
		<path d="M553.586,400.342c0-0.715-0.014-1.275-0.056-1.835h1.093l0.069,1.12h0.028c0.336-0.63,1.12-1.261,2.241-1.261
			c0.938,0,2.396,0.561,2.396,2.886v4.034h-1.233v-3.908c0-1.093-0.405-2.003-1.568-2.003c-0.799,0-1.429,0.574-1.653,1.261
			c-0.056,0.154-0.084,0.364-0.084,0.574v4.076h-1.232V400.342z"/>
		<path d="M564.324,400.342c0-0.715-0.027-1.275-0.057-1.835h1.08l0.055,1.106h0.043c0.377-0.645,1.008-1.247,2.143-1.247
			c0.91,0,1.611,0.561,1.904,1.359h0.029c0.209-0.393,0.49-0.673,0.77-0.883c0.406-0.309,0.842-0.477,1.484-0.477
			c0.912,0,2.242,0.589,2.242,2.941v3.979h-1.205v-3.824c0-1.316-0.49-2.087-1.471-2.087c-0.715,0-1.246,0.519-1.471,1.106
			c-0.057,0.183-0.098,0.393-0.098,0.616v4.188h-1.205v-4.062c0-1.078-0.477-1.849-1.414-1.849c-0.758,0-1.332,0.616-1.527,1.232
			c-0.07,0.168-0.098,0.393-0.098,0.603v4.076h-1.205V400.342z"/>
		<path d="M580.762,403.661c0,0.589,0.027,1.163,0.098,1.625h-1.105l-0.1-0.854h-0.041c-0.379,0.532-1.107,1.009-2.074,1.009
			c-1.371,0-2.072-0.967-2.072-1.947c0-1.639,1.457-2.535,4.076-2.521v-0.14c0-0.547-0.154-1.569-1.541-1.555
			c-0.645,0-1.303,0.182-1.779,0.504l-0.279-0.826c0.561-0.351,1.387-0.589,2.24-0.589c2.074,0,2.578,1.415,2.578,2.76V403.661z
			 M579.57,401.826c-1.344-0.028-2.871,0.21-2.871,1.527c0,0.812,0.533,1.176,1.148,1.176c0.896,0,1.471-0.56,1.668-1.134
			c0.041-0.141,0.055-0.28,0.055-0.393V401.826z"/>
		<path d="M582.578,404.039c0.379,0.225,1.023,0.477,1.641,0.477c0.881,0,1.303-0.435,1.303-1.009c0-0.588-0.352-0.896-1.248-1.232
			c-1.232-0.448-1.807-1.106-1.807-1.919c0-1.093,0.896-1.989,2.34-1.989c0.686,0,1.289,0.183,1.652,0.421l-0.295,0.896
			c-0.266-0.169-0.756-0.406-1.387-0.406c-0.727,0-1.119,0.42-1.119,0.924c0,0.561,0.393,0.812,1.273,1.163
			c1.164,0.434,1.779,1.022,1.779,2.031c0,1.204-0.938,2.045-2.521,2.045c-0.742,0-1.428-0.196-1.904-0.477L582.578,404.039z"/>
		<path d="M589.51,401.616h0.029c0.168-0.238,0.393-0.532,0.588-0.771l2.004-2.339h1.471l-2.605,2.787l2.982,3.992h-1.512
			l-2.326-3.25l-0.631,0.7v2.55h-1.217v-9.945h1.217V401.616z"/>
		<path d="M597.826,395.341h1.219v4.258h0.027c0.434-0.756,1.219-1.232,2.311-1.232c1.695,0,2.871,1.401,2.871,3.446
			c0,2.423-1.539,3.628-3.053,3.628c-0.98,0-1.766-0.378-2.283-1.261h-0.027l-0.07,1.106h-1.051
			c0.027-0.462,0.057-1.148,0.057-1.751V395.341z M599.045,402.568c0,0.154,0.014,0.309,0.055,0.448
			c0.225,0.854,0.953,1.443,1.85,1.443c1.303,0,2.059-1.051,2.059-2.605c0-1.359-0.699-2.521-2.031-2.521
			c-0.826,0-1.611,0.588-1.863,1.513c-0.041,0.154-0.068,0.322-0.068,0.519V402.568z"/>
		<path d="M611.465,403.423c0,0.715,0.014,1.331,0.057,1.863h-1.094l-0.068-1.106h-0.029c-0.309,0.546-1.035,1.261-2.24,1.261
			c-1.064,0-2.34-0.603-2.34-2.97v-3.964h1.232v3.739c0,1.289,0.406,2.172,1.514,2.172c0.826,0,1.4-0.574,1.625-1.135
			c0.07-0.168,0.111-0.393,0.111-0.631v-4.146h1.232V403.423z"/>
		<path d="M617.707,405.286v-5.841h-2.857v5.841h-1.219v-5.841h-0.938v-0.938h0.938v-0.211c0-0.952,0.225-1.765,0.756-2.311
			c0.393-0.393,0.953-0.631,1.709-0.631c0.393,0,0.758,0.126,0.967,0.238l-0.252,0.925c-0.182-0.099-0.447-0.183-0.729-0.183
			c-0.967,0-1.232,0.827-1.232,1.892v0.28h2.857v-0.322c0-0.953,0.211-1.821,0.785-2.367c0.461-0.448,1.078-0.631,1.639-0.631
			c0.447,0,0.826,0.099,1.051,0.196l-0.154,0.952c-0.197-0.084-0.434-0.153-0.799-0.153c-1.037,0-1.303,0.91-1.303,1.961v0.364
			h1.625v0.938h-1.625v5.841H617.707z"/>
		<path d="M622.186,402.12c0.027,1.667,1.078,2.354,2.324,2.354c0.883,0,1.43-0.154,1.879-0.351l0.223,0.883
			c-0.434,0.196-1.189,0.435-2.27,0.435c-2.086,0-3.332-1.387-3.332-3.432c0-2.046,1.203-3.643,3.18-3.643
			c2.227,0,2.801,1.934,2.801,3.18c0,0.252-0.014,0.435-0.043,0.574H622.186z M625.799,401.238c0.014-0.771-0.322-1.989-1.709-1.989
			c-1.26,0-1.793,1.135-1.891,1.989H625.799z"/>
		<path d="M628.514,400.622c0-0.799-0.016-1.485-0.057-2.115h1.078l0.057,1.345h0.041c0.309-0.911,1.064-1.485,1.893-1.485
			c0.125,0,0.223,0.015,0.336,0.028v1.162c-0.127-0.027-0.252-0.027-0.422-0.027c-0.867,0-1.484,0.645-1.652,1.568
			c-0.027,0.168-0.041,0.379-0.041,0.574v3.614h-1.232V400.622z"/>
	</g>
	<g>
		<path d="M391.22,422.086v-2.493h-4.23v-0.799l4.062-5.812h1.331v5.658h1.274v0.953h-1.274v2.493H391.22z M391.22,418.64v-3.039
			c0-0.477,0.014-0.953,0.042-1.429h-0.042c-0.28,0.532-0.504,0.924-0.757,1.345l-2.227,3.096v0.027H391.22z"/>
		<path d="M394.689,421.357c0-0.504,0.35-0.883,0.84-0.883c0.491,0,0.827,0.364,0.827,0.883c0,0.504-0.336,0.883-0.854,0.883
			C395.025,422.24,394.689,421.861,394.689,421.357z"/>
		<path d="M400.85,417.422c0-0.799-0.014-1.485-0.056-2.115h1.078l0.057,1.345h0.042c0.308-0.911,1.064-1.485,1.891-1.485
			c0.126,0,0.225,0.015,0.336,0.028v1.162c-0.126-0.027-0.252-0.027-0.42-0.027c-0.868,0-1.484,0.645-1.653,1.568
			c-0.027,0.168-0.042,0.378-0.042,0.574v3.614h-1.232V417.422z"/>
		<path d="M405.987,418.92c0.028,1.667,1.078,2.354,2.325,2.354c0.883,0,1.429-0.154,1.877-0.351l0.225,0.883
			c-0.435,0.196-1.191,0.435-2.27,0.435c-2.087,0-3.334-1.387-3.334-3.432c0-2.046,1.205-3.643,3.18-3.643
			c2.228,0,2.802,1.934,2.802,3.18c0,0.252-0.015,0.435-0.042,0.574H405.987z M409.602,418.038c0.014-0.771-0.322-1.989-1.709-1.989
			c-1.261,0-1.793,1.135-1.892,1.989H409.602z"/>
		<path d="M412.315,417.142c0-0.715-0.028-1.275-0.056-1.835h1.078l0.057,1.106h0.042c0.378-0.645,1.008-1.247,2.143-1.247
			c0.911,0,1.611,0.561,1.905,1.359h0.028c0.21-0.393,0.49-0.673,0.771-0.883c0.406-0.309,0.84-0.477,1.484-0.477
			c0.91,0,2.241,0.589,2.241,2.941v3.979h-1.205v-3.824c0-1.316-0.49-2.087-1.471-2.087c-0.714,0-1.246,0.519-1.471,1.106
			c-0.056,0.183-0.098,0.393-0.098,0.616v4.188h-1.205v-4.062c0-1.078-0.476-1.849-1.414-1.849c-0.757,0-1.331,0.616-1.527,1.232
			c-0.07,0.168-0.098,0.393-0.098,0.603v4.076h-1.205V417.142z"/>
		<path d="M430.127,418.64c0,2.508-1.751,3.601-3.376,3.601c-1.821,0-3.25-1.345-3.25-3.488c0-2.255,1.499-3.586,3.362-3.586
			C428.81,415.166,430.127,416.581,430.127,418.64z M424.762,418.71c0,1.485,0.841,2.605,2.045,2.605c1.177,0,2.06-1.106,2.06-2.634
			c0-1.148-0.574-2.591-2.031-2.591C425.392,416.091,424.762,417.436,424.762,418.71z"/>
		<path d="M432.069,415.307l1.33,3.796c0.225,0.63,0.406,1.19,0.547,1.751h0.042c0.154-0.561,0.35-1.121,0.574-1.751l1.316-3.796
			h1.289l-2.661,6.779h-1.177l-2.578-6.779H432.069z"/>
		<path d="M438.873,418.92c0.028,1.667,1.078,2.354,2.325,2.354c0.883,0,1.429-0.154,1.877-0.351l0.225,0.883
			c-0.435,0.196-1.191,0.435-2.27,0.435c-2.087,0-3.334-1.387-3.334-3.432c0-2.046,1.205-3.643,3.18-3.643
			c2.228,0,2.802,1.934,2.802,3.18c0,0.252-0.014,0.435-0.042,0.574H438.873z M442.487,418.038c0.014-0.771-0.322-1.989-1.709-1.989
			c-1.261,0-1.793,1.135-1.892,1.989H442.487z"/>
		<path d="M448.169,412.141h1.219v4.258h0.028c0.434-0.756,1.219-1.232,2.311-1.232c1.695,0,2.872,1.401,2.872,3.446
			c0,2.423-1.541,3.628-3.054,3.628c-0.98,0-1.765-0.379-2.283-1.261h-0.028l-0.069,1.106h-1.051
			c0.027-0.462,0.056-1.148,0.056-1.751V412.141z M449.388,419.368c0,0.154,0.014,0.309,0.056,0.448
			c0.225,0.854,0.953,1.443,1.85,1.443c1.303,0,2.059-1.051,2.059-2.605c0-1.359-0.7-2.521-2.031-2.521
			c-0.826,0-1.61,0.588-1.862,1.513c-0.042,0.154-0.07,0.322-0.07,0.519V419.368z"/>
		<path d="M460.897,420.461c0,0.589,0.028,1.163,0.098,1.625h-1.106l-0.098-0.854h-0.042c-0.378,0.532-1.106,1.009-2.073,1.009
			c-1.373,0-2.073-0.967-2.073-1.947c0-1.639,1.457-2.535,4.076-2.521v-0.14c0-0.547-0.154-1.569-1.541-1.555
			c-0.645,0-1.303,0.182-1.778,0.504l-0.28-0.826c0.56-0.351,1.387-0.589,2.241-0.589c2.073,0,2.577,1.415,2.577,2.76V420.461z
			 M459.707,418.626c-1.345-0.028-2.872,0.21-2.872,1.527c0,0.812,0.532,1.176,1.148,1.176c0.896,0,1.472-0.56,1.667-1.134
			c0.042-0.141,0.057-0.28,0.057-0.393V418.626z"/>
		<path d="M467.715,421.848c-0.322,0.154-1.037,0.393-1.947,0.393c-2.045,0-3.376-1.387-3.376-3.46c0-2.087,1.429-3.614,3.642-3.614
			c0.729,0,1.373,0.183,1.709,0.364l-0.279,0.938c-0.295-0.154-0.757-0.322-1.43-0.322c-1.555,0-2.395,1.163-2.395,2.563
			c0,1.569,1.008,2.535,2.353,2.535c0.701,0,1.163-0.168,1.514-0.322L467.715,421.848z"/>
		<path d="M470.373,418.416h0.028c0.168-0.238,0.392-0.532,0.588-0.771l2.003-2.339h1.471l-2.605,2.787l2.984,3.992h-1.513
			l-2.326-3.25l-0.63,0.7v2.55h-1.219v-9.945h1.219V418.416z"/>
		<path d="M481.561,412.141v8.194c0,0.603,0.028,1.289,0.057,1.751h-1.093l-0.056-1.177h-0.042
			c-0.364,0.757-1.177,1.331-2.283,1.331c-1.64,0-2.914-1.387-2.914-3.446c-0.014-2.255,1.4-3.628,3.04-3.628
			c1.05,0,1.736,0.49,2.045,1.022h0.028v-4.048H481.561z M480.343,418.065c0-0.153-0.015-0.364-0.057-0.518
			c-0.182-0.771-0.854-1.415-1.778-1.415c-1.275,0-2.031,1.12-2.031,2.605c0,1.373,0.686,2.507,2.003,2.507
			c0.826,0,1.583-0.56,1.807-1.471c0.042-0.168,0.057-0.336,0.057-0.532V418.065z"/>
		<path d="M483.616,417.422c0-0.799-0.014-1.485-0.056-2.115h1.078l0.057,1.345h0.042c0.308-0.911,1.064-1.485,1.891-1.485
			c0.126,0,0.224,0.015,0.336,0.028v1.162c-0.126-0.027-0.252-0.027-0.42-0.027c-0.868,0-1.485,0.645-1.653,1.568
			c-0.027,0.168-0.042,0.378-0.042,0.574v3.614h-1.232V417.422z"/>
		<path d="M494.204,418.64c0,2.508-1.751,3.601-3.376,3.601c-1.821,0-3.25-1.345-3.25-3.488c0-2.255,1.499-3.586,3.362-3.586
			C492.887,415.166,494.204,416.581,494.204,418.64z M488.839,418.71c0,1.485,0.841,2.605,2.045,2.605
			c1.177,0,2.06-1.106,2.06-2.634c0-1.148-0.574-2.591-2.031-2.591C489.469,416.091,488.839,417.436,488.839,418.71z"/>
		<path d="M495.754,417.52c0-0.868-0.028-1.569-0.056-2.213h1.093l0.069,1.162h0.028c0.49-0.826,1.303-1.303,2.409-1.303
			c1.653,0,2.886,1.387,2.886,3.432c0,2.438-1.499,3.643-3.096,3.643c-0.896,0-1.681-0.393-2.087-1.064h-0.028v3.684h-1.219V417.52z
			 M496.973,419.326c0,0.183,0.014,0.351,0.056,0.505c0.225,0.854,0.967,1.442,1.85,1.442c1.303,0,2.059-1.064,2.059-2.619
			c0-1.345-0.714-2.508-2.017-2.508c-0.841,0-1.639,0.589-1.863,1.513c-0.042,0.154-0.084,0.337-0.084,0.49V419.326z"/>
	</g>
</g>
</svg>
