<?xml version="1.0" encoding="utf-8"?>
<!-- Generator: Adobe Illustrator 15.1.0, SVG Export Plug-In . SVG Version: 6.00 Build 0)  -->
<!DOCTYPE svg PUBLIC "-//W3C//DTD SVG 1.1//EN" "http://www.w3.org/Graphics/SVG/1.1/DTD/svg11.dtd">
<svg version="1.1" id="Layer_1" xmlns="http://www.w3.org/2000/svg" xmlns:xlink="http://www.w3.org/1999/xlink" x="0px" y="0px"
	 width="640px" height="480px" viewBox="0 0 640 480" enable-background="new 0 0 640 480" xml:space="preserve">
<g>
	<rect x="141.222" y="129.333" fill="#FFFFFF" width="124.444" height="86.778"/>
	<polygon points="265.667,216.112 265.667,215.612 141.722,215.612 141.722,129.833 265.167,129.833 265.167,216.112 
		265.667,216.112 265.667,215.612 265.667,216.112 266.167,216.112 266.167,128.833 140.722,128.833 140.722,216.612 
		266.167,216.612 266.167,216.112 	"/>
	<polyline fill="#FFFFFF" points="429.666,217.278 305.222,217.278 305.222,130.5 429.666,130.5 429.666,217.278 	"/>
	<polyline points="429.666,217.278 429.666,216.778 305.722,216.778 305.722,131 429.166,131 429.166,217.278 429.666,217.278 
		429.666,216.778 429.666,217.278 430.166,217.278 430.166,130 304.722,130 304.722,217.778 430.166,217.778 430.166,217.278 
		429.666,217.278 	"/>
	<polyline fill="#FFFFFF" points="433.666,333.389 309.223,333.389 309.223,246.611 433.666,246.611 433.666,333.389 	"/>
	<polyline points="433.666,333.389 433.666,332.889 309.723,332.889 309.723,247.111 433.166,247.111 433.166,333.389 
		433.666,333.389 433.666,332.889 433.666,333.389 434.166,333.389 434.166,246.111 308.723,246.111 308.723,333.889 
		434.166,333.889 434.166,333.389 433.666,333.389 	"/>
	<polyline fill="#FFFFFF" points="598.11,219.666 473.666,219.666 473.666,132.889 598.11,132.889 598.11,219.666 	"/>
	<polygon points="598.11,219.666 598.11,219.166 474.166,219.166 474.166,133.389 597.61,133.389 597.61,219.666 598.11,219.666 
		598.11,219.166 598.11,219.666 598.61,219.666 598.61,132.389 473.166,132.389 473.166,220.166 598.61,220.166 598.61,219.666 	"/>
	<polyline fill="#FFFFFF" points="265.667,333.389 141.222,333.389 141.222,246.611 265.667,246.611 265.667,333.389 	"/>
	<polyline points="265.667,333.389 265.667,332.889 141.722,332.889 141.722,247.111 265.167,247.111 265.167,333.389 
		265.667,333.389 265.667,332.889 265.667,333.389 266.167,333.389 266.167,246.111 140.722,246.111 140.722,333.889 
		266.167,333.889 266.167,333.389 265.667,333.389 	"/>
	<polyline fill="#FFFFFF" points="598.111,367.11 473.668,367.11 473.668,246.611 598.111,246.611 598.111,367.11 	"/>
	<polygon points="598.111,367.11 598.111,366.61 474.168,366.61 474.168,247.111 597.611,247.111 597.611,367.11 598.111,367.11 
		598.111,366.61 598.111,367.11 598.611,367.11 598.611,246.111 473.168,246.111 473.168,367.61 598.611,367.61 598.611,367.11 	"/>
	<rect x="305.222" y="18.222" fill="#FFFFFF" width="124.444" height="86.777"/>
	<polygon points="429.666,105 429.666,104.5 305.722,104.5 305.722,18.722 429.166,18.722 429.166,105 429.666,105 429.666,104.5 
		429.666,105 430.166,105 430.166,17.722 304.722,17.722 304.722,105.5 430.166,105.5 430.166,105 	"/>
	<rect x="309.223" y="358.722" fill="#FFFFFF" width="124.443" height="86.777"/>
	<polygon points="433.666,445.499 433.666,444.999 309.723,444.999 309.723,359.222 433.166,359.222 433.166,445.499 
		433.666,445.499 433.666,444.999 433.666,445.499 434.166,445.499 434.166,358.222 308.723,358.222 308.723,445.999 
		434.166,445.999 434.166,445.499 	"/>
	<circle fill="#FF00FF" cx="180" cy="173.889" r="35"/>
	<path d="M215,173.889h-0.5c0,9.528-3.861,18.15-10.105,24.395c-6.245,6.244-14.866,10.104-24.395,10.105
		c-9.529,0-18.15-3.861-24.395-10.105c-6.244-6.245-10.105-14.866-10.105-24.395s3.861-18.15,10.105-24.395
		c6.245-6.244,14.866-10.105,24.395-10.105c9.528,0,18.15,3.861,24.395,10.105c6.244,6.245,10.104,14.866,10.105,24.395H215h0.5
		c0-19.606-15.894-35.5-35.5-35.5c-19.606,0-35.5,15.894-35.5,35.5c0,19.606,15.894,35.5,35.5,35.5c19.606,0,35.5-15.894,35.5-35.5
		H215z"/>
	<path fill="#00FFFF" d="M426.666,173.889c0,19.331-15.67,35-35,35s-35-15.67-35-35c0-19.33,15.67-35,35-35
		S426.666,154.559,426.666,173.889"/>
	<path d="M426.666,173.889h-0.5c0,9.529-3.86,18.151-10.104,24.396c-6.245,6.244-14.867,10.105-24.396,10.105
		s-18.15-3.861-24.396-10.105c-6.244-6.245-10.104-14.867-10.104-24.396s3.86-18.15,10.104-24.395
		c6.245-6.244,14.867-10.104,24.396-10.105c9.528,0,18.15,3.861,24.396,10.105c6.244,6.245,10.104,14.866,10.104,24.395H426.666h0.5
		c0-19.606-15.894-35.5-35.5-35.5c-19.606,0-35.5,15.894-35.5,35.5c0,19.607,15.894,35.5,35.5,35.5c19.606,0,35.5-15.894,35.5-35.5
		H426.666"/>
	<path fill="#FF00FF" d="M549.777,290c0,19.33-15.67,35-35,35s-35-15.67-35-35s15.67-35,35-35S549.777,270.67,549.777,290"/>
	<path d="M549.777,290h-0.5c0,9.528-3.86,18.15-10.104,24.396c-6.245,6.244-14.867,10.104-24.396,10.104s-18.15-3.86-24.396-10.104
		c-6.244-6.245-10.104-14.867-10.104-24.396s3.86-18.15,10.104-24.396c6.245-6.244,14.867-10.104,24.396-10.104
		s18.15,3.86,24.396,10.104c6.244,6.245,10.104,14.867,10.104,24.396H549.777h0.5c0-19.606-15.894-35.5-35.5-35.5
		s-35.5,15.894-35.5,35.5s15.894,35.5,35.5,35.5s35.5-15.894,35.5-35.5H549.777"/>
	<path fill="#00FFFF" d="M556.999,255.5c-7.582,0-14.59,2.444-20.282,6.589c7.343,5.779,12.349,14.395,13.368,24.194
		c2.236-0.441,4.548-0.673,6.914-0.673c13.578,0,25.376,7.622,31.347,18.821c2.025-4.391,3.154-9.278,3.154-14.432h0.5l0,0h-0.5
		c0-9.528-3.86-18.15-10.104-24.396C575.15,259.36,566.528,255.5,556.999,255.5"/>
	<path fill="#0000FF" d="M535.888,262.711c-1.155,0.896-2.252,1.861-3.284,2.894c-5.468,5.469-9.108,12.761-9.929,20.888
		c4.86,1.104,9.338,3.203,13.213,6.074c3.876-2.871,8.354-4.971,13.214-6.074c-0.821-8.127-4.461-15.419-9.929-20.888
		C538.141,264.572,537.044,263.606,535.888,262.711"/>
	<path d="M536.717,262.089c-0.279,0.203-0.556,0.411-0.829,0.622c1.156,0.896,2.253,1.861,3.285,2.894
		c5.468,5.469,9.107,12.761,9.929,20.888c0.325-0.074,0.654-0.144,0.983-0.209C549.065,276.483,544.06,267.868,536.717,262.089"/>
	<path d="M592.5,290H592h-0.5c0,5.153-1.129,10.041-3.154,14.432c0.198,0.371,0.389,0.745,0.573,1.124
		C591.213,300.858,592.5,295.579,592.5,290 M556.999,254.5c-7.907,0-15.21,2.585-21.111,6.956c0.279,0.207,0.557,0.419,0.829,0.633
		c5.692-4.145,12.7-6.589,20.282-6.589c9.529,0,18.151,3.86,24.396,10.104C587.64,271.85,591.5,280.472,591.5,290h0.5h0.5l0,0
		C592.5,270.394,576.606,254.5,556.999,254.5"/>
	<path d="M535.06,262.089c-7.343,5.779-12.349,14.395-13.368,24.194c0.329,0.065,0.658,0.135,0.983,0.209
		c0.82-8.127,4.461-15.419,9.929-20.888c1.032-1.032,2.129-1.998,3.284-2.894C535.615,262.5,535.339,262.292,535.06,262.089"/>
	<path d="M535.888,261.456c-0.278,0.207-0.556,0.419-0.828,0.633c0.279,0.203,0.556,0.411,0.828,0.622
		c0.273-0.211,0.55-0.419,0.829-0.622C536.444,261.875,536.167,261.663,535.888,261.456"/>
	<path fill="#FFFF00" d="M483.432,306.679c-2.025,4.391-3.154,9.279-3.154,14.433c0,9.528,3.86,18.15,10.104,24.396
		c6.245,6.244,14.867,10.104,24.396,10.104c7.582,0,14.59-2.444,20.282-6.589c-7.343-5.779-12.349-14.396-13.368-24.195
		c-2.236,0.441-4.548,0.673-6.914,0.673C501.2,325.5,489.402,317.878,483.432,306.679"/>
	<path fill="#FF0000" d="M514.777,286.61c-9.528,0-18.15,3.86-24.396,10.104c-2.576,2.577-4.746,5.558-6.407,8.841
		c1.661,3.282,3.831,6.263,6.407,8.84c6.245,6.244,14.867,10.104,24.396,10.104c2.336,0,4.618-0.232,6.824-0.675
		c-0.068-0.896-0.103-1.801-0.103-2.714c0-5.579,1.287-10.858,3.581-15.556c-2.294-4.697-3.581-9.977-3.581-15.556
		c0-0.913,0.034-1.819,0.103-2.715C519.396,286.843,517.113,286.61,514.777,286.61"/>
	<path d="M483.975,305.556c-0.188,0.37-0.369,0.745-0.543,1.123c5.971,11.199,17.769,18.821,31.346,18.821
		c2.366,0,4.678-0.231,6.914-0.673c-0.035-0.333-0.064-0.666-0.09-1.002c-2.206,0.442-4.488,0.675-6.824,0.675
		c-9.528,0-18.15-3.86-24.396-10.104C487.806,311.818,485.636,308.838,483.975,305.556"/>
	<path d="M522.588,287.498c-0.059,0.826-0.089,1.66-0.089,2.502c0,5.153,1.13,10.041,3.154,14.432
		c2.329-4.368,5.544-8.192,9.406-11.232C531.385,290.523,527.161,288.557,522.588,287.498"/>
	<path d="M521.602,287.285c-0.068,0.896-0.103,1.802-0.103,2.715c0,5.579,1.287,10.858,3.581,15.556
		c0.185-0.379,0.375-0.753,0.573-1.124c-2.024-4.391-3.154-9.278-3.154-14.432c0-0.842,0.03-1.676,0.089-2.502
		C522.261,287.422,521.933,287.352,521.602,287.285"/>
	<path d="M482.857,305.556c-2.293,4.697-3.58,9.977-3.58,15.556c0,19.606,15.894,35.5,35.5,35.5c7.907,0,15.21-2.585,21.111-6.956
		c-0.279-0.207-0.557-0.419-0.829-0.633c-5.692,4.145-12.7,6.589-20.282,6.589c-9.528,0-18.15-3.86-24.396-10.104
		c-6.244-6.245-10.104-14.867-10.104-24.396c0-5.153,1.129-10.042,3.154-14.433C483.233,306.308,483.043,305.935,482.857,305.556"/>
	<path d="M514.777,285.61c-13.577,0-25.375,7.622-31.346,18.821c0.174,0.378,0.355,0.753,0.543,1.124
		c1.661-3.283,3.831-6.264,6.407-8.841c6.245-6.244,14.867-10.104,24.396-10.104c2.336,0,4.618,0.232,6.824,0.675
		c0.025-0.336,0.055-0.669,0.09-1.002C519.455,285.842,517.144,285.61,514.777,285.61"/>
	<path d="M483.432,304.432c-0.198,0.371-0.389,0.745-0.574,1.124c0.186,0.379,0.376,0.752,0.574,1.123
		c0.174-0.378,0.355-0.753,0.543-1.123C483.787,305.185,483.605,304.81,483.432,304.432"/>
	<path d="M522.675,286.492c-0.033,0.334-0.062,0.67-0.087,1.006c4.573,1.059,8.797,3.025,12.472,5.701
		c0.272-0.214,0.55-0.426,0.828-0.633C532.013,289.695,527.535,287.596,522.675,286.492"/>
	<path d="M521.691,286.283c-0.035,0.333-0.064,0.666-0.09,1.002c0.331,0.066,0.659,0.137,0.986,0.213
		c0.024-0.336,0.054-0.672,0.087-1.006C522.35,286.418,522.021,286.349,521.691,286.283"/>
	<path fill="#39B54A" d="M588.346,306.679c-5.971,11.199-17.769,18.821-31.347,18.821c-7.907,0-15.21-2.585-21.11-6.956
		c-3.876,2.871-8.354,4.971-13.214,6.074c0.82,8.127,4.461,15.42,9.929,20.889c6.245,6.244,14.867,10.104,24.396,10.104
		c9.529,0,18.151-3.861,24.396-10.104c6.244-6.245,10.104-14.867,10.104-24.396h0.5l0,0h-0.5
		C591.5,315.958,590.371,311.069,588.346,306.679"/>
	<path fill="#00B54A" d="M556.999,286.61c-2.336,0-4.618,0.232-6.824,0.675c0.067,0.896,0.103,1.802,0.103,2.715l0,0l0,0
		c0,11.325-5.303,21.411-13.561,27.911c5.692,4.145,12.7,6.589,20.282,6.589c9.529,0,18.151-3.861,24.396-10.104
		c2.576-2.577,4.746-5.558,6.407-8.84c-1.661-3.283-3.831-6.264-6.407-8.841C575.15,290.471,566.528,286.61,556.999,286.61"/>
	<path fill="#00004A" d="M549.188,287.498c-6.391,1.479-12.1,4.733-16.584,9.217c-2.576,2.577-4.746,5.558-6.407,8.841
		c1.661,3.282,3.831,6.263,6.407,8.84c1.032,1.032,2.129,1.998,3.284,2.894c1.156-0.896,2.253-1.861,3.285-2.894
		c6.244-6.245,10.104-14.867,10.104-24.396h0.5l0,0h-0.5C549.277,289.158,549.247,288.324,549.188,287.498"/>
	<path d="M550.277,290h-0.5h-0.5c0,9.528-3.86,18.15-10.104,24.396c-1.032,1.032-2.129,1.998-3.285,2.894
		c0.273,0.211,0.55,0.419,0.829,0.622C544.975,311.411,550.277,301.325,550.277,290 M550.175,287.285
		c-0.331,0.066-0.659,0.137-0.987,0.213c0.06,0.826,0.09,1.66,0.09,2.502h0.5h0.5l0,0
		C550.277,289.087,550.242,288.181,550.175,287.285"/>
	<path d="M587.803,305.556c-1.661,3.282-3.831,6.263-6.407,8.84c-6.245,6.243-14.867,10.104-24.396,10.104
		c-7.582,0-14.59-2.444-20.282-6.589c-0.272,0.214-0.55,0.426-0.828,0.633c5.9,4.371,13.203,6.956,21.11,6.956
		c13.578,0,25.376-7.622,31.347-18.821C588.172,306.301,587.99,305.926,587.803,305.556"/>
	<path fill="#39004A" d="M525.653,306.679c-2.024,4.391-3.154,9.279-3.154,14.433c0,0.841,0.03,1.675,0.089,2.501
		c4.573-1.059,8.797-3.025,12.472-5.701C531.197,314.871,527.982,311.048,525.653,306.679"/>
	<path d="M535.06,317.911c-3.675,2.676-7.898,4.643-12.472,5.701c0.024,0.337,0.054,0.672,0.087,1.006
		c4.859-1.104,9.338-3.203,13.214-6.074C535.609,318.337,535.332,318.125,535.06,317.911"/>
	<path d="M526.196,305.556c-0.188,0.37-0.369,0.745-0.543,1.123c2.329,4.369,5.544,8.192,9.406,11.232
		c0.279-0.203,0.556-0.411,0.828-0.622c-1.155-0.896-2.252-1.861-3.284-2.894C530.027,311.818,527.857,308.838,526.196,305.556"/>
	<path d="M535.888,317.289c-0.272,0.211-0.549,0.419-0.828,0.622c0.272,0.214,0.55,0.426,0.829,0.633
		c0.278-0.207,0.556-0.419,0.828-0.633C536.438,317.708,536.161,317.5,535.888,317.289"/>
	<path d="M588.919,305.556c-0.185,0.379-0.375,0.752-0.573,1.123c2.025,4.391,3.154,9.279,3.154,14.433h0.5h0.5l0,0
		C592.5,315.532,591.213,310.253,588.919,305.556"/>
	<path d="M556.999,285.61c-2.366,0-4.678,0.231-6.914,0.673c0.035,0.333,0.064,0.666,0.09,1.002
		c2.206-0.442,4.488-0.675,6.824-0.675c9.529,0,18.151,3.86,24.396,10.104c2.576,2.577,4.746,5.558,6.407,8.841
		c0.188-0.371,0.369-0.746,0.543-1.124C582.375,293.232,570.577,285.61,556.999,285.61"/>
	<path d="M549.102,286.492c-4.86,1.104-9.338,3.203-13.214,6.074c-0.278,0.207-0.556,0.419-0.828,0.633
		c-3.862,3.04-7.077,6.864-9.406,11.232c0.174,0.378,0.355,0.753,0.543,1.124c1.661-3.283,3.831-6.264,6.407-8.841
		c4.484-4.483,10.193-7.737,16.584-9.217C549.164,287.162,549.135,286.826,549.102,286.492"/>
	<path d="M550.085,286.283c-0.329,0.065-0.658,0.135-0.983,0.209c0.033,0.334,0.062,0.67,0.086,1.006
		c0.328-0.076,0.656-0.146,0.987-0.213C550.149,286.949,550.12,286.616,550.085,286.283"/>
	<path d="M588.346,304.432c-0.174,0.378-0.355,0.753-0.543,1.124c0.188,0.37,0.369,0.745,0.543,1.123
		c0.198-0.371,0.389-0.744,0.573-1.123C588.734,305.177,588.544,304.803,588.346,304.432"/>
	<path d="M592.5,321.111H592h-0.5c0,9.528-3.86,18.15-10.104,24.396c-6.245,6.243-14.867,10.104-24.396,10.104
		c-9.528,0-18.15-3.86-24.396-10.104c-5.468-5.469-9.108-12.762-9.929-20.889c-0.325,0.074-0.654,0.144-0.983,0.209
		c1.02,9.8,6.025,18.416,13.368,24.195c0.272,0.214,0.55,0.426,0.829,0.633c5.9,4.371,13.203,6.956,21.11,6.956
		C576.606,356.611,592.5,340.718,592.5,321.111"/>
	<path d="M525.08,305.556c-2.294,4.697-3.581,9.977-3.581,15.556c0,0.913,0.034,1.818,0.103,2.714
		c0.331-0.066,0.659-0.138,0.986-0.213c-0.059-0.826-0.089-1.66-0.089-2.501c0-5.153,1.13-10.042,3.154-14.433
		C525.455,306.308,525.265,305.935,525.08,305.556"/>
	<path d="M522.588,323.612c-0.327,0.075-0.655,0.146-0.986,0.213c0.025,0.336,0.055,0.669,0.09,1.002
		c0.329-0.065,0.658-0.135,0.983-0.209C522.642,324.284,522.612,323.949,522.588,323.612"/>
	<path d="M525.653,304.432c-0.198,0.371-0.389,0.745-0.573,1.124c0.185,0.379,0.375,0.752,0.573,1.123
		c0.174-0.378,0.355-0.753,0.543-1.123C526.009,305.185,525.827,304.81,525.653,304.432"/>
	<g>
		<path d="M284.213,166.299v8.459h8.135v2.16h-8.135v8.531h-2.304v-8.531h-8.136v-2.16h8.136v-8.459H284.213z"/>
	</g>
	<polyline points="436.777,176.777 453.521,176.777 453.521,175.777 436.777,175.777 	"/>
	<path d="M459.556,176.277c-2.84,1.054-6.363,2.852-8.548,4.756l1.721-4.756l-1.721-4.755
		C453.192,173.427,456.716,175.225,459.556,176.277z"/>
	<path fill="#FF00FF" d="M551.223,176.723c0,19.33-15.67,35-35,35s-35-15.67-35-35c0-19.33,15.67-35,35-35
		S551.223,157.393,551.223,176.723"/>
	<path d="M551.223,176.723h-0.5c0,9.528-3.86,18.15-10.104,24.395c-6.245,6.244-14.867,10.104-24.396,10.104
		c-9.528,0-18.15-3.861-24.396-10.104c-6.244-6.245-10.104-14.867-10.104-24.395s3.86-18.15,10.104-24.395
		c6.245-6.244,14.867-10.105,24.396-10.105s18.15,3.861,24.396,10.105c6.244,6.245,10.104,14.867,10.104,24.395H551.223h0.5
		c0-19.606-15.894-35.5-35.5-35.5c-19.606,0-35.5,15.894-35.5,35.5c0,19.606,15.894,35.499,35.5,35.5
		c19.606,0,35.5-15.894,35.5-35.5H551.223"/>
	<path fill="#00FFFF" d="M560.11,141.778c-8.097,0-15.538,2.788-21.423,7.456c7.956,6.51,13.035,16.407,13.035,27.49l0,0l0,0
		c0,10.824-4.846,20.517-12.483,27.028c5.795,4.41,13.025,7.026,20.871,7.027c9.528,0,18.15-3.861,24.396-10.105
		c6.244-6.245,10.104-14.867,10.104-24.396h0.5l0,0h-0.5c0-9.529-3.86-18.15-10.104-24.395
		C578.261,145.639,569.639,141.778,560.11,141.778"/>
	<path fill="#0000FF" d="M537.896,149.88c-0.756,0.637-1.483,1.305-2.182,2.003c-6.244,6.245-10.104,14.866-10.104,24.395
		s3.86,18.151,10.104,24.396c0.863,0.863,1.771,1.68,2.721,2.448c0.756-0.636,1.484-1.305,2.183-2.003
		c6.244-6.245,10.104-14.867,10.104-24.395h0.5l0,0h-0.5c0-9.528-3.86-18.15-10.104-24.395
		C539.755,151.465,538.847,150.648,537.896,149.88"/>
	<path d="M551.723,176.723h-0.5h-0.5c0,9.528-3.86,18.15-10.104,24.395c-0.698,0.698-1.427,1.367-2.183,2.003
		c0.265,0.214,0.533,0.424,0.804,0.63C546.877,197.24,551.723,187.547,551.723,176.723 M551.723,176.723L551.723,176.723
		L551.723,176.723 M538.688,149.233c-0.268,0.212-0.53,0.427-0.791,0.646c0.95,0.768,1.858,1.585,2.722,2.448
		c6.244,6.245,10.104,14.867,10.104,24.395h0.5h0.5l0,0C551.723,165.641,546.644,155.744,538.688,149.233"/>
	<path d="M595.61,176.278h-0.5h-0.5c0,9.529-3.86,18.151-10.104,24.396c-6.245,6.244-14.867,10.104-24.396,10.105
		c-7.846,0-15.076-2.617-20.871-7.027c-0.261,0.222-0.523,0.439-0.791,0.654c5.994,4.623,13.507,7.373,21.662,7.373
		C579.717,211.778,595.61,195.885,595.61,176.278 M560.11,140.778c-8.414,0-16.143,2.926-22.227,7.817
		c0.271,0.209,0.539,0.422,0.804,0.638c5.885-4.668,13.326-7.456,21.423-7.456c9.528,0,18.15,3.861,24.396,10.105
		c6.244,6.245,10.104,14.866,10.104,24.395h0.5h0.5l0,0C595.61,156.671,579.717,140.778,560.11,140.778"/>
	<path d="M537.094,149.25c-7.639,6.511-12.483,16.204-12.483,27.028c0,11.083,5.079,20.979,13.035,27.489
		c0.267-0.211,0.53-0.427,0.79-0.646c-0.949-0.768-1.857-1.585-2.721-2.448c-6.244-6.245-10.104-14.867-10.104-24.396
		s3.86-18.15,10.104-24.395c0.698-0.698,1.426-1.366,2.182-2.003C537.632,149.666,537.364,149.456,537.094,149.25"/>
	<path d="M537.884,148.595c-0.267,0.214-0.53,0.433-0.79,0.655c0.271,0.206,0.538,0.416,0.803,0.63
		c0.261-0.219,0.523-0.435,0.791-0.646C538.423,149.017,538.154,148.804,537.884,148.595"/>
	<path d="M538.436,203.121c-0.26,0.219-0.523,0.435-0.79,0.646c0.265,0.217,0.532,0.43,0.803,0.639
		c0.268-0.215,0.53-0.432,0.791-0.654C538.969,203.545,538.7,203.335,538.436,203.121"/>
	<path fill="#FF00FF" d="M218.779,290.445c0,19.33-15.67,35-35,35s-35-15.67-35-35s15.67-35,35-35S218.779,271.115,218.779,290.445"
		/>
	<path d="M218.779,290.445h-0.5c0,9.528-3.861,18.15-10.104,24.396c-6.245,6.244-14.867,10.104-24.396,10.104
		s-18.15-3.86-24.396-10.104c-6.244-6.245-10.104-14.867-10.104-24.396s3.861-18.15,10.104-24.396
		c6.245-6.244,14.867-10.104,24.396-10.104s18.15,3.86,24.396,10.104c6.244,6.245,10.104,14.867,10.104,24.396H218.779h0.5
		c0-19.606-15.894-35.5-35.5-35.5s-35.5,15.894-35.5,35.5c0,19.606,15.894,35.5,35.5,35.5s35.5-15.894,35.5-35.5H218.779"/>
	<path fill="#00FFFF" d="M227.667,255.5c-8.096,0-15.538,2.788-21.423,7.456c7.957,6.51,13.035,16.407,13.036,27.489l0,0l0,0
		c0,10.824-4.845,20.518-12.484,27.028c5.795,4.41,13.026,7.027,20.872,7.027c9.529,0,18.15-3.86,24.395-10.104
		c6.244-6.245,10.104-14.867,10.105-24.396h0.5l0,0h-0.5c0-9.528-3.861-18.15-10.105-24.396
		C245.817,259.36,237.195,255.5,227.667,255.5"/>
	<path fill="#0000FF" d="M205.453,263.602c-0.756,0.637-1.483,1.305-2.182,2.003c-6.244,6.245-10.104,14.867-10.105,24.396
		c0,9.529,3.861,18.151,10.105,24.396c0.863,0.862,1.771,1.68,2.72,2.447c0.756-0.637,1.484-1.305,2.183-2.003
		c6.244-6.245,10.104-14.867,10.104-24.396h0.5l0,0h-0.5c0-9.528-3.861-18.15-10.104-24.396
		C207.311,265.188,206.403,264.37,205.453,263.602"/>
	<path d="M219.279,290.445h-0.5h-0.5c0,9.528-3.861,18.15-10.104,24.396c-0.699,0.698-1.427,1.366-2.183,2.003
		c0.265,0.214,0.533,0.424,0.803,0.63C214.434,310.963,219.278,301.27,219.279,290.445 M219.279,290.445L219.279,290.445
		L219.279,290.445 M206.243,262.956c-0.267,0.211-0.53,0.427-0.79,0.646c0.95,0.769,1.858,1.586,2.721,2.448
		c6.244,6.245,10.104,14.867,10.104,24.396h0.5h0.5l0,0C219.278,279.363,214.2,269.466,206.243,262.956"/>
	<path d="M263.167,290h-0.5h-0.5c0,9.529-3.861,18.151-10.105,24.396c-6.245,6.244-14.866,10.104-24.395,10.104
		c-7.846,0-15.076-2.617-20.872-7.027c-0.261,0.223-0.523,0.439-0.79,0.654c5.994,4.623,13.506,7.373,21.662,7.373
		C247.273,325.501,263.166,309.607,263.167,290 M227.667,254.5c-8.414,0-16.143,2.927-22.227,7.817
		c0.271,0.209,0.539,0.422,0.803,0.639c5.885-4.668,13.327-7.456,21.423-7.456c9.529,0,18.15,3.86,24.395,10.104
		c6.244,6.245,10.104,14.867,10.105,24.396h0.5h0.5l0,0C263.166,270.394,247.273,254.5,227.667,254.5"/>
	<path d="M204.649,262.972c-7.638,6.512-12.483,16.204-12.483,27.028c0,11.083,5.079,20.979,13.035,27.49
		c0.267-0.212,0.53-0.428,0.79-0.646c-0.95-0.768-1.857-1.585-2.72-2.447c-6.244-6.245-10.104-14.867-10.105-24.396
		c0-9.528,3.861-18.15,10.105-24.396c0.698-0.698,1.426-1.366,2.182-2.003C205.188,263.388,204.921,263.178,204.649,262.972"/>
	<path d="M205.44,262.317c-0.267,0.215-0.53,0.433-0.791,0.654c0.271,0.206,0.539,0.416,0.804,0.63
		c0.26-0.219,0.523-0.435,0.79-0.646C205.979,262.739,205.711,262.526,205.44,262.317"/>
	<path d="M205.992,316.844c-0.26,0.219-0.523,0.435-0.79,0.646c0.264,0.216,0.532,0.429,0.803,0.638
		c0.267-0.215,0.529-0.432,0.79-0.654C206.524,317.268,206.256,317.058,205.992,316.844"/>
	<g>
		<path d="M284.213,280.021v8.459h8.135v2.159h-8.135v8.531h-2.304v-8.531h-8.136v-2.159h8.136v-8.459H284.213z"/>
	</g>
	<polyline points="436.777,290.5 453.521,290.5 453.521,289.5 436.777,289.5 	"/>
	<path d="M459.556,290c-2.84,1.054-6.363,2.852-8.548,4.756l1.721-4.756l-1.721-4.755C453.192,287.149,456.716,288.947,459.556,290z
		"/>
	<circle fill="#00FFFF" cx="391.666" cy="61.611" r="35"/>
	<path d="M426.666,61.611h-0.5c0,9.529-3.86,18.151-10.104,24.396c-6.245,6.244-14.867,10.104-24.396,10.105
		c-9.528,0-18.15-3.861-24.396-10.105c-6.244-6.245-10.104-14.867-10.104-24.396c0-9.528,3.86-18.15,10.104-24.395
		c6.245-6.244,14.867-10.105,24.396-10.105s18.15,3.861,24.396,10.105c6.244,6.245,10.104,14.866,10.104,24.395H426.666h0.5
		c0-19.606-15.894-35.5-35.5-35.5c-19.606,0-35.5,15.894-35.5,35.5c0,19.607,15.894,35.5,35.5,35.5c19.606,0,35.5-15.894,35.5-35.5
		H426.666z"/>
	<polyline points="370.945,109.333 370.945,116.631 371.945,116.631 371.945,109.333 	"/>
	<path d="M371.445,122.667c-1.055-2.84-2.852-6.363-4.756-8.547l4.756,1.72l4.754-1.72
		C374.295,116.303,372.498,119.827,371.445,122.667z"/>
	<g>
		<path d="M383.147,118.03l-0.98,2.97h-1.261l3.222-9.441h1.456l3.222,9.441h-1.302l-1.009-2.97H383.147z M386.257,117.078
			l-0.938-2.718c-0.21-0.616-0.351-1.177-0.49-1.723H384.8c-0.14,0.546-0.28,1.134-0.477,1.708l-0.924,2.732H386.257z"/>
		<path d="M390.118,116.434c0-0.869-0.028-1.569-0.056-2.213h1.093l0.069,1.163h0.028c0.49-0.826,1.303-1.303,2.409-1.303
			c1.653,0,2.886,1.387,2.886,3.432c0,2.437-1.499,3.642-3.096,3.642c-0.896,0-1.681-0.393-2.087-1.065h-0.028v3.684h-1.219V116.434
			z M391.337,118.241c0,0.182,0.014,0.35,0.056,0.504c0.225,0.854,0.967,1.443,1.85,1.443c1.303,0,2.059-1.064,2.059-2.619
			c0-1.345-0.714-2.508-2.017-2.508c-0.841,0-1.639,0.588-1.863,1.513c-0.042,0.154-0.084,0.336-0.084,0.49V118.241z"/>
		<path d="M398.084,116.434c0-0.869-0.028-1.569-0.056-2.213h1.093l0.069,1.163h0.028c0.49-0.826,1.303-1.303,2.409-1.303
			c1.653,0,2.886,1.387,2.886,3.432c0,2.437-1.499,3.642-3.096,3.642c-0.896,0-1.681-0.393-2.087-1.065h-0.028v3.684h-1.219V116.434
			z M399.303,118.241c0,0.182,0.014,0.35,0.056,0.504c0.225,0.854,0.967,1.443,1.85,1.443c1.303,0,2.059-1.064,2.059-2.619
			c0-1.345-0.714-2.508-2.017-2.508c-0.841,0-1.639,0.588-1.863,1.513c-0.042,0.154-0.084,0.336-0.084,0.49V118.241z"/>
		<path d="M406.05,111.055h1.232V121h-1.232V111.055z"/>
		<path d="M409.802,114.22l1.471,4.006c0.168,0.448,0.336,0.98,0.448,1.387h0.028c0.126-0.406,0.266-0.924,0.435-1.415l1.345-3.978
			h1.302l-1.849,4.833c-0.883,2.326-1.484,3.502-2.325,4.245c-0.616,0.518-1.205,0.728-1.513,0.784l-0.309-1.022
			c0.309-0.098,0.715-0.294,1.079-0.602c0.336-0.267,0.742-0.743,1.036-1.373c0.057-0.126,0.099-0.224,0.099-0.294
			c0-0.07-0.028-0.168-0.099-0.322l-2.493-6.248H409.802z"/>
		<path d="M418.957,111.699c0.532-0.126,1.387-0.21,2.228-0.21c1.219,0,2.003,0.21,2.577,0.687c0.49,0.364,0.799,0.924,0.799,1.667
			c0,0.924-0.617,1.723-1.598,2.073v0.042c0.896,0.21,1.947,0.953,1.947,2.354c0,0.812-0.322,1.443-0.812,1.891
			c-0.645,0.602-1.709,0.882-3.249,0.882c-0.841,0-1.485-0.056-1.892-0.112V111.699z M420.176,115.565h1.106
			c1.274,0,2.031-0.686,2.031-1.597c0-1.093-0.826-1.541-2.06-1.541c-0.56,0-0.882,0.042-1.078,0.084V115.565z M420.176,120.076
			c0.252,0.042,0.588,0.056,1.022,0.056c1.261,0,2.424-0.462,2.424-1.835c0-1.274-1.107-1.821-2.438-1.821h-1.009V120.076z"/>
		<path d="M426.503,111.055h1.232V121h-1.232V111.055z"/>
		<path d="M430.494,117.834c0.028,1.667,1.078,2.353,2.325,2.353c0.883,0,1.429-0.154,1.877-0.35l0.225,0.882
			c-0.435,0.196-1.191,0.435-2.27,0.435c-2.087,0-3.334-1.387-3.334-3.432c0-2.045,1.205-3.642,3.18-3.642
			c2.228,0,2.802,1.933,2.802,3.18c0,0.252-0.014,0.435-0.042,0.575H430.494z M434.108,116.952c0.014-0.77-0.322-1.989-1.709-1.989
			c-1.261,0-1.793,1.134-1.892,1.989H434.108z"/>
		<path d="M436.821,116.055c0-0.714-0.014-1.274-0.056-1.835h1.093l0.069,1.121h0.028c0.336-0.63,1.12-1.261,2.241-1.261
			c0.938,0,2.396,0.561,2.396,2.886V121h-1.233v-3.908c0-1.092-0.406-2.003-1.568-2.003c-0.799,0-1.429,0.574-1.653,1.261
			c-0.056,0.154-0.084,0.364-0.084,0.574V121h-1.232V116.055z"/>
		<path d="M450.432,111.055v8.194c0,0.603,0.028,1.289,0.057,1.751h-1.093l-0.056-1.177h-0.042
			c-0.364,0.756-1.177,1.331-2.283,1.331c-1.64,0-2.914-1.387-2.914-3.446c-0.014-2.255,1.4-3.628,3.04-3.628
			c1.05,0,1.736,0.49,2.045,1.023h0.028v-4.048H450.432z M449.214,116.98c0-0.154-0.015-0.364-0.057-0.519
			c-0.182-0.771-0.854-1.415-1.778-1.415c-1.275,0-2.031,1.121-2.031,2.605c0,1.373,0.686,2.507,2.003,2.507
			c0.826,0,1.583-0.561,1.807-1.471c0.042-0.168,0.057-0.336,0.057-0.533V116.98z"/>
		<path d="M453.86,112.315c0,0.42-0.294,0.756-0.784,0.756c-0.448,0-0.743-0.336-0.743-0.756c0-0.42,0.309-0.771,0.771-0.771
			C453.552,111.545,453.86,111.881,453.86,112.315z M452.487,121v-6.78h1.232V121H452.487z"/>
		<path d="M455.763,116.055c0-0.714-0.014-1.274-0.056-1.835h1.093l0.069,1.121h0.028c0.336-0.63,1.12-1.261,2.241-1.261
			c0.938,0,2.396,0.561,2.396,2.886V121h-1.233v-3.908c0-1.092-0.406-2.003-1.568-2.003c-0.799,0-1.429,0.574-1.653,1.261
			c-0.056,0.154-0.084,0.364-0.084,0.574V121h-1.232V116.055z"/>
		<path d="M469.331,120.005c0,1.569-0.321,2.507-0.966,3.11c-0.673,0.602-1.625,0.812-2.479,0.812c-0.812,0-1.709-0.196-2.255-0.561
			l0.308-0.953c0.448,0.294,1.148,0.546,1.989,0.546c1.261,0,2.186-0.658,2.186-2.381v-0.742h-0.028
			c-0.364,0.63-1.106,1.135-2.157,1.135c-1.681,0-2.886-1.429-2.886-3.306c0-2.297,1.499-3.586,3.067-3.586
			c1.177,0,1.808,0.603,2.115,1.163h0.028l0.042-1.022h1.093c-0.042,0.477-0.057,1.037-0.057,1.849V120.005z M468.099,116.896
			c0-0.21-0.014-0.393-0.07-0.546c-0.224-0.729-0.812-1.317-1.723-1.317c-1.177,0-2.017,0.995-2.017,2.563
			c0,1.331,0.686,2.438,2.003,2.438c0.771,0,1.457-0.477,1.709-1.261c0.069-0.21,0.098-0.448,0.098-0.659V116.896z"/>
	</g>
	<circle fill="#FFFF00" cx="350.668" cy="402.11" r="35"/>
	<path d="M385.668,402.11h-0.5c0,9.528-3.86,18.15-10.104,24.396c-6.245,6.244-14.867,10.104-24.396,10.104
		s-18.15-3.86-24.396-10.104c-6.244-6.245-10.104-14.867-10.104-24.396s3.861-18.15,10.104-24.396
		c6.245-6.244,14.867-10.104,24.396-10.104s18.15,3.86,24.396,10.104c6.244,6.245,10.104,14.867,10.104,24.396H385.668h0.5
		c0-19.606-15.894-35.5-35.5-35.5s-35.5,15.894-35.5,35.5c0,19.606,15.894,35.5,35.5,35.5s35.5-15.894,35.5-35.5H385.668z"/>
	<circle fill="#39B54A" cx="392.89" cy="402.11" r="35"/>
	<path d="M427.891,402.11h-0.5c0,9.528-3.86,18.15-10.105,24.396c-6.244,6.244-14.867,10.104-24.396,10.104
		c-9.528,0-18.15-3.86-24.395-10.104c-6.244-6.245-10.104-14.867-10.104-24.396s3.86-18.15,10.104-24.396
		c6.244-6.244,14.866-10.104,24.395-10.104c9.529,0,18.152,3.86,24.396,10.104c6.245,6.245,10.105,14.867,10.105,24.396H427.891h0.5
		c0-19.606-15.894-35.5-35.502-35.5c-19.606,0-35.499,15.894-35.499,35.5s15.893,35.5,35.499,35.5
		c19.608,0,35.502-15.894,35.502-35.5H427.891z"/>
	<polyline points="370.945,346.703 370.945,354 371.945,354 371.945,346.703 	"/>
	<path d="M371.445,340.668c-1.055,2.84-2.852,6.363-4.756,8.547l4.756-1.72l4.754,1.72
		C374.295,347.031,372.498,343.508,371.445,340.668z"/>
	<path fill="#FF00FF" d="M90.223,38.889c0,19.331-15.67,35-35,35s-35-15.67-35-35c0-19.33,15.67-35,35-35
		S90.223,19.559,90.223,38.889"/>
	<path d="M90.223,38.889h-0.5c0,9.529-3.861,18.151-10.104,24.396c-6.245,6.244-14.867,10.104-24.396,10.105
		c-9.528,0-18.15-3.861-24.395-10.105c-6.244-6.245-10.105-14.867-10.105-24.396c0-9.528,3.861-18.15,10.105-24.395
		C37.072,8.25,45.694,4.389,55.223,4.389c9.528,0,18.15,3.861,24.396,10.105c6.244,6.245,10.104,14.867,10.104,24.395H90.223h0.5
		c0-19.606-15.894-35.5-35.5-35.5c-19.606,0-35.5,15.894-35.5,35.5c0,19.607,15.894,35.5,35.5,35.5c19.606,0,35.5-15.894,35.5-35.5
		H90.223"/>
	<path fill="#00FFFF" d="M97.444,4.389c-7.582,0-14.59,2.444-20.283,6.589c7.343,5.78,12.349,14.395,13.369,24.195
		c2.236-0.441,4.548-0.673,6.914-0.673c13.578,0,25.375,7.623,31.347,18.821c2.025-4.39,3.154-9.279,3.154-14.432h0.5l0,0h-0.5
		c0-9.528-3.861-18.15-10.105-24.395C115.595,8.25,106.974,4.389,97.444,4.389"/>
	<path fill="#0000FF" d="M76.333,11.6c-1.155,0.895-2.252,1.862-3.284,2.894c-5.468,5.469-9.108,12.76-9.929,20.888
		c4.859,1.104,9.338,3.203,13.213,6.075c3.875-2.872,8.354-4.971,13.213-6.075c-0.82-8.127-4.46-15.419-9.928-20.888
		C78.586,13.461,77.489,12.495,76.333,11.6"/>
	<path d="M77.162,10.978c-0.279,0.203-0.556,0.411-0.828,0.622c1.155,0.895,2.252,1.862,3.285,2.894
		c5.468,5.469,9.108,12.76,9.928,20.888c0.326-0.074,0.655-0.144,0.984-0.209C89.511,25.373,84.505,16.757,77.162,10.978"/>
	<path d="M132.945,38.889h-0.5h-0.5c0,5.153-1.129,10.042-3.154,14.432c0.198,0.371,0.389,0.745,0.574,1.124
		C131.658,49.748,132.945,44.468,132.945,38.889 M97.444,3.389c-7.908,0-15.21,2.585-21.111,6.957
		c0.279,0.206,0.556,0.418,0.828,0.632c5.693-4.145,12.701-6.589,20.283-6.589c9.529,0,18.151,3.861,24.396,10.105
		c6.244,6.245,10.104,14.867,10.105,24.395h0.5h0.5l0,0C132.945,19.282,117.052,3.389,97.444,3.389"/>
	<path d="M75.505,10.978c-7.343,5.779-12.349,14.395-13.369,24.195c0.329,0.065,0.658,0.135,0.984,0.209
		c0.82-8.127,4.46-15.419,9.929-20.888c1.032-1.032,2.129-1.999,3.284-2.894C76.061,11.388,75.784,11.181,75.505,10.978"/>
	<path d="M76.333,10.345c-0.279,0.206-0.556,0.418-0.828,0.632c0.279,0.203,0.556,0.411,0.828,0.622
		c0.272-0.211,0.549-0.419,0.828-0.622C76.89,10.763,76.612,10.551,76.333,10.345"/>
	<path fill="#FFFF00" d="M23.877,55.568c-2.025,4.391-3.154,9.279-3.154,14.433c0,9.529,3.861,18.15,10.105,24.395
		c6.245,6.244,14.867,10.104,24.395,10.105c7.582,0,14.59-2.444,20.283-6.589c-7.343-5.779-12.349-14.395-13.369-24.195
		c-2.236,0.441-4.548,0.673-6.914,0.673C41.645,74.389,29.848,66.767,23.877,55.568"/>
	<path fill="#FF0000" d="M55.223,35.5c-9.528,0-18.15,3.861-24.395,10.105c-2.577,2.577-4.747,5.557-6.408,8.84
		c1.661,3.283,3.831,6.263,6.408,8.84c6.245,6.244,14.867,10.104,24.395,10.105c2.336,0,4.619-0.232,6.824-0.675
		c-0.067-0.896-0.102-1.801-0.102-2.714c0-5.579,1.288-10.859,3.581-15.556c-2.293-4.697-3.581-9.977-3.581-15.556
		c0-0.913,0.035-1.819,0.103-2.714C59.841,35.732,57.559,35.5,55.223,35.5"/>
	<path d="M24.42,54.444c-0.188,0.371-0.369,0.746-0.543,1.124c5.971,11.199,17.768,18.821,31.346,18.821
		c2.366,0,4.678-0.231,6.914-0.673c-0.035-0.333-0.065-0.666-0.09-1.002c-2.205,0.442-4.487,0.675-6.824,0.675
		c-9.528,0-18.15-3.861-24.395-10.105C28.251,60.708,26.081,57.727,24.42,54.444"/>
	<path d="M63.034,36.387c-0.059,0.826-0.089,1.661-0.089,2.501c0,5.153,1.129,10.042,3.154,14.432
		c2.329-4.369,5.544-8.192,9.407-11.232C71.83,39.413,67.606,37.445,63.034,36.387"/>
	<path d="M62.047,36.174c-0.068,0.896-0.103,1.801-0.103,2.714c0,5.579,1.288,10.859,3.581,15.556
		c0.185-0.379,0.376-0.752,0.574-1.124c-2.025-4.39-3.154-9.279-3.154-14.432c0-0.841,0.03-1.675,0.089-2.501
		C62.706,36.312,62.378,36.241,62.047,36.174"/>
	<path d="M23.303,54.444C21.01,59.142,19.723,64.421,19.723,70c0,19.606,15.894,35.5,35.5,35.5c7.908,0,15.21-2.584,21.111-6.956
		c-0.278-0.207-0.556-0.418-0.828-0.633c-5.693,4.145-12.701,6.589-20.283,6.589c-9.528,0-18.15-3.861-24.395-10.105
		C24.583,88.151,20.723,79.529,20.723,70c0-5.154,1.129-10.042,3.154-14.433C23.679,55.197,23.488,54.823,23.303,54.444"/>
	<path d="M55.223,34.5c-13.578,0-25.375,7.623-31.346,18.821c0.174,0.378,0.355,0.753,0.543,1.124
		c1.661-3.283,3.831-6.263,6.408-8.84C37.072,39.36,45.694,35.5,55.223,35.5c2.336,0,4.619,0.232,6.824,0.675
		c0.025-0.336,0.055-0.669,0.09-1.002C59.9,34.731,57.588,34.5,55.223,34.5"/>
	<path d="M23.877,53.321c-0.198,0.371-0.389,0.745-0.574,1.124c0.185,0.379,0.376,0.752,0.574,1.124
		c0.174-0.378,0.355-0.753,0.543-1.124C24.232,54.074,24.051,53.699,23.877,53.321"/>
	<path d="M63.121,35.381c-0.034,0.334-0.063,0.669-0.087,1.006c4.572,1.058,8.796,3.025,12.472,5.701
		c0.272-0.214,0.55-0.426,0.828-0.632C72.458,38.584,67.98,36.485,63.121,35.381"/>
	<path d="M62.137,35.172c-0.035,0.333-0.064,0.666-0.09,1.002c0.331,0.066,0.659,0.137,0.987,0.213
		c0.024-0.337,0.053-0.672,0.087-1.006C62.794,35.307,62.466,35.237,62.137,35.172"/>
	<path fill="#39B54A" d="M128.791,55.568c-5.971,11.199-17.769,18.821-31.347,18.821c-7.908,0-15.21-2.585-21.111-6.957
		c-3.875,2.872-8.354,4.971-13.213,6.075c0.82,8.127,4.46,15.419,9.929,20.888c6.245,6.244,14.867,10.104,24.395,10.105
		c9.529,0,18.151-3.861,24.396-10.105c6.244-6.245,10.104-14.866,10.105-24.395h0.5l0,0h-0.5
		C131.945,64.847,130.816,59.958,128.791,55.568"/>
	<path fill="#00B54A" d="M97.444,35.5c-2.336,0-4.619,0.232-6.824,0.675c0.068,0.896,0.103,1.801,0.103,2.714l0,0l0,0
		c0,11.326-5.303,21.412-13.561,27.912c5.693,4.145,12.701,6.589,20.283,6.589c9.529,0,18.151-3.861,24.396-10.105
		c2.576-2.577,4.747-5.557,6.408-8.84c-1.661-3.283-3.832-6.263-6.408-8.84C115.595,39.36,106.974,35.5,97.444,35.5"/>
	<path fill="#00004A" d="M89.633,36.387c-6.391,1.479-12.1,4.734-16.584,9.217c-2.577,2.577-4.747,5.557-6.408,8.84
		c1.661,3.283,3.831,6.263,6.408,8.84c1.032,1.032,2.129,1.999,3.284,2.894c1.155-0.895,2.252-1.862,3.285-2.894
		c6.244-6.245,10.104-14.867,10.104-24.396h0.5l0,0h-0.5C89.723,38.048,89.692,37.213,89.633,36.387"/>
	<path d="M90.723,38.889h-0.5h-0.5c0,9.529-3.861,18.151-10.104,24.396c-1.032,1.032-2.129,1.999-3.285,2.894
		c0.272,0.211,0.549,0.419,0.828,0.622C85.42,60.3,90.723,50.214,90.723,38.889 M90.62,36.174c-0.331,0.066-0.659,0.137-0.987,0.213
		c0.059,0.826,0.089,1.661,0.089,2.501h0.5h0.5l0,0C90.723,37.976,90.688,37.07,90.62,36.174"/>
	<path d="M128.248,54.444c-1.661,3.283-3.832,6.263-6.408,8.84c-6.245,6.244-14.867,10.104-24.396,10.105
		c-7.582,0-14.59-2.444-20.283-6.589c-0.272,0.214-0.549,0.426-0.828,0.632c5.9,4.372,13.203,6.957,21.111,6.957
		c13.578,0,25.375-7.623,31.347-18.821C128.617,55.19,128.436,54.815,128.248,54.444"/>
	<path fill="#39004A" d="M66.099,55.568c-2.025,4.391-3.154,9.279-3.154,14.433c0,0.841,0.03,1.675,0.089,2.501
		c4.572-1.059,8.796-3.025,12.472-5.701C71.643,63.76,68.428,59.937,66.099,55.568"/>
	<path d="M75.505,66.8c-3.676,2.676-7.899,4.643-12.472,5.701c0.024,0.337,0.053,0.672,0.087,1.006
		c4.859-1.104,9.337-3.203,13.213-6.075C76.055,67.227,75.777,67.015,75.505,66.8"/>
	<path d="M66.642,54.444c-0.188,0.371-0.369,0.746-0.543,1.124c2.329,4.369,5.544,8.192,9.407,11.232
		c0.279-0.203,0.556-0.411,0.828-0.622c-1.155-0.895-2.252-1.862-3.284-2.894C70.473,60.708,68.303,57.727,66.642,54.444"/>
	<path d="M76.333,66.178c-0.272,0.211-0.549,0.419-0.828,0.622c0.272,0.214,0.549,0.426,0.828,0.632
		c0.279-0.206,0.556-0.418,0.828-0.632C76.883,66.597,76.606,66.39,76.333,66.178"/>
	<path d="M129.365,54.444c-0.185,0.379-0.376,0.752-0.574,1.124c2.025,4.391,3.154,9.279,3.154,14.433h0.5h0.5l0,0
		C132.945,64.421,131.658,59.142,129.365,54.444"/>
	<path d="M97.444,34.5c-2.366,0-4.678,0.231-6.914,0.673c0.035,0.333,0.064,0.666,0.09,1.002c2.206-0.442,4.488-0.675,6.824-0.675
		c9.529,0,18.151,3.861,24.396,10.105c2.576,2.577,4.747,5.557,6.408,8.84c0.188-0.371,0.369-0.746,0.543-1.124
		C122.82,42.122,111.022,34.5,97.444,34.5"/>
	<path d="M89.546,35.381c-4.859,1.104-9.337,3.203-13.213,6.075c-0.278,0.206-0.556,0.418-0.828,0.632
		c-3.862,3.04-7.078,6.864-9.407,11.232c0.174,0.378,0.355,0.753,0.543,1.124c1.661-3.283,3.831-6.263,6.408-8.84
		c4.484-4.483,10.193-7.738,16.584-9.217C89.609,36.05,89.58,35.715,89.546,35.381"/>
	<path d="M90.53,35.172c-0.329,0.065-0.658,0.135-0.984,0.209c0.034,0.334,0.063,0.669,0.087,1.006
		c0.328-0.076,0.656-0.146,0.987-0.213C90.595,35.838,90.565,35.506,90.53,35.172"/>
	<path d="M128.791,53.321c-0.174,0.378-0.355,0.753-0.543,1.124c0.188,0.371,0.369,0.746,0.543,1.124
		c0.198-0.371,0.389-0.745,0.574-1.124C129.18,54.065,128.989,53.692,128.791,53.321"/>
	<path d="M132.945,70h-0.5h-0.5c0,9.529-3.861,18.15-10.105,24.395c-6.245,6.244-14.867,10.104-24.396,10.105
		c-9.528,0-18.15-3.861-24.395-10.105c-5.468-5.469-9.108-12.761-9.929-20.888c-0.326,0.074-0.655,0.144-0.984,0.209
		c1.02,9.8,6.025,18.416,13.369,24.195c0.272,0.214,0.55,0.426,0.828,0.633c5.901,4.372,13.203,6.956,21.111,6.956
		C117.052,105.5,132.945,89.607,132.945,70"/>
	<path d="M65.525,54.444c-2.293,4.697-3.581,9.977-3.581,15.556c0,0.913,0.035,1.818,0.102,2.714
		c0.331-0.066,0.66-0.137,0.987-0.213c-0.059-0.826-0.089-1.66-0.089-2.501c0-5.154,1.129-10.042,3.154-14.433
		C65.901,55.197,65.71,54.823,65.525,54.444"/>
	<path d="M63.034,72.501c-0.328,0.076-0.656,0.146-0.987,0.213c0.025,0.336,0.056,0.669,0.09,1.002
		c0.329-0.065,0.658-0.135,0.984-0.209C63.086,73.173,63.058,72.838,63.034,72.501"/>
	<path d="M66.099,53.321c-0.198,0.371-0.389,0.745-0.574,1.124c0.185,0.379,0.376,0.752,0.574,1.124
		c0.174-0.378,0.355-0.753,0.543-1.124C66.454,54.074,66.273,53.699,66.099,53.321"/>
	<path fill="#0000FF" d="M370.169,147.276c-7.511,6.33-12.28,15.801-12.28,26.391c0,10.845,5.008,20.51,12.832,26.836
		c7.511-6.33,12.28-15.801,12.28-26.391C383.001,163.268,377.993,153.602,370.169,147.276"/>
	<path d="M357.889,173.667c0-10.59,4.77-20.061,12.28-26.391c7.824,6.326,12.832,15.992,12.832,26.836
		c0,10.59-4.77,20.061-12.28,26.391C362.896,194.177,357.889,184.512,357.889,173.667 M370.743,146.455
		c-1.225,0.936-2.384,1.951-3.473,3.039c-6.195,6.196-10.044,14.732-10.104,24.173h0.222h0.5h-0.5h-0.222
		c-0.001,0.074-0.001,0.148-0.001,0.222c0,9.529,3.86,18.151,10.104,24.396c1.174,1.174,2.432,2.263,3.764,3.259l0.011-0.009
		c7.91-6.509,12.956-16.378,12.956-27.422C384.001,162.931,378.823,152.959,370.743,146.455"/>
	<path d="M357.167,173.667h-0.278c0,11.307,5.294,21.375,13.529,27.874l0.316,0.25l0.3-0.247c-1.332-0.996-2.59-2.085-3.764-3.259
		c-6.244-6.245-10.104-14.867-10.104-24.396C357.166,173.815,357.166,173.741,357.167,173.667 M370.155,145.989l-0.311,0.256
		c-7.91,6.509-12.956,16.378-12.956,27.422h0.278c0.06-9.44,3.908-17.977,10.104-24.173c1.089-1.088,2.248-2.104,3.473-3.039
		c-0.09-0.073-0.181-0.145-0.271-0.217L370.155,145.989"/>
	<g>
		<defs>
			<path id="SVGID_1_" d="M392.555,255.444c-7.93,0-15.242,2.641-21.11,7.087c-5.869-4.446-13.181-7.087-21.11-7.087
				c-19.33,0-35,15.67-35,35.002c0,19.33,15.67,35,35,35c7.93,0,15.241-2.641,21.11-7.086c5.868,4.445,13.181,7.086,21.11,7.086
				c19.332,0,35.002-15.67,35.002-35C427.557,271.114,411.887,255.444,392.555,255.444"/>
		</defs>
		<clipPath id="SVGID_2_">
			<use xlink:href="#SVGID_1_"  overflow="visible"/>
		</clipPath>
		<path clip-path="url(#SVGID_2_)" fill="#FF00FF" d="M385.334,259.335c0,19.33-15.67,35-35,35s-35-15.67-35-35s15.67-35,35-35
			S385.334,240.005,385.334,259.335"/>
		<path clip-path="url(#SVGID_2_)" d="M385.334,259.335h-0.5c0,9.528-3.86,18.15-10.104,24.396
			c-6.245,6.244-14.867,10.104-24.396,10.104s-18.15-3.86-24.396-10.104c-6.244-6.245-10.104-14.867-10.104-24.396
			s3.861-18.15,10.104-24.395c6.245-6.244,14.867-10.104,24.396-10.105c9.528,0,18.15,3.861,24.396,10.105
			c6.244,6.245,10.104,14.867,10.104,24.395H385.334h0.5c0-19.606-15.894-35.5-35.5-35.5c-19.606,0-35.5,15.894-35.5,35.5
			c0,19.606,15.894,35.5,35.5,35.5s35.5-15.894,35.5-35.5H385.334"/>
		<path clip-path="url(#SVGID_2_)" fill="#FFFF00" d="M318.988,276.014c-2.025,4.391-3.154,9.279-3.154,14.433
			c0,9.528,3.861,18.15,10.104,24.396c6.245,6.244,14.867,10.104,24.396,10.104c7.582,0,14.59-2.444,20.282-6.589
			c-7.343-5.779-12.349-14.396-13.368-24.195c-2.236,0.441-4.548,0.673-6.914,0.673
			C336.757,294.835,324.959,287.213,318.988,276.014"/>
		<path clip-path="url(#SVGID_2_)" fill="#FF0000" d="M350.334,255.945c-9.528,0-18.15,3.86-24.396,10.104
			c-2.576,2.577-4.746,5.558-6.407,8.841c1.661,3.282,3.831,6.263,6.407,8.84c6.245,6.244,14.867,10.104,24.396,10.104
			c2.336,0,4.618-0.232,6.824-0.675c-0.068-0.896-0.103-1.801-0.103-2.714c0-5.579,1.287-10.858,3.581-15.556
			c-2.294-4.697-3.581-9.977-3.581-15.556c0-0.913,0.034-1.819,0.103-2.715C354.952,256.178,352.67,255.945,350.334,255.945"/>
		<path clip-path="url(#SVGID_2_)" d="M319.531,274.891c-0.188,0.37-0.369,0.745-0.543,1.123
			c5.971,11.199,17.769,18.821,31.346,18.821c2.366,0,4.678-0.231,6.914-0.673c-0.035-0.333-0.064-0.666-0.09-1.002
			c-2.206,0.442-4.488,0.675-6.824,0.675c-9.528,0-18.15-3.86-24.396-10.104C323.362,281.153,321.192,278.173,319.531,274.891"/>
		<path clip-path="url(#SVGID_2_)" d="M358.145,256.833c-0.059,0.826-0.089,1.66-0.089,2.502c0,5.153,1.129,10.042,3.154,14.432
			c2.329-4.368,5.544-8.192,9.406-11.232C366.941,259.858,362.718,257.892,358.145,256.833"/>
		<path clip-path="url(#SVGID_2_)" d="M357.158,256.62c-0.068,0.896-0.103,1.802-0.103,2.715c0,5.579,1.287,10.858,3.581,15.556
			c0.185-0.379,0.375-0.753,0.573-1.124c-2.025-4.39-3.154-9.278-3.154-14.432c0-0.842,0.03-1.676,0.089-2.502
			C357.817,256.758,357.489,256.687,357.158,256.62"/>
		<path clip-path="url(#SVGID_2_)" d="M318.697,275.455c-2.156,4.544-3.363,9.627-3.363,14.991c0,19.33,15.67,35,35,35
			c7.741,0,14.895-2.518,20.69-6.772c-0.136-0.104-0.273-0.211-0.408-0.316c-5.692,4.145-12.7,6.589-20.282,6.589
			c-9.528,0-18.15-3.86-24.396-10.104c-6.244-6.245-10.104-14.867-10.104-24.396c0-5.153,1.129-10.042,3.154-14.433
			C318.889,275.828,318.792,275.643,318.697,275.455"/>
		<path clip-path="url(#SVGID_2_)" d="M350.334,255.444c-13.52,0-25.249,7.665-31.079,18.888c0.09,0.187,0.183,0.373,0.276,0.559
			c1.661-3.283,3.831-6.264,6.407-8.841c6.245-6.244,14.867-10.104,24.396-10.104c2.336,0,4.618,0.232,6.824,0.675
			c0.013-0.168,0.026-0.335,0.041-0.502C354.979,255.677,352.684,255.444,350.334,255.444"/>
		<path clip-path="url(#SVGID_2_)" d="M319.255,274.332c-0.193,0.371-0.378,0.745-0.558,1.123c0.096,0.188,0.192,0.373,0.292,0.559
			c0.174-0.378,0.355-0.753,0.543-1.123C319.438,274.705,319.345,274.519,319.255,274.332"/>
		<path clip-path="url(#SVGID_2_)" d="M358.185,256.329c-0.015,0.168-0.027,0.336-0.04,0.504c4.573,1.059,8.797,3.025,12.472,5.701
			c0.136-0.106,0.271-0.212,0.408-0.316C367.249,259.445,362.899,257.411,358.185,256.329"/>
		<path clip-path="url(#SVGID_2_)" d="M357.199,256.118c-0.015,0.167-0.028,0.334-0.041,0.502c0.331,0.066,0.659,0.138,0.986,0.213
			c0.013-0.168,0.025-0.336,0.04-0.504C357.858,256.255,357.529,256.185,357.199,256.118"/>
		<path clip-path="url(#SVGID_2_)" fill="#39B54A" d="M423.902,276.014c-5.972,11.199-17.769,18.821-31.347,18.821
			c-7.907,0-15.21-2.585-21.11-6.956c-3.876,2.871-8.354,4.971-13.214,6.074c0.82,8.127,4.461,15.42,9.929,20.889
			c6.245,6.244,14.867,10.104,24.396,10.104c9.529,0,18.151-3.86,24.396-10.104c6.245-6.245,10.105-14.867,10.105-24.396h0.5l0,0
			h-0.5C427.057,285.293,425.927,280.404,423.902,276.014"/>
		<path clip-path="url(#SVGID_2_)" fill="#00B54A" d="M392.556,255.945c-2.336,0-4.618,0.232-6.824,0.675
			c0.068,0.896,0.103,1.802,0.103,2.715l0,0l0,0c0,11.325-5.303,21.411-13.561,27.911c5.692,4.145,12.7,6.589,20.282,6.589
			c9.529,0,18.151-3.86,24.396-10.104c2.577-2.577,4.747-5.558,6.408-8.84c-1.661-3.283-3.831-6.264-6.408-8.841
			C410.707,259.806,402.085,255.945,392.556,255.945"/>
		<path clip-path="url(#SVGID_2_)" fill="#00004A" d="M384.744,256.833c-6.391,1.479-12.1,4.733-16.584,9.217
			c-2.576,2.577-4.746,5.558-6.407,8.841c1.661,3.282,3.831,6.263,6.407,8.84c1.032,1.032,2.129,1.998,3.284,2.894
			c1.156-0.896,2.253-1.861,3.285-2.894c6.244-6.245,10.104-14.867,10.104-24.396h0.5l0,0h-0.5
			C384.834,258.493,384.804,257.659,384.744,256.833"/>
		<path clip-path="url(#SVGID_2_)" d="M385.834,259.335h-0.5h-0.5c0,9.528-3.86,18.15-10.104,24.396
			c-1.032,1.032-2.129,1.998-3.285,2.894c0.273,0.211,0.55,0.419,0.829,0.622C380.531,280.746,385.834,270.66,385.834,259.335
			 M385.731,256.62c-0.331,0.066-0.659,0.138-0.987,0.213c0.06,0.826,0.09,1.66,0.09,2.502h0.5h0.5l0,0
			C385.834,258.422,385.8,257.516,385.731,256.62"/>
		<path clip-path="url(#SVGID_2_)" d="M423.359,274.891c-1.661,3.282-3.831,6.263-6.408,8.84
			c-6.244,6.244-14.866,10.104-24.396,10.104c-7.582,0-14.59-2.444-20.282-6.589c-0.272,0.214-0.55,0.426-0.828,0.633
			c5.9,4.371,13.203,6.956,21.11,6.956c13.578,0,25.375-7.622,31.347-18.821C423.729,275.636,423.547,275.261,423.359,274.891"/>
		<path clip-path="url(#SVGID_2_)" fill="#39004A" d="M361.21,276.014c-2.024,4.391-3.154,9.279-3.154,14.433
			c0,0.841,0.03,1.675,0.089,2.501c4.572-1.059,8.797-3.025,12.472-5.701C366.754,284.206,363.539,280.383,361.21,276.014"/>
		<path clip-path="url(#SVGID_2_)" d="M370.616,287.246c-3.675,2.676-7.899,4.643-12.472,5.701c0.024,0.337,0.054,0.672,0.087,1.006
			c4.859-1.104,9.338-3.203,13.214-6.074C371.166,287.672,370.889,287.46,370.616,287.246"/>
		<path clip-path="url(#SVGID_2_)" d="M361.753,274.891c-0.188,0.37-0.369,0.745-0.543,1.123c2.329,4.369,5.544,8.192,9.406,11.232
			c0.279-0.203,0.556-0.411,0.828-0.622c-1.155-0.896-2.252-1.861-3.284-2.894C365.584,281.153,363.414,278.173,361.753,274.891"/>
		<path clip-path="url(#SVGID_2_)" d="M371.444,286.624c-0.272,0.211-0.549,0.419-0.828,0.622c0.272,0.214,0.55,0.426,0.829,0.633
			c0.278-0.207,0.556-0.419,0.828-0.633C371.994,287.043,371.718,286.835,371.444,286.624"/>
		<path clip-path="url(#SVGID_2_)" d="M424.193,275.456c-0.096,0.188-0.192,0.372-0.291,0.558c2.024,4.391,3.154,9.279,3.154,14.433
			h0.5C427.557,285.082,426.35,279.999,424.193,275.456"/>
		<path clip-path="url(#SVGID_2_)" d="M392.555,255.444c-2.35,0-4.646,0.232-6.864,0.674c0.015,0.167,0.028,0.334,0.041,0.502
			c2.206-0.442,4.488-0.675,6.824-0.675c9.529,0,18.151,3.86,24.396,10.104c2.577,2.577,4.747,5.558,6.408,8.841
			c0.094-0.186,0.186-0.371,0.276-0.559C417.806,263.11,406.075,255.444,392.555,255.444"/>
		<path clip-path="url(#SVGID_2_)" d="M384.705,256.329c-4.891,1.122-9.39,3.27-13.261,6.202c-0.139-0.105-0.279-0.21-0.42-0.313
			c-0.137,0.104-0.272,0.21-0.408,0.316c-3.862,3.04-7.077,6.864-9.406,11.232c0.174,0.378,0.355,0.753,0.543,1.124
			c1.661-3.283,3.831-6.264,6.407-8.841c4.484-4.483,10.193-7.737,16.584-9.217C384.732,256.665,384.719,256.496,384.705,256.329"/>
		<path clip-path="url(#SVGID_2_)" d="M385.69,256.118c-0.331,0.065-0.658,0.136-0.985,0.211c0.014,0.167,0.027,0.336,0.039,0.504
			c0.328-0.075,0.656-0.146,0.987-0.213C385.719,256.452,385.705,256.285,385.69,256.118"/>
		<path clip-path="url(#SVGID_2_)" d="M423.636,274.332c-0.091,0.188-0.183,0.373-0.276,0.559c0.188,0.37,0.369,0.745,0.543,1.123
			c0.099-0.186,0.195-0.37,0.291-0.558C424.014,275.077,423.828,274.703,423.636,274.332"/>
		<path clip-path="url(#SVGID_2_)" d="M427.557,290.446L427.557,290.446h-0.5c0,9.528-3.86,18.15-10.105,24.396
			c-6.244,6.244-14.866,10.104-24.396,10.104c-9.528,0-18.15-3.86-24.396-10.104c-5.468-5.469-9.108-12.762-9.929-20.889
			c-0.325,0.074-0.654,0.144-0.983,0.209c1.02,9.8,6.025,18.416,13.368,24.195c0.135,0.105,0.272,0.212,0.408,0.316
			c0.141-0.104,0.28-0.208,0.42-0.313c5.868,4.445,13.181,7.086,21.11,7.086C411.887,325.446,427.557,309.776,427.557,290.446
			L427.557,290.446"/>
		<path clip-path="url(#SVGID_2_)" d="M360.637,274.891c-2.294,4.697-3.581,9.977-3.581,15.556c0,0.913,0.034,1.818,0.103,2.714
			c0.331-0.066,0.659-0.137,0.986-0.213c-0.059-0.826-0.089-1.66-0.089-2.501c0-5.153,1.13-10.042,3.154-14.433
			C361.012,275.643,360.821,275.27,360.637,274.891"/>
		<path clip-path="url(#SVGID_2_)" d="M358.145,292.947c-0.327,0.076-0.655,0.146-0.986,0.213c0.025,0.336,0.055,0.669,0.09,1.002
			c0.329-0.065,0.658-0.135,0.983-0.209C358.198,293.619,358.169,293.284,358.145,292.947"/>
		<path clip-path="url(#SVGID_2_)" d="M361.21,273.767c-0.198,0.371-0.389,0.745-0.573,1.124c0.185,0.379,0.375,0.752,0.573,1.123
			c0.174-0.378,0.355-0.753,0.543-1.123C361.565,274.52,361.384,274.145,361.21,273.767"/>
	</g>
	<g>
		<path d="M380.926,348.585l-0.98,2.97h-1.261l3.222-9.441h1.456l3.222,9.441h-1.302l-1.009-2.97H380.926z M384.035,347.633
			l-0.938-2.718c-0.21-0.616-0.351-1.177-0.49-1.723h-0.028c-0.14,0.546-0.28,1.135-0.477,1.709l-0.924,2.731H384.035z"/>
		<path d="M387.896,346.988c0-0.868-0.028-1.569-0.056-2.213h1.093l0.069,1.162h0.028c0.49-0.826,1.303-1.303,2.409-1.303
			c1.653,0,2.886,1.387,2.886,3.432c0,2.438-1.499,3.643-3.096,3.643c-0.896,0-1.681-0.393-2.087-1.064h-0.028v3.684h-1.219V346.988
			z M389.115,348.795c0,0.183,0.014,0.351,0.056,0.505c0.225,0.854,0.967,1.442,1.85,1.442c1.303,0,2.059-1.064,2.059-2.619
			c0-1.345-0.714-2.508-2.017-2.508c-0.841,0-1.639,0.589-1.863,1.513c-0.042,0.154-0.084,0.337-0.084,0.49V348.795z"/>
		<path d="M395.862,346.988c0-0.868-0.028-1.569-0.056-2.213h1.093l0.069,1.162h0.028c0.49-0.826,1.303-1.303,2.409-1.303
			c1.653,0,2.886,1.387,2.886,3.432c0,2.438-1.499,3.643-3.096,3.643c-0.896,0-1.681-0.393-2.087-1.064h-0.028v3.684h-1.219V346.988
			z M397.081,348.795c0,0.183,0.014,0.351,0.056,0.505c0.225,0.854,0.967,1.442,1.85,1.442c1.303,0,2.059-1.064,2.059-2.619
			c0-1.345-0.714-2.508-2.017-2.508c-0.841,0-1.639,0.589-1.863,1.513c-0.042,0.154-0.084,0.337-0.084,0.49V348.795z"/>
		<path d="M403.828,341.609h1.232v9.945h-1.232V341.609z"/>
		<path d="M407.58,344.775l1.471,4.006c0.168,0.448,0.336,0.98,0.448,1.387h0.028c0.126-0.406,0.266-0.925,0.435-1.415l1.345-3.978
			h1.302l-1.849,4.832c-0.883,2.325-1.484,3.502-2.325,4.244c-0.616,0.519-1.205,0.729-1.513,0.785l-0.309-1.022
			c0.309-0.099,0.715-0.295,1.079-0.603c0.336-0.267,0.742-0.742,1.036-1.373c0.057-0.126,0.099-0.224,0.099-0.294
			s-0.028-0.168-0.099-0.322l-2.493-6.247H407.58z"/>
		<path d="M416.735,342.254c0.532-0.126,1.387-0.21,2.228-0.21c1.219,0,2.003,0.21,2.577,0.686c0.49,0.364,0.799,0.925,0.799,1.667
			c0,0.925-0.617,1.724-1.598,2.073v0.042c0.896,0.21,1.947,0.953,1.947,2.354c0,0.812-0.322,1.442-0.812,1.891
			c-0.645,0.603-1.709,0.883-3.249,0.883c-0.841,0-1.485-0.056-1.892-0.112V342.254z M417.954,346.12h1.106
			c1.274,0,2.031-0.687,2.031-1.598c0-1.092-0.826-1.54-2.06-1.54c-0.56,0-0.882,0.042-1.078,0.084V346.12z M417.954,350.63
			c0.252,0.042,0.588,0.057,1.022,0.057c1.261,0,2.424-0.463,2.424-1.835c0-1.275-1.107-1.821-2.438-1.821h-1.009V350.63z"/>
		<path d="M424.281,341.609h1.232v9.945h-1.232V341.609z"/>
		<path d="M428.272,348.389c0.028,1.667,1.078,2.354,2.325,2.354c0.883,0,1.429-0.154,1.877-0.351l0.225,0.883
			c-0.435,0.196-1.191,0.435-2.27,0.435c-2.087,0-3.334-1.387-3.334-3.432c0-2.046,1.205-3.643,3.18-3.643
			c2.228,0,2.802,1.934,2.802,3.18c0,0.252-0.014,0.435-0.042,0.574H428.272z M431.887,347.507c0.014-0.771-0.322-1.989-1.709-1.989
			c-1.261,0-1.793,1.135-1.892,1.989H431.887z"/>
		<path d="M434.6,346.61c0-0.715-0.014-1.275-0.056-1.835h1.093l0.069,1.12h0.028c0.336-0.63,1.12-1.261,2.241-1.261
			c0.938,0,2.396,0.561,2.396,2.886v4.034h-1.233v-3.908c0-1.093-0.406-2.003-1.568-2.003c-0.799,0-1.429,0.574-1.653,1.261
			c-0.056,0.154-0.084,0.364-0.084,0.574v4.076H434.6V346.61z"/>
		<path d="M448.21,341.609v8.194c0,0.603,0.028,1.289,0.057,1.751h-1.093l-0.056-1.177h-0.042c-0.364,0.757-1.177,1.331-2.283,1.331
			c-1.64,0-2.914-1.387-2.914-3.446c-0.014-2.255,1.4-3.628,3.04-3.628c1.05,0,1.736,0.49,2.045,1.022h0.028v-4.048H448.21z
			 M446.992,347.534c0-0.153-0.015-0.364-0.057-0.518c-0.182-0.771-0.854-1.415-1.778-1.415c-1.275,0-2.031,1.12-2.031,2.605
			c0,1.373,0.686,2.507,2.003,2.507c0.826,0,1.583-0.56,1.807-1.471c0.042-0.168,0.057-0.336,0.057-0.532V347.534z"/>
		<path d="M451.639,342.87c0,0.42-0.294,0.756-0.784,0.756c-0.448,0-0.743-0.336-0.743-0.756s0.309-0.771,0.771-0.771
			C451.33,342.1,451.639,342.436,451.639,342.87z M450.266,351.555v-6.779h1.232v6.779H450.266z"/>
		<path d="M453.541,346.61c0-0.715-0.014-1.275-0.056-1.835h1.093l0.069,1.12h0.028c0.336-0.63,1.12-1.261,2.241-1.261
			c0.938,0,2.396,0.561,2.396,2.886v4.034h-1.233v-3.908c0-1.093-0.406-2.003-1.568-2.003c-0.799,0-1.429,0.574-1.653,1.261
			c-0.056,0.154-0.084,0.364-0.084,0.574v4.076h-1.232V346.61z"/>
		<path d="M467.109,350.561c0,1.568-0.321,2.507-0.966,3.109c-0.673,0.603-1.625,0.812-2.479,0.812
			c-0.812,0-1.709-0.196-2.255-0.561l0.308-0.952c0.448,0.294,1.148,0.546,1.989,0.546c1.261,0,2.186-0.658,2.186-2.381v-0.743
			h-0.028c-0.364,0.631-1.106,1.135-2.157,1.135c-1.681,0-2.886-1.429-2.886-3.306c0-2.297,1.499-3.586,3.067-3.586
			c1.177,0,1.808,0.603,2.115,1.163h0.028l0.042-1.022h1.093c-0.042,0.476-0.057,1.036-0.057,1.849V350.561z M465.877,347.45
			c0-0.21-0.014-0.392-0.07-0.546c-0.224-0.729-0.812-1.316-1.723-1.316c-1.177,0-2.017,0.994-2.017,2.562
			c0,1.331,0.686,2.438,2.003,2.438c0.771,0,1.457-0.476,1.709-1.261c0.069-0.21,0.098-0.448,0.098-0.658V347.45z"/>
	</g>
</g>
</svg>
