<?xml version="1.0" encoding="utf-8"?>
<!-- Generator: Adobe Illustrator 15.1.0, SVG Export Plug-In . SVG Version: 6.00 Build 0)  -->
<!DOCTYPE svg PUBLIC "-//W3C//DTD SVG 1.1//EN" "http://www.w3.org/Graphics/SVG/1.1/DTD/svg11.dtd">
<svg version="1.1" id="Layer_1" xmlns="http://www.w3.org/2000/svg" xmlns:xlink="http://www.w3.org/1999/xlink" x="0px" y="0px"
	 width="640px" height="480px" viewBox="0 0 640 480" enable-background="new 0 0 640 480" xml:space="preserve">
<rect x="93.222" y="103.242" fill="#FFFFFF" stroke="#000000" stroke-miterlimit="10" width="124.444" height="86.778"/>
<rect x="512.556" y="107.889" fill="#FFFFFF" stroke="#000000" stroke-miterlimit="10" width="124.444" height="86.777"/>
<rect x="93.222" y="221.891" fill="#FFFFFF" stroke="#000000" stroke-miterlimit="10" width="124.444" height="86.777"/>
<rect x="365.888" y="219.666" fill="#FFFFFF" stroke="#000000" stroke-miterlimit="10" width="124.443" height="86.777"/>
<circle fill="#FF00FF" stroke="#000000" stroke-miterlimit="10" cx="132" cy="147.797" r="35"/>
<circle fill="#FF00FF" stroke="#000000" stroke-miterlimit="10" cx="553.112" cy="151.723" r="35"/>
<circle fill="#00FFFF" stroke="#000000" stroke-miterlimit="10" cx="602" cy="151.278" r="35"/>
<circle fill="#FF00FF" stroke="#000000" stroke-miterlimit="10" cx="134.333" cy="38.889" r="35"/>
<circle fill="#00FFFF" stroke="#000000" stroke-miterlimit="10" cx="176.555" cy="38.889" r="35"/>
<circle fill="#00FFFF" stroke="#000000" stroke-miterlimit="10" cx="179.666" cy="265.279" r="35"/>
<g>
	<path d="M4.466,261.57c0.546,0.35,1.331,0.617,2.171,0.617c1.247,0,1.975-0.658,1.975-1.611c0-0.869-0.504-1.387-1.779-1.863
		c-1.541-0.561-2.493-1.373-2.493-2.689c0-1.471,1.218-2.562,3.053-2.562c0.953,0,1.667,0.223,2.073,0.461l-0.336,0.994
		c-0.294-0.182-0.925-0.447-1.779-0.447c-1.289,0-1.779,0.77-1.779,1.414c0,0.883,0.574,1.316,1.877,1.822
		c1.597,0.615,2.396,1.387,2.396,2.773c0,1.457-1.065,2.73-3.292,2.73c-0.911,0-1.905-0.279-2.409-0.615L4.466,261.57z"/>
	<path d="M11.479,253.109h1.233v4.244h0.028c0.196-0.35,0.504-0.672,0.882-0.883c0.364-0.209,0.799-0.336,1.261-0.336
		c0.911,0,2.367,0.561,2.367,2.887v4.033h-1.232v-3.895c0-1.092-0.406-2.002-1.569-2.002c-0.798,0-1.415,0.561-1.653,1.219
		c-0.07,0.182-0.084,0.363-0.084,0.588v4.09h-1.233V253.109z"/>
	<path d="M24.012,261.43c0,0.59,0.028,1.164,0.098,1.625h-1.107l-0.098-0.854h-0.042c-0.378,0.531-1.107,1.008-2.073,1.008
		c-1.373,0-2.073-0.967-2.073-1.947c0-1.639,1.457-2.535,4.076-2.521v-0.139c0-0.547-0.154-1.57-1.541-1.555
		c-0.645,0-1.303,0.182-1.779,0.504l-0.28-0.826c0.561-0.352,1.387-0.59,2.241-0.59c2.073,0,2.578,1.416,2.578,2.76V261.43z
		 M22.821,259.596c-1.345-0.029-2.871,0.209-2.871,1.527c0,0.812,0.532,1.176,1.148,1.176c0.896,0,1.471-0.561,1.667-1.135
		c0.042-0.141,0.056-0.279,0.056-0.393V259.596z"/>
	<path d="M25.998,258.488c0-0.867-0.028-1.568-0.056-2.213h1.093l0.07,1.162h0.028c0.49-0.826,1.303-1.303,2.409-1.303
		c1.653,0,2.886,1.387,2.886,3.432c0,2.438-1.499,3.643-3.096,3.643c-0.896,0-1.681-0.393-2.087-1.064h-0.028v3.684h-1.219V258.488z
		 M27.216,260.295c0,0.184,0.014,0.352,0.056,0.506c0.224,0.854,0.966,1.441,1.849,1.441c1.303,0,2.06-1.064,2.06-2.619
		c0-1.344-0.715-2.508-2.017-2.508c-0.841,0-1.639,0.59-1.863,1.514c-0.042,0.154-0.084,0.336-0.084,0.49V260.295z"/>
	<path d="M34.65,259.889c0.028,1.668,1.079,2.354,2.325,2.354c0.882,0,1.429-0.154,1.877-0.35l0.224,0.883
		c-0.434,0.195-1.19,0.434-2.269,0.434c-2.087,0-3.334-1.387-3.334-3.432s1.205-3.643,3.18-3.643c2.227,0,2.802,1.934,2.802,3.18
		c0,0.252-0.014,0.436-0.042,0.574H34.65z M38.264,259.008c0.014-0.771-0.322-1.99-1.709-1.99c-1.261,0-1.793,1.135-1.891,1.99
		H38.264z"/>
	<path d="M43.553,263.055v-0.756l0.966-0.939c2.326-2.213,3.39-3.389,3.39-4.762c0-0.924-0.435-1.779-1.793-1.779
		c-0.827,0-1.513,0.42-1.933,0.771l-0.392-0.869c0.616-0.518,1.527-0.924,2.563-0.924c1.961,0,2.788,1.344,2.788,2.646
		c0,1.682-1.219,3.039-3.138,4.889l-0.714,0.672v0.029h4.076v1.021H43.553z"/>
	<path d="M50.847,257.396c0-0.52,0.351-0.883,0.827-0.883c0.504,0,0.827,0.363,0.827,0.883c0,0.49-0.322,0.867-0.841,0.867
		C51.183,258.264,50.847,257.887,50.847,257.396z M50.847,262.34c0-0.518,0.351-0.881,0.827-0.881c0.504,0,0.827,0.363,0.827,0.881
		c0,0.492-0.322,0.869-0.841,0.869C51.183,263.209,50.847,262.832,50.847,262.34z"/>
</g>
<g>
	<path d="M7.132,149.459c0.546,0.35,1.331,0.616,2.171,0.616c1.247,0,1.975-0.658,1.975-1.611c0-0.868-0.504-1.387-1.779-1.863
		c-1.541-0.56-2.493-1.372-2.493-2.689c0-1.471,1.218-2.562,3.053-2.562c0.953,0,1.667,0.224,2.073,0.462l-0.336,0.994
		c-0.294-0.182-0.925-0.448-1.779-0.448c-1.289,0-1.779,0.771-1.779,1.415c0,0.883,0.574,1.316,1.877,1.821
		c1.597,0.616,2.396,1.387,2.396,2.773c0,1.457-1.065,2.731-3.292,2.731c-0.911,0-1.905-0.28-2.409-0.616L7.132,149.459z"/>
	<path d="M14.146,140.999h1.233v4.244h0.028c0.196-0.351,0.504-0.672,0.882-0.883c0.364-0.21,0.799-0.336,1.261-0.336
		c0.911,0,2.367,0.561,2.367,2.886v4.034h-1.232v-3.895c0-1.092-0.406-2.003-1.569-2.003c-0.798,0-1.415,0.561-1.653,1.219
		c-0.07,0.183-0.084,0.364-0.084,0.589v4.09h-1.233V140.999z"/>
	<path d="M26.679,149.319c0,0.589,0.028,1.163,0.098,1.625H25.67l-0.098-0.854H25.53c-0.378,0.532-1.107,1.009-2.073,1.009
		c-1.373,0-2.073-0.967-2.073-1.947c0-1.639,1.457-2.535,4.076-2.521v-0.14c0-0.547-0.154-1.569-1.541-1.555
		c-0.645,0-1.303,0.182-1.779,0.504l-0.28-0.826c0.561-0.351,1.387-0.589,2.241-0.589c2.073,0,2.578,1.415,2.578,2.76V149.319z
		 M25.488,147.484c-1.345-0.028-2.871,0.21-2.871,1.527c0,0.812,0.532,1.176,1.148,1.176c0.896,0,1.471-0.56,1.667-1.134
		c0.042-0.141,0.056-0.28,0.056-0.393V147.484z"/>
	<path d="M28.664,146.377c0-0.868-0.028-1.569-0.056-2.213h1.093l0.07,1.162h0.028c0.49-0.826,1.303-1.303,2.409-1.303
		c1.653,0,2.886,1.387,2.886,3.432c0,2.438-1.499,3.643-3.096,3.643c-0.896,0-1.681-0.393-2.087-1.064h-0.028v3.684h-1.219V146.377z
		 M29.883,148.184c0,0.183,0.014,0.351,0.056,0.505c0.224,0.854,0.966,1.442,1.849,1.442c1.303,0,2.06-1.064,2.06-2.619
		c0-1.345-0.715-2.508-2.017-2.508c-0.841,0-1.639,0.589-1.863,1.513c-0.042,0.154-0.084,0.337-0.084,0.49V148.184z"/>
	<path d="M37.316,147.778c0.028,1.667,1.079,2.354,2.325,2.354c0.882,0,1.429-0.154,1.877-0.351l0.224,0.883
		c-0.434,0.196-1.19,0.435-2.269,0.435c-2.087,0-3.334-1.387-3.334-3.432c0-2.046,1.205-3.643,3.18-3.643
		c2.227,0,2.802,1.934,2.802,3.18c0,0.252-0.014,0.435-0.042,0.574H37.316z M40.93,146.896c0.014-0.771-0.322-1.989-1.709-1.989
		c-1.261,0-1.793,1.135-1.891,1.989H40.93z"/>
	<path d="M48.895,142.988h-0.028l-1.583,0.854l-0.238-0.938l1.989-1.064h1.051v9.104h-1.191V142.988z"/>
	<path d="M53.513,145.285c0-0.519,0.351-0.883,0.827-0.883c0.504,0,0.827,0.364,0.827,0.883c0,0.49-0.322,0.868-0.841,0.868
		C53.85,146.153,53.513,145.775,53.513,145.285z M53.513,150.229c0-0.518,0.351-0.882,0.827-0.882c0.504,0,0.827,0.364,0.827,0.882
		c0,0.491-0.322,0.869-0.841,0.869C53.85,151.098,53.513,150.72,53.513,150.229z"/>
</g>
<g>
</g>
<circle fill="#00FFFF" stroke="#000000" stroke-miterlimit="10" cx="452.331" cy="263.055" r="35"/>
<path fill="#0000FF" stroke="#000000" stroke-miterlimit="10" d="M418.054,262.833c0,11.148,5.219,21.072,13.34,27.481
	c7.799-6.419,12.773-16.146,12.773-27.036c0-11.148-5.219-21.072-13.34-27.481C423.028,242.216,418.054,251.943,418.054,262.833z"/>
<line fill="none" stroke="#000000" stroke-miterlimit="10" x1="429.055" y1="219.666" x2="429.055" y2="151.723"/>
<g>
	<path d="M407.095,144.257c-0.435,0.224-1.345,0.448-2.493,0.448c-2.662,0-4.651-1.681-4.651-4.791c0-2.969,2.004-4.958,4.931-4.958
		c1.163,0,1.919,0.252,2.241,0.42l-0.308,0.994c-0.448-0.224-1.106-0.392-1.892-0.392c-2.213,0-3.684,1.415-3.684,3.894
		c0,2.325,1.331,3.796,3.614,3.796c0.756,0,1.513-0.154,2.003-0.393L407.095,144.257z"/>
	<path d="M414.57,141.105c0,2.507-1.751,3.6-3.376,3.6c-1.821,0-3.25-1.345-3.25-3.488c0-2.255,1.499-3.586,3.362-3.586
		C413.253,137.631,414.57,139.046,414.57,141.105z M409.205,141.175c0,1.485,0.841,2.605,2.045,2.605c1.177,0,2.06-1.106,2.06-2.633
		c0-1.148-0.574-2.591-2.031-2.591C409.835,138.556,409.205,139.9,409.205,141.175z"/>
	<path d="M416.121,139.606c0-0.714-0.028-1.274-0.056-1.835h1.078l0.057,1.107h0.042c0.378-0.645,1.008-1.247,2.143-1.247
		c0.911,0,1.611,0.561,1.905,1.359h0.028c0.21-0.392,0.49-0.672,0.771-0.882c0.405-0.308,0.84-0.477,1.484-0.477
		c0.91,0,2.241,0.588,2.241,2.942v3.978h-1.205v-3.824c0-1.316-0.49-2.087-1.471-2.087c-0.714,0-1.246,0.518-1.471,1.106
		c-0.056,0.182-0.098,0.392-0.098,0.616v4.188h-1.205v-4.062c0-1.079-0.476-1.849-1.414-1.849c-0.757,0-1.331,0.616-1.527,1.232
		c-0.07,0.168-0.098,0.393-0.098,0.603v4.076h-1.205V139.606z"/>
	<path d="M427.797,139.984c0-0.869-0.028-1.569-0.056-2.213h1.093l0.069,1.163h0.028c0.49-0.826,1.303-1.303,2.409-1.303
		c1.653,0,2.886,1.387,2.886,3.432c0,2.437-1.499,3.642-3.096,3.642c-0.896,0-1.681-0.393-2.087-1.065h-0.028v3.684h-1.219V139.984z
		 M429.016,141.792c0,0.182,0.014,0.35,0.056,0.504c0.225,0.854,0.967,1.443,1.85,1.443c1.303,0,2.059-1.064,2.059-2.619
		c0-1.345-0.714-2.508-2.017-2.508c-0.841,0-1.639,0.588-1.863,1.513c-0.042,0.154-0.084,0.336-0.084,0.49V141.792z"/>
	<path d="M441.898,141.105c0,2.507-1.751,3.6-3.376,3.6c-1.821,0-3.25-1.345-3.25-3.488c0-2.255,1.499-3.586,3.362-3.586
		C440.581,137.631,441.898,139.046,441.898,141.105z M436.533,141.175c0,1.485,0.841,2.605,2.045,2.605
		c1.177,0,2.06-1.106,2.06-2.633c0-1.148-0.574-2.591-2.031-2.591C437.163,138.556,436.533,139.9,436.533,141.175z"/>
	<path d="M443.28,143.304c0.378,0.224,1.022,0.476,1.639,0.476c0.883,0,1.303-0.434,1.303-1.008c0-0.588-0.35-0.896-1.246-1.233
		c-1.233-0.448-1.808-1.106-1.808-1.919c0-1.093,0.896-1.989,2.34-1.989c0.686,0,1.288,0.182,1.652,0.42l-0.294,0.896
		c-0.267-0.168-0.757-0.406-1.387-0.406c-0.729,0-1.121,0.42-1.121,0.924c0,0.561,0.393,0.812,1.275,1.163
		c1.162,0.434,1.778,1.022,1.778,2.031c0,1.205-0.938,2.045-2.521,2.045c-0.742,0-1.429-0.196-1.904-0.477L443.28,143.304z"/>
	<path d="M450.365,135.866c0,0.42-0.294,0.756-0.784,0.756c-0.448,0-0.743-0.336-0.743-0.756c0-0.42,0.309-0.771,0.771-0.771
		C450.057,135.096,450.365,135.432,450.365,135.866z M448.992,144.551v-6.78h1.232v6.78H448.992z"/>
	<path d="M453.754,136.146v1.625h1.765v0.938h-1.765v3.656c0,0.84,0.237,1.316,0.924,1.316c0.336,0,0.532-0.028,0.715-0.084
		l0.056,0.938c-0.238,0.084-0.616,0.168-1.093,0.168c-0.574,0-1.036-0.196-1.33-0.519c-0.337-0.378-0.477-0.98-0.477-1.779v-3.698
		h-1.051v-0.938h1.051v-1.261L453.754,136.146z"/>
	<path d="M457.505,141.385c0.028,1.667,1.078,2.353,2.325,2.353c0.883,0,1.429-0.154,1.877-0.35l0.225,0.882
		c-0.435,0.196-1.191,0.435-2.27,0.435c-2.087,0-3.334-1.387-3.334-3.432c0-2.045,1.205-3.642,3.18-3.642
		c2.228,0,2.802,1.933,2.802,3.18c0,0.252-0.015,0.435-0.042,0.575H457.505z M461.119,140.502c0.014-0.77-0.322-1.989-1.709-1.989
		c-1.261,0-1.793,1.134-1.892,1.989H461.119z"/>
</g>
<g>
	<g>
		<line fill="none" stroke="#000000" stroke-miterlimit="10" x1="217.666" y1="150.797" x2="499.744" y2="150.797"/>
		<g>
			<path d="M505.779,150.797c-2.84,1.054-6.363,2.852-8.547,4.756l1.72-4.756l-1.72-4.755
				C499.416,147.947,502.939,149.745,505.779,150.797z"/>
		</g>
	</g>
</g>
<g>
	<g>
		<line fill="none" stroke="#000000" stroke-miterlimit="10" x1="217.667" y1="265.28" x2="352.522" y2="265.28"/>
		<g>
			<path d="M358.558,265.28c-2.84,1.054-6.363,2.852-8.548,4.756l1.721-4.756l-1.721-4.755
				C352.194,262.43,355.718,264.228,358.558,265.28z"/>
		</g>
	</g>
</g>
<line fill="none" stroke="#000000" stroke-miterlimit="10" x1="217.667" y1="174.884" x2="281.335" y2="174.884"/>
<line fill="none" stroke="#000000" stroke-miterlimit="10" x1="281.335" y1="174.884" x2="281.335" y2="265.279"/>
<g>
	<path d="M289.399,205.028c0.532-0.126,1.387-0.21,2.228-0.21c1.218,0,2.003,0.21,2.577,0.687c0.49,0.364,0.798,0.924,0.798,1.667
		c0,0.924-0.616,1.723-1.597,2.073v0.042c0.896,0.21,1.947,0.953,1.947,2.354c0,0.812-0.322,1.443-0.812,1.891
		c-0.645,0.602-1.709,0.882-3.25,0.882c-0.84,0-1.485-0.056-1.891-0.112V205.028z M290.618,208.894h1.106
		c1.275,0,2.031-0.686,2.031-1.597c0-1.093-0.826-1.541-2.059-1.541c-0.56,0-0.882,0.042-1.079,0.084V208.894z M290.618,213.405
		c0.252,0.042,0.588,0.056,1.022,0.056c1.261,0,2.423-0.462,2.423-1.835c0-1.274-1.106-1.821-2.437-1.821h-1.009V213.405z"/>
	<path d="M296.945,204.384h1.233v9.945h-1.233V204.384z"/>
	<path d="M300.936,211.164c0.028,1.667,1.079,2.353,2.325,2.353c0.882,0,1.429-0.154,1.877-0.35l0.224,0.882
		c-0.434,0.196-1.19,0.435-2.269,0.435c-2.087,0-3.334-1.387-3.334-3.432c0-2.045,1.205-3.642,3.18-3.642
		c2.228,0,2.802,1.933,2.802,3.18c0,0.252-0.014,0.435-0.042,0.575H300.936z M304.549,210.281c0.014-0.77-0.322-1.989-1.709-1.989
		c-1.26,0-1.793,1.134-1.891,1.989H304.549z"/>
	<path d="M307.263,209.384c0-0.714-0.014-1.274-0.056-1.835h1.093l0.07,1.121h0.028c0.336-0.63,1.121-1.261,2.241-1.261
		c0.938,0,2.395,0.561,2.395,2.886v4.034h-1.232v-3.908c0-1.092-0.406-2.003-1.569-2.003c-0.798,0-1.429,0.574-1.653,1.261
		c-0.056,0.154-0.084,0.364-0.084,0.574v4.076h-1.233V209.384z"/>
	<path d="M320.874,204.384v8.194c0,0.603,0.028,1.289,0.057,1.751h-1.093l-0.056-1.177h-0.042c-0.364,0.756-1.177,1.331-2.283,1.331
		c-1.64,0-2.914-1.387-2.914-3.446c-0.014-2.255,1.4-3.628,3.04-3.628c1.05,0,1.736,0.49,2.045,1.023h0.028v-4.048H320.874z
		 M319.656,210.309c0-0.154-0.015-0.364-0.057-0.519c-0.182-0.771-0.854-1.415-1.779-1.415c-1.274,0-2.03,1.121-2.03,2.605
		c0,1.373,0.687,2.507,2.003,2.507c0.826,0,1.583-0.561,1.807-1.471c0.042-0.168,0.057-0.336,0.057-0.533V210.309z"/>
</g>
<g>
	<path d="M122.507,341.775v9.441h-1.232v-9.441H122.507z"/>
	<path d="M124.732,346.272c0-0.715-0.014-1.275-0.056-1.835h1.093l0.07,1.12h0.028c0.336-0.63,1.121-1.261,2.241-1.261
		c0.938,0,2.395,0.561,2.395,2.886v4.034h-1.232v-3.908c0-1.093-0.406-2.003-1.569-2.003c-0.798,0-1.429,0.574-1.653,1.261
		c-0.056,0.154-0.084,0.364-0.084,0.574v4.076h-1.233V346.272z"/>
	<path d="M142.712,350.797c-0.546,0.21-1.639,0.518-2.914,0.518c-1.429,0-2.605-0.364-3.53-1.246
		c-0.812-0.784-1.316-2.045-1.316-3.516c0-2.816,1.947-4.875,5.113-4.875c1.092,0,1.961,0.238,2.367,0.435l-0.308,0.994
		c-0.504-0.238-1.135-0.406-2.087-0.406c-2.297,0-3.796,1.429-3.796,3.796c0,2.396,1.429,3.811,3.642,3.811
		c0.798,0,1.345-0.112,1.625-0.253v-2.815h-1.905v-0.98h3.11V350.797z"/>
	<path d="M144.556,341.888c0.588-0.098,1.359-0.182,2.339-0.182c1.205,0,2.087,0.279,2.647,0.784
		c0.504,0.448,0.827,1.135,0.827,1.975c0,0.854-0.252,1.527-0.729,2.018c-0.658,0.687-1.695,1.036-2.886,1.036
		c-0.364,0-0.7-0.014-0.98-0.084v3.782h-1.219V341.888z M145.774,346.44c0.266,0.069,0.603,0.098,1.009,0.098
		c1.471,0,2.367-0.729,2.367-2.003c0-1.261-0.896-1.863-2.228-1.863c-0.532,0-0.938,0.042-1.148,0.099V346.44z"/>
	<path d="M153.223,341.775v5.604c0,2.101,0.938,2.997,2.199,2.997c1.387,0,2.297-0.924,2.297-2.997v-5.604h1.232v5.52
		c0,2.899-1.527,4.076-3.572,4.076c-1.933,0-3.39-1.093-3.39-4.034v-5.562H153.223z"/>
	<path d="M159.843,352.954c0.308-0.841,0.687-2.34,0.84-3.362l1.373-0.14c-0.336,1.19-0.953,2.745-1.345,3.403L159.843,352.954z"/>
	<path d="M166.507,341.271h1.219v4.258h0.028c0.435-0.756,1.219-1.232,2.312-1.232c1.695,0,2.872,1.401,2.872,3.446
		c0,2.423-1.541,3.628-3.054,3.628c-0.98,0-1.765-0.379-2.283-1.261h-0.028l-0.07,1.106h-1.051c0.028-0.462,0.056-1.148,0.056-1.751
		V341.271z M167.726,348.499c0,0.154,0.014,0.309,0.056,0.448c0.224,0.854,0.952,1.443,1.849,1.443c1.303,0,2.06-1.051,2.06-2.605
		c0-1.359-0.701-2.521-2.031-2.521c-0.827,0-1.611,0.588-1.863,1.513c-0.042,0.154-0.07,0.322-0.07,0.519V348.499z"/>
	<path d="M174.473,341.271h1.233v9.945h-1.233V341.271z"/>
	<path d="M178.463,348.051c0.028,1.667,1.079,2.354,2.325,2.354c0.882,0,1.429-0.154,1.877-0.351l0.224,0.883
		c-0.434,0.196-1.19,0.435-2.269,0.435c-2.087,0-3.334-1.387-3.334-3.432c0-2.046,1.205-3.643,3.18-3.643
		c2.227,0,2.802,1.934,2.802,3.18c0,0.252-0.014,0.435-0.042,0.574H178.463z M182.077,347.169c0.014-0.771-0.322-1.989-1.709-1.989
		c-1.261,0-1.793,1.135-1.891,1.989H182.077z"/>
	<path d="M184.791,346.272c0-0.715-0.014-1.275-0.056-1.835h1.093l0.07,1.12h0.028c0.336-0.63,1.121-1.261,2.241-1.261
		c0.938,0,2.395,0.561,2.395,2.886v4.034h-1.232v-3.908c0-1.093-0.406-2.003-1.569-2.003c-0.798,0-1.429,0.574-1.653,1.261
		c-0.056,0.154-0.084,0.364-0.084,0.574v4.076h-1.233V346.272z"/>
	<path d="M198.402,341.271v8.194c0,0.603,0.028,1.289,0.056,1.751h-1.093l-0.056-1.177h-0.042c-0.364,0.757-1.177,1.331-2.283,1.331
		c-1.639,0-2.914-1.387-2.914-3.446c-0.014-2.255,1.401-3.628,3.04-3.628c1.051,0,1.737,0.49,2.045,1.022h0.028v-4.048H198.402z
		 M197.183,347.196c0-0.153-0.014-0.364-0.056-0.518c-0.182-0.771-0.854-1.415-1.779-1.415c-1.275,0-2.031,1.12-2.031,2.605
		c0,1.373,0.687,2.507,2.003,2.507c0.826,0,1.583-0.56,1.807-1.471c0.042-0.168,0.056-0.336,0.056-0.532V347.196z"/>
	<path d="M201.83,342.532c0,0.42-0.294,0.756-0.785,0.756c-0.448,0-0.742-0.336-0.742-0.756s0.308-0.771,0.77-0.771
		C201.521,341.762,201.83,342.098,201.83,342.532z M200.457,351.217v-6.779h1.233v6.779H200.457z"/>
	<path d="M203.732,346.272c0-0.715-0.014-1.275-0.056-1.835h1.093l0.07,1.12h0.028c0.336-0.63,1.121-1.261,2.241-1.261
		c0.938,0,2.395,0.561,2.395,2.886v4.034h-1.232v-3.908c0-1.093-0.406-2.003-1.569-2.003c-0.798,0-1.429,0.574-1.653,1.261
		c-0.056,0.154-0.084,0.364-0.084,0.574v4.076h-1.233V346.272z"/>
	<path d="M217.302,350.223c0,1.568-0.322,2.507-0.967,3.109c-0.672,0.603-1.625,0.812-2.479,0.812c-0.812,0-1.709-0.196-2.255-0.561
		l0.308-0.952c0.448,0.294,1.149,0.546,1.989,0.546c1.261,0,2.185-0.658,2.185-2.381v-0.743h-0.028
		c-0.364,0.631-1.107,1.135-2.157,1.135c-1.681,0-2.886-1.429-2.886-3.306c0-2.297,1.499-3.586,3.068-3.586
		c1.176,0,1.807,0.603,2.115,1.163h0.028l0.042-1.022h1.093c-0.042,0.476-0.056,1.036-0.056,1.849V350.223z M216.069,347.112
		c0-0.21-0.014-0.392-0.07-0.546c-0.224-0.729-0.812-1.316-1.723-1.316c-1.176,0-2.017,0.994-2.017,2.562
		c0,1.331,0.687,2.438,2.003,2.438c0.77,0,1.457-0.476,1.708-1.261c0.07-0.21,0.098-0.448,0.098-0.658V347.112z"/>
	<path d="M222.296,341.271h1.233v4.244h0.028c0.196-0.35,0.504-0.672,0.882-0.883c0.364-0.21,0.799-0.336,1.261-0.336
		c0.911,0,2.367,0.561,2.367,2.886v4.034h-1.232v-3.895c0-1.092-0.406-2.003-1.569-2.003c-0.798,0-1.415,0.561-1.653,1.219
		c-0.07,0.183-0.084,0.364-0.084,0.589v4.09h-1.233V341.271z"/>
	<path d="M234.829,349.592c0,0.589,0.028,1.163,0.098,1.625h-1.107l-0.098-0.854h-0.042c-0.378,0.532-1.107,1.009-2.073,1.009
		c-1.373,0-2.073-0.967-2.073-1.947c0-1.639,1.457-2.535,4.076-2.521v-0.14c0-0.547-0.154-1.569-1.541-1.555
		c-0.645,0-1.303,0.182-1.779,0.504l-0.28-0.826c0.561-0.351,1.387-0.589,2.241-0.589c2.073,0,2.578,1.415,2.578,2.76V349.592z
		 M233.638,347.757c-1.345-0.028-2.871,0.21-2.871,1.527c0,0.812,0.532,1.176,1.148,1.176c0.896,0,1.471-0.56,1.667-1.134
		c0.042-0.141,0.056-0.28,0.056-0.393V347.757z"/>
	<path d="M236.814,346.65c0-0.868-0.028-1.569-0.056-2.213h1.093l0.07,1.162h0.028c0.49-0.826,1.303-1.303,2.409-1.303
		c1.653,0,2.886,1.387,2.886,3.432c0,2.438-1.499,3.643-3.096,3.643c-0.896,0-1.681-0.393-2.087-1.064h-0.028v3.684h-1.219V346.65z
		 M238.033,348.457c0,0.183,0.014,0.351,0.056,0.505c0.224,0.854,0.966,1.442,1.849,1.442c1.303,0,2.06-1.064,2.06-2.619
		c0-1.345-0.715-2.508-2.017-2.508c-0.841,0-1.639,0.589-1.863,1.513c-0.042,0.154-0.084,0.337-0.084,0.49V348.457z"/>
	<path d="M244.78,346.65c0-0.868-0.028-1.569-0.056-2.213h1.093l0.07,1.162h0.028c0.49-0.826,1.303-1.303,2.409-1.303
		c1.653,0,2.886,1.387,2.886,3.432c0,2.438-1.499,3.643-3.096,3.643c-0.896,0-1.681-0.393-2.087-1.064h-0.028v3.684h-1.219V346.65z
		 M245.999,348.457c0,0.183,0.014,0.351,0.056,0.505c0.224,0.854,0.966,1.442,1.849,1.442c1.303,0,2.06-1.064,2.06-2.619
		c0-1.345-0.715-2.508-2.017-2.508c-0.841,0-1.639,0.589-1.863,1.513c-0.042,0.154-0.084,0.337-0.084,0.49V348.457z"/>
	<path d="M253.432,348.051c0.028,1.667,1.079,2.354,2.325,2.354c0.882,0,1.429-0.154,1.877-0.351l0.224,0.883
		c-0.434,0.196-1.19,0.435-2.269,0.435c-2.087,0-3.334-1.387-3.334-3.432c0-2.046,1.205-3.643,3.18-3.643
		c2.227,0,2.802,1.934,2.802,3.18c0,0.252-0.014,0.435-0.042,0.574H253.432z M257.046,347.169c0.014-0.771-0.322-1.989-1.709-1.989
		c-1.261,0-1.793,1.135-1.891,1.989H257.046z"/>
	<path d="M259.759,346.272c0-0.715-0.014-1.275-0.056-1.835h1.093l0.07,1.12h0.028c0.336-0.63,1.121-1.261,2.241-1.261
		c0.938,0,2.395,0.561,2.395,2.886v4.034h-1.232v-3.908c0-1.093-0.406-2.003-1.569-2.003c-0.798,0-1.429,0.574-1.653,1.261
		c-0.056,0.154-0.084,0.364-0.084,0.574v4.076h-1.233V346.272z"/>
	<path d="M267.361,349.97c0.378,0.225,1.022,0.477,1.639,0.477c0.883,0,1.303-0.435,1.303-1.009c0-0.588-0.35-0.896-1.247-1.232
		c-1.232-0.448-1.807-1.106-1.807-1.919c0-1.093,0.896-1.989,2.339-1.989c0.687,0,1.289,0.183,1.653,0.42l-0.294,0.896
		c-0.266-0.168-0.756-0.405-1.387-0.405c-0.729,0-1.121,0.42-1.121,0.924c0,0.561,0.392,0.812,1.274,1.163
		c1.163,0.434,1.779,1.022,1.779,2.031c0,1.204-0.938,2.045-2.521,2.045c-0.742,0-1.429-0.196-1.905-0.477L267.361,349.97z"/>
	<path d="M277.414,342.532c0,0.42-0.294,0.756-0.785,0.756c-0.448,0-0.742-0.336-0.742-0.756s0.308-0.771,0.77-0.771
		C277.105,341.762,277.414,342.098,277.414,342.532z M276.041,351.217v-6.779h1.233v6.779H276.041z"/>
	<path d="M279.317,346.272c0-0.715-0.014-1.275-0.056-1.835h1.093l0.07,1.12h0.028c0.336-0.63,1.121-1.261,2.241-1.261
		c0.938,0,2.395,0.561,2.395,2.886v4.034h-1.232v-3.908c0-1.093-0.406-2.003-1.569-2.003c-0.798,0-1.429,0.574-1.653,1.261
		c-0.056,0.154-0.084,0.364-0.084,0.574v4.076h-1.233V346.272z"/>
	<path d="M294.817,349.592c0,0.589,0.028,1.163,0.098,1.625h-1.107l-0.098-0.854h-0.042c-0.378,0.532-1.107,1.009-2.073,1.009
		c-1.373,0-2.073-0.967-2.073-1.947c0-1.639,1.457-2.535,4.076-2.521v-0.14c0-0.547-0.154-1.569-1.541-1.555
		c-0.644,0-1.302,0.182-1.779,0.504l-0.28-0.826c0.561-0.351,1.387-0.589,2.241-0.589c2.073,0,2.578,1.415,2.578,2.76V349.592z
		 M293.627,347.757c-1.345-0.028-2.872,0.21-2.872,1.527c0,0.812,0.532,1.176,1.148,1.176c0.896,0,1.471-0.56,1.667-1.134
		c0.042-0.141,0.056-0.28,0.056-0.393V347.757z"/>
	<path d="M299.771,346.65c0-0.868-0.028-1.569-0.056-2.213h1.093l0.07,1.162h0.028c0.49-0.826,1.303-1.303,2.409-1.303
		c1.653,0,2.886,1.387,2.886,3.432c0,2.438-1.499,3.643-3.096,3.643c-0.896,0-1.681-0.393-2.087-1.064h-0.028v3.684h-1.219V346.65z
		 M300.989,348.457c0,0.183,0.014,0.351,0.056,0.505c0.224,0.854,0.966,1.442,1.849,1.442c1.302,0,2.059-1.064,2.059-2.619
		c0-1.345-0.714-2.508-2.017-2.508c-0.841,0-1.639,0.589-1.863,1.513c-0.042,0.154-0.084,0.337-0.084,0.49V348.457z"/>
	<path d="M309.109,342.532c0,0.42-0.294,0.756-0.784,0.756c-0.448,0-0.743-0.336-0.743-0.756s0.309-0.771,0.771-0.771
		C308.801,341.762,309.109,342.098,309.109,342.532z M307.736,351.217v-6.779h1.232v6.779H307.736z"/>
	<path d="M311.587,344.438l0.967,1.456c0.266,0.379,0.477,0.715,0.7,1.093h0.028c0.224-0.392,0.448-0.742,0.687-1.106l0.938-1.442
		h1.345l-2.312,3.277l2.367,3.502h-1.387l-1.009-1.526c-0.266-0.393-0.49-0.771-0.729-1.177h-0.027
		c-0.225,0.406-0.448,0.771-0.715,1.177l-0.98,1.526h-1.358l2.409-3.46l-2.298-3.319H311.587z"/>
	<path d="M317.971,348.051c0.028,1.667,1.078,2.354,2.325,2.354c0.883,0,1.429-0.154,1.877-0.351l0.225,0.883
		c-0.435,0.196-1.191,0.435-2.27,0.435c-2.087,0-3.334-1.387-3.334-3.432c0-2.046,1.205-3.643,3.18-3.643
		c2.228,0,2.802,1.934,2.802,3.18c0,0.252-0.015,0.435-0.042,0.574H317.971z M321.585,347.169c0.014-0.771-0.322-1.989-1.709-1.989
		c-1.261,0-1.793,1.135-1.892,1.989H321.585z"/>
	<path d="M324.298,341.271h1.232v9.945h-1.232V341.271z"/>
	<path d="M330.402,349.97c0.378,0.225,1.022,0.477,1.639,0.477c0.883,0,1.303-0.435,1.303-1.009c0-0.588-0.35-0.896-1.246-1.232
		c-1.233-0.448-1.808-1.106-1.808-1.919c0-1.093,0.896-1.989,2.34-1.989c0.686,0,1.288,0.183,1.652,0.42l-0.294,0.896
		c-0.267-0.168-0.757-0.405-1.387-0.405c-0.729,0-1.121,0.42-1.121,0.924c0,0.561,0.393,0.812,1.275,1.163
		c1.162,0.434,1.778,1.022,1.778,2.031c0,1.204-0.938,2.045-2.521,2.045c-0.742,0-1.429-0.196-1.904-0.477L330.402,349.97z"/>
	<path d="M336.114,341.271h1.232v4.244h0.028c0.196-0.35,0.504-0.672,0.883-0.883c0.364-0.21,0.798-0.336,1.261-0.336
		c0.91,0,2.367,0.561,2.367,2.886v4.034h-1.233v-3.895c0-1.092-0.405-2.003-1.568-2.003c-0.799,0-1.415,0.561-1.653,1.219
		c-0.069,0.183-0.084,0.364-0.084,0.589v4.09h-1.232V341.271z"/>
	<path d="M348.646,349.592c0,0.589,0.028,1.163,0.098,1.625h-1.106l-0.098-0.854h-0.042c-0.378,0.532-1.106,1.009-2.073,1.009
		c-1.373,0-2.073-0.967-2.073-1.947c0-1.639,1.457-2.535,4.076-2.521v-0.14c0-0.547-0.154-1.569-1.541-1.555
		c-0.645,0-1.303,0.182-1.778,0.504l-0.28-0.826c0.56-0.351,1.387-0.589,2.241-0.589c2.073,0,2.577,1.415,2.577,2.76V349.592z
		 M347.456,347.757c-1.345-0.028-2.872,0.21-2.872,1.527c0,0.812,0.532,1.176,1.148,1.176c0.896,0,1.472-0.56,1.667-1.134
		c0.042-0.141,0.057-0.28,0.057-0.393V347.757z"/>
	<path d="M356.473,341.271v8.194c0,0.603,0.028,1.289,0.057,1.751h-1.093l-0.056-1.177h-0.042c-0.364,0.757-1.177,1.331-2.283,1.331
		c-1.64,0-2.914-1.387-2.914-3.446c-0.014-2.255,1.4-3.628,3.04-3.628c1.05,0,1.736,0.49,2.045,1.022h0.028v-4.048H356.473z
		 M355.255,347.196c0-0.153-0.015-0.364-0.057-0.518c-0.182-0.771-0.854-1.415-1.779-1.415c-1.274,0-2.03,1.12-2.03,2.605
		c0,1.373,0.687,2.507,2.003,2.507c0.826,0,1.583-0.56,1.807-1.471c0.042-0.168,0.057-0.336,0.057-0.532V347.196z"/>
	<path d="M359.214,348.051c0.028,1.667,1.078,2.354,2.325,2.354c0.883,0,1.429-0.154,1.877-0.351l0.225,0.883
		c-0.435,0.196-1.191,0.435-2.27,0.435c-2.087,0-3.334-1.387-3.334-3.432c0-2.046,1.205-3.643,3.18-3.643
		c2.228,0,2.802,1.934,2.802,3.18c0,0.252-0.014,0.435-0.042,0.574H359.214z M362.828,347.169c0.014-0.771-0.322-1.989-1.709-1.989
		c-1.261,0-1.793,1.135-1.892,1.989H362.828z"/>
	<path d="M365.542,346.553c0-0.799-0.014-1.485-0.056-2.115h1.078l0.057,1.345h0.042c0.308-0.911,1.064-1.485,1.891-1.485
		c0.126,0,0.225,0.015,0.336,0.028v1.162c-0.126-0.027-0.252-0.027-0.42-0.027c-0.868,0-1.484,0.645-1.653,1.568
		c-0.027,0.168-0.042,0.378-0.042,0.574v3.614h-1.232V346.553z"/>
	<path d="M122.507,358.575v9.441h-1.232v-9.441H122.507z"/>
	<path d="M124.732,363.072c0-0.715-0.014-1.275-0.056-1.835h1.093l0.07,1.12h0.028c0.336-0.63,1.121-1.261,2.241-1.261
		c0.938,0,2.395,0.561,2.395,2.886v4.034h-1.232v-3.908c0-1.093-0.406-2.003-1.569-2.003c-0.798,0-1.429,0.574-1.653,1.261
		c-0.056,0.154-0.084,0.364-0.084,0.574v4.076h-1.233V363.072z"/>
	<path d="M135.47,363.072c0-0.715-0.014-1.275-0.056-1.835h1.093l0.07,1.12h0.028c0.336-0.63,1.121-1.261,2.241-1.261
		c0.938,0,2.395,0.561,2.395,2.886v4.034h-1.232v-3.908c0-1.093-0.406-2.003-1.569-2.003c-0.798,0-1.429,0.574-1.653,1.261
		c-0.056,0.154-0.084,0.364-0.084,0.574v4.076h-1.233V363.072z"/>
	<path d="M143.926,364.851c0.028,1.667,1.079,2.354,2.325,2.354c0.882,0,1.429-0.154,1.877-0.351l0.224,0.883
		c-0.434,0.196-1.19,0.435-2.269,0.435c-2.087,0-3.334-1.387-3.334-3.432c0-2.046,1.205-3.643,3.18-3.643
		c2.227,0,2.802,1.934,2.802,3.18c0,0.252-0.014,0.435-0.042,0.574H143.926z M147.54,363.969c0.014-0.771-0.322-1.989-1.709-1.989
		c-1.261,0-1.793,1.135-1.891,1.989H147.54z"/>
	<path d="M150.744,361.237l0.911,3.445c0.182,0.757,0.364,1.457,0.49,2.157h0.042c0.154-0.687,0.378-1.415,0.603-2.143l1.106-3.46
		h1.037l1.05,3.39c0.252,0.812,0.448,1.526,0.603,2.213h0.042c0.112-0.687,0.294-1.4,0.518-2.199l0.967-3.403h1.219l-2.186,6.779
		h-1.121l-1.036-3.235c-0.238-0.757-0.435-1.429-0.603-2.228h-0.028c-0.168,0.812-0.378,1.513-0.617,2.241l-1.092,3.222h-1.121
		l-2.045-6.779H150.744z"/>
	<path d="M170.768,367.597c-0.546,0.21-1.639,0.518-2.914,0.518c-1.429,0-2.605-0.364-3.53-1.246
		c-0.812-0.784-1.316-2.045-1.316-3.516c0-2.816,1.947-4.875,5.113-4.875c1.092,0,1.961,0.238,2.367,0.435l-0.308,0.994
		c-0.504-0.238-1.135-0.406-2.087-0.406c-2.297,0-3.796,1.429-3.796,3.796c0,2.396,1.429,3.811,3.642,3.811
		c0.798,0,1.345-0.112,1.625-0.253v-2.815h-1.905v-0.98h3.11V367.597z"/>
	<path d="M172.611,358.688c0.588-0.098,1.359-0.182,2.339-0.182c1.205,0,2.087,0.279,2.647,0.784
		c0.504,0.448,0.827,1.135,0.827,1.975c0,0.854-0.252,1.527-0.729,2.018c-0.658,0.687-1.695,1.036-2.886,1.036
		c-0.364,0-0.7-0.014-0.98-0.084v3.782h-1.219V358.688z M173.83,363.24c0.266,0.07,0.603,0.098,1.009,0.098
		c1.471,0,2.367-0.729,2.367-2.003c0-1.261-0.896-1.863-2.228-1.863c-0.532,0-0.938,0.042-1.148,0.099V363.24z"/>
	<path d="M181.278,358.575v5.604c0,2.101,0.938,2.997,2.199,2.997c1.387,0,2.297-0.924,2.297-2.997v-5.604h1.232v5.52
		c0,2.899-1.527,4.076-3.572,4.076c-1.933,0-3.39-1.093-3.39-4.034v-5.562H181.278z"/>
	<path d="M188.823,366.77c0.378,0.225,1.022,0.477,1.639,0.477c0.883,0,1.303-0.435,1.303-1.009c0-0.588-0.35-0.896-1.247-1.232
		c-1.232-0.448-1.807-1.106-1.807-1.919c0-1.093,0.896-1.989,2.339-1.989c0.687,0,1.289,0.183,1.653,0.421l-0.294,0.896
		c-0.266-0.169-0.756-0.406-1.387-0.406c-0.729,0-1.121,0.42-1.121,0.924c0,0.561,0.392,0.812,1.274,1.163
		c1.163,0.434,1.779,1.022,1.779,2.031c0,1.204-0.938,2.045-2.521,2.045c-0.742,0-1.429-0.196-1.905-0.477L188.823,366.77z"/>
	<path d="M193.583,369.754c0.308-0.841,0.687-2.34,0.84-3.362l1.373-0.14c-0.336,1.19-0.953,2.745-1.345,3.403L193.583,369.754z"/>
	<path d="M200.247,358.071h1.219v4.258h0.028c0.435-0.756,1.219-1.232,2.312-1.232c1.695,0,2.872,1.401,2.872,3.446
		c0,2.423-1.541,3.628-3.054,3.628c-0.98,0-1.765-0.378-2.283-1.261h-0.028l-0.07,1.106h-1.051c0.028-0.462,0.056-1.148,0.056-1.751
		V358.071z M201.466,365.299c0,0.154,0.014,0.309,0.056,0.448c0.224,0.854,0.953,1.443,1.849,1.443c1.302,0,2.059-1.051,2.059-2.605
		c0-1.359-0.701-2.521-2.031-2.521c-0.827,0-1.611,0.588-1.863,1.513c-0.042,0.154-0.07,0.322-0.07,0.519V365.299z"/>
	<path d="M208.213,358.071h1.233v9.945h-1.233V358.071z"/>
	<path d="M212.203,364.851c0.028,1.667,1.079,2.354,2.325,2.354c0.882,0,1.429-0.154,1.877-0.351l0.224,0.883
		c-0.434,0.196-1.19,0.435-2.269,0.435c-2.087,0-3.334-1.387-3.334-3.432c0-2.046,1.205-3.643,3.18-3.643
		c2.228,0,2.802,1.934,2.802,3.18c0,0.252-0.014,0.435-0.042,0.574H212.203z M215.817,363.969c0.014-0.771-0.322-1.989-1.709-1.989
		c-1.26,0-1.793,1.135-1.891,1.989H215.817z"/>
	<path d="M218.53,363.072c0-0.715-0.014-1.275-0.056-1.835h1.093l0.07,1.12h0.028c0.336-0.63,1.121-1.261,2.241-1.261
		c0.938,0,2.395,0.561,2.395,2.886v4.034h-1.232v-3.908c0-1.093-0.406-2.003-1.569-2.003c-0.798,0-1.429,0.574-1.653,1.261
		c-0.056,0.154-0.084,0.364-0.084,0.574v4.076h-1.233V363.072z"/>
	<path d="M232.142,358.071v8.194c0,0.603,0.028,1.289,0.056,1.751h-1.093l-0.056-1.177h-0.042c-0.364,0.757-1.177,1.331-2.283,1.331
		c-1.639,0-2.914-1.387-2.914-3.446c-0.014-2.255,1.401-3.628,3.04-3.628c1.051,0,1.737,0.49,2.045,1.022h0.028v-4.048H232.142z
		 M230.923,363.996c0-0.153-0.014-0.364-0.056-0.518c-0.182-0.771-0.854-1.415-1.779-1.415c-1.275,0-2.031,1.12-2.031,2.605
		c0,1.373,0.687,2.507,2.003,2.507c0.826,0,1.583-0.56,1.807-1.471c0.042-0.168,0.056-0.336,0.056-0.532V363.996z"/>
	<path d="M241.927,366.392c0,0.589,0.028,1.163,0.098,1.625h-1.107l-0.098-0.854h-0.042c-0.378,0.532-1.107,1.009-2.073,1.009
		c-1.373,0-2.073-0.967-2.073-1.947c0-1.639,1.457-2.535,4.076-2.521v-0.14c0-0.547-0.154-1.569-1.541-1.555
		c-0.644,0-1.302,0.182-1.779,0.504l-0.28-0.826c0.561-0.351,1.387-0.589,2.241-0.589c2.073,0,2.578,1.415,2.578,2.76V366.392z
		 M240.736,364.557c-1.345-0.028-2.872,0.21-2.872,1.527c0,0.812,0.532,1.176,1.148,1.176c0.896,0,1.471-0.56,1.667-1.134
		c0.042-0.141,0.056-0.28,0.056-0.393V364.557z"/>
	<path d="M243.912,363.072c0-0.715-0.014-1.275-0.056-1.835h1.093l0.07,1.12h0.028c0.336-0.63,1.121-1.261,2.241-1.261
		c0.938,0,2.395,0.561,2.395,2.886v4.034h-1.232v-3.908c0-1.093-0.406-2.003-1.569-2.003c-0.798,0-1.429,0.574-1.653,1.261
		c-0.056,0.154-0.084,0.364-0.084,0.574v4.076h-1.233V363.072z"/>
	<path d="M257.523,358.071v8.194c0,0.603,0.028,1.289,0.056,1.751h-1.093l-0.056-1.177h-0.042c-0.364,0.757-1.177,1.331-2.283,1.331
		c-1.639,0-2.914-1.387-2.914-3.446c-0.014-2.255,1.401-3.628,3.04-3.628c1.051,0,1.737,0.49,2.045,1.022h0.028v-4.048H257.523z
		 M256.305,363.996c0-0.153-0.014-0.364-0.056-0.518c-0.182-0.771-0.854-1.415-1.779-1.415c-1.275,0-2.031,1.12-2.031,2.605
		c0,1.373,0.687,2.507,2.003,2.507c0.826,0,1.583-0.56,1.807-1.471c0.042-0.168,0.056-0.336,0.056-0.532V363.996z"/>
	<path d="M267.378,367.778c-0.322,0.154-1.037,0.393-1.947,0.393c-2.045,0-3.376-1.387-3.376-3.46c0-2.087,1.429-3.614,3.642-3.614
		c0.729,0,1.373,0.183,1.709,0.364l-0.28,0.938c-0.294-0.154-0.756-0.322-1.429-0.322c-1.555,0-2.396,1.163-2.396,2.563
		c0,1.569,1.009,2.535,2.354,2.535c0.7,0,1.163-0.168,1.513-0.322L267.378,367.778z"/>
	<path d="M274.869,364.57c0,2.508-1.751,3.601-3.375,3.601c-1.821,0-3.25-1.345-3.25-3.488c0-2.255,1.499-3.586,3.362-3.586
		C273.553,361.097,274.869,362.512,274.869,364.57z M269.504,364.641c0,1.485,0.84,2.605,2.045,2.605
		c1.177,0,2.059-1.106,2.059-2.634c0-1.148-0.574-2.591-2.031-2.591C270.135,362.021,269.504,363.366,269.504,364.641z"/>
	<path d="M276.42,363.072c0-0.715-0.028-1.275-0.056-1.835h1.079l0.056,1.106h0.042c0.378-0.645,1.009-1.247,2.143-1.247
		c0.911,0,1.611,0.561,1.905,1.359h0.028c0.21-0.393,0.49-0.673,0.771-0.883c0.406-0.309,0.84-0.477,1.485-0.477
		c0.911,0,2.241,0.589,2.241,2.941v3.979h-1.205v-3.824c0-1.316-0.49-2.087-1.471-2.087c-0.714,0-1.247,0.519-1.471,1.106
		c-0.056,0.183-0.098,0.393-0.098,0.616v4.188h-1.205v-4.062c0-1.078-0.476-1.849-1.415-1.849c-0.756,0-1.331,0.616-1.527,1.232
		c-0.07,0.168-0.098,0.393-0.098,0.603v4.076h-1.205V363.072z"/>
	<path d="M288.096,363.45c0-0.868-0.028-1.569-0.056-2.213h1.093l0.07,1.162h0.028c0.49-0.826,1.303-1.303,2.409-1.303
		c1.653,0,2.886,1.387,2.886,3.432c0,2.438-1.499,3.643-3.096,3.643c-0.896,0-1.681-0.393-2.087-1.064h-0.028v3.684h-1.219V363.45z
		 M289.314,365.257c0,0.183,0.014,0.351,0.056,0.505c0.224,0.854,0.966,1.442,1.849,1.442c1.302,0,2.059-1.064,2.059-2.619
		c0-1.345-0.714-2.508-2.017-2.508c-0.841,0-1.639,0.589-1.863,1.513c-0.042,0.154-0.084,0.337-0.084,0.49V365.257z"/>
	<path d="M302.197,364.57c0,2.508-1.751,3.601-3.375,3.601c-1.821,0-3.25-1.345-3.25-3.488c0-2.255,1.499-3.586,3.362-3.586
		C300.88,361.097,302.197,362.512,302.197,364.57z M296.832,364.641c0,1.485,0.84,2.605,2.045,2.605
		c1.177,0,2.059-1.106,2.059-2.634c0-1.148-0.574-2.591-2.031-2.591C297.462,362.021,296.832,363.366,296.832,364.641z"/>
	<path d="M303.58,366.77c0.378,0.225,1.023,0.477,1.639,0.477c0.882,0,1.303-0.435,1.303-1.009c0-0.588-0.351-0.896-1.247-1.232
		c-1.232-0.448-1.807-1.106-1.807-1.919c0-1.093,0.897-1.989,2.339-1.989c0.687,0,1.289,0.183,1.653,0.421l-0.295,0.896
		c-0.266-0.169-0.756-0.406-1.387-0.406c-0.728,0-1.12,0.42-1.12,0.924c0,0.561,0.393,0.812,1.274,1.163
		c1.163,0.434,1.779,1.022,1.779,2.031c0,1.204-0.938,2.045-2.521,2.045c-0.742,0-1.429-0.196-1.905-0.477L303.58,366.77z"/>
	<path d="M310.664,359.332c0,0.42-0.294,0.756-0.784,0.756c-0.448,0-0.743-0.336-0.743-0.756s0.309-0.771,0.771-0.771
		C310.355,358.562,310.664,358.897,310.664,359.332z M309.291,368.017v-6.779h1.232v6.779H309.291z"/>
	<path d="M314.053,359.612v1.625h1.765v0.938h-1.765v3.655c0,0.841,0.237,1.317,0.924,1.317c0.336,0,0.532-0.028,0.715-0.084
		l0.056,0.938c-0.238,0.084-0.616,0.168-1.093,0.168c-0.574,0-1.036-0.196-1.33-0.519c-0.337-0.378-0.477-0.98-0.477-1.779v-3.697
		h-1.051v-0.938h1.051v-1.261L314.053,359.612z"/>
	<path d="M317.804,364.851c0.028,1.667,1.078,2.354,2.325,2.354c0.883,0,1.429-0.154,1.877-0.351l0.225,0.883
		c-0.435,0.196-1.191,0.435-2.27,0.435c-2.087,0-3.334-1.387-3.334-3.432c0-2.046,1.205-3.643,3.18-3.643
		c2.228,0,2.802,1.934,2.802,3.18c0,0.252-0.014,0.435-0.042,0.574H317.804z M321.418,363.969c0.014-0.771-0.322-1.989-1.709-1.989
		c-1.261,0-1.793,1.135-1.892,1.989H321.418z"/>
	<path d="M327.099,358.071h1.232v4.244h0.028c0.196-0.351,0.504-0.672,0.883-0.883c0.364-0.21,0.798-0.336,1.261-0.336
		c0.91,0,2.367,0.561,2.367,2.886v4.034h-1.233v-3.895c0-1.092-0.405-2.003-1.568-2.003c-0.799,0-1.415,0.561-1.653,1.219
		c-0.069,0.183-0.084,0.364-0.084,0.589v4.09h-1.232V358.071z"/>
	<path d="M339.632,366.392c0,0.589,0.028,1.163,0.098,1.625h-1.106l-0.098-0.854h-0.042c-0.379,0.532-1.106,1.009-2.073,1.009
		c-1.373,0-2.073-0.967-2.073-1.947c0-1.639,1.457-2.535,4.076-2.521v-0.14c0-0.547-0.154-1.569-1.541-1.555
		c-0.645,0-1.303,0.182-1.778,0.504l-0.28-0.826c0.56-0.351,1.387-0.589,2.241-0.589c2.073,0,2.577,1.415,2.577,2.76V366.392z
		 M338.441,364.557c-1.345-0.028-2.872,0.21-2.872,1.527c0,0.812,0.532,1.176,1.148,1.176c0.896,0,1.472-0.56,1.667-1.134
		c0.042-0.141,0.057-0.28,0.057-0.393V364.557z"/>
	<path d="M341.617,363.45c0-0.868-0.028-1.569-0.056-2.213h1.093l0.069,1.162h0.028c0.49-0.826,1.303-1.303,2.409-1.303
		c1.653,0,2.886,1.387,2.886,3.432c0,2.438-1.499,3.643-3.096,3.643c-0.896,0-1.681-0.393-2.087-1.064h-0.028v3.684h-1.219V363.45z
		 M342.836,365.257c0,0.183,0.014,0.351,0.056,0.505c0.225,0.854,0.967,1.442,1.85,1.442c1.303,0,2.059-1.064,2.059-2.619
		c0-1.345-0.714-2.508-2.017-2.508c-0.841,0-1.639,0.589-1.863,1.513c-0.042,0.154-0.084,0.337-0.084,0.49V365.257z"/>
	<path d="M349.583,363.45c0-0.868-0.028-1.569-0.056-2.213h1.093l0.069,1.162h0.028c0.49-0.826,1.303-1.303,2.409-1.303
		c1.653,0,2.886,1.387,2.886,3.432c0,2.438-1.499,3.643-3.096,3.643c-0.896,0-1.681-0.393-2.087-1.064h-0.028v3.684h-1.219V363.45z
		 M350.802,365.257c0,0.183,0.014,0.351,0.056,0.505c0.225,0.854,0.967,1.442,1.85,1.442c1.303,0,2.059-1.064,2.059-2.619
		c0-1.345-0.714-2.508-2.017-2.508c-0.841,0-1.639,0.589-1.863,1.513c-0.042,0.154-0.084,0.337-0.084,0.49V365.257z"/>
	<path d="M358.235,364.851c0.028,1.667,1.078,2.354,2.325,2.354c0.883,0,1.429-0.154,1.877-0.351l0.225,0.883
		c-0.435,0.196-1.191,0.435-2.27,0.435c-2.087,0-3.334-1.387-3.334-3.432c0-2.046,1.205-3.643,3.18-3.643
		c2.228,0,2.802,1.934,2.802,3.18c0,0.252-0.014,0.435-0.042,0.574H358.235z M361.85,363.969c0.014-0.771-0.322-1.989-1.709-1.989
		c-1.261,0-1.793,1.135-1.892,1.989H361.85z"/>
	<path d="M364.562,363.072c0-0.715-0.014-1.275-0.056-1.835h1.093l0.069,1.12h0.028c0.336-0.63,1.12-1.261,2.241-1.261
		c0.938,0,2.396,0.561,2.396,2.886v4.034h-1.233v-3.908c0-1.093-0.406-2.003-1.568-2.003c-0.799,0-1.429,0.574-1.653,1.261
		c-0.056,0.154-0.084,0.364-0.084,0.574v4.076h-1.232V363.072z"/>
	<path d="M372.164,366.77c0.378,0.225,1.022,0.477,1.639,0.477c0.883,0,1.303-0.435,1.303-1.009c0-0.588-0.35-0.896-1.246-1.232
		c-1.233-0.448-1.808-1.106-1.808-1.919c0-1.093,0.896-1.989,2.34-1.989c0.686,0,1.288,0.183,1.652,0.421l-0.294,0.896
		c-0.267-0.169-0.757-0.406-1.387-0.406c-0.729,0-1.121,0.42-1.121,0.924c0,0.561,0.393,0.812,1.275,1.163
		c1.162,0.434,1.778,1.022,1.778,2.031c0,1.204-0.938,2.045-2.521,2.045c-0.742,0-1.429-0.196-1.904-0.477L372.164,366.77z"/>
	<path d="M382.217,359.332c0,0.42-0.294,0.756-0.784,0.756c-0.448,0-0.743-0.336-0.743-0.756s0.309-0.771,0.771-0.771
		C381.908,358.562,382.217,358.897,382.217,359.332z M380.844,368.017v-6.779h1.232v6.779H380.844z"/>
	<path d="M384.12,363.072c0-0.715-0.014-1.275-0.056-1.835h1.093l0.069,1.12h0.028c0.336-0.63,1.12-1.261,2.241-1.261
		c0.938,0,2.396,0.561,2.396,2.886v4.034h-1.233v-3.908c0-1.093-0.405-2.003-1.568-2.003c-0.799,0-1.429,0.574-1.653,1.261
		c-0.056,0.154-0.084,0.364-0.084,0.574v4.076h-1.232V363.072z"/>
	<path d="M399.62,366.392c0,0.589,0.028,1.163,0.098,1.625h-1.106l-0.098-0.854h-0.042c-0.379,0.532-1.106,1.009-2.073,1.009
		c-1.373,0-2.073-0.967-2.073-1.947c0-1.639,1.457-2.535,4.076-2.521v-0.14c0-0.547-0.154-1.569-1.541-1.555
		c-0.645,0-1.303,0.182-1.778,0.504l-0.28-0.826c0.56-0.351,1.387-0.589,2.241-0.589c2.073,0,2.577,1.415,2.577,2.76V366.392z
		 M398.43,364.557c-1.345-0.028-2.872,0.21-2.872,1.527c0,0.812,0.532,1.176,1.148,1.176c0.896,0,1.472-0.56,1.667-1.134
		c0.042-0.141,0.057-0.28,0.057-0.393V364.557z"/>
	<path d="M404.573,358.071h1.219v4.258h0.028c0.434-0.756,1.219-1.232,2.311-1.232c1.695,0,2.872,1.401,2.872,3.446
		c0,2.423-1.541,3.628-3.054,3.628c-0.98,0-1.765-0.378-2.283-1.261h-0.028l-0.07,1.106h-1.05c0.027-0.462,0.056-1.148,0.056-1.751
		V358.071z M405.792,365.299c0,0.154,0.014,0.309,0.056,0.448c0.225,0.854,0.953,1.443,1.85,1.443c1.303,0,2.059-1.051,2.059-2.605
		c0-1.359-0.7-2.521-2.031-2.521c-0.826,0-1.61,0.588-1.862,1.513c-0.042,0.154-0.07,0.322-0.07,0.519V365.299z"/>
	<path d="M412.539,358.071h1.232v9.945h-1.232V358.071z"/>
	<path d="M416.529,364.851c0.028,1.667,1.078,2.354,2.325,2.354c0.883,0,1.429-0.154,1.877-0.351l0.225,0.883
		c-0.435,0.196-1.191,0.435-2.27,0.435c-2.087,0-3.334-1.387-3.334-3.432c0-2.046,1.205-3.643,3.18-3.643
		c2.228,0,2.802,1.934,2.802,3.18c0,0.252-0.015,0.435-0.042,0.574H416.529z M420.144,363.969c0.014-0.771-0.322-1.989-1.709-1.989
		c-1.261,0-1.793,1.135-1.892,1.989H420.144z"/>
	<path d="M422.857,363.072c0-0.715-0.014-1.275-0.056-1.835h1.093l0.069,1.12h0.028c0.336-0.63,1.12-1.261,2.241-1.261
		c0.938,0,2.396,0.561,2.396,2.886v4.034h-1.233v-3.908c0-1.093-0.406-2.003-1.568-2.003c-0.799,0-1.429,0.574-1.653,1.261
		c-0.056,0.154-0.084,0.364-0.084,0.574v4.076h-1.232V363.072z"/>
	<path d="M436.468,358.071v8.194c0,0.603,0.028,1.289,0.057,1.751h-1.093l-0.056-1.177h-0.042c-0.364,0.757-1.177,1.331-2.283,1.331
		c-1.64,0-2.914-1.387-2.914-3.446c-0.014-2.255,1.4-3.628,3.04-3.628c1.05,0,1.736,0.49,2.045,1.022h0.028v-4.048H436.468z
		 M435.25,363.996c0-0.153-0.015-0.364-0.057-0.518c-0.182-0.771-0.854-1.415-1.778-1.415c-1.275,0-2.031,1.12-2.031,2.605
		c0,1.373,0.686,2.507,2.003,2.507c0.826,0,1.583-0.56,1.807-1.471c0.042-0.168,0.057-0.336,0.057-0.532V363.996z"/>
	<path d="M441.323,366.77c0.378,0.225,1.022,0.477,1.639,0.477c0.883,0,1.303-0.435,1.303-1.009c0-0.588-0.35-0.896-1.246-1.232
		c-1.233-0.448-1.808-1.106-1.808-1.919c0-1.093,0.896-1.989,2.34-1.989c0.686,0,1.288,0.183,1.652,0.421l-0.294,0.896
		c-0.267-0.169-0.757-0.406-1.387-0.406c-0.729,0-1.121,0.42-1.121,0.924c0,0.561,0.393,0.812,1.275,1.163
		c1.162,0.434,1.778,1.022,1.778,2.031c0,1.204-0.938,2.045-2.521,2.045c-0.743,0-1.43-0.196-1.905-0.477L441.323,366.77z"/>
	<path d="M447.035,358.071h1.232v4.244h0.028c0.196-0.351,0.504-0.672,0.883-0.883c0.364-0.21,0.798-0.336,1.261-0.336
		c0.91,0,2.367,0.561,2.367,2.886v4.034h-1.233v-3.895c0-1.092-0.406-2.003-1.568-2.003c-0.799,0-1.415,0.561-1.653,1.219
		c-0.069,0.183-0.084,0.364-0.084,0.589v4.09h-1.232V358.071z"/>
	<path d="M459.567,366.392c0,0.589,0.028,1.163,0.098,1.625h-1.106l-0.098-0.854h-0.042c-0.379,0.532-1.106,1.009-2.073,1.009
		c-1.373,0-2.073-0.967-2.073-1.947c0-1.639,1.457-2.535,4.076-2.521v-0.14c0-0.547-0.154-1.569-1.541-1.555
		c-0.645,0-1.303,0.182-1.778,0.504l-0.28-0.826c0.56-0.351,1.387-0.589,2.241-0.589c2.073,0,2.577,1.415,2.577,2.76V366.392z
		 M458.377,364.557c-1.345-0.028-2.872,0.21-2.872,1.527c0,0.812,0.532,1.176,1.148,1.176c0.896,0,1.472-0.56,1.667-1.134
		c0.042-0.141,0.057-0.28,0.057-0.393V364.557z"/>
	<path d="M467.394,358.071v8.194c0,0.603,0.028,1.289,0.057,1.751h-1.093l-0.056-1.177h-0.042c-0.364,0.757-1.177,1.331-2.283,1.331
		c-1.64,0-2.914-1.387-2.914-3.446c-0.014-2.255,1.4-3.628,3.04-3.628c1.05,0,1.736,0.49,2.045,1.022h0.028v-4.048H467.394z
		 M466.176,363.996c0-0.153-0.015-0.364-0.057-0.518c-0.182-0.771-0.854-1.415-1.778-1.415c-1.275,0-2.031,1.12-2.031,2.605
		c0,1.373,0.686,2.507,2.003,2.507c0.826,0,1.583-0.56,1.807-1.471c0.042-0.168,0.057-0.336,0.057-0.532V363.996z"/>
	<path d="M470.135,364.851c0.028,1.667,1.078,2.354,2.325,2.354c0.883,0,1.429-0.154,1.877-0.351l0.225,0.883
		c-0.435,0.196-1.191,0.435-2.27,0.435c-2.087,0-3.334-1.387-3.334-3.432c0-2.046,1.205-3.643,3.18-3.643
		c2.228,0,2.802,1.934,2.802,3.18c0,0.252-0.015,0.435-0.042,0.574H470.135z M473.749,363.969c0.014-0.771-0.322-1.989-1.709-1.989
		c-1.261,0-1.793,1.135-1.892,1.989H473.749z"/>
	<path d="M476.462,363.353c0-0.799-0.014-1.485-0.056-2.115h1.078l0.057,1.345h0.042c0.308-0.911,1.064-1.485,1.891-1.485
		c0.126,0,0.225,0.015,0.336,0.028v1.162c-0.126-0.027-0.252-0.027-0.42-0.027c-0.868,0-1.484,0.645-1.653,1.568
		c-0.027,0.168-0.042,0.379-0.042,0.574v3.614h-1.232V363.353z"/>
</g>
<g>
	<path d="M190.591,405.701c-0.434,0.224-1.345,0.448-2.493,0.448c-2.662,0-4.65-1.681-4.65-4.791c0-2.97,2.003-4.958,4.931-4.958
		c1.163,0,1.919,0.252,2.241,0.42l-0.308,0.994c-0.448-0.224-1.107-0.392-1.891-0.392c-2.213,0-3.684,1.414-3.684,3.894
		c0,2.325,1.331,3.796,3.614,3.796c0.756,0,1.513-0.153,2.003-0.392L190.591,405.701z"/>
	<path d="M198.067,402.549c0,2.508-1.751,3.601-3.375,3.601c-1.821,0-3.25-1.345-3.25-3.488c0-2.255,1.499-3.586,3.362-3.586
		C196.75,399.075,198.067,400.49,198.067,402.549z M192.702,402.619c0,1.485,0.84,2.605,2.045,2.605
		c1.177,0,2.059-1.106,2.059-2.634c0-1.148-0.574-2.591-2.031-2.591C193.333,400,192.702,401.345,192.702,402.619z"/>
	<path d="M199.618,401.051c0-0.715-0.028-1.275-0.056-1.835h1.079l0.056,1.106h0.042c0.378-0.645,1.009-1.247,2.143-1.247
		c0.911,0,1.611,0.561,1.905,1.359h0.028c0.21-0.393,0.49-0.673,0.771-0.883c0.406-0.309,0.84-0.477,1.485-0.477
		c0.911,0,2.241,0.589,2.241,2.941v3.979h-1.205v-3.824c0-1.316-0.49-2.087-1.471-2.087c-0.714,0-1.247,0.519-1.471,1.106
		c-0.056,0.183-0.098,0.393-0.098,0.616v4.188h-1.205v-4.062c0-1.078-0.477-1.849-1.415-1.849c-0.756,0-1.331,0.616-1.527,1.232
		c-0.07,0.168-0.098,0.393-0.098,0.603v4.076h-1.205V401.051z"/>
	<path d="M211.294,401.429c0-0.868-0.028-1.569-0.056-2.213h1.093l0.07,1.162h0.028c0.49-0.826,1.303-1.303,2.409-1.303
		c1.653,0,2.886,1.387,2.886,3.432c0,2.438-1.499,3.643-3.096,3.643c-0.896,0-1.681-0.393-2.087-1.064h-0.028v3.684h-1.219V401.429z
		 M212.513,403.235c0,0.183,0.014,0.351,0.056,0.505c0.224,0.854,0.966,1.442,1.849,1.442c1.302,0,2.059-1.064,2.059-2.619
		c0-1.345-0.714-2.508-2.017-2.508c-0.841,0-1.639,0.589-1.863,1.513c-0.042,0.154-0.084,0.337-0.084,0.49V403.235z"/>
	<path d="M224.022,404.37c0,0.589,0.028,1.163,0.098,1.625h-1.107l-0.098-0.854h-0.042c-0.378,0.532-1.107,1.009-2.073,1.009
		c-1.373,0-2.073-0.967-2.073-1.947c0-1.639,1.457-2.535,4.076-2.521v-0.14c0-0.547-0.154-1.569-1.541-1.555
		c-0.644,0-1.302,0.182-1.779,0.504l-0.28-0.826c0.561-0.351,1.387-0.589,2.241-0.589c2.073,0,2.578,1.415,2.578,2.76V404.37z
		 M222.832,402.535c-1.345-0.028-2.872,0.21-2.872,1.527c0,0.812,0.532,1.176,1.148,1.176c0.896,0,1.471-0.56,1.667-1.134
		c0.042-0.141,0.056-0.28,0.056-0.393V402.535z"/>
	<path d="M226.007,401.331c0-0.799-0.014-1.485-0.056-2.115h1.079l0.056,1.345h0.042c0.308-0.911,1.064-1.485,1.891-1.485
		c0.126,0,0.224,0.015,0.336,0.028v1.162c-0.126-0.027-0.252-0.027-0.42-0.027c-0.869,0-1.485,0.645-1.653,1.568
		c-0.028,0.168-0.042,0.379-0.042,0.574v3.614h-1.233V401.331z"/>
	<path d="M231.132,402.829c0.028,1.667,1.079,2.354,2.325,2.354c0.882,0,1.429-0.154,1.877-0.351l0.224,0.883
		c-0.434,0.196-1.19,0.435-2.269,0.435c-2.087,0-3.334-1.387-3.334-3.432c0-2.046,1.205-3.643,3.18-3.643
		c2.228,0,2.802,1.934,2.802,3.18c0,0.252-0.014,0.435-0.042,0.574H231.132z M234.746,401.947c0.014-0.771-0.322-1.989-1.709-1.989
		c-1.26,0-1.793,1.135-1.891,1.989H234.746z"/>
	<path d="M243.301,396.05v8.194c0,0.603,0.028,1.289,0.056,1.751h-1.093l-0.056-1.177h-0.042c-0.364,0.757-1.177,1.331-2.283,1.331
		c-1.639,0-2.914-1.387-2.914-3.446c-0.014-2.255,1.401-3.628,3.04-3.628c1.051,0,1.737,0.49,2.045,1.022h0.028v-4.048H243.301z
		 M242.082,401.975c0-0.153-0.014-0.364-0.056-0.518c-0.182-0.771-0.854-1.415-1.779-1.415c-1.275,0-2.031,1.12-2.031,2.605
		c0,1.373,0.687,2.507,2.003,2.507c0.826,0,1.583-0.56,1.807-1.471c0.042-0.168,0.056-0.336,0.056-0.532V401.975z"/>
	<path d="M249.808,397.591v1.625h1.765v0.938h-1.765v3.655c0,0.841,0.238,1.317,0.924,1.317c0.336,0,0.533-0.028,0.715-0.084
		l0.056,0.938c-0.238,0.084-0.616,0.168-1.092,0.168c-0.575,0-1.037-0.196-1.331-0.519c-0.336-0.378-0.476-0.98-0.476-1.779v-3.697
		h-1.051v-0.938h1.051v-1.261L249.808,397.591z"/>
	<path d="M259.008,402.549c0,2.508-1.751,3.601-3.375,3.601c-1.821,0-3.25-1.345-3.25-3.488c0-2.255,1.499-3.586,3.362-3.586
		C257.692,399.075,259.008,400.49,259.008,402.549z M253.644,402.619c0,1.485,0.84,2.605,2.045,2.605
		c1.177,0,2.059-1.106,2.059-2.634c0-1.148-0.574-2.591-2.031-2.591C254.274,400,253.644,401.345,253.644,402.619z"/>
	<path d="M268.29,404.37c0,0.589,0.028,1.163,0.098,1.625h-1.107l-0.098-0.854h-0.042c-0.378,0.532-1.107,1.009-2.073,1.009
		c-1.373,0-2.073-0.967-2.073-1.947c0-1.639,1.457-2.535,4.076-2.521v-0.14c0-0.547-0.154-1.569-1.541-1.555
		c-0.645,0-1.303,0.182-1.779,0.504l-0.28-0.826c0.561-0.351,1.387-0.589,2.241-0.589c2.073,0,2.578,1.415,2.578,2.76V404.37z
		 M267.099,402.535c-1.345-0.028-2.871,0.21-2.871,1.527c0,0.812,0.532,1.176,1.148,1.176c0.896,0,1.471-0.56,1.667-1.134
		c0.042-0.141,0.056-0.28,0.056-0.393V402.535z"/>
	<path d="M270.275,396.05h1.233v9.945h-1.233V396.05z"/>
	<path d="M273.579,401.429c0-0.868-0.028-1.569-0.056-2.213h1.093l0.07,1.162h0.028c0.49-0.826,1.303-1.303,2.409-1.303
		c1.653,0,2.886,1.387,2.886,3.432c0,2.438-1.499,3.643-3.096,3.643c-0.896,0-1.681-0.393-2.087-1.064h-0.028v3.684h-1.219V401.429z
		 M274.797,403.235c0,0.183,0.014,0.351,0.056,0.505c0.224,0.854,0.966,1.442,1.849,1.442c1.303,0,2.06-1.064,2.06-2.619
		c0-1.345-0.715-2.508-2.017-2.508c-0.841,0-1.639,0.589-1.863,1.513c-0.042,0.154-0.084,0.337-0.084,0.49V403.235z"/>
	<path d="M281.544,396.05h1.233v4.244h0.028c0.196-0.351,0.504-0.672,0.882-0.883c0.364-0.21,0.799-0.336,1.261-0.336
		c0.911,0,2.367,0.561,2.367,2.886v4.034h-1.232v-3.895c0-1.092-0.406-2.003-1.569-2.003c-0.798,0-1.415,0.561-1.653,1.219
		c-0.07,0.183-0.084,0.364-0.084,0.589v4.09h-1.233V396.05z"/>
	<path d="M294.077,404.37c0,0.589,0.028,1.163,0.098,1.625h-1.107l-0.098-0.854h-0.042c-0.378,0.532-1.107,1.009-2.073,1.009
		c-1.373,0-2.073-0.967-2.073-1.947c0-1.639,1.457-2.535,4.076-2.521v-0.14c0-0.547-0.154-1.569-1.541-1.555
		c-0.644,0-1.302,0.182-1.779,0.504l-0.28-0.826c0.561-0.351,1.387-0.589,2.241-0.589c2.073,0,2.578,1.415,2.578,2.76V404.37z
		 M292.887,402.535c-1.345-0.028-2.872,0.21-2.872,1.527c0,0.812,0.532,1.176,1.148,1.176c0.896,0,1.471-0.56,1.667-1.134
		c0.042-0.141,0.056-0.28,0.056-0.393V402.535z"/>
	<path d="M303.863,405.757c-0.322,0.154-1.037,0.393-1.947,0.393c-2.045,0-3.376-1.387-3.376-3.46c0-2.087,1.429-3.614,3.642-3.614
		c0.729,0,1.373,0.183,1.709,0.364l-0.28,0.938c-0.294-0.154-0.756-0.322-1.429-0.322c-1.555,0-2.395,1.163-2.395,2.563
		c0,1.569,1.008,2.535,2.353,2.535c0.701,0,1.163-0.168,1.514-0.322L303.863,405.757z"/>
	<path d="M311.354,402.549c0,2.508-1.751,3.601-3.376,3.601c-1.821,0-3.25-1.345-3.25-3.488c0-2.255,1.499-3.586,3.362-3.586
		C310.037,399.075,311.354,400.49,311.354,402.549z M305.989,402.619c0,1.485,0.841,2.605,2.045,2.605
		c1.177,0,2.06-1.106,2.06-2.634c0-1.148-0.574-2.591-2.031-2.591C306.619,400,305.989,401.345,305.989,402.619z"/>
	<path d="M312.904,401.051c0-0.715-0.028-1.275-0.056-1.835h1.078l0.057,1.106h0.042c0.378-0.645,1.008-1.247,2.143-1.247
		c0.911,0,1.611,0.561,1.905,1.359h0.028c0.21-0.393,0.49-0.673,0.771-0.883c0.406-0.309,0.84-0.477,1.484-0.477
		c0.91,0,2.241,0.589,2.241,2.941v3.979h-1.205v-3.824c0-1.316-0.49-2.087-1.471-2.087c-0.714,0-1.246,0.519-1.471,1.106
		c-0.056,0.183-0.098,0.393-0.098,0.616v4.188h-1.205v-4.062c0-1.078-0.476-1.849-1.414-1.849c-0.757,0-1.331,0.616-1.527,1.232
		c-0.07,0.168-0.098,0.393-0.098,0.603v4.076h-1.205V401.051z"/>
	<path d="M324.58,401.429c0-0.868-0.028-1.569-0.056-2.213h1.093l0.069,1.162h0.028c0.49-0.826,1.303-1.303,2.409-1.303
		c1.653,0,2.886,1.387,2.886,3.432c0,2.438-1.499,3.643-3.096,3.643c-0.896,0-1.681-0.393-2.087-1.064h-0.028v3.684h-1.219V401.429z
		 M325.799,403.235c0,0.183,0.014,0.351,0.056,0.505c0.225,0.854,0.967,1.442,1.85,1.442c1.303,0,2.059-1.064,2.059-2.619
		c0-1.345-0.714-2.508-2.017-2.508c-0.841,0-1.639,0.589-1.863,1.513c-0.042,0.154-0.084,0.337-0.084,0.49V403.235z"/>
	<path d="M338.682,402.549c0,2.508-1.751,3.601-3.376,3.601c-1.821,0-3.25-1.345-3.25-3.488c0-2.255,1.499-3.586,3.362-3.586
		C337.364,399.075,338.682,400.49,338.682,402.549z M333.316,402.619c0,1.485,0.841,2.605,2.045,2.605
		c1.177,0,2.06-1.106,2.06-2.634c0-1.148-0.574-2.591-2.031-2.591C333.946,400,333.316,401.345,333.316,402.619z"/>
	<path d="M340.064,404.748c0.378,0.225,1.022,0.477,1.639,0.477c0.883,0,1.303-0.435,1.303-1.009c0-0.588-0.35-0.896-1.246-1.232
		c-1.233-0.448-1.808-1.106-1.808-1.919c0-1.093,0.896-1.989,2.34-1.989c0.686,0,1.288,0.183,1.652,0.421l-0.294,0.896
		c-0.267-0.169-0.757-0.406-1.387-0.406c-0.729,0-1.121,0.42-1.121,0.924c0,0.561,0.393,0.812,1.275,1.163
		c1.162,0.434,1.778,1.022,1.778,2.031c0,1.204-0.938,2.045-2.521,2.045c-0.742,0-1.429-0.196-1.904-0.477L340.064,404.748z"/>
	<path d="M347.148,397.311c0,0.42-0.294,0.756-0.784,0.756c-0.448,0-0.743-0.336-0.743-0.756s0.309-0.771,0.771-0.771
		C346.84,396.54,347.148,396.876,347.148,397.311z M345.775,405.995v-6.779h1.232v6.779H345.775z"/>
	<path d="M350.537,397.591v1.625h1.765v0.938h-1.765v3.655c0,0.841,0.237,1.317,0.924,1.317c0.336,0,0.532-0.028,0.715-0.084
		l0.056,0.938c-0.238,0.084-0.616,0.168-1.093,0.168c-0.574,0-1.036-0.196-1.33-0.519c-0.337-0.378-0.477-0.98-0.477-1.779v-3.697
		h-1.051v-0.938h1.051v-1.261L350.537,397.591z"/>
	<path d="M355.059,397.311c0,0.42-0.294,0.756-0.784,0.756c-0.448,0-0.743-0.336-0.743-0.756s0.309-0.771,0.771-0.771
		C354.75,396.54,355.059,396.876,355.059,397.311z M353.686,405.995v-6.779h1.232v6.779H353.686z"/>
	<path d="M356.962,401.051c0-0.715-0.014-1.275-0.056-1.835h1.093l0.069,1.12h0.028c0.336-0.63,1.12-1.261,2.241-1.261
		c0.938,0,2.396,0.561,2.396,2.886v4.034H361.5v-3.908c0-1.093-0.405-2.003-1.568-2.003c-0.799,0-1.429,0.574-1.653,1.261
		c-0.056,0.154-0.084,0.364-0.084,0.574v4.076h-1.232V401.051z"/>
	<path d="M370.53,405.001c0,1.568-0.322,2.507-0.966,3.109c-0.673,0.603-1.625,0.812-2.479,0.812c-0.812,0-1.709-0.196-2.256-0.561
		l0.309-0.952c0.448,0.294,1.148,0.546,1.989,0.546c1.261,0,2.185-0.658,2.185-2.381v-0.743h-0.027
		c-0.364,0.631-1.106,1.135-2.157,1.135c-1.681,0-2.886-1.429-2.886-3.306c0-2.297,1.499-3.586,3.067-3.586
		c1.177,0,1.808,0.603,2.115,1.163h0.028l0.042-1.022h1.093c-0.042,0.476-0.057,1.036-0.057,1.849V405.001z M369.298,401.891
		c0-0.21-0.014-0.392-0.07-0.546c-0.224-0.729-0.812-1.316-1.723-1.316c-1.177,0-2.017,0.994-2.017,2.562
		c0,1.331,0.687,2.438,2.003,2.438c0.771,0,1.457-0.476,1.709-1.261c0.069-0.21,0.098-0.448,0.098-0.658V401.891z"/>
	<path d="M183.798,421.548c0.378,0.225,1.022,0.477,1.639,0.477c0.883,0,1.303-0.435,1.303-1.009c0-0.588-0.35-0.896-1.247-1.232
		c-1.232-0.448-1.807-1.106-1.807-1.919c0-1.093,0.896-1.989,2.339-1.989c0.687,0,1.289,0.183,1.653,0.42l-0.294,0.896
		c-0.266-0.168-0.756-0.405-1.387-0.405c-0.729,0-1.121,0.42-1.121,0.924c0,0.561,0.392,0.812,1.274,1.163
		c1.163,0.434,1.779,1.022,1.779,2.031c0,1.204-0.938,2.045-2.521,2.045c-0.742,0-1.429-0.196-1.905-0.477L183.798,421.548z"/>
	<path d="M195.645,419.349c0,2.508-1.751,3.601-3.375,3.601c-1.821,0-3.25-1.345-3.25-3.488c0-2.255,1.499-3.586,3.362-3.586
		C194.329,415.875,195.645,417.29,195.645,419.349z M190.28,419.419c0,1.485,0.84,2.605,2.045,2.605
		c1.177,0,2.059-1.106,2.059-2.634c0-1.148-0.574-2.591-2.031-2.591C190.911,416.8,190.28,418.145,190.28,419.419z"/>
	<path d="M197.322,422.795v-5.841h-0.938v-0.938h0.938v-0.322c0-0.953,0.224-1.821,0.785-2.367c0.462-0.448,1.079-0.631,1.653-0.631
		c0.448,0,0.812,0.099,1.051,0.196l-0.168,0.952c-0.182-0.084-0.42-0.153-0.784-0.153c-1.051,0-1.317,0.91-1.317,1.961v0.364h1.639
		v0.938h-1.639v5.841H197.322z"/>
	<path d="M202.922,414.391v1.625h1.765v0.938h-1.765v3.655c0,0.841,0.238,1.317,0.924,1.317c0.336,0,0.533-0.028,0.715-0.084
		l0.056,0.938c-0.238,0.084-0.616,0.168-1.092,0.168c-0.575,0-1.037-0.196-1.331-0.519c-0.336-0.378-0.476-0.98-0.476-1.779v-3.697
		h-1.051v-0.938h1.051v-1.261L202.922,414.391z"/>
	<path d="M206.688,416.016l0.911,3.445c0.182,0.757,0.364,1.457,0.49,2.157h0.042c0.154-0.687,0.378-1.415,0.603-2.143l1.106-3.46
		h1.037l1.05,3.39c0.252,0.812,0.448,1.526,0.603,2.213h0.042c0.112-0.687,0.294-1.4,0.518-2.199l0.967-3.403h1.219l-2.186,6.779
		h-1.121l-1.036-3.235c-0.238-0.757-0.435-1.429-0.603-2.228h-0.028c-0.168,0.812-0.378,1.513-0.617,2.241l-1.092,3.222h-1.121
		l-2.045-6.779H206.688z"/>
	<path d="M221.208,421.17c0,0.589,0.028,1.163,0.098,1.625h-1.107l-0.098-0.854h-0.042c-0.378,0.532-1.107,1.009-2.073,1.009
		c-1.373,0-2.073-0.967-2.073-1.947c0-1.639,1.457-2.535,4.076-2.521v-0.14c0-0.547-0.154-1.569-1.541-1.555
		c-0.644,0-1.302,0.182-1.779,0.504l-0.28-0.826c0.561-0.351,1.387-0.589,2.241-0.589c2.073,0,2.578,1.415,2.578,2.76V421.17z
		 M220.018,419.335c-1.345-0.028-2.872,0.21-2.872,1.527c0,0.812,0.532,1.176,1.148,1.176c0.896,0,1.471-0.56,1.667-1.134
		c0.042-0.141,0.056-0.28,0.056-0.393V419.335z"/>
	<path d="M223.193,418.131c0-0.799-0.014-1.485-0.056-2.115h1.079l0.056,1.345h0.042c0.308-0.911,1.064-1.485,1.891-1.485
		c0.126,0,0.224,0.015,0.336,0.028v1.162c-0.126-0.027-0.252-0.027-0.42-0.027c-0.869,0-1.485,0.645-1.653,1.568
		c-0.028,0.168-0.042,0.378-0.042,0.574v3.614h-1.233V418.131z"/>
	<path d="M228.317,419.629c0.028,1.667,1.079,2.354,2.325,2.354c0.882,0,1.429-0.154,1.877-0.351l0.224,0.883
		c-0.434,0.196-1.19,0.435-2.269,0.435c-2.087,0-3.334-1.387-3.334-3.432c0-2.046,1.205-3.643,3.18-3.643
		c2.228,0,2.802,1.934,2.802,3.18c0,0.252-0.014,0.435-0.042,0.574H228.317z M231.931,418.747c0.014-0.771-0.322-1.989-1.709-1.989
		c-1.26,0-1.793,1.135-1.891,1.989H231.931z"/>
	<path d="M234.365,417.136c0-0.519,0.351-0.883,0.827-0.883c0.504,0,0.827,0.364,0.827,0.883c0,0.49-0.322,0.868-0.841,0.868
		C234.701,418.004,234.365,417.626,234.365,417.136z M234.365,422.08c0-0.518,0.351-0.882,0.827-0.882
		c0.504,0,0.827,0.364,0.827,0.882c0,0.49-0.322,0.869-0.841,0.869C234.701,422.949,234.365,422.57,234.365,422.08z"/>
	<path d="M241.197,419.629c0.028,1.667,1.079,2.354,2.325,2.354c0.882,0,1.429-0.154,1.877-0.351l0.224,0.883
		c-0.434,0.196-1.19,0.435-2.269,0.435c-2.087,0-3.334-1.387-3.334-3.432c0-2.046,1.205-3.643,3.18-3.643
		c2.228,0,2.802,1.934,2.802,3.18c0,0.252-0.014,0.435-0.042,0.574H241.197z M244.811,418.747c0.014-0.771-0.322-1.989-1.709-1.989
		c-1.26,0-1.793,1.135-1.891,1.989H244.811z"/>
	<path d="M248.057,416.016l0.967,1.456c0.266,0.379,0.476,0.715,0.7,1.093h0.028c0.224-0.392,0.448-0.742,0.686-1.106l0.938-1.442
		h1.345l-2.311,3.277l2.367,3.502h-1.387l-1.009-1.526c-0.266-0.393-0.49-0.771-0.728-1.177h-0.028
		c-0.224,0.406-0.448,0.771-0.714,1.177l-0.98,1.526h-1.358l2.409-3.46l-2.297-3.319H248.057z"/>
	<path d="M255.631,414.391v1.625h1.765v0.938h-1.765v3.655c0,0.841,0.238,1.317,0.924,1.317c0.336,0,0.533-0.028,0.715-0.084
		l0.056,0.938c-0.238,0.084-0.616,0.168-1.092,0.168c-0.575,0-1.037-0.196-1.331-0.519c-0.336-0.378-0.476-0.98-0.476-1.779v-3.697
		h-1.051v-0.938h1.051v-1.261L255.631,414.391z"/>
	<path d="M258.78,418.131c0-0.799-0.014-1.485-0.056-2.115h1.079l0.056,1.345h0.042c0.308-0.911,1.064-1.485,1.891-1.485
		c0.126,0,0.224,0.015,0.336,0.028v1.162c-0.126-0.027-0.252-0.027-0.42-0.027c-0.869,0-1.485,0.645-1.653,1.568
		c-0.028,0.168-0.042,0.378-0.042,0.574v3.614h-1.233V418.131z"/>
	<path d="M268.051,421.17c0,0.589,0.028,1.163,0.098,1.625h-1.107l-0.098-0.854h-0.042c-0.378,0.532-1.107,1.009-2.073,1.009
		c-1.373,0-2.073-0.967-2.073-1.947c0-1.639,1.457-2.535,4.076-2.521v-0.14c0-0.547-0.154-1.569-1.541-1.555
		c-0.644,0-1.302,0.182-1.779,0.504l-0.28-0.826c0.561-0.351,1.387-0.589,2.241-0.589c2.073,0,2.578,1.415,2.578,2.76V421.17z
		 M266.86,419.335c-1.345-0.028-2.872,0.21-2.872,1.527c0,0.812,0.532,1.176,1.148,1.176c0.896,0,1.471-0.56,1.667-1.134
		c0.042-0.141,0.056-0.28,0.056-0.393V419.335z"/>
	<path d="M273.004,418.131c0-0.799-0.014-1.485-0.056-2.115h1.079l0.056,1.345h0.042c0.308-0.911,1.064-1.485,1.891-1.485
		c0.126,0,0.224,0.015,0.336,0.028v1.162c-0.126-0.027-0.252-0.027-0.42-0.027c-0.869,0-1.485,0.645-1.653,1.568
		c-0.028,0.168-0.042,0.378-0.042,0.574v3.614h-1.233V418.131z"/>
	<path d="M278.129,419.629c0.028,1.667,1.079,2.354,2.325,2.354c0.882,0,1.429-0.154,1.877-0.351l0.224,0.883
		c-0.434,0.196-1.19,0.435-2.269,0.435c-2.087,0-3.334-1.387-3.334-3.432c0-2.046,1.205-3.643,3.18-3.643
		c2.228,0,2.802,1.934,2.802,3.18c0,0.252-0.014,0.435-0.042,0.574H278.129z M281.743,418.747c0.014-0.771-0.322-1.989-1.709-1.989
		c-1.26,0-1.793,1.135-1.891,1.989H281.743z"/>
	<path d="M289.219,421.17c0,0.589,0.028,1.163,0.098,1.625h-1.107l-0.098-0.854h-0.042c-0.378,0.532-1.107,1.009-2.073,1.009
		c-1.373,0-2.073-0.967-2.073-1.947c0-1.639,1.457-2.535,4.076-2.521v-0.14c0-0.547-0.154-1.569-1.541-1.555
		c-0.644,0-1.302,0.182-1.779,0.504l-0.28-0.826c0.561-0.351,1.387-0.589,2.241-0.589c2.073,0,2.578,1.415,2.578,2.76V421.17z
		 M288.028,419.335c-1.345-0.028-2.872,0.21-2.872,1.527c0,0.812,0.532,1.176,1.148,1.176c0.896,0,1.471-0.56,1.667-1.134
		c0.042-0.141,0.056-0.28,0.056-0.393V419.335z"/>
	<path d="M297.045,412.85v8.194c0,0.603,0.028,1.289,0.056,1.751h-1.093l-0.056-1.177h-0.042c-0.364,0.757-1.177,1.331-2.283,1.331
		c-1.639,0-2.914-1.387-2.914-3.446c-0.014-2.255,1.401-3.628,3.04-3.628c1.051,0,1.737,0.49,2.045,1.022h0.028v-4.048H297.045z
		 M295.827,418.774c0-0.153-0.014-0.364-0.056-0.518c-0.182-0.771-0.854-1.415-1.779-1.415c-1.275,0-2.031,1.12-2.031,2.605
		c0,1.373,0.687,2.507,2.003,2.507c0.826,0,1.583-0.56,1.807-1.471c0.042-0.168,0.056-0.336,0.056-0.532V418.774z"/>
	<path d="M307.908,412.85v8.194c0,0.603,0.028,1.289,0.057,1.751h-1.093l-0.056-1.177h-0.042c-0.364,0.757-1.177,1.331-2.283,1.331
		c-1.64,0-2.914-1.387-2.914-3.446c-0.014-2.255,1.4-3.628,3.04-3.628c1.05,0,1.736,0.49,2.045,1.022h0.028v-4.048H307.908z
		 M306.69,418.774c0-0.153-0.015-0.364-0.057-0.518c-0.182-0.771-0.854-1.415-1.779-1.415c-1.274,0-2.03,1.12-2.03,2.605
		c0,1.373,0.687,2.507,2.003,2.507c0.826,0,1.583-0.56,1.807-1.471c0.042-0.168,0.057-0.336,0.057-0.532V418.774z"/>
	<path d="M315.637,420.932c0,0.715,0.015,1.331,0.057,1.863h-1.093l-0.07-1.106h-0.028c-0.308,0.546-1.036,1.261-2.241,1.261
		c-1.064,0-2.339-0.603-2.339-2.97v-3.964h1.232v3.739c0,1.289,0.406,2.172,1.513,2.172c0.827,0,1.401-0.574,1.625-1.135
		c0.07-0.168,0.112-0.393,0.112-0.631v-4.146h1.232V420.932z"/>
	<path d="M317.678,418.131c0-0.799-0.014-1.485-0.056-2.115h1.078l0.057,1.345h0.042c0.308-0.911,1.064-1.485,1.891-1.485
		c0.126,0,0.224,0.015,0.336,0.028v1.162c-0.126-0.027-0.252-0.027-0.42-0.027c-0.868,0-1.485,0.645-1.653,1.568
		c-0.027,0.168-0.042,0.378-0.042,0.574v3.614h-1.232V418.131z"/>
	<path d="M323.685,414.11c0,0.42-0.294,0.756-0.784,0.756c-0.448,0-0.743-0.336-0.743-0.756s0.309-0.771,0.771-0.771
		C323.376,413.34,323.685,413.676,323.685,414.11z M322.312,422.795v-6.779h1.232v6.779H322.312z"/>
	<path d="M325.588,417.851c0-0.715-0.014-1.275-0.056-1.835h1.093l0.069,1.12h0.028c0.336-0.63,1.12-1.261,2.241-1.261
		c0.938,0,2.396,0.561,2.396,2.886v4.034h-1.233v-3.908c0-1.093-0.406-2.003-1.568-2.003c-0.799,0-1.429,0.574-1.653,1.261
		c-0.056,0.154-0.084,0.364-0.084,0.574v4.076h-1.232V417.851z"/>
	<path d="M339.156,421.801c0,1.568-0.321,2.507-0.966,3.109c-0.673,0.603-1.625,0.812-2.479,0.812c-0.812,0-1.709-0.196-2.255-0.561
		l0.308-0.952c0.448,0.294,1.148,0.546,1.989,0.546c1.261,0,2.186-0.658,2.186-2.381v-0.743h-0.028
		c-0.364,0.631-1.106,1.135-2.157,1.135c-1.681,0-2.886-1.429-2.886-3.306c0-2.297,1.499-3.586,3.067-3.586
		c1.177,0,1.808,0.603,2.115,1.163h0.028l0.042-1.022h1.093c-0.042,0.476-0.057,1.036-0.057,1.849V421.801z M337.924,418.69
		c0-0.21-0.014-0.392-0.07-0.546c-0.224-0.729-0.812-1.316-1.723-1.316c-1.177,0-2.017,0.994-2.017,2.562
		c0,1.331,0.686,2.438,2.003,2.438c0.771,0,1.457-0.476,1.709-1.261c0.069-0.21,0.098-0.448,0.098-0.658V418.69z"/>
	<path d="M344.151,412.85h1.219v4.258h0.028c0.434-0.756,1.219-1.232,2.311-1.232c1.695,0,2.872,1.401,2.872,3.446
		c0,2.423-1.541,3.628-3.054,3.628c-0.98,0-1.765-0.379-2.283-1.261h-0.028l-0.07,1.106h-1.05c0.027-0.462,0.056-1.148,0.056-1.751
		V412.85z M345.37,420.077c0,0.154,0.014,0.309,0.056,0.448c0.225,0.854,0.953,1.443,1.85,1.443c1.303,0,2.059-1.051,2.059-2.605
		c0-1.359-0.7-2.521-2.031-2.521c-0.826,0-1.61,0.588-1.862,1.513c-0.042,0.154-0.07,0.322-0.07,0.519V420.077z"/>
	<path d="M352.117,412.85h1.232v9.945h-1.232V412.85z"/>
	<path d="M356.107,419.629c0.028,1.667,1.078,2.354,2.325,2.354c0.883,0,1.429-0.154,1.877-0.351l0.225,0.883
		c-0.435,0.196-1.191,0.435-2.27,0.435c-2.087,0-3.334-1.387-3.334-3.432c0-2.046,1.205-3.643,3.18-3.643
		c2.228,0,2.802,1.934,2.802,3.18c0,0.252-0.015,0.435-0.042,0.574H356.107z M359.722,418.747c0.014-0.771-0.322-1.989-1.709-1.989
		c-1.261,0-1.793,1.135-1.892,1.989H359.722z"/>
	<path d="M362.435,417.851c0-0.715-0.014-1.275-0.056-1.835h1.093l0.069,1.12h0.028c0.336-0.63,1.12-1.261,2.241-1.261
		c0.938,0,2.396,0.561,2.396,2.886v4.034h-1.233v-3.908c0-1.093-0.405-2.003-1.568-2.003c-0.799,0-1.429,0.574-1.653,1.261
		c-0.056,0.154-0.084,0.364-0.084,0.574v4.076h-1.232V417.851z"/>
	<path d="M376.045,412.85v8.194c0,0.603,0.028,1.289,0.057,1.751h-1.093l-0.056-1.177h-0.042c-0.364,0.757-1.177,1.331-2.283,1.331
		c-1.64,0-2.914-1.387-2.914-3.446c-0.014-2.255,1.4-3.628,3.04-3.628c1.05,0,1.736,0.49,2.045,1.022h0.028v-4.048H376.045z
		 M374.827,418.774c0-0.153-0.015-0.364-0.057-0.518c-0.182-0.771-0.854-1.415-1.779-1.415c-1.274,0-2.03,1.12-2.03,2.605
		c0,1.373,0.687,2.507,2.003,2.507c0.826,0,1.583-0.56,1.807-1.471c0.042-0.168,0.057-0.336,0.057-0.532V418.774z"/>
	<path d="M379.474,414.11c0,0.42-0.294,0.756-0.784,0.756c-0.448,0-0.743-0.336-0.743-0.756s0.309-0.771,0.771-0.771
		C379.165,413.34,379.474,413.676,379.474,414.11z M378.101,422.795v-6.779h1.232v6.779H378.101z"/>
	<path d="M381.376,417.851c0-0.715-0.014-1.275-0.056-1.835h1.093l0.069,1.12h0.028c0.336-0.63,1.12-1.261,2.241-1.261
		c0.938,0,2.396,0.561,2.396,2.886v4.034h-1.233v-3.908c0-1.093-0.405-2.003-1.568-2.003c-0.799,0-1.429,0.574-1.653,1.261
		c-0.056,0.154-0.084,0.364-0.084,0.574v4.076h-1.232V417.851z"/>
	<path d="M394.945,421.801c0,1.568-0.321,2.507-0.966,3.109c-0.673,0.603-1.625,0.812-2.479,0.812c-0.812,0-1.709-0.196-2.255-0.561
		l0.308-0.952c0.448,0.294,1.148,0.546,1.989,0.546c1.261,0,2.186-0.658,2.186-2.381v-0.743h-0.028
		c-0.364,0.631-1.106,1.135-2.157,1.135c-1.681,0-2.886-1.429-2.886-3.306c0-2.297,1.499-3.586,3.067-3.586
		c1.177,0,1.808,0.603,2.115,1.163h0.028l0.042-1.022h1.093c-0.042,0.476-0.057,1.036-0.057,1.849V421.801z M393.713,418.69
		c0-0.21-0.014-0.392-0.07-0.546c-0.224-0.729-0.812-1.316-1.723-1.316c-1.177,0-2.017,0.994-2.017,2.562
		c0,1.331,0.686,2.438,2.003,2.438c0.771,0,1.457-0.476,1.709-1.261c0.069-0.21,0.098-0.448,0.098-0.658V418.69z"/>
	<path d="M189.765,438.601c0,1.568-0.322,2.507-0.967,3.109c-0.672,0.603-1.625,0.812-2.479,0.812c-0.812,0-1.709-0.196-2.255-0.561
		l0.308-0.952c0.448,0.294,1.148,0.546,1.989,0.546c1.261,0,2.185-0.658,2.185-2.381v-0.743h-0.028
		c-0.364,0.631-1.107,1.135-2.157,1.135c-1.681,0-2.886-1.429-2.886-3.306c0-2.297,1.499-3.586,3.068-3.586
		c1.176,0,1.807,0.603,2.115,1.163h0.028l0.042-1.022h1.093c-0.042,0.476-0.056,1.036-0.056,1.849V438.601z M188.532,435.49
		c0-0.21-0.014-0.392-0.07-0.546c-0.224-0.729-0.812-1.316-1.723-1.316c-1.176,0-2.017,0.994-2.017,2.562
		c0,1.331,0.687,2.438,2.003,2.438c0.77,0,1.457-0.476,1.709-1.261c0.07-0.21,0.098-0.448,0.098-0.658V435.49z"/>
	<path d="M191.708,435.028c0-0.868-0.028-1.569-0.056-2.213h1.093l0.07,1.162h0.028c0.49-0.826,1.303-1.303,2.409-1.303
		c1.653,0,2.886,1.387,2.886,3.432c0,2.438-1.499,3.643-3.096,3.643c-0.896,0-1.681-0.393-2.087-1.064h-0.028v3.684h-1.219V435.028z
		 M192.926,436.835c0,0.183,0.014,0.351,0.056,0.505c0.224,0.854,0.966,1.442,1.849,1.442c1.303,0,2.06-1.064,2.06-2.619
		c0-1.345-0.715-2.508-2.017-2.508c-0.841,0-1.639,0.589-1.863,1.513c-0.042,0.154-0.084,0.337-0.084,0.49V436.835z"/>
	<path d="M205.347,437.731c0,0.715,0.014,1.331,0.056,1.863h-1.092l-0.07-1.106h-0.028c-0.308,0.546-1.037,1.261-2.241,1.261
		c-1.064,0-2.339-0.603-2.339-2.97v-3.964h1.233v3.739c0,1.289,0.406,2.172,1.513,2.172c0.826,0,1.401-0.574,1.625-1.135
		c0.07-0.168,0.112-0.393,0.112-0.631v-4.146h1.233V437.731z"/>
	<path d="M207.107,433.936c0-0.519,0.351-0.883,0.827-0.883c0.504,0,0.827,0.364,0.827,0.883c0,0.49-0.322,0.868-0.841,0.868
		C207.444,434.804,207.107,434.426,207.107,433.936z M207.107,438.88c0-0.518,0.351-0.882,0.827-0.882
		c0.504,0,0.827,0.364,0.827,0.882c0,0.491-0.322,0.869-0.841,0.869C207.444,439.749,207.107,439.371,207.107,438.88z"/>
	<path d="M213.939,436.429c0.028,1.667,1.079,2.354,2.325,2.354c0.882,0,1.429-0.154,1.877-0.351l0.224,0.883
		c-0.434,0.196-1.19,0.435-2.269,0.435c-2.087,0-3.334-1.387-3.334-3.432c0-2.046,1.205-3.643,3.18-3.643
		c2.228,0,2.802,1.934,2.802,3.18c0,0.252-0.014,0.435-0.042,0.574H213.939z M217.553,435.547c0.014-0.771-0.322-1.989-1.709-1.989
		c-1.26,0-1.793,1.135-1.891,1.989H217.553z"/>
	<path d="M220.799,432.815l0.967,1.456c0.266,0.379,0.476,0.715,0.7,1.093h0.028c0.224-0.392,0.448-0.742,0.686-1.106l0.938-1.442
		h1.345l-2.311,3.277l2.367,3.502h-1.387l-1.008-1.526c-0.267-0.393-0.491-0.771-0.729-1.177h-0.028
		c-0.224,0.406-0.448,0.771-0.714,1.177l-0.98,1.526h-1.359l2.41-3.46l-2.297-3.319H220.799z"/>
	<path d="M228.374,431.19v1.625h1.765v0.938h-1.765v3.655c0,0.841,0.238,1.317,0.924,1.317c0.336,0,0.533-0.028,0.715-0.084
		l0.056,0.938c-0.238,0.084-0.616,0.168-1.092,0.168c-0.575,0-1.037-0.196-1.331-0.519c-0.336-0.378-0.476-0.98-0.476-1.779v-3.697
		h-1.051v-0.938h1.051v-1.261L228.374,431.19z"/>
	<path d="M231.523,434.931c0-0.799-0.014-1.485-0.056-2.115h1.079l0.056,1.345h0.042c0.308-0.911,1.064-1.485,1.891-1.485
		c0.126,0,0.224,0.015,0.336,0.028v1.162c-0.126-0.027-0.252-0.027-0.42-0.027c-0.869,0-1.485,0.645-1.653,1.568
		c-0.028,0.168-0.042,0.379-0.042,0.574v3.614h-1.233V434.931z"/>
	<path d="M240.793,437.97c0,0.589,0.028,1.163,0.098,1.625h-1.107l-0.098-0.854h-0.042c-0.378,0.532-1.107,1.009-2.073,1.009
		c-1.373,0-2.073-0.967-2.073-1.947c0-1.639,1.457-2.535,4.076-2.521v-0.14c0-0.547-0.154-1.569-1.541-1.555
		c-0.645,0-1.303,0.182-1.779,0.504l-0.28-0.826c0.561-0.351,1.387-0.589,2.241-0.589c2.073,0,2.578,1.415,2.578,2.76V437.97z
		 M239.603,436.135c-1.345-0.028-2.871,0.21-2.871,1.527c0,0.812,0.532,1.176,1.148,1.176c0.896,0,1.471-0.56,1.667-1.134
		c0.042-0.141,0.056-0.28,0.056-0.393V436.135z"/>
	<path d="M245.747,429.649h1.219v4.258h0.028c0.435-0.756,1.219-1.232,2.312-1.232c1.695,0,2.872,1.401,2.872,3.446
		c0,2.423-1.541,3.628-3.054,3.628c-0.98,0-1.765-0.378-2.283-1.261h-0.028l-0.07,1.106h-1.051c0.028-0.462,0.056-1.148,0.056-1.751
		V429.649z M246.965,436.877c0,0.154,0.014,0.309,0.056,0.448c0.224,0.854,0.952,1.443,1.849,1.443c1.303,0,2.06-1.051,2.06-2.605
		c0-1.359-0.701-2.521-2.031-2.521c-0.827,0-1.611,0.588-1.863,1.513c-0.042,0.154-0.07,0.322-0.07,0.519V436.877z"/>
	<path d="M259.386,437.731c0,0.715,0.014,1.331,0.056,1.863h-1.092l-0.07-1.106h-0.028c-0.308,0.546-1.037,1.261-2.241,1.261
		c-1.064,0-2.339-0.603-2.339-2.97v-3.964h1.233v3.739c0,1.289,0.406,2.172,1.513,2.172c0.826,0,1.401-0.574,1.625-1.135
		c0.07-0.168,0.112-0.393,0.112-0.631v-4.146h1.233V437.731z"/>
	<path d="M265.628,439.595v-5.841h-2.857v5.841h-1.219v-5.841h-0.938v-0.938h0.938v-0.211c0-0.952,0.224-1.765,0.756-2.311
		c0.393-0.393,0.953-0.631,1.709-0.631c0.393,0,0.757,0.126,0.967,0.238l-0.252,0.925c-0.182-0.099-0.448-0.183-0.728-0.183
		c-0.967,0-1.233,0.827-1.233,1.892v0.28h2.857v-0.322c0-0.953,0.21-1.821,0.785-2.367c0.462-0.448,1.079-0.631,1.639-0.631
		c0.448,0,0.827,0.099,1.051,0.196l-0.154,0.952c-0.196-0.084-0.434-0.153-0.798-0.153c-1.037,0-1.303,0.91-1.303,1.961v0.364h1.625
		v0.938h-1.625v5.841H265.628z"/>
	<path d="M270.093,436.429c0.028,1.667,1.079,2.354,2.325,2.354c0.882,0,1.429-0.154,1.877-0.351l0.224,0.883
		c-0.434,0.196-1.19,0.435-2.269,0.435c-2.087,0-3.334-1.387-3.334-3.432c0-2.046,1.205-3.643,3.18-3.643
		c2.228,0,2.802,1.934,2.802,3.18c0,0.252-0.014,0.435-0.042,0.574H270.093z M273.707,435.547c0.014-0.771-0.322-1.989-1.709-1.989
		c-1.26,0-1.793,1.135-1.891,1.989H273.707z"/>
	<path d="M276.42,434.931c0-0.799-0.014-1.485-0.056-2.115h1.079l0.056,1.345h0.042c0.308-0.911,1.064-1.485,1.891-1.485
		c0.126,0,0.224,0.015,0.336,0.028v1.162c-0.126-0.027-0.252-0.027-0.42-0.027c-0.869,0-1.485,0.645-1.653,1.568
		c-0.028,0.168-0.042,0.379-0.042,0.574v3.614h-1.233V434.931z"/>
	<path d="M287.566,432.143v3.292h3.166v0.841h-3.166v3.319h-0.896v-3.319h-3.166v-0.841h3.166v-3.292H287.566z"/>
	<path d="M295.964,436.429c0.028,1.667,1.079,2.354,2.326,2.354c0.882,0,1.429-0.154,1.877-0.351l0.224,0.883
		c-0.435,0.196-1.19,0.435-2.27,0.435c-2.087,0-3.333-1.387-3.333-3.432c0-2.046,1.205-3.643,3.18-3.643
		c2.227,0,2.801,1.934,2.801,3.18c0,0.252-0.014,0.435-0.042,0.574H295.964z M299.578,435.547c0.014-0.771-0.322-1.989-1.709-1.989
		c-1.261,0-1.793,1.135-1.891,1.989H299.578z"/>
	<path d="M302.824,432.815l0.967,1.456c0.266,0.379,0.477,0.715,0.7,1.093h0.028c0.224-0.392,0.448-0.742,0.687-1.106l0.938-1.442
		h1.345l-2.312,3.277l2.367,3.502h-1.387l-1.009-1.526c-0.266-0.393-0.49-0.771-0.729-1.177h-0.027
		c-0.225,0.406-0.448,0.771-0.715,1.177l-0.98,1.526h-1.358l2.409-3.46l-2.297-3.319H302.824z"/>
	<path d="M310.399,431.19v1.625h1.765v0.938h-1.765v3.655c0,0.841,0.237,1.317,0.924,1.317c0.336,0,0.532-0.028,0.715-0.084
		l0.056,0.938c-0.238,0.084-0.616,0.168-1.093,0.168c-0.574,0-1.036-0.196-1.33-0.519c-0.337-0.378-0.477-0.98-0.477-1.779v-3.697
		h-1.051v-0.938h1.051v-1.261L310.399,431.19z"/>
	<path d="M313.548,434.931c0-0.799-0.014-1.485-0.056-2.115h1.078l0.057,1.345h0.042c0.308-0.911,1.064-1.485,1.891-1.485
		c0.126,0,0.225,0.015,0.336,0.028v1.162c-0.126-0.027-0.252-0.027-0.42-0.027c-0.868,0-1.484,0.645-1.653,1.568
		c-0.027,0.168-0.042,0.379-0.042,0.574v3.614h-1.232V434.931z"/>
	<path d="M322.818,437.97c0,0.589,0.028,1.163,0.098,1.625h-1.106l-0.098-0.854h-0.042c-0.378,0.532-1.106,1.009-2.073,1.009
		c-1.373,0-2.073-0.967-2.073-1.947c0-1.639,1.457-2.535,4.076-2.521v-0.14c0-0.547-0.154-1.569-1.541-1.555
		c-0.645,0-1.303,0.182-1.778,0.504l-0.28-0.826c0.56-0.351,1.387-0.589,2.241-0.589c2.073,0,2.577,1.415,2.577,2.76V437.97z
		 M321.628,436.135c-1.345-0.028-2.872,0.21-2.872,1.527c0,0.812,0.532,1.176,1.148,1.176c0.896,0,1.472-0.56,1.667-1.134
		c0.042-0.141,0.057-0.28,0.057-0.393V436.135z"/>
	<path d="M327.771,434.931c0-0.799-0.014-1.485-0.056-2.115h1.078l0.057,1.345h0.042c0.308-0.911,1.064-1.485,1.891-1.485
		c0.126,0,0.224,0.015,0.336,0.028v1.162c-0.126-0.027-0.252-0.027-0.42-0.027c-0.868,0-1.485,0.645-1.653,1.568
		c-0.027,0.168-0.042,0.379-0.042,0.574v3.614h-1.232V434.931z"/>
	<path d="M332.896,436.429c0.028,1.667,1.078,2.354,2.325,2.354c0.883,0,1.429-0.154,1.877-0.351l0.225,0.883
		c-0.435,0.196-1.191,0.435-2.27,0.435c-2.087,0-3.334-1.387-3.334-3.432c0-2.046,1.205-3.643,3.18-3.643
		c2.228,0,2.802,1.934,2.802,3.18c0,0.252-0.015,0.435-0.042,0.574H332.896z M336.511,435.547c0.014-0.771-0.322-1.989-1.709-1.989
		c-1.261,0-1.793,1.135-1.892,1.989H336.511z"/>
	<path d="M343.986,437.97c0,0.589,0.028,1.163,0.098,1.625h-1.106l-0.098-0.854h-0.042c-0.378,0.532-1.106,1.009-2.073,1.009
		c-1.373,0-2.073-0.967-2.073-1.947c0-1.639,1.457-2.535,4.076-2.521v-0.14c0-0.547-0.154-1.569-1.541-1.555
		c-0.645,0-1.303,0.182-1.778,0.504l-0.28-0.826c0.56-0.351,1.387-0.589,2.241-0.589c2.073,0,2.577,1.415,2.577,2.76V437.97z
		 M342.796,436.135c-1.345-0.028-2.872,0.21-2.872,1.527c0,0.812,0.532,1.176,1.148,1.176c0.896,0,1.472-0.56,1.667-1.134
		c0.042-0.141,0.057-0.28,0.057-0.393V436.135z"/>
	<path d="M351.812,429.649v8.194c0,0.603,0.028,1.289,0.057,1.751h-1.093l-0.056-1.177h-0.042c-0.364,0.757-1.177,1.331-2.283,1.331
		c-1.64,0-2.914-1.387-2.914-3.446c-0.014-2.255,1.4-3.628,3.04-3.628c1.05,0,1.736,0.49,2.045,1.022h0.028v-4.048H351.812z
		 M350.595,435.574c0-0.153-0.015-0.364-0.057-0.518c-0.182-0.771-0.854-1.415-1.779-1.415c-1.274,0-2.03,1.12-2.03,2.605
		c0,1.373,0.687,2.507,2.003,2.507c0.826,0,1.583-0.56,1.807-1.471c0.042-0.168,0.057-0.336,0.057-0.532V435.574z"/>
	<path d="M352.831,440.141l3.894-10.155h0.967l-3.922,10.155H352.831z"/>
	<path d="M358.669,435.028c0-0.868-0.028-1.569-0.056-2.213h1.093l0.069,1.162h0.028c0.49-0.826,1.303-1.303,2.409-1.303
		c1.653,0,2.886,1.387,2.886,3.432c0,2.438-1.499,3.643-3.096,3.643c-0.896,0-1.681-0.393-2.087-1.064h-0.028v3.684h-1.219V435.028z
		 M359.888,436.835c0,0.183,0.014,0.351,0.056,0.505c0.225,0.854,0.967,1.442,1.85,1.442c1.303,0,2.059-1.064,2.059-2.619
		c0-1.345-0.714-2.508-2.017-2.508c-0.841,0-1.639,0.589-1.863,1.513c-0.042,0.154-0.084,0.337-0.084,0.49V436.835z"/>
	<path d="M366.635,434.931c0-0.799-0.014-1.485-0.056-2.115h1.078l0.057,1.345h0.042c0.308-0.911,1.064-1.485,1.891-1.485
		c0.126,0,0.224,0.015,0.336,0.028v1.162c-0.126-0.027-0.252-0.027-0.42-0.027c-0.868,0-1.485,0.645-1.653,1.568
		c-0.027,0.168-0.042,0.379-0.042,0.574v3.614h-1.232V434.931z"/>
	<path d="M377.209,436.148c0,2.508-1.751,3.601-3.376,3.601c-1.821,0-3.25-1.345-3.25-3.488c0-2.255,1.499-3.586,3.362-3.586
		C375.892,432.675,377.209,434.09,377.209,436.148z M371.844,436.219c0,1.485,0.841,2.605,2.045,2.605
		c1.177,0,2.06-1.106,2.06-2.634c0-1.148-0.574-2.591-2.031-2.591C372.474,433.6,371.844,434.944,371.844,436.219z"/>
	<path d="M383.592,439.356c-0.322,0.154-1.037,0.393-1.947,0.393c-2.045,0-3.376-1.387-3.376-3.46c0-2.087,1.429-3.614,3.642-3.614
		c0.729,0,1.373,0.183,1.709,0.364l-0.28,0.938c-0.294-0.154-0.756-0.322-1.429-0.322c-1.555,0-2.395,1.163-2.395,2.563
		c0,1.569,1.008,2.535,2.353,2.535c0.701,0,1.163-0.168,1.514-0.322L383.592,439.356z"/>
	<path d="M385.634,436.429c0.028,1.667,1.078,2.354,2.325,2.354c0.883,0,1.429-0.154,1.877-0.351l0.225,0.883
		c-0.435,0.196-1.191,0.435-2.27,0.435c-2.087,0-3.334-1.387-3.334-3.432c0-2.046,1.205-3.643,3.18-3.643
		c2.228,0,2.802,1.934,2.802,3.18c0,0.252-0.014,0.435-0.042,0.574H385.634z M389.248,435.547c0.014-0.771-0.322-1.989-1.709-1.989
		c-1.261,0-1.793,1.135-1.892,1.989H389.248z"/>
	<path d="M391.793,438.348c0.378,0.225,1.022,0.477,1.639,0.477c0.883,0,1.303-0.435,1.303-1.009c0-0.588-0.35-0.896-1.246-1.232
		c-1.233-0.448-1.808-1.106-1.808-1.919c0-1.093,0.896-1.989,2.34-1.989c0.686,0,1.288,0.183,1.652,0.421l-0.294,0.896
		c-0.267-0.169-0.757-0.406-1.387-0.406c-0.729,0-1.121,0.42-1.121,0.924c0,0.561,0.393,0.812,1.275,1.163
		c1.162,0.434,1.778,1.022,1.778,2.031c0,1.204-0.938,2.045-2.521,2.045c-0.742,0-1.429-0.196-1.904-0.477L391.793,438.348z"/>
	<path d="M397.337,438.348c0.378,0.225,1.022,0.477,1.639,0.477c0.883,0,1.303-0.435,1.303-1.009c0-0.588-0.35-0.896-1.246-1.232
		c-1.233-0.448-1.808-1.106-1.808-1.919c0-1.093,0.896-1.989,2.34-1.989c0.686,0,1.288,0.183,1.652,0.421l-0.294,0.896
		c-0.267-0.169-0.757-0.406-1.387-0.406c-0.729,0-1.121,0.42-1.121,0.924c0,0.561,0.393,0.812,1.275,1.163
		c1.162,0.434,1.778,1.022,1.778,2.031c0,1.204-0.938,2.045-2.521,2.045c-0.743,0-1.43-0.196-1.905-0.477L397.337,438.348z"/>
	<path d="M404.422,430.91c0,0.42-0.294,0.756-0.784,0.756c-0.448,0-0.743-0.336-0.743-0.756s0.309-0.771,0.771-0.771
		C404.113,430.14,404.422,430.476,404.422,430.91z M403.049,439.595v-6.779h1.232v6.779H403.049z"/>
	<path d="M406.324,434.65c0-0.715-0.014-1.275-0.056-1.835h1.093l0.069,1.12h0.028c0.336-0.63,1.12-1.261,2.241-1.261
		c0.938,0,2.396,0.561,2.396,2.886v4.034h-1.233v-3.908c0-1.093-0.406-2.003-1.568-2.003c-0.799,0-1.429,0.574-1.653,1.261
		c-0.056,0.154-0.084,0.364-0.084,0.574v4.076h-1.232V434.65z"/>
	<path d="M419.894,438.601c0,1.568-0.322,2.507-0.966,3.109c-0.673,0.603-1.625,0.812-2.479,0.812c-0.812,0-1.709-0.196-2.256-0.561
		l0.309-0.952c0.448,0.294,1.148,0.546,1.989,0.546c1.261,0,2.185-0.658,2.185-2.381v-0.743h-0.027
		c-0.364,0.631-1.106,1.135-2.157,1.135c-1.681,0-2.886-1.429-2.886-3.306c0-2.297,1.499-3.586,3.067-3.586
		c1.177,0,1.808,0.603,2.115,1.163h0.028l0.042-1.022h1.093c-0.042,0.476-0.057,1.036-0.057,1.849V438.601z M418.661,435.49
		c0-0.21-0.014-0.392-0.07-0.546c-0.224-0.729-0.812-1.316-1.723-1.316c-1.177,0-2.017,0.994-2.017,2.562
		c0,1.331,0.687,2.438,2.003,2.438c0.771,0,1.457-0.476,1.709-1.261c0.069-0.21,0.098-0.448,0.098-0.658V435.49z"/>
	<path d="M430.729,429.649v8.194c0,0.603,0.028,1.289,0.057,1.751h-1.093l-0.056-1.177h-0.042c-0.364,0.757-1.177,1.331-2.283,1.331
		c-1.64,0-2.914-1.387-2.914-3.446c-0.014-2.255,1.4-3.628,3.04-3.628c1.05,0,1.736,0.49,2.045,1.022h0.028v-4.048H430.729z
		 M429.512,435.574c0-0.153-0.015-0.364-0.057-0.518c-0.182-0.771-0.854-1.415-1.778-1.415c-1.275,0-2.031,1.12-2.031,2.605
		c0,1.373,0.686,2.507,2.003,2.507c0.826,0,1.583-0.56,1.807-1.471c0.042-0.168,0.057-0.336,0.057-0.532V435.574z"/>
	<path d="M438.457,437.731c0,0.715,0.015,1.331,0.057,1.863h-1.093l-0.07-1.106h-0.028c-0.308,0.546-1.036,1.261-2.241,1.261
		c-1.064,0-2.339-0.603-2.339-2.97v-3.964h1.232v3.739c0,1.289,0.406,2.172,1.513,2.172c0.827,0,1.401-0.574,1.625-1.135
		c0.07-0.168,0.112-0.393,0.112-0.631v-4.146h1.232V437.731z"/>
	<path d="M440.498,434.931c0-0.799-0.014-1.485-0.056-2.115h1.078l0.057,1.345h0.042c0.308-0.911,1.064-1.485,1.891-1.485
		c0.126,0,0.224,0.015,0.336,0.028v1.162c-0.126-0.027-0.252-0.027-0.42-0.027c-0.868,0-1.485,0.645-1.653,1.568
		c-0.027,0.168-0.042,0.379-0.042,0.574v3.614h-1.232V434.931z"/>
	<path d="M446.505,430.91c0,0.42-0.294,0.756-0.784,0.756c-0.448,0-0.743-0.336-0.743-0.756s0.309-0.771,0.771-0.771
		C446.196,430.14,446.505,430.476,446.505,430.91z M445.132,439.595v-6.779h1.232v6.779H445.132z"/>
	<path d="M448.408,434.65c0-0.715-0.014-1.275-0.056-1.835h1.093l0.069,1.12h0.028c0.336-0.63,1.12-1.261,2.241-1.261
		c0.938,0,2.396,0.561,2.396,2.886v4.034h-1.233v-3.908c0-1.093-0.406-2.003-1.568-2.003c-0.799,0-1.429,0.574-1.653,1.261
		c-0.056,0.154-0.084,0.364-0.084,0.574v4.076h-1.232V434.65z"/>
	<path d="M461.977,438.601c0,1.568-0.321,2.507-0.966,3.109c-0.673,0.603-1.625,0.812-2.479,0.812c-0.812,0-1.709-0.196-2.255-0.561
		l0.308-0.952c0.448,0.294,1.148,0.546,1.989,0.546c1.261,0,2.186-0.658,2.186-2.381v-0.743h-0.028
		c-0.364,0.631-1.106,1.135-2.157,1.135c-1.681,0-2.886-1.429-2.886-3.306c0-2.297,1.499-3.586,3.067-3.586
		c1.177,0,1.808,0.603,2.115,1.163h0.028l0.042-1.022h1.093c-0.042,0.476-0.057,1.036-0.057,1.849V438.601z M460.744,435.49
		c0-0.21-0.014-0.392-0.07-0.546c-0.224-0.729-0.812-1.316-1.723-1.316c-1.177,0-2.017,0.994-2.017,2.562
		c0,1.331,0.686,2.438,2.003,2.438c0.771,0,1.457-0.476,1.709-1.261c0.069-0.21,0.098-0.448,0.098-0.658V435.49z"/>
	<path d="M466.804,438.348c0.378,0.225,1.022,0.477,1.639,0.477c0.883,0,1.303-0.435,1.303-1.009c0-0.588-0.35-0.896-1.246-1.232
		c-1.233-0.448-1.808-1.106-1.808-1.919c0-1.093,0.896-1.989,2.34-1.989c0.686,0,1.288,0.183,1.652,0.421l-0.294,0.896
		c-0.267-0.169-0.757-0.406-1.387-0.406c-0.729,0-1.121,0.42-1.121,0.924c0,0.561,0.393,0.812,1.275,1.163
		c1.162,0.434,1.778,1.022,1.778,2.031c0,1.204-0.938,2.045-2.521,2.045c-0.743,0-1.43-0.196-1.905-0.477L466.804,438.348z"/>
	<path d="M472.516,429.649h1.232v4.244h0.028c0.196-0.351,0.504-0.672,0.883-0.883c0.364-0.21,0.798-0.336,1.261-0.336
		c0.91,0,2.367,0.561,2.367,2.886v4.034h-1.233V435.7c0-1.092-0.406-2.003-1.568-2.003c-0.799,0-1.415,0.561-1.653,1.219
		c-0.069,0.183-0.084,0.364-0.084,0.589v4.09h-1.232V429.649z"/>
	<path d="M485.048,437.97c0,0.589,0.028,1.163,0.098,1.625h-1.106l-0.098-0.854h-0.042c-0.379,0.532-1.106,1.009-2.073,1.009
		c-1.373,0-2.073-0.967-2.073-1.947c0-1.639,1.457-2.535,4.076-2.521v-0.14c0-0.547-0.154-1.569-1.541-1.555
		c-0.645,0-1.303,0.182-1.778,0.504l-0.28-0.826c0.56-0.351,1.387-0.589,2.241-0.589c2.073,0,2.577,1.415,2.577,2.76V437.97z
		 M483.857,436.135c-1.345-0.028-2.872,0.21-2.872,1.527c0,0.812,0.532,1.176,1.148,1.176c0.896,0,1.472-0.56,1.667-1.134
		c0.042-0.141,0.057-0.28,0.057-0.393V436.135z"/>
	<path d="M492.874,429.649v8.194c0,0.603,0.028,1.289,0.057,1.751h-1.093l-0.056-1.177h-0.042c-0.364,0.757-1.177,1.331-2.283,1.331
		c-1.64,0-2.914-1.387-2.914-3.446c-0.014-2.255,1.4-3.628,3.04-3.628c1.05,0,1.736,0.49,2.045,1.022h0.028v-4.048H492.874z
		 M491.656,435.574c0-0.153-0.015-0.364-0.057-0.518c-0.182-0.771-0.854-1.415-1.778-1.415c-1.275,0-2.031,1.12-2.031,2.605
		c0,1.373,0.686,2.507,2.003,2.507c0.826,0,1.583-0.56,1.807-1.471c0.042-0.168,0.057-0.336,0.057-0.532V435.574z"/>
	<path d="M496.303,430.91c0,0.42-0.294,0.756-0.784,0.756c-0.448,0-0.743-0.336-0.743-0.756s0.309-0.771,0.771-0.771
		C495.994,430.14,496.303,430.476,496.303,430.91z M494.93,439.595v-6.779h1.232v6.779H494.93z"/>
	<path d="M498.205,434.65c0-0.715-0.014-1.275-0.056-1.835h1.093l0.069,1.12h0.028c0.336-0.63,1.12-1.261,2.241-1.261
		c0.938,0,2.396,0.561,2.396,2.886v4.034h-1.233v-3.908c0-1.093-0.406-2.003-1.568-2.003c-0.799,0-1.429,0.574-1.653,1.261
		c-0.056,0.154-0.084,0.364-0.084,0.574v4.076h-1.232V434.65z"/>
	<path d="M511.773,438.601c0,1.568-0.321,2.507-0.966,3.109c-0.673,0.603-1.625,0.812-2.479,0.812c-0.812,0-1.709-0.196-2.255-0.561
		l0.308-0.952c0.448,0.294,1.148,0.546,1.989,0.546c1.261,0,2.186-0.658,2.186-2.381v-0.743h-0.028
		c-0.364,0.631-1.106,1.135-2.157,1.135c-1.681,0-2.886-1.429-2.886-3.306c0-2.297,1.499-3.586,3.067-3.586
		c1.177,0,1.808,0.603,2.115,1.163h0.028l0.042-1.022h1.093c-0.042,0.476-0.057,1.036-0.057,1.849V438.601z M510.541,435.49
		c0-0.21-0.014-0.392-0.07-0.546c-0.224-0.729-0.812-1.316-1.723-1.316c-1.177,0-2.017,0.994-2.017,2.562
		c0,1.331,0.686,2.438,2.003,2.438c0.771,0,1.457-0.476,1.709-1.261c0.069-0.21,0.098-0.448,0.098-0.658V435.49z"/>
	<path d="M183.966,451.451c0-0.715-0.014-1.275-0.056-1.835h1.093l0.07,1.12h0.028c0.336-0.63,1.121-1.261,2.241-1.261
		c0.938,0,2.395,0.561,2.395,2.886v4.034h-1.232v-3.908c0-1.093-0.406-2.003-1.569-2.003c-0.798,0-1.429,0.574-1.653,1.261
		c-0.056,0.154-0.084,0.364-0.084,0.574v4.076h-1.233V451.451z"/>
	<path d="M192.422,453.229c0.028,1.667,1.079,2.354,2.325,2.354c0.882,0,1.429-0.154,1.877-0.351l0.224,0.883
		c-0.434,0.196-1.19,0.435-2.269,0.435c-2.087,0-3.334-1.387-3.334-3.432c0-2.046,1.205-3.643,3.18-3.643
		c2.227,0,2.802,1.934,2.802,3.18c0,0.252-0.014,0.435-0.042,0.574H192.422z M196.036,452.348c0.014-0.771-0.322-1.989-1.709-1.989
		c-1.261,0-1.793,1.135-1.891,1.989H196.036z"/>
	<path d="M199.24,449.616l0.911,3.445c0.182,0.757,0.364,1.457,0.49,2.157h0.042c0.154-0.687,0.378-1.415,0.603-2.143l1.106-3.46
		h1.037l1.05,3.39c0.252,0.812,0.448,1.526,0.603,2.213h0.042c0.112-0.687,0.294-1.4,0.518-2.199l0.967-3.403h1.219l-2.186,6.779
		h-1.121l-1.036-3.235c-0.238-0.757-0.435-1.429-0.603-2.228h-0.028c-0.168,0.812-0.378,1.513-0.617,2.241l-1.092,3.222h-1.121
		l-2.045-6.779H199.24z"/>
	<path d="M217.821,455.401c0,1.568-0.322,2.507-0.967,3.109c-0.672,0.603-1.625,0.812-2.479,0.812c-0.812,0-1.709-0.196-2.255-0.561
		l0.308-0.952c0.448,0.294,1.148,0.546,1.989,0.546c1.261,0,2.185-0.658,2.185-2.381v-0.743h-0.028
		c-0.364,0.631-1.107,1.135-2.157,1.135c-1.681,0-2.886-1.429-2.886-3.306c0-2.297,1.499-3.586,3.068-3.586
		c1.176,0,1.807,0.603,2.115,1.163h0.028l0.042-1.022h1.093c-0.042,0.476-0.056,1.036-0.056,1.849V455.401z M216.588,452.291
		c0-0.21-0.014-0.392-0.07-0.546c-0.224-0.729-0.812-1.316-1.723-1.316c-1.176,0-2.017,0.994-2.017,2.562
		c0,1.331,0.687,2.438,2.003,2.438c0.77,0,1.457-0.476,1.709-1.261c0.07-0.21,0.098-0.448,0.098-0.658V452.291z"/>
	<path d="M219.763,451.829c0-0.868-0.028-1.569-0.056-2.213h1.093l0.07,1.162h0.028c0.49-0.826,1.303-1.303,2.409-1.303
		c1.653,0,2.886,1.387,2.886,3.432c0,2.438-1.499,3.643-3.096,3.643c-0.896,0-1.681-0.393-2.087-1.064h-0.028v3.684h-1.219V451.829z
		 M220.982,453.636c0,0.183,0.014,0.351,0.056,0.505c0.224,0.854,0.966,1.442,1.849,1.442c1.303,0,2.06-1.064,2.06-2.619
		c0-1.345-0.715-2.508-2.017-2.508c-0.841,0-1.639,0.589-1.863,1.513c-0.042,0.154-0.084,0.337-0.084,0.49V453.636z"/>
	<path d="M233.402,454.532c0,0.715,0.014,1.331,0.056,1.863h-1.092l-0.07-1.106h-0.028c-0.308,0.546-1.037,1.261-2.241,1.261
		c-1.064,0-2.339-0.603-2.339-2.97v-3.964h1.233v3.739c0,1.289,0.406,2.172,1.513,2.172c0.826,0,1.401-0.574,1.625-1.135
		c0.07-0.168,0.112-0.393,0.112-0.631v-4.146h1.233V454.532z"/>
	<path d="M235.163,450.736c0-0.519,0.351-0.883,0.827-0.883c0.504,0,0.827,0.364,0.827,0.883c0,0.49-0.322,0.868-0.841,0.868
		C235.499,451.604,235.163,451.227,235.163,450.736z M235.163,455.681c0-0.518,0.351-0.882,0.827-0.882
		c0.504,0,0.827,0.364,0.827,0.882c0,0.491-0.322,0.869-0.841,0.869C235.499,456.55,235.163,456.172,235.163,455.681z"/>
	<path d="M241.995,453.229c0.028,1.667,1.079,2.354,2.325,2.354c0.882,0,1.429-0.154,1.877-0.351l0.224,0.883
		c-0.434,0.196-1.19,0.435-2.269,0.435c-2.087,0-3.334-1.387-3.334-3.432c0-2.046,1.205-3.643,3.18-3.643
		c2.228,0,2.802,1.934,2.802,3.18c0,0.252-0.014,0.435-0.042,0.574H241.995z M245.609,452.348c0.014-0.771-0.322-1.989-1.709-1.989
		c-1.26,0-1.793,1.135-1.891,1.989H245.609z"/>
	<path d="M248.855,449.616l0.967,1.456c0.266,0.379,0.476,0.715,0.7,1.093h0.028c0.224-0.392,0.448-0.742,0.686-1.106l0.938-1.442
		h1.345l-2.311,3.277l2.367,3.502h-1.387l-1.008-1.526c-0.267-0.393-0.491-0.771-0.729-1.177h-0.028
		c-0.224,0.406-0.448,0.771-0.714,1.177l-0.98,1.526h-1.359l2.41-3.46l-2.297-3.319H248.855z"/>
	<path d="M256.429,447.991v1.625h1.765v0.938h-1.765v3.655c0,0.841,0.238,1.317,0.924,1.317c0.336,0,0.533-0.028,0.715-0.084
		l0.056,0.938c-0.238,0.084-0.616,0.168-1.092,0.168c-0.575,0-1.037-0.196-1.331-0.519c-0.336-0.378-0.476-0.98-0.476-1.779v-3.697
		h-1.051v-0.938h1.051v-1.261L256.429,447.991z"/>
	<path d="M259.578,451.731c0-0.799-0.014-1.485-0.056-2.115h1.079l0.056,1.345h0.042c0.308-0.911,1.064-1.485,1.891-1.485
		c0.126,0,0.224,0.015,0.336,0.028v1.162c-0.126-0.027-0.252-0.027-0.42-0.027c-0.869,0-1.485,0.645-1.653,1.568
		c-0.028,0.168-0.042,0.379-0.042,0.574v3.614h-1.233V451.731z"/>
	<path d="M268.849,454.771c0,0.589,0.028,1.163,0.098,1.625h-1.107l-0.098-0.854h-0.042c-0.378,0.532-1.107,1.009-2.073,1.009
		c-1.373,0-2.073-0.967-2.073-1.947c0-1.639,1.457-2.535,4.076-2.521v-0.14c0-0.547-0.154-1.569-1.541-1.555
		c-0.645,0-1.303,0.182-1.779,0.504l-0.28-0.826c0.561-0.351,1.387-0.589,2.241-0.589c2.073,0,2.578,1.415,2.578,2.76V454.771z
		 M267.658,452.936c-1.345-0.028-2.871,0.21-2.871,1.527c0,0.812,0.532,1.176,1.148,1.176c0.896,0,1.471-0.56,1.667-1.134
		c0.042-0.141,0.056-0.28,0.056-0.393V452.936z"/>
	<path d="M273.802,451.829c0-0.868-0.028-1.569-0.056-2.213h1.093l0.07,1.162h0.028c0.49-0.826,1.303-1.303,2.409-1.303
		c1.653,0,2.886,1.387,2.886,3.432c0,2.438-1.499,3.643-3.096,3.643c-0.896,0-1.681-0.393-2.087-1.064h-0.028v3.684h-1.219V451.829z
		 M275.021,453.636c0,0.183,0.014,0.351,0.056,0.505c0.224,0.854,0.966,1.442,1.849,1.442c1.303,0,2.06-1.064,2.06-2.619
		c0-1.345-0.715-2.508-2.017-2.508c-0.841,0-1.639,0.589-1.863,1.513c-0.042,0.154-0.084,0.337-0.084,0.49V453.636z"/>
	<path d="M281.768,451.731c0-0.799-0.014-1.485-0.056-2.115h1.079l0.056,1.345h0.042c0.308-0.911,1.064-1.485,1.891-1.485
		c0.126,0,0.224,0.015,0.336,0.028v1.162c-0.126-0.027-0.252-0.027-0.42-0.027c-0.869,0-1.485,0.645-1.653,1.568
		c-0.028,0.168-0.042,0.379-0.042,0.574v3.614h-1.233V451.731z"/>
	<path d="M292.341,452.949c0,2.508-1.751,3.601-3.375,3.601c-1.821,0-3.25-1.345-3.25-3.488c0-2.255,1.499-3.586,3.362-3.586
		C291.025,449.476,292.341,450.891,292.341,452.949z M286.977,453.02c0,1.485,0.84,2.605,2.045,2.605
		c1.177,0,2.059-1.106,2.059-2.634c0-1.148-0.574-2.591-2.031-2.591C287.607,450.4,286.977,451.745,286.977,453.02z"/>
	<path d="M298.725,456.157c-0.322,0.154-1.036,0.393-1.947,0.393c-2.045,0-3.376-1.387-3.376-3.46c0-2.087,1.429-3.614,3.642-3.614
		c0.729,0,1.373,0.183,1.709,0.364l-0.28,0.938c-0.294-0.154-0.757-0.322-1.429-0.322c-1.555,0-2.396,1.163-2.396,2.563
		c0,1.569,1.009,2.535,2.354,2.535c0.7,0,1.162-0.168,1.513-0.322L298.725,456.157z"/>
	<path d="M300.767,453.229c0.028,1.667,1.078,2.354,2.325,2.354c0.883,0,1.429-0.154,1.877-0.351l0.225,0.883
		c-0.435,0.196-1.191,0.435-2.27,0.435c-2.087,0-3.334-1.387-3.334-3.432c0-2.046,1.205-3.643,3.18-3.643
		c2.228,0,2.802,1.934,2.802,3.18c0,0.252-0.014,0.435-0.042,0.574H300.767z M304.381,452.348c0.014-0.771-0.322-1.989-1.709-1.989
		c-1.261,0-1.793,1.135-1.892,1.989H304.381z"/>
	<path d="M306.926,455.148c0.378,0.225,1.022,0.477,1.639,0.477c0.883,0,1.303-0.435,1.303-1.009c0-0.588-0.35-0.896-1.246-1.232
		c-1.233-0.448-1.808-1.106-1.808-1.919c0-1.093,0.896-1.989,2.34-1.989c0.686,0,1.288,0.183,1.652,0.421l-0.294,0.896
		c-0.267-0.169-0.757-0.406-1.387-0.406c-0.729,0-1.121,0.42-1.121,0.924c0,0.561,0.393,0.812,1.275,1.163
		c1.162,0.434,1.778,1.022,1.778,2.031c0,1.204-0.938,2.045-2.521,2.045c-0.742,0-1.429-0.196-1.904-0.477L306.926,455.148z"/>
	<path d="M312.47,455.148c0.378,0.225,1.022,0.477,1.639,0.477c0.883,0,1.303-0.435,1.303-1.009c0-0.588-0.35-0.896-1.246-1.232
		c-1.233-0.448-1.808-1.106-1.808-1.919c0-1.093,0.896-1.989,2.34-1.989c0.686,0,1.288,0.183,1.652,0.421l-0.294,0.896
		c-0.267-0.169-0.757-0.406-1.387-0.406c-0.729,0-1.121,0.42-1.121,0.924c0,0.561,0.393,0.812,1.275,1.163
		c1.162,0.434,1.778,1.022,1.778,2.031c0,1.204-0.938,2.045-2.521,2.045c-0.743,0-1.43-0.196-1.905-0.477L312.47,455.148z"/>
	<path d="M319.555,447.711c0,0.42-0.294,0.756-0.784,0.756c-0.448,0-0.743-0.336-0.743-0.756s0.309-0.771,0.771-0.771
		C319.246,446.94,319.555,447.276,319.555,447.711z M318.182,456.396v-6.779h1.232v6.779H318.182z"/>
	<path d="M321.458,451.451c0-0.715-0.014-1.275-0.056-1.835h1.093l0.069,1.12h0.028c0.336-0.63,1.12-1.261,2.241-1.261
		c0.938,0,2.396,0.561,2.396,2.886v4.034h-1.233v-3.908c0-1.093-0.405-2.003-1.568-2.003c-0.799,0-1.429,0.574-1.653,1.261
		c-0.056,0.154-0.084,0.364-0.084,0.574v4.076h-1.232V451.451z"/>
	<path d="M335.026,455.401c0,1.568-0.322,2.507-0.966,3.109c-0.673,0.603-1.625,0.812-2.479,0.812c-0.812,0-1.709-0.196-2.256-0.561
		l0.309-0.952c0.448,0.294,1.148,0.546,1.989,0.546c1.261,0,2.185-0.658,2.185-2.381v-0.743h-0.027
		c-0.364,0.631-1.106,1.135-2.157,1.135c-1.681,0-2.886-1.429-2.886-3.306c0-2.297,1.499-3.586,3.067-3.586
		c1.177,0,1.808,0.603,2.115,1.163h0.028l0.042-1.022h1.093c-0.042,0.476-0.057,1.036-0.057,1.849V455.401z M333.794,452.291
		c0-0.21-0.014-0.392-0.07-0.546c-0.224-0.729-0.812-1.316-1.723-1.316c-1.177,0-2.017,0.994-2.017,2.562
		c0,1.331,0.687,2.438,2.003,2.438c0.771,0,1.457-0.476,1.709-1.261c0.069-0.21,0.098-0.448,0.098-0.658V452.291z"/>
	<path d="M345.862,446.45v8.194c0,0.603,0.028,1.289,0.057,1.751h-1.093l-0.056-1.177h-0.042c-0.364,0.757-1.177,1.331-2.283,1.331
		c-1.64,0-2.914-1.387-2.914-3.446c-0.014-2.255,1.4-3.628,3.04-3.628c1.05,0,1.736,0.49,2.045,1.022h0.028v-4.048H345.862z
		 M344.645,452.375c0-0.153-0.015-0.364-0.057-0.518c-0.182-0.771-0.854-1.415-1.778-1.415c-1.275,0-2.031,1.12-2.031,2.605
		c0,1.373,0.686,2.507,2.003,2.507c0.826,0,1.583-0.56,1.807-1.471c0.042-0.168,0.057-0.336,0.057-0.532V452.375z"/>
	<path d="M353.59,454.532c0,0.715,0.015,1.331,0.057,1.863h-1.093l-0.07-1.106h-0.028c-0.308,0.546-1.036,1.261-2.241,1.261
		c-1.064,0-2.339-0.603-2.339-2.97v-3.964h1.232v3.739c0,1.289,0.406,2.172,1.513,2.172c0.827,0,1.401-0.574,1.625-1.135
		c0.07-0.168,0.112-0.393,0.112-0.631v-4.146h1.232V454.532z"/>
	<path d="M355.631,451.731c0-0.799-0.014-1.485-0.056-2.115h1.078l0.057,1.345h0.042c0.308-0.911,1.064-1.485,1.891-1.485
		c0.126,0,0.224,0.015,0.336,0.028v1.162c-0.126-0.027-0.252-0.027-0.42-0.027c-0.868,0-1.485,0.645-1.653,1.568
		c-0.027,0.168-0.042,0.379-0.042,0.574v3.614h-1.232V451.731z"/>
	<path d="M361.638,447.711c0,0.42-0.294,0.756-0.784,0.756c-0.448,0-0.743-0.336-0.743-0.756s0.309-0.771,0.771-0.771
		C361.329,446.94,361.638,447.276,361.638,447.711z M360.265,456.396v-6.779h1.232v6.779H360.265z"/>
	<path d="M363.541,451.451c0-0.715-0.014-1.275-0.056-1.835h1.093l0.069,1.12h0.028c0.336-0.63,1.12-1.261,2.241-1.261
		c0.938,0,2.396,0.561,2.396,2.886v4.034h-1.233v-3.908c0-1.093-0.406-2.003-1.568-2.003c-0.799,0-1.429,0.574-1.653,1.261
		c-0.056,0.154-0.084,0.364-0.084,0.574v4.076h-1.232V451.451z"/>
	<path d="M377.109,455.401c0,1.568-0.321,2.507-0.966,3.109c-0.673,0.603-1.625,0.812-2.479,0.812c-0.812,0-1.709-0.196-2.255-0.561
		l0.308-0.952c0.448,0.294,1.148,0.546,1.989,0.546c1.261,0,2.186-0.658,2.186-2.381v-0.743h-0.028
		c-0.364,0.631-1.106,1.135-2.157,1.135c-1.681,0-2.886-1.429-2.886-3.306c0-2.297,1.499-3.586,3.067-3.586
		c1.177,0,1.808,0.603,2.115,1.163h0.028l0.042-1.022h1.093c-0.042,0.476-0.057,1.036-0.057,1.849V455.401z M375.877,452.291
		c0-0.21-0.014-0.392-0.07-0.546c-0.224-0.729-0.812-1.316-1.723-1.316c-1.177,0-2.017,0.994-2.017,2.562
		c0,1.331,0.686,2.438,2.003,2.438c0.771,0,1.457-0.476,1.709-1.261c0.069-0.21,0.098-0.448,0.098-0.658V452.291z"/>
	<path d="M382.104,446.45h1.219v4.258h0.028c0.434-0.756,1.219-1.232,2.311-1.232c1.695,0,2.872,1.401,2.872,3.446
		c0,2.423-1.541,3.628-3.054,3.628c-0.98,0-1.765-0.378-2.283-1.261h-0.028l-0.07,1.106h-1.05c0.027-0.462,0.056-1.148,0.056-1.751
		V446.45z M383.323,453.678c0,0.154,0.014,0.309,0.056,0.448c0.225,0.854,0.953,1.443,1.85,1.443c1.303,0,2.059-1.051,2.059-2.605
		c0-1.359-0.7-2.521-2.031-2.521c-0.826,0-1.61,0.588-1.862,1.513c-0.042,0.154-0.07,0.322-0.07,0.519V453.678z"/>
	<path d="M390.07,446.45h1.232v9.945h-1.232V446.45z"/>
	<path d="M394.061,453.229c0.028,1.667,1.078,2.354,2.325,2.354c0.883,0,1.429-0.154,1.877-0.351l0.225,0.883
		c-0.435,0.196-1.191,0.435-2.27,0.435c-2.087,0-3.334-1.387-3.334-3.432c0-2.046,1.205-3.643,3.18-3.643
		c2.228,0,2.802,1.934,2.802,3.18c0,0.252-0.015,0.435-0.042,0.574H394.061z M397.675,452.348c0.014-0.771-0.322-1.989-1.709-1.989
		c-1.261,0-1.793,1.135-1.892,1.989H397.675z"/>
	<path d="M400.389,451.451c0-0.715-0.014-1.275-0.056-1.835h1.093l0.069,1.12h0.028c0.336-0.63,1.12-1.261,2.241-1.261
		c0.938,0,2.396,0.561,2.396,2.886v4.034h-1.233v-3.908c0-1.093-0.406-2.003-1.568-2.003c-0.799,0-1.429,0.574-1.653,1.261
		c-0.056,0.154-0.084,0.364-0.084,0.574v4.076h-1.232V451.451z"/>
	<path d="M413.999,446.45v8.194c0,0.603,0.028,1.289,0.057,1.751h-1.093l-0.056-1.177h-0.042c-0.364,0.757-1.177,1.331-2.283,1.331
		c-1.64,0-2.914-1.387-2.914-3.446c-0.014-2.255,1.4-3.628,3.04-3.628c1.05,0,1.736,0.49,2.045,1.022h0.028v-4.048H413.999z
		 M412.781,452.375c0-0.153-0.015-0.364-0.057-0.518c-0.182-0.771-0.854-1.415-1.778-1.415c-1.275,0-2.031,1.12-2.031,2.605
		c0,1.373,0.686,2.507,2.003,2.507c0.826,0,1.583-0.56,1.807-1.471c0.042-0.168,0.057-0.336,0.057-0.532V452.375z"/>
	<path d="M417.427,447.711c0,0.42-0.294,0.756-0.784,0.756c-0.448,0-0.743-0.336-0.743-0.756s0.309-0.771,0.771-0.771
		C417.118,446.94,417.427,447.276,417.427,447.711z M416.054,456.396v-6.779h1.232v6.779H416.054z"/>
	<path d="M419.33,451.451c0-0.715-0.014-1.275-0.056-1.835h1.093l0.069,1.12h0.028c0.336-0.63,1.12-1.261,2.241-1.261
		c0.938,0,2.396,0.561,2.396,2.886v4.034h-1.233v-3.908c0-1.093-0.406-2.003-1.568-2.003c-0.799,0-1.429,0.574-1.653,1.261
		c-0.056,0.154-0.084,0.364-0.084,0.574v4.076h-1.232V451.451z"/>
	<path d="M432.898,455.401c0,1.568-0.321,2.507-0.966,3.109c-0.673,0.603-1.625,0.812-2.479,0.812c-0.812,0-1.709-0.196-2.255-0.561
		l0.308-0.952c0.448,0.294,1.148,0.546,1.989,0.546c1.261,0,2.186-0.658,2.186-2.381v-0.743h-0.028
		c-0.364,0.631-1.106,1.135-2.157,1.135c-1.681,0-2.886-1.429-2.886-3.306c0-2.297,1.499-3.586,3.067-3.586
		c1.177,0,1.808,0.603,2.115,1.163h0.028l0.042-1.022h1.093c-0.042,0.476-0.057,1.036-0.057,1.849V455.401z M431.666,452.291
		c0-0.21-0.014-0.392-0.07-0.546c-0.224-0.729-0.812-1.316-1.723-1.316c-1.177,0-2.017,0.994-2.017,2.562
		c0,1.331,0.686,2.438,2.003,2.438c0.771,0,1.457-0.476,1.709-1.261c0.069-0.21,0.098-0.448,0.098-0.658V452.291z"/>
</g>
<g>
</g>
</svg>
