<?xml version="1.0" encoding="utf-8"?>
<!-- Generator: Adobe Illustrator 15.1.0, SVG Export Plug-In . SVG Version: 6.00 Build 0)  -->
<!DOCTYPE svg PUBLIC "-//W3C//DTD SVG 1.1//EN" "http://www.w3.org/Graphics/SVG/1.1/DTD/svg11.dtd">
<svg version="1.1" id="Layer_1" xmlns="http://www.w3.org/2000/svg" xmlns:xlink="http://www.w3.org/1999/xlink" x="0px" y="0px"
	 width="640px" height="480px" viewBox="0 0 640 480" enable-background="new 0 0 640 480" xml:space="preserve">
<g>
	<path fill="#FF00FF" d="M416.625,215.56c0,23.299-18.887,42.186-42.186,42.186s-42.187-18.887-42.187-42.186
		c0-23.299,18.888-42.187,42.187-42.187S416.625,192.261,416.625,215.56"/>
	<path d="M416.625,215.56h-0.5c0,11.513-4.665,21.931-12.209,29.476c-7.546,7.545-17.964,12.21-29.477,12.21
		s-21.932-4.665-29.477-12.21s-12.21-17.963-12.21-29.476c0-11.513,4.665-21.932,12.21-29.477
		c7.545-7.544,17.964-12.209,29.477-12.209s21.931,4.665,29.477,12.209c7.544,7.545,12.209,17.964,12.209,29.477H416.625h0.5
		c0-23.576-19.11-42.686-42.686-42.687c-23.575,0-42.687,19.111-42.687,42.687c0,23.575,19.111,42.686,42.687,42.686
		s42.686-19.111,42.686-42.686H416.625"/>
	<path fill="#03FFFF" d="M425.328,173.874c-9.21,0-17.718,2.985-24.616,8.041c9.621,7.523,15.932,19.081,16.387,32.13
		c14.929,6.649,25.337,21.615,25.337,39.014l0,0l0,0c0,0.177-0.001,0.353-0.003,0.529c4.637-2.089,8.823-5.002,12.373-8.552
		c7.545-7.545,12.21-17.963,12.21-29.476h0.5l0,0h-0.5c0-11.513-4.665-21.932-12.21-29.477
		C447.261,178.539,436.842,173.874,425.328,173.874"/>
	<path fill="#0300FF" d="M399.884,182.538c-1.419,1.095-2.766,2.28-4.032,3.545c-7.091,7.092-11.638,16.721-12.159,27.412
		c4.957-2.013,10.378-3.123,16.058-3.123c5.784,0,11.3,1.15,16.33,3.235c-0.495-10.735-5.049-20.408-12.164-27.524
		C402.649,184.817,401.303,183.633,399.884,182.538"/>
	<path d="M400.712,181.915c-0.278,0.204-0.555,0.412-0.828,0.623c1.419,1.095,2.766,2.28,4.032,3.545
		c7.115,7.116,11.669,16.789,12.164,27.524c0.342,0.141,0.682,0.288,1.019,0.438C416.644,200.995,410.333,189.438,400.712,181.915"
		/>
	<path fill="#030303" d="M425.328,172.874c-9.534,0-18.34,3.126-25.444,8.409c0.278,0.208,0.555,0.418,0.828,0.632
		c6.898-5.056,15.406-8.041,24.616-8.041c11.514,0,21.933,4.665,29.478,12.209c7.545,7.545,12.21,17.964,12.21,29.477h0.5h0.5l0,0
		C468.016,191.984,448.905,172.874,425.328,172.874"/>
	<path fill="#030003" d="M399.056,181.915c-9.592,7.5-15.894,19.01-16.383,32.01c0.339-0.147,0.677-0.291,1.02-0.43
		c0.521-10.691,5.068-20.32,12.159-27.412c1.267-1.266,2.613-2.45,4.032-3.545C399.61,182.327,399.334,182.119,399.056,181.915"/>
	<path d="M399.884,181.283c-0.278,0.208-0.555,0.418-0.828,0.632c0.278,0.204,0.555,0.412,0.828,0.623
		c0.273-0.211,0.55-0.419,0.828-0.623C400.438,181.701,400.162,181.49,399.884,181.283"/>
	<path fill="#030303" d="M468.016,215.56h-0.5h-0.5c0,11.513-4.665,21.931-12.21,29.476c-3.55,3.55-7.736,6.463-12.373,8.552
		c-0.005,0.368-0.014,0.739-0.028,1.105C457.481,248.106,468.016,233.064,468.016,215.56 M468.016,215.56L468.016,215.56
		L468.016,215.56"/>
	<path fill="#FFFF03" d="M399.884,249.837c-7.104,5.282-15.91,8.409-25.444,8.409c-5.784,0-11.3-1.15-16.33-3.235
		c0.495,10.736,5.049,20.408,12.164,27.524c7.546,7.544,17.964,12.209,29.477,12.209s21.932-4.665,29.477-12.209
		c7.091-7.092,11.638-16.721,12.159-27.412c-4.957,2.014-10.378,3.123-16.058,3.123
		C415.794,258.246,406.989,255.119,399.884,249.837"/>
	<path fill="#FF0003" d="M382.646,215.031c-4.636,2.089-8.822,5.001-12.372,8.55c-7.544,7.545-12.209,17.963-12.209,29.477
		c0,0.284,0.003,0.569,0.009,0.853c5.024,2.146,10.556,3.335,16.366,3.335c9.209,0,17.718-2.984,24.616-8.041
		c-9.991-7.812-16.413-19.979-16.413-33.645C382.643,215.383,382.644,215.208,382.646,215.031"/>
	<path d="M399.056,249.205c-6.898,5.057-15.407,8.041-24.616,8.041c-5.811,0-11.342-1.188-16.366-3.335
		c0.007,0.367,0.02,0.734,0.036,1.1c5.03,2.085,10.546,3.235,16.33,3.235c9.534,0,18.34-3.127,25.444-8.409
		C399.605,249.63,399.329,249.419,399.056,249.205"/>
	<path fill="#03FF03" d="M417.123,215.153c0.001,0.135,0.002,0.271,0.002,0.407l0,0l0,0c0,13.667-6.422,25.833-16.413,33.645
		c6.898,5.057,15.406,8.041,24.616,8.041c5.706,0,11.145-1.146,16.097-3.221c0.007-0.321,0.011-0.644,0.011-0.967h0.5l0,0h-0.5
		c0-11.514-4.665-21.932-12.209-29.477C425.745,220.101,421.652,217.233,417.123,215.153"/>
	<path fill="#030003" d="M399.75,211.372c-5.707,0-11.145,1.146-16.097,3.221c-0.007,0.321-0.011,0.644-0.011,0.967
		c0,11.513,4.665,21.931,12.209,29.476c1.267,1.267,2.613,2.451,4.032,3.546c1.419-1.095,2.766-2.279,4.032-3.546
		c7.544-7.545,12.209-17.963,12.209-29.476h0.5l0,0h-0.5c0-0.285-0.003-0.569-0.009-0.853
		C411.092,212.561,405.561,211.372,399.75,211.372"/>
	<path d="M417.125,215.56h-0.5h-0.5c0,11.513-4.665,21.931-12.209,29.476c-1.267,1.267-2.613,2.451-4.032,3.546
		c0.273,0.211,0.55,0.419,0.828,0.623C410.703,241.393,417.125,229.227,417.125,215.56 M417.125,215.56L417.125,215.56
		L417.125,215.56 M416.116,214.708c0.006,0.283,0.009,0.568,0.009,0.853h0.5h0.5l0,0c0-0.135-0.001-0.271-0.002-0.407
		C416.79,215,416.454,214.852,416.116,214.708"/>
	<path fill="#030303" d="M400.712,249.205c-0.273,0.214-0.55,0.425-0.828,0.632c7.105,5.282,15.91,8.409,25.444,8.409
		c5.68,0,11.101-1.109,16.058-3.123c0.018-0.364,0.03-0.73,0.039-1.098c-4.952,2.074-10.391,3.221-16.097,3.221
		C416.118,257.246,407.61,254.262,400.712,249.205"/>
	<path fill="#030003" d="M383.653,214.593c-0.338,0.142-0.674,0.288-1.008,0.438c-0.002,0.176-0.003,0.352-0.003,0.529
		c0,13.667,6.422,25.833,16.413,33.645c0.278-0.204,0.555-0.412,0.828-0.623c-1.419-1.095-2.766-2.279-4.032-3.546
		c-7.544-7.545-12.209-17.963-12.209-29.476C383.643,215.237,383.646,214.915,383.653,214.593"/>
	<path d="M399.884,248.582c-0.273,0.211-0.55,0.419-0.828,0.623c0.273,0.214,0.55,0.425,0.828,0.632
		c0.278-0.207,0.555-0.418,0.828-0.632C400.434,249.001,400.157,248.793,399.884,248.582"/>
	<path fill="#030303" d="M357.091,254.573c0.797,22.874,19.591,41.171,42.659,41.171c23.028,0,41.796-18.232,42.654-41.051
		c-0.337,0.147-0.678,0.291-1.019,0.43c-0.521,10.691-5.068,20.32-12.159,27.412c-7.545,7.544-17.964,12.209-29.477,12.209
		s-21.931-4.665-29.477-12.209c-7.115-7.116-11.669-16.788-12.164-27.524C357.768,254.869,357.428,254.724,357.091,254.573"/>
	<path fill="#030003" d="M382.673,213.925c-15.073,6.588-25.608,21.63-25.608,39.134c0,0.135,0.001,0.271,0.002,0.406
		c0.333,0.152,0.669,0.302,1.007,0.446c-0.006-0.283-0.009-0.568-0.009-0.853c0-11.514,4.665-21.932,12.209-29.477
		c3.55-3.549,7.736-6.461,12.372-8.55C382.65,214.663,382.659,214.292,382.673,213.925"/>
	<path d="M357.066,253.465c0.004,0.37,0.012,0.74,0.024,1.108c0.337,0.15,0.677,0.296,1.019,0.438
		c-0.017-0.365-0.029-0.732-0.036-1.1C357.735,253.767,357.399,253.617,357.066,253.465"/>
	<path fill="#030303" d="M417.099,214.045c0.013,0.368,0.021,0.738,0.024,1.108c4.529,2.08,8.622,4.948,12.104,8.428
		c7.544,7.545,12.209,17.963,12.209,29.477h0.5h0.5l0,0C442.436,235.66,432.027,220.694,417.099,214.045"/>
	<path fill="#030003" d="M399.75,210.372c-5.68,0-11.101,1.11-16.058,3.123c-0.018,0.365-0.03,0.731-0.039,1.098
		c4.952-2.075,10.39-3.221,16.097-3.221c5.811,0,11.342,1.188,16.366,3.335c-0.007-0.369-0.02-0.734-0.036-1.1
		C411.05,211.522,405.534,210.372,399.75,210.372"/>
	<path d="M416.08,213.607c0.017,0.366,0.029,0.731,0.036,1.1c0.338,0.144,0.674,0.293,1.007,0.446
		c-0.003-0.37-0.012-0.74-0.024-1.108C416.762,213.895,416.422,213.749,416.08,213.607"/>
	<path fill="#030303" d="M442.436,253.059h-0.5h-0.5c0,0.323-0.004,0.646-0.011,0.967c0.338-0.142,0.674-0.287,1.008-0.438
		C442.435,253.411,442.436,253.235,442.436,253.059"/>
	<path fill="#030003" d="M383.692,213.495c-0.343,0.139-0.681,0.282-1.02,0.43c-0.014,0.367-0.022,0.738-0.027,1.106
		c0.334-0.15,0.67-0.296,1.008-0.438C383.662,214.226,383.675,213.86,383.692,213.495"/>
	<path fill="#030303" d="M442.433,253.588c-0.334,0.15-0.67,0.296-1.008,0.438c-0.009,0.367-0.021,0.733-0.039,1.098
		c0.341-0.139,0.682-0.282,1.019-0.43C442.419,254.327,442.428,253.956,442.433,253.588"/>
	<polyline points="290.303,70.514 221.562,70.514 221.562,71.514 290.303,71.514 	"/>
	<path d="M296.338,71.014c-2.84-1.054-6.363-2.852-8.547-4.756l1.72,4.756l-1.72,4.755
		C289.975,73.864,293.498,72.066,296.338,71.014z"/>
	<path d="M215.527,71.014c2.84-1.054,6.363-2.852,8.547-4.756l-1.72,4.756l1.72,4.755C221.891,73.864,218.367,72.066,215.527,71.014
		z"/>
	<circle fill="#FF00FF" cx="348.747" cy="55.184" r="42.186"/>
	<path d="M390.934,55.184h-0.5c0,11.513-4.665,21.931-12.21,29.477c-7.546,7.544-17.964,12.208-29.477,12.209
		c-11.513,0-21.932-4.665-29.477-12.209c-7.544-7.545-12.209-17.963-12.209-29.477c0-11.513,4.665-21.931,12.209-29.477
		c7.545-7.544,17.964-12.209,29.477-12.209s21.931,4.665,29.477,12.209c7.545,7.545,12.21,17.963,12.21,29.477H390.934h0.5
		c0-23.575-19.112-42.686-42.687-42.686c-23.575,0-42.686,19.111-42.686,42.686c0,23.576,19.111,42.685,42.686,42.686
		c23.574,0,42.687-19.11,42.687-42.686H390.934z"/>
	<path fill="#00FFFF" d="M494.857,13.498c-11.513,0-21.932,4.665-29.478,12.209c-7.091,7.092-11.639,16.721-12.159,27.412
		c4.956-2.013,10.377-3.123,16.057-3.123c23.577,0,42.688,19.111,42.688,42.687l0,0l0,0c0,0.177-0.001,0.352-0.003,0.529
		c4.637-2.089,8.823-5.001,12.374-8.551c7.544-7.545,12.209-17.963,12.209-29.477h0.5l0,0h-0.5c0-11.513-4.665-21.931-12.209-29.477
		C516.79,18.163,506.371,13.498,494.857,13.498"/>
	<path d="M537.545,55.184h-0.5h-0.5c0,11.513-4.665,21.932-12.209,29.477c-3.551,3.55-7.737,6.462-12.374,8.551
		c-0.005,0.369-0.014,0.74-0.028,1.106C527.011,87.73,537.545,72.688,537.545,55.184 M537.545,55.184L537.545,55.184L537.545,55.184
		 M494.857,12.498c-23.028,0-41.798,18.233-42.657,41.051c0.339-0.147,0.677-0.291,1.021-0.43
		c0.521-10.691,5.068-20.32,12.159-27.412c7.546-7.544,17.965-12.209,29.478-12.209c11.514,0,21.933,4.665,29.479,12.209
		c7.544,7.545,12.209,17.964,12.209,29.477h0.5h0.5l0,0C537.545,31.608,518.435,12.498,494.857,12.498"/>
	<path fill="#FFFF00" d="M452.173,54.655c-4.636,2.089-8.822,5.001-12.372,8.55c-7.544,7.545-12.209,17.964-12.209,29.477
		s4.665,21.931,12.209,29.477c7.546,7.544,17.964,12.209,29.477,12.209c11.514,0,21.933-4.665,29.478-12.209
		c7.092-7.092,11.639-16.721,12.16-27.412c-4.957,2.013-10.378,3.123-16.058,3.123c-23.575,0-42.688-19.11-42.688-42.686
		C452.17,55.006,452.171,54.831,452.173,54.655"/>
	<path fill="#00FF00" d="M469.277,50.996c-5.707,0-11.145,1.146-16.097,3.221c-0.007,0.321-0.011,0.644-0.011,0.967
		c0,11.513,4.665,21.931,12.21,29.477c7.546,7.544,17.965,12.209,29.478,12.209c5.706,0,11.145-1.146,16.097-3.221
		c0.007-0.321,0.011-0.643,0.011-0.966h0.5l0,0h-0.5c0-11.513-4.665-21.932-12.21-29.477
		C491.21,55.661,480.791,50.996,469.277,50.996"/>
	<path d="M453.181,54.217c-0.338,0.142-0.674,0.288-1.008,0.438c-0.002,0.176-0.003,0.352-0.003,0.529
		c0,23.576,19.112,42.685,42.688,42.686c5.68,0,11.101-1.109,16.058-3.123c0.018-0.364,0.03-0.731,0.039-1.098
		c-4.952,2.075-10.391,3.221-16.097,3.221c-11.513,0-21.932-4.665-29.478-12.209c-7.545-7.545-12.21-17.963-12.21-29.477
		C453.17,54.86,453.174,54.538,453.181,54.217"/>
	<path d="M452.2,53.548c-15.073,6.588-25.608,21.63-25.608,39.134c0,23.575,19.11,42.686,42.686,42.686
		c23.03,0,41.798-18.233,42.656-41.051c-0.337,0.147-0.678,0.291-1.019,0.43c-0.521,10.691-5.068,20.32-12.16,27.412
		c-7.545,7.544-17.964,12.209-29.478,12.209c-11.513,0-21.931-4.665-29.477-12.209c-7.544-7.545-12.209-17.963-12.209-29.477
		s4.665-21.932,12.209-29.477c3.55-3.549,7.736-6.461,12.372-8.55C452.178,54.286,452.187,53.915,452.2,53.548"/>
	<path d="M511.965,92.682h-0.5h-0.5c0,0.323-0.004,0.645-0.011,0.966c0.338-0.142,0.674-0.287,1.008-0.438
		C511.964,93.034,511.965,92.859,511.965,92.682 M469.277,49.996c-5.68,0-11.101,1.11-16.057,3.123
		c-0.019,0.365-0.031,0.731-0.04,1.098c4.952-2.075,10.39-3.221,16.097-3.221c11.514,0,21.933,4.665,29.478,12.209
		c7.545,7.545,12.21,17.964,12.21,29.477h0.5h0.5l0,0C511.965,69.106,492.854,49.996,469.277,49.996"/>
	<path d="M511.962,93.211c-0.334,0.15-0.67,0.296-1.008,0.438c-0.009,0.367-0.021,0.734-0.039,1.098
		c0.341-0.139,0.682-0.282,1.019-0.43C511.948,93.951,511.957,93.58,511.962,93.211 M453.221,53.119
		c-0.344,0.139-0.682,0.282-1.021,0.43c-0.014,0.367-0.022,0.738-0.027,1.106c0.334-0.15,0.67-0.296,1.008-0.438
		C453.189,53.85,453.202,53.483,453.221,53.119"/>
	<g>
		<path d="M412.054,66.824v3.399h3.27v0.868h-3.27v3.428h-0.926v-3.428h-3.269v-0.868h3.269v-3.399H412.054z"/>
	</g>
	<g>
		<path d="M326.813,152.362c-0.563,0.217-1.692,0.535-3.009,0.535c-1.475,0-2.69-0.376-3.645-1.287
			c-0.84-0.81-1.36-2.112-1.36-3.631c0-2.908,2.011-5.034,5.28-5.034c1.128,0,2.025,0.246,2.444,0.449l-0.318,1.027
			c-0.521-0.246-1.172-0.419-2.155-0.419c-2.372,0-3.92,1.476-3.92,3.92c0,2.474,1.476,3.935,3.761,3.935
			c0.825,0,1.389-0.116,1.679-0.26v-2.908h-1.968v-1.012h3.211V152.362z"/>
		<path d="M328.679,147.979c0-0.825-0.015-1.533-0.058-2.184h1.114l0.058,1.389h0.043c0.318-0.94,1.1-1.534,1.953-1.534
			c0.13,0,0.231,0.015,0.348,0.029v1.201c-0.131-0.029-0.261-0.029-0.435-0.029c-0.896,0-1.533,0.666-1.707,1.62
			c-0.028,0.174-0.043,0.391-0.043,0.593v3.732h-1.273V147.979z"/>
		<path d="M339.614,149.237c0,2.589-1.808,3.718-3.486,3.718c-1.88,0-3.355-1.389-3.355-3.602c0-2.329,1.548-3.703,3.472-3.703
			C338.255,145.65,339.614,147.111,339.614,149.237z M334.074,149.31c0,1.534,0.868,2.691,2.112,2.691
			c1.215,0,2.126-1.143,2.126-2.72c0-1.186-0.593-2.676-2.098-2.676C334.726,146.604,334.074,147.993,334.074,149.31z"/>
		<path d="M347.077,150.872c0,0.738,0.015,1.374,0.059,1.924h-1.129l-0.072-1.143h-0.028c-0.318,0.564-1.071,1.302-2.314,1.302
			c-1.1,0-2.416-0.622-2.416-3.067v-4.093h1.272v3.862c0,1.331,0.42,2.242,1.562,2.242c0.854,0,1.446-0.593,1.678-1.171
			c0.072-0.174,0.116-0.405,0.116-0.651v-4.281h1.272V150.872z"/>
		<path d="M349.188,148.08c0-0.896-0.028-1.62-0.058-2.285h1.128l0.072,1.2h0.029c0.507-0.854,1.346-1.345,2.488-1.345
			c1.707,0,2.979,1.432,2.979,3.544c0,2.517-1.548,3.761-3.196,3.761c-0.926,0-1.736-0.405-2.155-1.1h-0.029v3.805h-1.259V148.08z
			 M350.446,149.946c0,0.188,0.015,0.361,0.058,0.521c0.231,0.883,0.998,1.49,1.91,1.49c1.345,0,2.126-1.1,2.126-2.705
			c0-1.389-0.737-2.589-2.083-2.589c-0.868,0-1.692,0.607-1.924,1.562c-0.044,0.159-0.087,0.348-0.087,0.506V149.946z"/>
		<path d="M362.842,144.58h-0.029l-1.635,0.882l-0.246-0.969l2.055-1.099h1.085v9.402h-1.229V144.58z"/>
	</g>
	<g>
		<path d="M468.821,152.362c-0.563,0.217-1.692,0.535-3.009,0.535c-1.475,0-2.69-0.376-3.645-1.287
			c-0.84-0.81-1.36-2.112-1.36-3.631c0-2.908,2.011-5.034,5.28-5.034c1.128,0,2.025,0.246,2.444,0.449l-0.318,1.027
			c-0.521-0.246-1.172-0.419-2.155-0.419c-2.372,0-3.92,1.476-3.92,3.92c0,2.474,1.476,3.935,3.761,3.935
			c0.825,0,1.389-0.116,1.679-0.26v-2.908h-1.968v-1.012h3.211V152.362z"/>
		<path d="M470.687,147.979c0-0.825-0.015-1.533-0.058-2.184h1.114l0.058,1.389h0.043c0.318-0.94,1.1-1.534,1.953-1.534
			c0.13,0,0.231,0.015,0.348,0.029v1.201c-0.131-0.029-0.261-0.029-0.435-0.029c-0.896,0-1.533,0.666-1.707,1.62
			c-0.028,0.174-0.043,0.391-0.043,0.593v3.732h-1.273V147.979z"/>
		<path d="M481.622,149.237c0,2.589-1.808,3.718-3.486,3.718c-1.88,0-3.355-1.389-3.355-3.602c0-2.329,1.548-3.703,3.472-3.703
			C480.263,145.65,481.622,147.111,481.622,149.237z M476.082,149.31c0,1.534,0.868,2.691,2.112,2.691
			c1.215,0,2.126-1.143,2.126-2.72c0-1.186-0.593-2.676-2.098-2.676C476.733,146.604,476.082,147.993,476.082,149.31z"/>
		<path d="M489.085,150.872c0,0.738,0.015,1.374,0.059,1.924h-1.129l-0.072-1.143h-0.028c-0.318,0.564-1.071,1.302-2.314,1.302
			c-1.1,0-2.416-0.622-2.416-3.067v-4.093h1.272v3.862c0,1.331,0.42,2.242,1.562,2.242c0.854,0,1.446-0.593,1.678-1.171
			c0.072-0.174,0.116-0.405,0.116-0.651v-4.281h1.272V150.872z"/>
		<path d="M491.195,148.08c0-0.896-0.028-1.62-0.058-2.285h1.128l0.072,1.2h0.029c0.507-0.854,1.346-1.345,2.488-1.345
			c1.707,0,2.979,1.432,2.979,3.544c0,2.517-1.548,3.761-3.196,3.761c-0.926,0-1.736-0.405-2.155-1.1h-0.029v3.805h-1.259V148.08z
			 M492.454,149.946c0,0.188,0.015,0.361,0.058,0.521c0.231,0.883,0.998,1.49,1.91,1.49c1.345,0,2.126-1.1,2.126-2.705
			c0-1.389-0.737-2.589-2.083-2.589c-0.868,0-1.692,0.607-1.924,1.562c-0.044,0.159-0.087,0.348-0.087,0.506V149.946z"/>
		<path d="M502.087,152.796v-0.781l0.998-0.969c2.401-2.285,3.5-3.5,3.5-4.918c0-0.955-0.448-1.837-1.852-1.837
			c-0.854,0-1.562,0.434-1.996,0.796l-0.405-0.897c0.637-0.535,1.577-0.955,2.647-0.955c2.025,0,2.879,1.389,2.879,2.734
			c0,1.736-1.259,3.139-3.24,5.048l-0.738,0.694v0.029h4.21v1.056H502.087z"/>
	</g>
	<g>
		<path d="M127.463,245.086v-9.75h1.389l3.109,4.933c0.709,1.143,1.288,2.169,1.736,3.167l0.043-0.014
			c-0.115-1.303-0.145-2.488-0.145-4.007v-4.079h1.187v9.75h-1.273l-3.095-4.947c-0.681-1.085-1.331-2.199-1.809-3.254l-0.043,0.014
			c0.072,1.229,0.086,2.401,0.086,4.021v4.166H127.463z"/>
		<path d="M143.271,241.527c0,2.59-1.808,3.718-3.486,3.718c-1.88,0-3.355-1.389-3.355-3.602c0-2.329,1.548-3.704,3.472-3.704
			C141.912,237.94,143.271,239.401,143.271,241.527z M137.731,241.6c0,1.533,0.868,2.69,2.112,2.69c1.215,0,2.126-1.143,2.126-2.719
			c0-1.187-0.593-2.677-2.098-2.677C138.383,238.895,137.731,240.283,137.731,241.6z"/>
		<path d="M144.876,239.979c0-0.737-0.015-1.316-0.058-1.895h1.128l0.073,1.157h0.028c0.348-0.651,1.157-1.302,2.314-1.302
			c0.97,0,2.474,0.579,2.474,2.98v4.166h-1.272v-4.036c0-1.128-0.42-2.068-1.62-2.068c-0.825,0-1.476,0.593-1.707,1.302
			c-0.059,0.159-0.087,0.376-0.087,0.593v4.209h-1.273V239.979z"/>
		<path d="M155.854,240.717v0.926h-3.573v-0.926H155.854z"/>
		<path d="M158.762,236.117c0,0.434-0.304,0.781-0.811,0.781c-0.463,0-0.767-0.347-0.767-0.781c0-0.434,0.318-0.795,0.796-0.795
			C158.443,235.322,158.762,235.669,158.762,236.117z M157.344,245.086v-7.001h1.273v7.001H157.344z"/>
		<path d="M160.556,243.799c0.39,0.231,1.056,0.491,1.692,0.491c0.911,0,1.345-0.448,1.345-1.041c0-0.607-0.361-0.926-1.287-1.273
			c-1.273-0.463-1.866-1.143-1.866-1.981c0-1.128,0.926-2.054,2.416-2.054c0.709,0,1.33,0.188,1.707,0.434l-0.304,0.926
			c-0.275-0.174-0.781-0.419-1.433-0.419c-0.752,0-1.157,0.434-1.157,0.955c0,0.579,0.405,0.839,1.316,1.2
			c1.2,0.449,1.837,1.057,1.837,2.098c0,1.244-0.969,2.112-2.604,2.112c-0.767,0-1.476-0.202-1.967-0.492L160.556,243.799z"/>
		<path d="M172.792,241.527c0,2.59-1.808,3.718-3.486,3.718c-1.88,0-3.355-1.389-3.355-3.602c0-2.329,1.548-3.704,3.472-3.704
			C171.433,237.94,172.792,239.401,172.792,241.527z M167.252,241.6c0,1.533,0.868,2.69,2.112,2.69c1.215,0,2.126-1.143,2.126-2.719
			c0-1.187-0.593-2.677-2.098-2.677C167.903,238.895,167.252,240.283,167.252,241.6z"/>
		<path d="M174.396,234.815h1.273v10.271h-1.273V234.815z"/>
		<path d="M182.729,243.408c0,0.607,0.028,1.2,0.101,1.678h-1.143l-0.102-0.883h-0.043c-0.391,0.55-1.143,1.042-2.141,1.042
			c-1.418,0-2.142-0.998-2.142-2.011c0-1.692,1.505-2.618,4.21-2.604v-0.145c0-0.564-0.159-1.62-1.591-1.605
			c-0.666,0-1.346,0.188-1.838,0.521l-0.289-0.853c0.579-0.362,1.432-0.608,2.314-0.608c2.141,0,2.662,1.461,2.662,2.85V243.408z
			 M181.498,241.513c-1.389-0.028-2.965,0.218-2.965,1.577c0,0.839,0.55,1.215,1.187,1.215c0.926,0,1.519-0.578,1.721-1.172
			c0.044-0.145,0.058-0.289,0.058-0.404V241.513z"/>
		<path d="M186.257,236.407v1.678h1.823v0.969h-1.823v3.775c0,0.868,0.246,1.36,0.955,1.36c0.348,0,0.55-0.029,0.737-0.087
			l0.059,0.969c-0.246,0.087-0.637,0.174-1.129,0.174c-0.593,0-1.07-0.202-1.374-0.535c-0.347-0.391-0.491-1.013-0.491-1.837v-3.819
			h-1.085v-0.969h1.085v-1.302L186.257,236.407z"/>
		<path d="M190.133,241.816c0.029,1.722,1.114,2.431,2.401,2.431c0.911,0,1.476-0.159,1.938-0.361l0.231,0.911
			c-0.448,0.202-1.229,0.448-2.344,0.448c-2.155,0-3.442-1.433-3.442-3.544c0-2.112,1.244-3.761,3.283-3.761
			c2.301,0,2.894,1.997,2.894,3.284c0,0.261-0.015,0.448-0.044,0.593H190.133z M193.865,240.905
			c0.015-0.795-0.333-2.054-1.765-2.054c-1.302,0-1.852,1.171-1.953,2.054H193.865z"/>
		<path d="M202.702,234.815v8.462c0,0.622,0.029,1.331,0.058,1.809h-1.128l-0.058-1.215h-0.044
			c-0.376,0.781-1.215,1.374-2.357,1.374c-1.692,0-3.009-1.433-3.009-3.559c-0.015-2.329,1.446-3.747,3.139-3.747
			c1.085,0,1.794,0.506,2.112,1.056h0.028v-4.181H202.702z M201.443,240.935c0-0.159-0.014-0.376-0.058-0.535
			c-0.188-0.796-0.882-1.461-1.837-1.461c-1.316,0-2.098,1.157-2.098,2.691c0,1.417,0.709,2.589,2.068,2.589
			c0.854,0,1.635-0.578,1.866-1.519c0.044-0.174,0.058-0.348,0.058-0.55V240.935z"/>
		<path d="M213.883,244.059c0,1.62-0.333,2.59-0.998,3.212c-0.694,0.622-1.679,0.839-2.561,0.839c-0.839,0-1.765-0.203-2.329-0.579
			l0.318-0.983c0.463,0.304,1.187,0.564,2.054,0.564c1.302,0,2.257-0.68,2.257-2.459v-0.767h-0.029
			c-0.376,0.65-1.143,1.171-2.228,1.171c-1.735,0-2.979-1.475-2.979-3.413c0-2.373,1.548-3.704,3.168-3.704
			c1.215,0,1.866,0.622,2.185,1.201h0.028l0.044-1.056h1.128c-0.044,0.492-0.058,1.07-0.058,1.909V244.059z M212.609,240.848
			c0-0.217-0.015-0.405-0.072-0.564c-0.231-0.752-0.839-1.359-1.779-1.359c-1.215,0-2.083,1.027-2.083,2.647
			c0,1.374,0.709,2.517,2.068,2.517c0.796,0,1.505-0.492,1.765-1.302c0.073-0.217,0.102-0.463,0.102-0.68V240.848z"/>
		<path d="M215.906,240.269c0-0.825-0.014-1.533-0.058-2.184h1.114l0.058,1.389h0.043c0.318-0.94,1.1-1.534,1.953-1.534
			c0.13,0,0.231,0.015,0.347,0.029v1.201c-0.13-0.029-0.26-0.029-0.434-0.029c-0.896,0-1.533,0.666-1.707,1.62
			c-0.028,0.174-0.043,0.391-0.043,0.593v3.732h-1.273V240.269z"/>
		<path d="M226.842,241.527c0,2.59-1.808,3.718-3.486,3.718c-1.88,0-3.355-1.389-3.355-3.602c0-2.329,1.548-3.704,3.472-3.704
			C225.482,237.94,226.842,239.401,226.842,241.527z M221.302,241.6c0,1.533,0.868,2.69,2.112,2.69c1.215,0,2.126-1.143,2.126-2.719
			c0-1.187-0.593-2.677-2.098-2.677C221.953,238.895,221.302,240.283,221.302,241.6z"/>
		<path d="M234.305,243.162c0,0.737,0.015,1.374,0.059,1.924h-1.129l-0.072-1.143h-0.028c-0.318,0.564-1.071,1.302-2.314,1.302
			c-1.1,0-2.416-0.622-2.416-3.066v-4.094h1.272v3.862c0,1.33,0.42,2.242,1.562,2.242c0.854,0,1.446-0.594,1.678-1.172
			c0.072-0.174,0.116-0.405,0.116-0.651v-4.281h1.272V243.162z"/>
		<path d="M236.416,240.37c0-0.896-0.028-1.62-0.058-2.285h1.128l0.072,1.2h0.029c0.507-0.854,1.346-1.345,2.488-1.345
			c1.707,0,2.979,1.432,2.979,3.544c0,2.517-1.548,3.761-3.196,3.761c-0.926,0-1.736-0.405-2.155-1.1h-0.029v3.805h-1.259V240.37z
			 M237.675,242.236c0,0.188,0.015,0.361,0.058,0.521c0.231,0.883,0.998,1.49,1.91,1.49c1.345,0,2.126-1.1,2.126-2.705
			c0-1.389-0.737-2.589-2.083-2.589c-0.868,0-1.692,0.607-1.924,1.562c-0.044,0.159-0.087,0.348-0.087,0.507V242.236z"/>
		<path d="M244.241,245.086v-0.781l0.998-0.969c2.401-2.286,3.5-3.501,3.5-4.918c0-0.955-0.448-1.837-1.852-1.837
			c-0.854,0-1.562,0.434-1.996,0.796l-0.405-0.897c0.637-0.535,1.577-0.955,2.647-0.955c2.025,0,2.879,1.389,2.879,2.734
			c0,1.736-1.259,3.139-3.24,5.048l-0.738,0.694v0.029h4.21v1.056H244.241z"/>
		<path d="M251.776,239.242c0-0.536,0.361-0.912,0.854-0.912c0.521,0,0.854,0.376,0.854,0.912c0,0.506-0.333,0.896-0.868,0.896
			C252.124,240.139,251.776,239.748,251.776,239.242z M251.776,244.349c0-0.536,0.361-0.912,0.854-0.912
			c0.521,0,0.854,0.376,0.854,0.912c0,0.506-0.333,0.896-0.868,0.896C252.124,245.245,251.776,244.854,251.776,244.349z"/>
		<path d="M263.044,243.408c0,0.607,0.028,1.2,0.101,1.678h-1.143l-0.102-0.883h-0.043c-0.391,0.55-1.143,1.042-2.141,1.042
			c-1.418,0-2.142-0.998-2.142-2.011c0-1.692,1.505-2.618,4.21-2.604v-0.145c0-0.564-0.159-1.62-1.592-1.605
			c-0.665,0-1.345,0.188-1.837,0.521l-0.289-0.853c0.579-0.362,1.433-0.608,2.314-0.608c2.141,0,2.662,1.461,2.662,2.85V243.408z
			 M261.814,241.513c-1.389-0.028-2.966,0.218-2.966,1.577c0,0.839,0.55,1.215,1.187,1.215c0.926,0,1.519-0.578,1.721-1.172
			c0.044-0.145,0.059-0.289,0.059-0.404V241.513z"/>
		<path d="M265.097,234.815h1.273v10.271h-1.273V234.815z"/>
		<path d="M268.51,240.37c0-0.896-0.028-1.62-0.058-2.285h1.128l0.072,1.2h0.029c0.507-0.854,1.346-1.345,2.488-1.345
			c1.707,0,2.979,1.432,2.979,3.544c0,2.517-1.548,3.761-3.196,3.761c-0.926,0-1.736-0.405-2.155-1.1h-0.029v3.805h-1.259V240.37z
			 M269.769,242.236c0,0.188,0.015,0.361,0.058,0.521c0.231,0.883,0.998,1.49,1.91,1.49c1.345,0,2.126-1.1,2.126-2.705
			c0-1.389-0.737-2.589-2.083-2.589c-0.868,0-1.692,0.607-1.924,1.562c-0.044,0.159-0.087,0.348-0.087,0.507V242.236z"/>
		<path d="M276.739,234.815h1.273v4.383h0.028c0.203-0.362,0.521-0.694,0.912-0.912c0.376-0.217,0.824-0.347,1.302-0.347
			c0.94,0,2.444,0.579,2.444,2.98v4.166h-1.272v-4.021c0-1.128-0.42-2.068-1.62-2.068c-0.825,0-1.461,0.579-1.707,1.258
			c-0.072,0.188-0.087,0.376-0.087,0.608v4.224h-1.273V234.815z"/>
		<path d="M289.686,243.408c0,0.607,0.028,1.2,0.101,1.678h-1.143l-0.102-0.883h-0.043c-0.391,0.55-1.143,1.042-2.141,1.042
			c-1.418,0-2.142-0.998-2.142-2.011c0-1.692,1.505-2.618,4.21-2.604v-0.145c0-0.564-0.159-1.62-1.591-1.605
			c-0.666,0-1.346,0.188-1.838,0.521l-0.289-0.853c0.579-0.362,1.432-0.608,2.314-0.608c2.141,0,2.662,1.461,2.662,2.85V243.408z
			 M288.455,241.513c-1.389-0.028-2.965,0.218-2.965,1.577c0,0.839,0.55,1.215,1.187,1.215c0.926,0,1.519-0.578,1.721-1.172
			c0.044-0.145,0.058-0.289,0.058-0.404V241.513z"/>
		<path d="M295.137,244.189c0.274,0.028,0.593,0,1.027-0.044c0.737-0.101,1.432-0.391,1.967-0.911
			c0.622-0.564,1.07-1.389,1.244-2.488h-0.043c-0.521,0.637-1.273,0.998-2.229,0.998c-1.678,0-2.763-1.272-2.763-2.878
			c0-1.779,1.288-3.341,3.212-3.341s3.109,1.548,3.109,3.978c0,2.054-0.694,3.5-1.62,4.397c-0.723,0.709-1.721,1.144-2.733,1.259
			c-0.463,0.072-0.868,0.087-1.172,0.072V244.189z M295.6,238.793c0,1.172,0.709,1.996,1.809,1.996c0.854,0,1.519-0.419,1.852-0.983
			c0.072-0.13,0.115-0.26,0.115-0.478c0-1.605-0.593-2.835-1.938-2.835C296.366,236.494,295.6,237.448,295.6,238.793z"/>
		<path d="M302.557,244.189c0.274,0.028,0.593,0,1.027-0.044c0.737-0.101,1.432-0.391,1.967-0.911
			c0.622-0.564,1.07-1.389,1.244-2.488h-0.043c-0.521,0.637-1.273,0.998-2.229,0.998c-1.678,0-2.763-1.272-2.763-2.878
			c0-1.779,1.288-3.341,3.212-3.341s3.109,1.548,3.109,3.978c0,2.054-0.694,3.5-1.62,4.397c-0.723,0.709-1.721,1.144-2.733,1.259
			c-0.463,0.072-0.868,0.087-1.172,0.072V244.189z M303.02,238.793c0,1.172,0.709,1.996,1.809,1.996
			c0.854,0,1.519-0.419,1.852-0.983c0.072-0.13,0.115-0.26,0.115-0.478c0-1.605-0.593-2.835-1.938-2.835
			C303.786,236.494,303.02,237.448,303.02,238.793z"/>
		<path d="M313.463,238.316c0,1.981-1.027,2.965-2.242,2.965c-1.187,0-2.185-0.94-2.199-2.82c0-1.881,1.013-2.937,2.286-2.937
			C312.609,235.524,313.463,236.537,313.463,238.316z M310.02,238.403c-0.028,1.201,0.435,2.112,1.23,2.112
			c0.839,0,1.215-0.896,1.215-2.126c0-1.157-0.333-2.098-1.229-2.098C310.454,236.291,310.02,237.231,310.02,238.403z
			 M311.119,245.26l5.54-9.75h0.811l-5.54,9.75H311.119z M319.596,242.222c0,1.981-1.026,2.966-2.242,2.966
			c-1.186,0-2.184-0.94-2.198-2.836c0-1.88,1.013-2.936,2.285-2.936C318.742,239.416,319.596,240.428,319.596,242.222z
			 M316.153,242.309c-0.029,1.2,0.434,2.112,1.229,2.112c0.839,0,1.215-0.897,1.215-2.142c0-1.143-0.332-2.097-1.229-2.097
			C316.587,240.182,316.153,241.122,316.153,242.309z"/>
	</g>
	<path fill="#FF00FF" d="M143.922,55.771c0,23.299-18.888,42.186-42.186,42.186c-23.299,0-42.186-18.887-42.186-42.186
		c0-23.298,18.887-42.186,42.186-42.186C125.034,13.585,143.922,32.472,143.922,55.771"/>
	<path d="M143.922,55.771h-0.5c0,11.513-4.665,21.932-12.209,29.477c-7.545,7.544-17.964,12.209-29.477,12.209
		s-21.931-4.665-29.477-12.209C64.715,77.702,60.05,67.284,60.05,55.771c0-11.513,4.665-21.931,12.209-29.476
		c7.545-7.544,17.963-12.209,29.477-12.209c11.513,0,21.931,4.665,29.477,12.209c7.544,7.545,12.209,17.963,12.209,29.476H143.922
		h0.5c0-23.575-19.111-42.685-42.686-42.686c-23.575,0-42.686,19.111-42.686,42.686c0,23.576,19.111,42.686,42.686,42.686
		c23.575,0,42.686-19.11,42.686-42.686H143.922"/>
	<path fill="#00FFFF" d="M152.625,14.085c-9.209,0-17.718,2.985-24.617,8.041c9.621,7.523,15.932,19.081,16.387,32.129
		c14.929,6.649,25.338,21.616,25.338,39.014l0,0l0,0c0,0.177-0.001,0.352-0.003,0.528c4.637-2.089,8.823-5.001,12.373-8.551
		c7.545-7.545,12.21-17.963,12.21-29.477h0.5l0,0h-0.5c0-11.513-4.665-21.931-12.21-29.476
		C174.558,18.75,164.14,14.085,152.625,14.085"/>
	<path fill="#0000FF" d="M127.181,22.749c-1.419,1.095-2.766,2.28-4.031,3.545c-7.091,7.092-11.638,16.721-12.159,27.412
		c4.957-2.013,10.378-3.123,16.057-3.123c5.785,0,11.299,1.15,16.33,3.235c-0.495-10.736-5.049-20.407-12.165-27.523
		C129.946,25.029,128.6,23.844,127.181,22.749"/>
	<path d="M128.009,22.126c-0.278,0.204-0.555,0.413-0.828,0.623c1.419,1.095,2.766,2.28,4.032,3.545
		c7.116,7.116,11.67,16.788,12.165,27.523c0.342,0.142,0.682,0.288,1.019,0.438C143.94,41.207,137.63,29.649,128.009,22.126"/>
	<path d="M195.313,55.771h-0.5h-0.5c0,11.513-4.665,21.932-12.21,29.477c-3.55,3.55-7.736,6.462-12.373,8.551
		c-0.005,0.369-0.014,0.74-0.028,1.106C184.777,88.316,195.313,73.274,195.313,55.771 M152.625,13.085
		c-9.536,0-18.339,3.125-25.445,8.41c0.278,0.207,0.556,0.418,0.828,0.631c6.898-5.056,15.407-8.041,24.617-8.041
		c11.514,0,21.933,4.665,29.478,12.209c7.545,7.545,12.21,17.963,12.21,29.476h0.5h0.5l0,0
		C195.313,32.196,176.203,13.085,152.625,13.085"/>
	<path d="M126.353,22.126c-9.592,7.5-15.893,19.01-16.382,32.01c0.338-0.147,0.677-0.291,1.02-0.43
		c0.521-10.691,5.068-20.32,12.159-27.412c1.266-1.266,2.612-2.45,4.031-3.545C126.908,22.539,126.631,22.33,126.353,22.126"/>
	<path d="M127.181,21.495c-0.278,0.207-0.556,0.418-0.828,0.631c0.278,0.204,0.555,0.413,0.828,0.623
		c0.273-0.21,0.55-0.419,0.828-0.623C127.736,21.913,127.458,21.701,127.181,21.495"/>
	<path fill="#FFFF00" d="M127.181,90.047c-7.105,5.284-15.909,8.41-25.445,8.41c-5.785,0-11.299-1.15-16.33-3.235
		c0.495,10.736,5.049,20.408,12.165,27.524c7.545,7.544,17.963,12.209,29.477,12.209c11.513,0,21.932-4.665,29.477-12.209
		c7.091-7.092,11.638-16.721,12.159-27.412c-4.957,2.013-10.378,3.123-16.058,3.123C143.09,98.457,134.286,95.331,127.181,90.047"/>
	<path fill="#FF0000" d="M109.943,55.242c-4.637,2.089-8.823,5.001-12.373,8.55c-7.544,7.545-12.209,17.964-12.209,29.477
		c0,0.285,0.003,0.569,0.008,0.852c5.024,2.147,10.556,3.335,16.366,3.335c9.209,0,17.718-2.985,24.617-8.041
		c-9.992-7.812-16.413-19.978-16.413-33.645C109.94,55.594,109.941,55.418,109.943,55.242"/>
	<path d="M126.353,89.416c-6.898,5.056-15.407,8.041-24.617,8.041c-5.811,0-11.342-1.188-16.366-3.335
		c0.008,0.368,0.02,0.735,0.037,1.1c5.03,2.084,10.545,3.235,16.33,3.235c9.536,0,18.339-3.125,25.445-8.41
		C126.903,89.84,126.625,89.628,126.353,89.416"/>
	<path fill="#00FF00" d="M144.42,55.364c0.001,0.135,0.002,0.271,0.002,0.406l0,0l0,0c0,13.667-6.421,25.833-16.413,33.645
		c6.898,5.056,15.407,8.041,24.617,8.041c5.707,0,11.145-1.146,16.097-3.221c0.007-0.321,0.011-0.643,0.011-0.966h0.5l0,0h-0.5
		c0-11.513-4.665-21.932-12.209-29.477C153.043,60.312,148.95,57.444,144.42,55.364"/>
	<path d="M127.047,51.583c-5.707,0-11.144,1.146-16.096,3.221c-0.007,0.321-0.011,0.643-0.011,0.966
		c0,11.513,4.665,21.932,12.209,29.477c1.266,1.266,2.612,2.45,4.031,3.545c1.419-1.095,2.766-2.279,4.032-3.545
		c7.544-7.545,12.209-17.963,12.209-29.477h0.5l0,0h-0.5c0-0.285-0.003-0.569-0.009-0.853
		C138.389,52.771,132.858,51.583,127.047,51.583"/>
	<path d="M144.422,55.771h-0.5h-0.5c0,11.513-4.665,21.932-12.209,29.477c-1.266,1.266-2.612,2.45-4.032,3.545
		c0.273,0.211,0.55,0.419,0.828,0.623C138,81.603,144.422,69.438,144.422,55.771 M144.422,55.771L144.422,55.771L144.422,55.771
		 M143.413,54.918c0.006,0.283,0.009,0.568,0.009,0.853h0.5h0.5l0,0c0-0.135,0-0.271-0.002-0.406
		C144.087,55.211,143.751,55.062,143.413,54.918"/>
	<path d="M128.009,89.416c-0.272,0.213-0.55,0.425-0.828,0.631c7.105,5.284,15.909,8.41,25.445,8.41
		c5.68,0,11.101-1.109,16.058-3.123c0.018-0.365,0.031-0.731,0.039-1.098c-4.952,2.075-10.39,3.221-16.097,3.221
		C143.416,97.457,134.907,94.472,128.009,89.416"/>
	<path d="M110.951,54.804c-0.339,0.142-0.674,0.288-1.008,0.438c-0.002,0.176-0.003,0.352-0.003,0.528
		c0,13.667,6.421,25.833,16.413,33.645c0.278-0.204,0.555-0.412,0.828-0.623c-1.419-1.095-2.766-2.279-4.031-3.545
		c-7.544-7.545-12.209-17.963-12.209-29.477C110.94,55.447,110.944,55.125,110.951,54.804"/>
	<path d="M127.181,88.792c-0.273,0.211-0.55,0.419-0.828,0.623c0.272,0.213,0.55,0.425,0.828,0.631
		c0.278-0.207,0.556-0.418,0.828-0.631C127.73,89.211,127.454,89.003,127.181,88.792"/>
	<path d="M84.388,94.784c0.797,22.875,19.591,41.171,42.66,41.172c23.029,0,41.797-18.233,42.655-41.052
		c-0.338,0.148-0.677,0.291-1.02,0.43c-0.521,10.691-5.068,20.32-12.159,27.412c-7.545,7.544-17.963,12.209-29.477,12.209
		c-11.513,0-21.931-4.665-29.477-12.209c-7.116-7.117-11.67-16.789-12.165-27.524C85.064,95.08,84.725,94.934,84.388,94.784"/>
	<path d="M109.971,54.136c-15.074,6.588-25.609,21.63-25.609,39.134c0,0.135,0,0.271,0.002,0.406
		c0.333,0.153,0.669,0.302,1.006,0.446c-0.005-0.283-0.008-0.567-0.008-0.852c0-11.513,4.665-21.932,12.209-29.477
		c3.55-3.549,7.736-6.461,12.373-8.55C109.948,54.874,109.957,54.502,109.971,54.136"/>
	<path d="M84.363,93.675c0.003,0.371,0.012,0.741,0.024,1.108c0.337,0.15,0.677,0.296,1.019,0.438
		c-0.017-0.365-0.029-0.732-0.037-1.1C85.032,93.977,84.696,93.829,84.363,93.675"/>
	<path d="M169.733,93.27h-0.5h-0.5c0,0.323-0.004,0.645-0.011,0.966c0.338-0.142,0.675-0.288,1.008-0.438
		C169.732,93.621,169.733,93.446,169.733,93.27 M144.396,54.255c0.013,0.368,0.021,0.738,0.024,1.109
		c4.53,2.08,8.623,4.948,12.104,8.428c7.544,7.545,12.209,17.964,12.209,29.477h0.5h0.5l0,0
		C169.733,75.871,159.325,60.904,144.396,54.255"/>
	<path d="M127.047,50.583c-5.679,0-11.101,1.11-16.057,3.123c-0.018,0.365-0.031,0.731-0.039,1.098
		c4.952-2.075,10.39-3.221,16.096-3.221c5.811,0,11.342,1.188,16.366,3.335c-0.007-0.368-0.02-0.735-0.036-1.1
		C138.346,51.733,132.832,50.583,127.047,50.583"/>
	<path d="M143.377,53.818c0.017,0.365,0.029,0.732,0.036,1.1c0.338,0.145,0.674,0.293,1.007,0.446
		c-0.003-0.371-0.012-0.741-0.024-1.109C144.059,54.105,143.719,53.959,143.377,53.818"/>
	<path d="M169.73,93.798c-0.333,0.15-0.67,0.296-1.008,0.438c-0.008,0.367-0.021,0.733-0.039,1.098
		c0.343-0.14,0.681-0.282,1.02-0.43C169.716,94.538,169.726,94.167,169.73,93.798"/>
	<path d="M110.99,53.706c-0.343,0.139-0.681,0.282-1.02,0.43c-0.014,0.367-0.023,0.738-0.027,1.106
		c0.333-0.15,0.669-0.296,1.008-0.438C110.959,54.437,110.973,54.071,110.99,53.706"/>
	<path fill="#FF00FF" d="M417.885,387.318c0,23.299-18.887,42.186-42.186,42.186s-42.186-18.887-42.186-42.186
		c0-23.301,18.887-42.188,42.186-42.188S417.885,364.018,417.885,387.318"/>
	<path d="M417.885,387.318h-0.5c0,11.513-4.665,21.931-12.209,29.477c-7.546,7.544-17.964,12.209-29.477,12.209
		s-21.932-4.665-29.477-12.209c-7.544-7.546-12.209-17.964-12.209-29.477c0-11.514,4.665-21.933,12.209-29.478
		c7.545-7.545,17.964-12.21,29.477-12.21s21.931,4.665,29.477,12.21c7.544,7.545,12.209,17.964,12.209,29.478H417.885h0.5
		c0-23.577-19.11-42.688-42.686-42.688s-42.686,19.11-42.686,42.688c0,23.575,19.11,42.686,42.686,42.686
		s42.686-19.11,42.686-42.686H417.885"/>
	<path fill="#03FFFF" d="M426.59,345.631c-9.21,0-17.719,2.985-24.617,8.041c9.618,7.523,15.93,19.082,16.386,32.129
		c14.929,6.649,25.339,21.616,25.339,39.016l0,0l0,0c0,0.177-0.001,0.352-0.003,0.528c4.636-2.089,8.823-5.001,12.373-8.55
		c7.545-7.546,12.21-17.964,12.21-29.477h0.5l0,0h-0.5c0-11.514-4.665-21.933-12.21-29.478
		C448.521,350.296,438.103,345.631,426.59,345.631"/>
	<path fill="#03FCFF" d="M401.145,354.295c-1.419,1.096-2.766,2.28-4.031,3.546c-7.09,7.091-11.637,16.72-12.158,27.411
		c4.956-2.014,10.377-3.123,16.057-3.123c5.784,0,11.298,1.149,16.328,3.234c-0.495-10.736-5.049-20.407-12.164-27.522
		C403.91,356.575,402.563,355.391,401.145,354.295"/>
	<path fill="#00FCFC" d="M401.973,353.672c-0.279,0.205-0.555,0.412-0.828,0.623c1.419,1.096,2.766,2.28,4.031,3.546
		c7.115,7.115,11.669,16.786,12.164,27.522c0.342,0.142,0.682,0.288,1.019,0.438C417.902,372.754,411.591,361.195,401.973,353.672"
		/>
	<path fill="#030303" d="M426.59,344.631c-9.536,0-18.34,3.126-25.445,8.41c0.278,0.207,0.555,0.417,0.828,0.631
		c6.898-5.056,15.407-8.041,24.617-8.041c11.513,0,21.932,4.665,29.478,12.21c7.545,7.545,12.21,17.964,12.21,29.478h0.5h0.5l0,0
		C469.277,363.741,450.165,344.631,426.59,344.631"/>
	<path fill="#030003" d="M400.316,353.672c-9.589,7.5-15.891,19.012-16.382,32.01c0.339-0.147,0.677-0.29,1.021-0.43
		c0.521-10.691,5.068-20.32,12.158-27.411c1.266-1.266,2.612-2.45,4.031-3.546C400.871,354.084,400.596,353.877,400.316,353.672"/>
	<path d="M401.145,353.041c-0.278,0.207-0.555,0.417-0.828,0.631c0.279,0.205,0.555,0.412,0.828,0.623
		c0.273-0.211,0.549-0.418,0.828-0.623C401.699,353.458,401.423,353.248,401.145,353.041"/>
	<path fill="#030303" d="M469.277,387.318h-0.5h-0.5c0,11.513-4.665,21.931-12.21,29.477c-3.55,3.549-7.737,6.461-12.373,8.55
		c-0.005,0.369-0.014,0.74-0.028,1.106C458.741,419.863,469.277,404.821,469.277,387.318 M469.277,387.318L469.277,387.318
		L469.277,387.318"/>
	<path fill="#FFFF03" d="M401.145,421.594c-7.105,5.284-15.909,8.41-25.445,8.41c-5.784,0-11.299-1.15-16.329-3.234
		c0.495,10.734,5.05,20.407,12.165,27.523c7.545,7.544,17.964,12.209,29.477,12.209c11.512,0,21.931-4.665,29.476-12.209
		c7.091-7.092,11.639-16.721,12.16-27.412c-4.957,2.014-10.378,3.123-16.058,3.123C417.054,430.004,408.25,426.878,401.145,421.594"
		/>
	<path fill="#FFFC03" d="M383.907,386.788c-4.636,2.089-8.822,5.001-12.372,8.55c-7.545,7.546-12.21,17.965-12.21,29.479
		c0,0.285,0.003,0.569,0.009,0.853c5.023,2.146,10.556,3.335,16.365,3.335c9.21,0,17.719-2.985,24.617-8.041
		c-9.989-7.813-16.412-19.979-16.412-33.645C383.904,387.142,383.905,386.965,383.907,386.788"/>
	<path fill="#FCFC00" d="M400.316,420.963c-6.898,5.056-15.407,8.041-24.617,8.041c-5.81,0-11.342-1.188-16.365-3.335
		c0.007,0.368,0.02,0.734,0.036,1.101c5.03,2.084,10.545,3.234,16.329,3.234c9.536,0,18.34-3.126,25.445-8.41
		C400.865,421.387,400.59,421.177,400.316,420.963"/>
	<path fill="#03FF03" d="M418.383,386.91c0.001,0.136,0.002,0.271,0.002,0.408l0,0l0,0c0,13.665-6.423,25.831-16.412,33.645
		c6.898,5.056,15.407,8.041,24.617,8.041c5.707,0,11.145-1.146,16.097-3.221c0.007-0.322,0.011-0.644,0.011-0.967h0.5l0,0h-0.5
		c0-11.514-4.665-21.933-12.21-29.479C427.006,391.857,422.913,388.989,418.383,386.91"/>
	<path fill="#03FC03" d="M401.012,383.129c-5.707,0-11.145,1.146-16.097,3.221c-0.007,0.322-0.011,0.645-0.011,0.969
		c0,11.513,4.665,21.931,12.209,29.477c1.266,1.265,2.612,2.449,4.031,3.545c1.419-1.096,2.766-2.28,4.031-3.545
		c7.544-7.546,12.209-17.964,12.209-29.477h0.5l0,0h-0.5c0-0.285-0.003-0.57-0.009-0.854
		C412.353,384.317,406.821,383.129,401.012,383.129"/>
	<path fill="#00FC00" d="M418.385,387.318h-0.5h-0.5c0,11.513-4.665,21.931-12.209,29.477c-1.266,1.265-2.612,2.449-4.031,3.545
		c0.273,0.211,0.549,0.418,0.828,0.623C411.962,413.149,418.385,400.983,418.385,387.318 M418.385,387.318L418.385,387.318
		L418.385,387.318 M417.376,386.464c0.006,0.284,0.009,0.569,0.009,0.854h0.5h0.5l0,0c0-0.137-0.001-0.272-0.002-0.408
		C418.05,386.757,417.714,386.608,417.376,386.464"/>
	<path fill="#030303" d="M401.973,420.963c-0.273,0.214-0.55,0.424-0.828,0.631c7.105,5.284,15.909,8.41,25.445,8.41
		c5.68,0,11.101-1.109,16.058-3.123c0.018-0.364,0.03-0.731,0.039-1.098c-4.952,2.074-10.39,3.221-16.097,3.221
		C417.38,429.004,408.871,426.019,401.973,420.963"/>
	<path fill="#030003" d="M384.915,386.35c-0.338,0.142-0.674,0.288-1.008,0.438c-0.002,0.177-0.003,0.354-0.003,0.53
		c0,13.665,6.423,25.831,16.412,33.645c0.279-0.205,0.555-0.412,0.828-0.623c-1.419-1.096-2.766-2.28-4.031-3.545
		c-7.544-7.546-12.209-17.964-12.209-29.477C384.904,386.994,384.908,386.672,384.915,386.35"/>
	<path d="M401.145,420.34c-0.273,0.211-0.549,0.418-0.828,0.623c0.273,0.214,0.549,0.424,0.828,0.631
		c0.278-0.207,0.555-0.417,0.828-0.631C401.693,420.758,401.418,420.551,401.145,420.34"/>
	<path fill="#030303" d="M358.352,426.331c0.797,22.875,19.592,41.171,42.66,41.171c23.026,0,41.796-18.232,42.654-41.051
		c-0.338,0.147-0.676,0.29-1.019,0.43c-0.521,10.691-5.069,20.32-12.16,27.412c-7.545,7.544-17.964,12.209-29.476,12.209
		c-11.513,0-21.932-4.665-29.477-12.209c-7.115-7.116-11.67-16.789-12.165-27.523C359.028,426.628,358.688,426.481,358.352,426.331"
		/>
	<path fill="#030003" d="M383.935,385.682c-15.073,6.588-25.609,21.63-25.609,39.135c0,0.136,0.001,0.271,0.002,0.406
		c0.334,0.153,0.668,0.302,1.007,0.446c-0.006-0.283-0.009-0.567-0.009-0.853c0-11.514,4.665-21.933,12.21-29.479
		c3.55-3.549,7.736-6.461,12.372-8.55C383.912,386.418,383.921,386.05,383.935,385.682"/>
	<path d="M358.327,425.223c0.003,0.371,0.012,0.74,0.024,1.108c0.337,0.15,0.677,0.297,1.019,0.438
		c-0.017-0.366-0.029-0.732-0.036-1.101C358.995,425.524,358.661,425.376,358.327,425.223"/>
	<path fill="#030303" d="M418.358,385.801c0.013,0.368,0.021,0.738,0.024,1.109c4.53,2.079,8.623,4.947,12.104,8.428
		c7.545,7.546,12.21,17.965,12.21,29.479h0.5h0.5l0,0C443.697,407.417,433.287,392.45,418.358,385.801"/>
	<path fill="#030003" d="M401.012,382.129c-5.68,0-11.101,1.109-16.057,3.123c-0.019,0.364-0.031,0.73-0.04,1.098
		c4.952-2.074,10.39-3.221,16.097-3.221c5.81,0,11.341,1.188,16.364,3.335c-0.007-0.368-0.02-0.735-0.036-1.101
		C412.31,383.278,406.796,382.129,401.012,382.129"/>
	<path d="M417.34,385.363c0.017,0.365,0.029,0.732,0.036,1.101c0.338,0.145,0.674,0.293,1.007,0.446
		c-0.004-0.371-0.012-0.741-0.024-1.109C418.021,385.651,417.682,385.505,417.34,385.363"/>
	<path fill="#030303" d="M443.697,424.816h-0.5h-0.5c0,0.323-0.004,0.645-0.011,0.967c0.338-0.143,0.674-0.288,1.008-0.438
		C443.696,425.168,443.697,424.993,443.697,424.816"/>
	<path fill="#030003" d="M384.955,385.252c-0.344,0.14-0.682,0.282-1.021,0.43c-0.014,0.368-0.022,0.736-0.027,1.106
		c0.334-0.15,0.67-0.297,1.008-0.438C384.924,385.982,384.937,385.616,384.955,385.252"/>
	<path fill="#030303" d="M443.694,425.345c-0.334,0.15-0.67,0.296-1.008,0.438c-0.009,0.366-0.021,0.733-0.039,1.098
		c0.343-0.14,0.681-0.282,1.019-0.43C443.681,426.085,443.689,425.714,443.694,425.345"/>
	<g>
		<path d="M129.98,407.094v9.75h-1.272v-9.75H129.98z"/>
		<path d="M131.963,415.557c0.391,0.231,1.056,0.491,1.692,0.491c0.911,0,1.345-0.448,1.345-1.041c0-0.607-0.361-0.926-1.287-1.273
			c-1.273-0.463-1.866-1.143-1.866-1.981c0-1.128,0.926-2.054,2.416-2.054c0.709,0,1.331,0.188,1.707,0.434l-0.304,0.926
			c-0.275-0.174-0.781-0.42-1.433-0.42c-0.752,0-1.157,0.435-1.157,0.955c0,0.579,0.405,0.839,1.316,1.2
			c1.201,0.449,1.837,1.057,1.837,2.098c0,1.244-0.969,2.112-2.604,2.112c-0.767,0-1.476-0.202-1.968-0.492L131.963,415.557z"/>
		<path d="M144.199,413.285c0,2.59-1.808,3.718-3.486,3.718c-1.88,0-3.355-1.389-3.355-3.602c0-2.329,1.548-3.703,3.472-3.703
			C142.84,409.698,144.199,411.159,144.199,413.285z M138.659,413.357c0,1.533,0.868,2.69,2.112,2.69
			c1.215,0,2.126-1.143,2.126-2.719c0-1.187-0.593-2.677-2.098-2.677C139.311,410.652,138.659,412.041,138.659,413.357z"/>
		<path d="M145.804,406.573h1.273v10.271h-1.273V406.573z"/>
		<path d="M154.136,415.166c0,0.607,0.028,1.2,0.101,1.678h-1.143l-0.102-0.883h-0.043c-0.391,0.55-1.143,1.042-2.141,1.042
			c-1.418,0-2.142-0.998-2.142-2.011c0-1.692,1.505-2.618,4.21-2.604v-0.145c0-0.564-0.159-1.62-1.592-1.606
			c-0.665,0-1.345,0.188-1.837,0.521l-0.289-0.854c0.579-0.362,1.433-0.607,2.314-0.607c2.141,0,2.662,1.461,2.662,2.85V415.166z
			 M152.906,413.271c-1.389-0.028-2.966,0.218-2.966,1.577c0,0.839,0.55,1.215,1.187,1.215c0.926,0,1.519-0.578,1.721-1.172
			c0.044-0.145,0.059-0.289,0.059-0.404V413.271z"/>
		<path d="M157.664,408.164v1.679h1.823v0.969h-1.823v3.775c0,0.868,0.246,1.36,0.955,1.36c0.348,0,0.55-0.029,0.738-0.087
			l0.058,0.969c-0.246,0.087-0.637,0.174-1.129,0.174c-0.593,0-1.07-0.202-1.374-0.535c-0.347-0.391-0.491-1.013-0.491-1.837v-3.819
			h-1.085v-0.969h1.085v-1.302L157.664,408.164z"/>
		<path d="M161.555,413.574c0.029,1.722,1.114,2.431,2.401,2.431c0.911,0,1.476-0.159,1.938-0.361l0.231,0.911
			c-0.448,0.202-1.229,0.448-2.344,0.448c-2.155,0-3.442-1.433-3.442-3.544c0-2.112,1.244-3.761,3.283-3.761
			c2.301,0,2.894,1.996,2.894,3.283c0,0.261-0.015,0.448-0.044,0.593H161.555z M165.287,412.663
			c0.015-0.796-0.333-2.054-1.765-2.054c-1.302,0-1.852,1.172-1.953,2.054H165.287z"/>
		<path d="M174.124,406.573v8.462c0,0.622,0.029,1.331,0.058,1.809h-1.128l-0.058-1.215h-0.044
			c-0.376,0.781-1.215,1.374-2.357,1.374c-1.692,0-3.009-1.433-3.009-3.559c-0.015-2.329,1.446-3.746,3.139-3.746
			c1.085,0,1.794,0.506,2.112,1.056h0.028v-4.181H174.124z M172.865,412.692c0-0.159-0.014-0.376-0.058-0.535
			c-0.188-0.796-0.882-1.461-1.837-1.461c-1.316,0-2.098,1.157-2.098,2.69c0,1.417,0.709,2.589,2.068,2.589
			c0.854,0,1.635-0.578,1.866-1.519c0.044-0.174,0.058-0.348,0.058-0.55V412.692z"/>
		<path d="M185.305,415.816c0,1.62-0.333,2.59-0.998,3.212c-0.694,0.622-1.679,0.839-2.561,0.839c-0.839,0-1.765-0.203-2.329-0.579
			l0.318-0.983c0.463,0.304,1.187,0.564,2.054,0.564c1.302,0,2.257-0.68,2.257-2.459v-0.767h-0.029
			c-0.376,0.65-1.143,1.171-2.228,1.171c-1.735,0-2.979-1.475-2.979-3.413c0-2.373,1.548-3.703,3.168-3.703
			c1.215,0,1.866,0.622,2.185,1.2h0.028l0.044-1.056h1.128c-0.044,0.491-0.058,1.07-0.058,1.909V415.816z M184.031,412.605
			c0-0.217-0.015-0.405-0.072-0.564c-0.231-0.752-0.839-1.359-1.779-1.359c-1.215,0-2.083,1.027-2.083,2.647
			c0,1.374,0.709,2.517,2.068,2.517c0.796,0,1.505-0.492,1.765-1.302c0.073-0.217,0.102-0.463,0.102-0.68V412.605z"/>
		<path d="M187.328,412.026c0-0.824-0.014-1.533-0.058-2.184h1.114l0.058,1.389h0.043c0.318-0.94,1.1-1.533,1.953-1.533
			c0.13,0,0.231,0.014,0.347,0.028v1.201c-0.13-0.029-0.26-0.029-0.434-0.029c-0.896,0-1.533,0.665-1.707,1.62
			c-0.028,0.174-0.043,0.391-0.043,0.593v3.732h-1.273V412.026z"/>
		<path d="M198.264,413.285c0,2.59-1.808,3.718-3.486,3.718c-1.88,0-3.355-1.389-3.355-3.602c0-2.329,1.548-3.703,3.472-3.703
			C196.904,409.698,198.264,411.159,198.264,413.285z M192.724,413.357c0,1.533,0.868,2.69,2.112,2.69
			c1.215,0,2.126-1.143,2.126-2.719c0-1.187-0.593-2.677-2.098-2.677C193.375,410.652,192.724,412.041,192.724,413.357z"/>
		<path d="M205.727,414.92c0,0.737,0.015,1.374,0.059,1.924h-1.129l-0.072-1.143h-0.028c-0.318,0.564-1.071,1.302-2.314,1.302
			c-1.1,0-2.416-0.622-2.416-3.066v-4.094h1.272v3.862c0,1.33,0.42,2.242,1.562,2.242c0.854,0,1.446-0.594,1.678-1.172
			c0.072-0.174,0.116-0.405,0.116-0.651v-4.281h1.272V414.92z"/>
		<path d="M207.838,412.128c0-0.896-0.028-1.62-0.058-2.285h1.128l0.072,1.2h0.029c0.507-0.854,1.346-1.345,2.488-1.345
			c1.707,0,2.979,1.432,2.979,3.544c0,2.517-1.548,3.761-3.196,3.761c-0.926,0-1.736-0.405-2.155-1.1h-0.029v3.805h-1.259V412.128z
			 M209.097,413.994c0,0.188,0.015,0.361,0.058,0.521c0.231,0.883,0.998,1.49,1.91,1.49c1.345,0,2.126-1.1,2.126-2.705
			c0-1.389-0.737-2.589-2.083-2.589c-0.868,0-1.692,0.607-1.924,1.562c-0.044,0.159-0.087,0.348-0.087,0.507V413.994z"/>
		<path d="M215.663,416.844v-0.781l0.998-0.969c2.401-2.286,3.5-3.501,3.5-4.919c0-0.954-0.448-1.837-1.852-1.837
			c-0.854,0-1.562,0.435-1.996,0.796l-0.405-0.896c0.637-0.536,1.577-0.955,2.647-0.955c2.025,0,2.879,1.389,2.879,2.733
			c0,1.736-1.259,3.14-3.24,5.049l-0.738,0.694v0.029h4.21v1.056H215.663z"/>
		<path d="M223.197,411c0-0.535,0.361-0.911,0.854-0.911c0.521,0,0.854,0.376,0.854,0.911c0,0.506-0.333,0.896-0.868,0.896
			C223.545,411.896,223.197,411.506,223.197,411z M223.197,416.106c0-0.536,0.361-0.912,0.854-0.912
			c0.521,0,0.854,0.376,0.854,0.912c0,0.506-0.333,0.896-0.868,0.896C223.545,417.003,223.197,416.612,223.197,416.106z"/>
		<path d="M234.466,415.166c0,0.607,0.028,1.2,0.101,1.678h-1.143l-0.102-0.883h-0.043c-0.391,0.55-1.143,1.042-2.141,1.042
			c-1.418,0-2.142-0.998-2.142-2.011c0-1.692,1.505-2.618,4.21-2.604v-0.145c0-0.564-0.159-1.62-1.592-1.606
			c-0.665,0-1.345,0.188-1.837,0.521l-0.289-0.854c0.579-0.362,1.433-0.607,2.314-0.607c2.141,0,2.662,1.461,2.662,2.85V415.166z
			 M233.236,413.271c-1.389-0.028-2.966,0.218-2.966,1.577c0,0.839,0.55,1.215,1.187,1.215c0.926,0,1.519-0.578,1.721-1.172
			c0.044-0.145,0.059-0.289,0.059-0.404V413.271z"/>
		<path d="M236.519,406.573h1.273v10.271h-1.273V406.573z"/>
		<path d="M239.932,412.128c0-0.896-0.028-1.62-0.058-2.285h1.128l0.072,1.2h0.029c0.507-0.854,1.346-1.345,2.488-1.345
			c1.707,0,2.979,1.432,2.979,3.544c0,2.517-1.548,3.761-3.196,3.761c-0.926,0-1.736-0.405-2.155-1.1h-0.029v3.805h-1.259V412.128z
			 M241.19,413.994c0,0.188,0.015,0.361,0.058,0.521c0.231,0.883,0.998,1.49,1.91,1.49c1.345,0,2.126-1.1,2.126-2.705
			c0-1.389-0.737-2.589-2.083-2.589c-0.868,0-1.692,0.607-1.924,1.562c-0.044,0.159-0.087,0.348-0.087,0.507V413.994z"/>
		<path d="M248.161,406.573h1.273v4.383h0.028c0.203-0.361,0.521-0.694,0.912-0.911c0.376-0.217,0.824-0.347,1.302-0.347
			c0.94,0,2.444,0.578,2.444,2.979v4.166h-1.272v-4.021c0-1.128-0.42-2.068-1.62-2.068c-0.825,0-1.461,0.578-1.707,1.259
			c-0.072,0.188-0.087,0.376-0.087,0.607v4.224h-1.273V406.573z"/>
		<path d="M261.107,415.166c0,0.607,0.028,1.2,0.101,1.678h-1.143l-0.102-0.883h-0.043c-0.391,0.55-1.143,1.042-2.141,1.042
			c-1.418,0-2.142-0.998-2.142-2.011c0-1.692,1.505-2.618,4.21-2.604v-0.145c0-0.564-0.159-1.62-1.591-1.606
			c-0.666,0-1.346,0.188-1.838,0.521l-0.289-0.854c0.579-0.362,1.432-0.607,2.314-0.607c2.141,0,2.662,1.461,2.662,2.85V415.166z
			 M259.877,413.271c-1.389-0.028-2.965,0.218-2.965,1.577c0,0.839,0.55,1.215,1.187,1.215c0.926,0,1.519-0.578,1.721-1.172
			c0.044-0.145,0.058-0.289,0.058-0.404V413.271z"/>
		<path d="M266.559,415.947c0.274,0.028,0.593,0,1.027-0.044c0.737-0.101,1.432-0.391,1.967-0.911
			c0.622-0.564,1.07-1.389,1.244-2.488h-0.043c-0.521,0.637-1.273,0.998-2.229,0.998c-1.678,0-2.763-1.272-2.763-2.878
			c0-1.779,1.288-3.342,3.212-3.342s3.109,1.548,3.109,3.978c0,2.055-0.694,3.501-1.62,4.397c-0.723,0.709-1.721,1.144-2.733,1.259
			c-0.463,0.072-0.868,0.087-1.172,0.072V415.947z M267.021,410.552c0,1.171,0.709,1.996,1.809,1.996
			c0.854,0,1.519-0.42,1.852-0.984c0.072-0.13,0.115-0.26,0.115-0.477c0-1.606-0.593-2.836-1.938-2.836
			C267.788,408.251,267.021,409.206,267.021,410.552z"/>
		<path d="M273.979,415.947c0.274,0.028,0.593,0,1.027-0.044c0.737-0.101,1.432-0.391,1.967-0.911
			c0.622-0.564,1.07-1.389,1.244-2.488h-0.043c-0.521,0.637-1.273,0.998-2.229,0.998c-1.678,0-2.763-1.272-2.763-2.878
			c0-1.779,1.288-3.342,3.212-3.342s3.109,1.548,3.109,3.978c0,2.055-0.694,3.501-1.62,4.397c-0.723,0.709-1.721,1.144-2.733,1.259
			c-0.463,0.072-0.868,0.087-1.172,0.072V415.947z M274.441,410.552c0,1.171,0.709,1.996,1.809,1.996
			c0.854,0,1.519-0.42,1.852-0.984c0.072-0.13,0.115-0.26,0.115-0.477c0-1.606-0.593-2.836-1.938-2.836
			C275.208,408.251,274.441,409.206,274.441,410.552z"/>
		<path d="M284.885,410.074c0,1.981-1.027,2.965-2.242,2.965c-1.187,0-2.185-0.939-2.199-2.82c0-1.881,1.013-2.937,2.286-2.937
			C284.031,407.282,284.885,408.295,284.885,410.074z M281.441,410.161c-0.028,1.2,0.435,2.111,1.23,2.111
			c0.839,0,1.215-0.896,1.215-2.126c0-1.157-0.333-2.098-1.229-2.098C281.876,408.049,281.441,408.989,281.441,410.161z
			 M282.541,417.018l5.54-9.75h0.811l-5.54,9.75H282.541z M291.018,413.979c0,1.981-1.026,2.966-2.242,2.966
			c-1.186,0-2.184-0.94-2.198-2.836c0-1.88,1.013-2.936,2.285-2.936C290.164,411.174,291.018,412.186,291.018,413.979z
			 M287.575,414.066c-0.029,1.2,0.434,2.112,1.229,2.112c0.839,0,1.215-0.897,1.215-2.142c0-1.143-0.332-2.097-1.229-2.097
			C288.009,411.94,287.575,412.88,287.575,414.066z"/>
	</g>
</g>
</svg>
